<?xml version="1.0" encoding="UTF-8" standalone="no"?>
<!-- Created with Inkscape (http://www.inkscape.org/) -->

<svg
   width="308.56726mm"
   height="308.56726mm"
   viewBox="0 0 308.56726 308.56726"
   version="1.1"
   id="svg5"
   xml:space="preserve"
   inkscape:version="1.2.2 (732a01da63, 2022-12-09)"
   sodipodi:docname="logo-blue.svg"
   inkscape:export-filename="logo-blue.png"
   inkscape:export-xdpi="82.213448"
   inkscape:export-ydpi="82.213448"
   xmlns:inkscape="http://www.inkscape.org/namespaces/inkscape"
   xmlns:sodipodi="http://sodipodi.sourceforge.net/DTD/sodipodi-0.dtd"
   xmlns="http://www.w3.org/2000/svg"
   xmlns:svg="http://www.w3.org/2000/svg"><sodipodi:namedview
     id="namedview7"
     pagecolor="#ffffff"
     bordercolor="#000000"
     borderopacity="0.25"
     inkscape:showpageshadow="2"
     inkscape:pageopacity="0.0"
     inkscape:pagecheckerboard="0"
     inkscape:deskcolor="#d1d1d1"
     inkscape:document-units="mm"
     showgrid="false"
     inkscape:zoom="0.36925856"
     inkscape:cx="640.47263"
     inkscape:cy="666.19986"
     inkscape:window-width="1920"
     inkscape:window-height="1009"
     inkscape:window-x="-8"
     inkscape:window-y="1072"
     inkscape:window-maximized="1"
     inkscape:current-layer="layer1"
     inkscape:lockguides="false"><sodipodi:guide
       position="11.783634,296.78361"
       orientation="0,1077.1654"
       id="guide16267"
       inkscape:locked="false" /><sodipodi:guide
       position="296.78362,296.78361"
       orientation="1077.1654,0"
       id="guide16269"
       inkscape:locked="false" /><sodipodi:guide
       position="296.78362,11.783626"
       orientation="0,-1077.1654"
       id="guide16271"
       inkscape:locked="false" /><sodipodi:guide
       position="11.783634,11.783626"
       orientation="-1077.1654,0"
       id="guide16273"
       inkscape:locked="false" /></sodipodi:namedview><defs
     id="defs2" /><g
     inkscape:label="Layer 1"
     inkscape:groupmode="layer"
     id="layer1"
     transform="translate(49.75951,10.350582)"><rect
       style="fill:#022960;fill-opacity:1;stroke:#022960;stroke-width:163.038;stroke-linecap:round;stroke-linejoin:round;stroke-miterlimit:14.6;stroke-dasharray:none;stroke-opacity:1;paint-order:markers fill stroke"
       id="rect591"
       width="145.91389"
       height="145.91389"
       x="31.567173"
       y="70.976105" /><g
       id="g16265"
       transform="matrix(1.3609618,0,0,1.3609618,-37.729223,-51.954336)"><path
         id="path482"
         style="fill:#efd7b4;fill-opacity:1;stroke-width:3.01601;stroke-linecap:round;stroke-linejoin:round;stroke-miterlimit:14.6;paint-order:markers fill stroke"
         d="m 104.23825,79.460812 0.045,6.80682 h -6.672982 l 0.0227,2.0376 6.695192,0.11214 0.0894,13.076718 -30.631722,63.86018 1.79162,0.89556 29.894302,-61.66859 29.8943,61.66859 1.79162,-0.89556 -30.63172,-63.86018 0.0899,-13.076718 6.69468,-0.11214 0.0227,-2.0376 h -6.67298 l 0.045,-6.80682 -1.23352,0.0822 z" /><path
         id="rect561"
         style="fill:#ffffff;fill-opacity:1;stroke-width:2.79732;stroke-linecap:round;stroke-linejoin:round;stroke-miterlimit:14.6;paint-order:markers fill stroke"
         d="m 44.984288,59.001802 c -1.15199,39.25672 0,78.727598 0,118.004158 v 33.60209 c 0,5.88592 0.61489,12.16528 -0.26458,17.99166 l 8.46667,0.26459 0.52916,-136.524998 h 0.26459 l 11.72486,21.166658 20.54448,36.53162 11.57552,20.55224 7.219722,12.23698 c 9.61442,-19.3934 21.20739,-38.06087 31.89469,-56.88542 4.25,-7.48532 8.40735,-15.02357 12.69122,-22.4901 2.01242,-3.507578 3.70822,-7.394058 6.21409,-10.582818 V 228.8643 h 8.46667 l 0.26458,-169.597918 c -3.09747,3.58695 -4.9958,8.35184 -7.36699,12.43542 -5.28029,9.09319 -10.36185,18.31711 -15.45746,27.51666 -12.07478,21.799268 -25.63743,43.021278 -36.7068,65.352088 h -0.52917 L 91.518398,141.28721 67.568438,98.689302 51.648478,70.381982 Z M 138.14915,186.02712 c -0.51573,0.0179 -1.05516,0.0898 -1.61696,0.22324 -8.77992,2.08492 -5.46514,15.31016 3.17139,13.39247 8.55016,-1.8983 6.18147,-13.88383 -1.55443,-13.61571 z m -44.720792,0.002 c -0.51327,0.0142 -1.05069,0.0827 -1.61075,0.21239 -8.69049,2.01295 -5.53199,15.27941 3.14554,13.41727 8.425902,-1.80801 6.164352,-13.84228 -1.53479,-13.62966 z m -22.21518,0.015 c -0.51557,0.006 -1.05562,0.0664 -1.61902,0.18655 -8.81723,1.87986 -5.70168,15.19411 2.9068,13.44362 8.62384,-1.75344 6.44575,-13.72431 -1.28778,-13.63017 z m 44.713552,5.1e-4 c -0.51556,0.006 -1.05642,0.0646 -1.62109,0.18345 -8.77225,1.84626 -5.74778,15.25641 2.9099,13.42761 8.49213,-1.79363 6.44468,-13.69678 -1.28881,-13.61106 z m 33.27652,15.05076 c -0.24905,-0.01 -0.54417,0.0511 -0.89193,0.20051 -1.78858,0.76835 -2.0541,3.99448 -2.64015,5.60844 -1.99867,5.5036 -3.52129,11.1596 -5.49217,16.66875 -0.44265,1.23772 -1.72131,5.69394 1.26504,4.87929 1.86505,-0.50906 2.45473,-3.85033 2.97966,-5.40846 1.91955,-5.69594 4.04129,-11.42153 5.69784,-17.19791 0.32296,-1.12629 0.82509,-4.68045 -0.91829,-4.75062 z m -44.70269,0.004 c -0.24067,1.1e-4 -0.52376,0.0638 -0.85525,0.20516 -1.81981,0.7755 -2.17333,3.96134 -2.74298,5.60017 -1.889382,5.43533 -3.606152,10.92942 -5.385212,16.40417 -0.4048,1.24646 -1.81528,6.00404 1.24489,5.1542 1.99787,-0.55456 2.41127,-4.02761 2.93832,-5.68337 1.857892,-5.83723 3.932152,-11.60993 5.747452,-17.46198 0.34819,-1.12213 0.73746,-4.21912 -0.94722,-4.21835 z m -35.757512,0.0238 c -0.2458,-0.008 -0.53917,0.051 -0.88832,0.19172 -1.91929,0.77391 -2.3911,4.1402 -2.9962,5.85442 -2.01031,5.69304 -3.71943,11.48134 -5.65908,17.19792 -0.45561,1.34302 -0.85994,5.01721 1.76578,4.10466 1.84045,-0.6395 2.33404,-4.09037 2.84892,-5.69216 1.84785,-5.74648 3.79177,-11.45964 5.66529,-17.19792 0.3593,-1.10036 0.98423,-4.40409 -0.73639,-4.45864 z m 44.716652,0.0532 c -0.25096,-0.0289 -0.55453,0.014 -0.91932,0.14728 -1.92643,0.70405 -2.16311,3.92502 -2.77245,5.58105 -2.0558,5.58641 -3.56725,11.35037 -5.62756,16.93333 -0.48762,1.32186 -1.48973,5.24204 1.32809,4.68086 1.8182,-0.36221 2.49282,-3.74211 2.98018,-5.21002 1.88144,-5.67028 3.9782,-11.36183 5.63634,-17.0956 0.31809,-1.10037 1.13146,-4.83464 -0.62528,-5.0369 z m -30.415202,0.0238 c -0.25025,-0.0305 -0.52065,0.005 -0.8139,0.12351 -2.02645,0.81756 -0.52859,4.18775 -0.12351,5.58105 1.62454,5.58667 3.53768,11.14399 5.36091,16.66875 0.47704,1.44489 1.54393,5.85332 3.89899,4.78679 1.95471,-0.8853 0.38606,-4.22005 -0.0677,-5.58054 -1.84572,-5.53243 -3.48491,-11.14081 -5.34334,-16.66875 -0.41324,-1.22909 -1.15971,-4.69701 -2.91145,-4.91081 z m -9.19169,0.008 c -0.13932,0.0182 -0.28454,0.056 -0.43614,0.11524 -2.07778,0.81147 -0.66974,4.18855 -0.16227,5.58105 1.98491,5.44697 3.85257,11.08367 5.41414,16.66875 0.39211,1.40255 1.46083,5.70434 3.71244,4.78731 2.00897,-0.81836 0.5533,-4.21555 0.11833,-5.58106 -1.74148,-5.46734 -3.361,-11.01619 -5.32473,-16.40417 -0.48741,-1.33771 -1.23191,-5.44005 -3.32177,-5.16712 z m 53.703192,0.0124 c -0.14199,0.0178 -0.29067,0.0553 -0.447,0.11369 -2.04364,0.76359 -0.76647,4.15044 -0.33228,5.5702 1.70866,5.58747 3.70407,11.09848 5.47201,16.66875 0.45614,1.43748 1.51605,5.84781 3.85972,4.80694 2.02906,-0.9009 0.46463,-4.20898 -0.0233,-5.60069 -1.9005,-5.41866 -3.66205,-10.93311 -5.4038,-16.40417 -0.43285,-1.35954 -0.99567,-5.42221 -3.12539,-5.15472 z m -8.58914,0.002 c -0.24338,-0.034 -0.50583,-0.002 -0.7891,0.11162 -2.14207,0.85857 -0.31798,4.92567 0.108,6.36395 1.62322,5.47793 3.3573,11.03869 5.31337,16.40417 0.50271,1.37901 1.34118,5.01987 3.51658,4.32428 2.18386,-0.6985 0.5483,-4.33037 0.0739,-5.6472 -1.97246,-5.4766 -3.4629,-11.15642 -5.34541,-16.66875 -0.40607,-1.18881 -1.17368,-4.64988 -2.87734,-4.88807 z" /></g></g></svg>
