<?xml version="1.0" encoding="UTF-8" standalone="no"?>
<!-- Created with Inkscape (http://www.inkscape.org/) -->

<svg
   width="174.06688mm"
   height="113.24406mm"
   viewBox="0 0 174.06688 113.24406"
   version="1.1"
   id="svg5"
   xml:space="preserve"
   inkscape:version="1.2.2 (732a01da63, 2022-12-09)"
   sodipodi:docname="dcm-logo.svg"
   xmlns:inkscape="http://www.inkscape.org/namespaces/inkscape"
   xmlns:sodipodi="http://sodipodi.sourceforge.net/DTD/sodipodi-0.dtd"
   xmlns="http://www.w3.org/2000/svg"
   xmlns:svg="http://www.w3.org/2000/svg"><sodipodi:namedview
     id="namedview7"
     pagecolor="#ffffff"
     bordercolor="#000000"
     borderopacity="0.25"
     inkscape:showpageshadow="2"
     inkscape:pageopacity="0.0"
     inkscape:pagecheckerboard="0"
     inkscape:deskcolor="#d1d1d1"
     inkscape:document-units="mm"
     showgrid="false"
     inkscape:zoom="0.73851712"
     inkscape:cx="255.24121"
     inkscape:cy="463.09015"
     inkscape:window-width="1920"
     inkscape:window-height="1009"
     inkscape:window-x="-8"
     inkscape:window-y="1072"
     inkscape:window-maximized="1"
     inkscape:current-layer="layer1" /><defs
     id="defs2" /><g
     inkscape:label="Layer 1"
     inkscape:groupmode="layer"
     id="layer1"
     transform="translate(-21.709577,-26.113454)"><path
       style="fill:#000000;stroke-width:0.264583"
       d="m 54.385619,139.00714 c -4.407919,-1.12673 -7.014681,-4.31143 -7.960773,-9.72575 -1.050301,-6.01068 0.386183,-12.3031 3.57944,-15.6795 2.418175,-2.55686 5.802288,-3.81072 9.477163,-3.5114 2.169739,0.17672 4.232677,0.63857 4.454348,0.99724 0.08166,0.13213 -0.0038,1.31576 -0.189799,2.63029 -0.2759,1.94933 -0.41388,2.3658 -0.748287,2.25856 -4.342132,-1.39252 -6.627857,-1.25591 -8.702744,0.52011 -2.600478,2.22591 -3.640481,8.17847 -2.24809,12.86715 1.271979,4.28323 4.981051,5.94582 9.686928,4.34218 l 1.791935,-0.61064 0.123868,0.55132 c 0.139882,0.62263 0.652822,3.8906 0.655888,4.17872 0.0011,0.1033 -0.801674,0.44347 -1.783939,0.75594 -2.2,0.69986 -6.23718,0.91114 -8.135938,0.42578 z M 67.747077,82.736584 c 0,-31.32503 0.101423,-56.62083 0.227021,-56.62083 0.124859,0 0.532307,0.58843 0.905438,1.30762 0.373129,0.7192 1.163939,2.13895 1.757355,3.15502 0.593415,1.01607 1.078936,1.92731 1.078936,2.02497 0,0.0977 0.222375,0.49362 0.494168,0.87988 0.271791,0.38627 1.146048,1.89293 1.942793,3.34814 0.796745,1.45521 2.258457,4.07458 3.248247,5.82083 0.989791,1.74625 2.156741,3.82984 2.593224,4.63021 0.436483,0.80036 0.884896,1.57427 0.996471,1.71979 0.111577,0.14552 0.615413,1.03849 1.119635,1.98437 0.504224,0.94589 1.659501,3.02948 2.567286,4.63021 0.907783,1.60073 2.219703,3.92245 2.915375,5.15938 0.695672,1.23692 2.009381,3.55864 2.919352,5.15937 0.909971,1.60073 1.978427,3.50573 2.374347,4.23334 2.225514,4.08996 3.862875,6.82224 4.087205,6.82035 0.29942,-0.003 0.20383,0.17228 2.21039,-4.04223 1.90019,-3.99108 4.91827,-10.27004 6.68867,-13.91541 l 1.29701,-2.67062 v -4.40698 -4.40699 h -2.38126 c -2.1891,0 -2.38125,-0.0419 -2.38125,-0.51886 0,-0.47008 0.2177,-0.52606 2.31511,-0.59532 l 2.31511,-0.0764 0.0764,-2.3151 c 0.0747,-2.26258 0.0912,-2.31511 0.72761,-2.31511 0.64358,0 0.65115,0.0277 0.65115,2.38125 v 2.38125 h 2.24896 c 2.07257,0 2.24896,0.0415 2.24896,0.52917 0,0.48766 -0.17639,0.52917 -2.24896,0.52917 h -2.24896 v 4.46465 c 0,4.89774 0.0179,4.98401 1.84937,8.89681 0.61302,1.30968 1.32807,2.91703 1.58899,3.57187 0.26093,0.65484 0.83314,1.96453 1.27158,2.91042 0.84195,1.81643 3.36522,7.55139 4.16733,9.47163 0.26127,0.6255 0.56618,1.19359 0.67757,1.26243 0.11139,0.0688 0.64659,-0.68105 1.18934,-1.66643 0.54274,-0.98537 1.5025,-2.65277 2.13278,-3.70532 0.63028,-1.05255 1.14596,-2.00717 1.14596,-2.12139 0,-0.11422 0.27953,-0.62226 0.62117,-1.12898 0.34164,-0.50673 1.19376,-1.99288 1.89359,-3.30257 0.69983,-1.30969 1.47653,-2.6789 1.72602,-3.04271 0.24948,-0.3638 0.69152,-1.1377 0.98231,-1.71979 0.6688,-1.33879 3.91319,-7.08775 4.73781,-8.39526 0.34234,-0.54281 0.62243,-1.08072 0.62243,-1.19535 0,-0.11464 0.28061,-0.62302 0.62357,-1.12974 0.54597,-0.80666 1.88773,-3.17873 4.41233,-7.80048 0.39745,-0.7276 1.70725,-3.04932 2.91066,-5.15938 1.20342,-2.11005 2.44968,-4.3127 2.76947,-4.89479 0.3198,-0.58208 0.9882,-1.77271 1.48534,-2.64583 0.49714,-0.87313 1.19966,-2.15357 1.56116,-2.84544 l 0.65727,-1.25795 0.19098,52.19024 c 0.10504,28.704616 0.12117,54.184526 0.0358,56.621996 l -0.15514,4.43177 h -2.74707 -2.74708 l -0.0669,-45.839056 -0.0669,-45.83906 -0.68942,1.32292 c -0.37918,0.7276 -1.67718,3.04932 -2.88445,5.15937 -1.20727,2.11005 -2.51687,4.43177 -2.91022,5.15938 -0.39336,0.7276 -1.46504,2.6326 -2.38151,4.23333 -0.91648,1.60073 -2.22599,3.92245 -2.91002,5.15937 -0.68403,1.23693 -2.15411,3.82966 -3.26685,5.76164 -1.11274,1.93197 -2.02316,3.57486 -2.02316,3.65088 0,0.076 -0.58492,1.11468 -1.29981,2.30815 -0.7149,1.19348 -1.57035,2.73197 -1.90099,3.41887 l -0.60118,1.24892 0.56401,1.26462 c 0.3102,0.69555 1.23891,2.81244 2.0638,4.70421 0.82488,1.89177 1.96231,4.43353 2.52761,5.64835 0.5653,1.21483 1.02781,2.30341 1.02781,2.41909 0,0.18031 -0.62212,0.53152 -0.94151,0.53152 -0.1394,0 -1.17516,-2.1538 -1.17516,-2.44368 0,-0.1252 -0.54766,-1.38275 -1.21702,-2.79458 -0.66937,-1.41182 -1.36993,-2.98367 -1.55681,-3.49299 -0.36854,-1.00446 -2.01501,-4.49791 -2.11987,-4.49791 -0.0354,0 -1.04815,1.75617 -2.25057,3.9026 -1.20241,2.14643 -2.52763,4.44881 -2.94493,5.11639 -0.41729,0.66759 -0.75871,1.29845 -0.75871,1.40192 0,0.10348 -0.59531,1.17728 -1.32292,2.38623 -0.7276,1.208946 -1.32292,2.272626 -1.32292,2.363726 0,0.0911 -0.47251,0.93763 -1.05002,1.88117 -0.57751,0.94355 -1.41266,2.43393 -1.85589,3.31195 -0.44323,0.87803 -0.86197,1.59642 -0.93054,1.59642 -0.0686,0 -0.471,-0.68461 -0.89429,-1.52135 -0.42329,-0.83675 -1.31798,-2.44752 -1.98819,-3.5795 -0.67021,-1.13198 -1.21857,-2.109 -1.21857,-2.17117 0,-0.0622 -0.37451,-0.74334 -0.83225,-1.513726 -0.45773,-0.77039 -1.21589,-2.11508 -1.6848,-2.98821 -1.02803,-1.91424 -5.603251,-10.0572 -6.160871,-10.96509 -0.45279,-0.7372 0.16286,-1.83292 -4.794201,8.53252 -1.370555,2.86588 -2.56118,5.20888 -2.645834,5.20665 -0.08466,-0.002 -0.305726,-0.1004 -0.49127,-0.21815 -0.354338,-0.22487 0.155511,-1.59446 1.788694,-4.80489 0.407155,-0.80036 1.709637,-3.5118 2.894405,-6.02542 l 2.154116,-4.57022 -1.115129,-2.04436 c -0.613326,-1.12441 -1.450716,-2.57369 -1.860873,-3.22065 -0.410155,-0.64695 -0.745736,-1.2744 -0.745736,-1.39432 0,-0.11992 -0.286896,-0.67251 -0.637546,-1.22798 -0.730215,-1.15673 -3.999944,-6.91963 -4.600096,-8.10767 -0.220535,-0.43656 -0.918223,-1.65492 -1.550416,-2.70747 -0.632192,-1.05255 -1.149442,-1.97163 -1.149442,-2.04241 0,-0.0708 -0.595313,-1.13656 -1.322917,-2.36842 -0.727604,-1.23186 -1.322917,-2.30498 -1.322917,-2.38471 0,-0.0797 -0.467868,-0.90936 -1.039706,-1.84364 -0.571836,-0.93427 -1.270847,-2.15676 -1.553351,-2.71664 -0.282506,-0.55987 -1.154091,-2.1478 -1.936858,-3.52872 l -1.42321,-2.51075 -0.144325,45.77013 c -0.07938,25.173566 -0.168677,45.799886 -0.198437,45.836266 -0.02976,0.0364 -1.304269,0.0662 -2.832238,0.0662 h -2.778125 z m 41.483433,11.50937 c 0.56773,-1.01864 1.84187,-3.28083 2.83141,-5.02708 0.98954,-1.74625 2.16118,-3.82984 2.60365,-4.63021 0.44248,-0.80036 1.13819,-1.98224 1.54603,-2.6264 1.15377,-1.8223 1.19237,-2.58874 0.22672,-4.50168 -0.45696,-0.90524 -1.22503,-2.61854 -1.70681,-3.80734 -0.48178,-1.18879 -1.30221,-3.05442 -1.82317,-4.14582 -1.11035,-2.32616 -3.91311,-8.63377 -4.55569,-10.25261 -0.2455,-0.61846 -0.52804,-1.12448 -0.62788,-1.12448 -0.0998,0 -1.17907,2.11336 -2.39828,4.69636 -1.21921,2.58299 -3.31944,6.96623 -4.66718,9.74053 -1.34774,2.7743 -2.52747,5.35108 -2.62162,5.72619 -0.18868,0.75176 0.079,1.37065 1.89145,4.37252 0.63549,1.05255 1.15544,1.97163 1.15544,2.0424 0,0.0708 0.59531,1.13657 1.32291,2.36843 0.72761,1.23186 1.32292,2.2999 1.32292,2.37343 0,0.0735 0.59509,1.12313 1.32241,2.33244 0.72733,1.20931 1.32264,2.29059 1.32292,2.40285 0.001,0.45033 1.42192,2.31665 1.6152,2.12168 0.11402,-0.11502 0.67183,-1.04256 1.23957,-2.06121 z M 77.470515,139.07163 c -0.675182,-0.39326 -0.581364,-1.13772 0.567325,-4.50187 0.566692,-1.65966 1.779129,-5.33928 2.69431,-8.17693 0.915178,-2.83766 1.775788,-5.30821 1.912467,-5.49011 0.315772,-0.42025 1.30366,-0.42786 1.718294,-0.0132 0.481224,0.48123 0.406537,0.92374 -0.755113,4.47408 -0.589936,1.80302 -1.313545,4.05212 -1.608019,4.99801 -0.294476,0.94588 -0.817208,2.49369 -1.161629,3.43958 -0.344419,0.94589 -0.819859,2.40432 -1.056534,3.24097 -0.601046,2.1247 -1.21779,2.6663 -2.311101,2.0295 z m 14.265955,-0.10429 c -0.21454,-0.21454 -0.712748,-1.43493 -1.107133,-2.71198 -0.736939,-2.38627 -2.73466,-8.54012 -3.459345,-10.65628 -0.955207,-2.78932 -1.1898,-3.96031 -0.90137,-4.49925 0.296228,-0.55351 0.943071,-0.67616 1.547125,-0.29337 0.36377,0.23053 1.643025,3.588 2.279716,5.98324 0.193411,0.72761 0.766218,2.51354 1.272908,3.96875 1.00621,2.88982 1.8831,5.67058 2.150144,6.81845 0.331142,1.42339 -0.837369,2.33511 -1.782045,1.39044 z m 5.86707,-0.0729 c -0.21343,-0.25466 -0.72477,-1.53458 -1.1363,-2.84427 -0.411541,-1.30969 -1.213261,-3.75047 -1.781621,-5.42396 -0.56835,-1.67349 -1.428808,-4.37834 -1.912131,-6.01077 -0.791247,-2.67245 -0.840211,-3.02311 -0.491625,-3.52078 0.566206,-0.80837 1.43963,-0.57115 1.972436,0.53572 0.24517,0.50932 1.23405,3.42635 2.197521,6.48229 0.96347,3.05594 1.99713,6.27062 2.29702,7.14375 0.73266,2.13307 0.87516,3.23243 0.48063,3.70781 -0.43767,0.52736 -1.15113,0.49674 -1.62593,-0.0698 z m 3.79854,0.14552 c -0.17463,-0.17463 -0.3175,-0.59436 -0.3175,-0.93274 0,-0.53831 2.08651,-7.20227 3.83349,-12.24351 0.32778,-0.94589 0.81741,-2.4126 1.08805,-3.25936 0.57144,-1.78782 0.91274,-2.1527 1.80426,-1.92894 1.05454,0.26467 1.04257,0.99233 -0.071,4.31589 -0.57519,1.71675 -1.84234,5.56177 -2.8159,8.54449 -0.97355,2.98272 -1.90816,5.51097 -2.07691,5.61835 -0.45969,0.29249 -1.08747,0.24287 -1.44452,-0.11418 z m 5.69341,-0.20945 c -0.32915,-0.46993 -0.17047,-1.13563 1.46625,-6.15156 1.00943,-3.09354 2.12127,-6.37001 2.47075,-7.28104 0.34948,-0.91104 0.63542,-1.89805 0.63542,-2.19336 0,-0.2953 0.24055,-1.00843 0.53455,-1.58471 0.40258,-0.78913 0.69421,-1.0478 1.18131,-1.0478 1.49477,0 1.37932,1.38891 -0.5938,7.14375 -0.57378,1.67349 -1.61344,4.76912 -2.31037,6.87917 -0.69693,2.11005 -1.3737,4.04482 -1.50393,4.29948 -0.3193,0.62437 -1.42439,0.58679 -1.88018,-0.0639 z m 14.56809,0.0639 c -0.31485,-0.35987 -3.76161,-10.56276 -5.55141,-16.43295 -0.23064,-0.75643 -0.19237,-0.96725 0.25713,-1.41676 1.04896,-1.04896 1.75979,-0.26646 2.81533,3.09919 1.27986,4.08091 3.19865,10.032 3.75358,11.64166 0.35118,1.01865 0.63793,2.09617 0.63723,2.39448 -0.003,1.12222 -1.17257,1.55937 -1.91186,0.71438 z m 5.93387,0.13185 c -0.3099,-0.3734 -2.37124,-6.18413 -2.69833,-7.60633 -0.11713,-0.50932 -0.68762,-2.29526 -1.26774,-3.96875 -1.92545,-5.55438 -2.02438,-6.62313 -0.63227,-6.83054 0.63664,-0.0949 1.50404,1.10143 1.77951,2.45423 0.0901,0.44244 0.79342,2.70944 1.56295,5.03777 3.69697,11.18582 3.42034,10.16401 2.9057,10.73268 -0.53025,0.58592 -1.24836,0.66468 -1.64982,0.18094 z m 3.51679,-0.19861 c -0.46432,-0.51306 -0.45807,-0.5861 0.19826,-2.3151 0.37273,-0.98193 0.92457,-2.55923 1.22631,-3.50512 0.30173,-0.94589 1.14772,-3.56526 1.87998,-5.82083 0.73226,-2.25558 1.4644,-4.51776 1.62698,-5.02709 0.40009,-1.25335 0.70739,-1.5875 1.45994,-1.5875 1.38363,0 1.25192,1.49889 -0.58122,6.61459 -0.54753,1.52797 -1.09107,3.19484 -1.20787,3.70416 -0.3733,1.62776 -2.50321,7.61334 -2.86371,8.04771 -0.47327,0.57026 -1.16203,0.52636 -1.73867,-0.11082 z m 19.18284,-13.76802 v -14.2978 l 2.31511,0.0765 2.3151,0.0764 0.0713,5.75469 0.0713,5.75469 h 5.28135 5.28135 l 0.0713,-5.75469 0.0713,-5.75469 h 2.38125 2.38125 l 0.0684,14.22136 0.0684,14.22135 h -2.51583 -2.51585 v -6.21771 -6.21771 h -5.29166 -5.29167 v 6.21771 6.21771 h -2.38125 -2.38125 z m 26.19375,0.0103 v -14.2875 h 2.38125 2.38125 l 0.008,6.41615 c 0.008,5.8042 0.0469,6.36567 0.41162,5.88698 0.22177,-0.29104 2.07419,-3.17831 4.11651,-6.41615 l 3.71329,-5.88698 h 2.88654 c 1.5876,0 2.88654,0.0443 2.88654,0.0983 0,0.0541 -2.02406,3.09851 -4.49792,6.76538 -2.47385,3.66688 -4.49792,6.78106 -4.49792,6.9204 0,0.13934 2.13671,3.52429 4.74823,7.52212 l 4.74823,7.26878 -3.22687,-0.012 -3.22688,-0.012 -3.96875,-6.75156 -3.96875,-6.75156 -0.0706,6.76359 -0.0706,6.76361 h -2.37678 -2.37679 v -14.2875 z M 22.701765,138.90009 21.709577,138.7963 v -14.09933 -14.09933 l 2.579688,-0.17083 c 6.314883,-0.41818 9.291785,-0.10143 12.153551,1.29315 2.939163,1.43229 4.746489,3.83127 5.672242,7.52912 0.550206,2.19775 0.473993,8.186 -0.129643,10.18645 -1.508386,4.99881 -4.902652,8.26869 -9.621118,9.26855 -1.669302,0.35373 -7.101282,0.46392 -9.662532,0.19601 z m 9.658153,-5.09723 c 3.458371,-1.29394 5.197578,-4.9868 4.894794,-10.39313 -0.169422,-3.02508 -0.925505,-5.15144 -2.331763,-6.5577 -1.307951,-1.30795 -3.068122,-1.83629 -6.117644,-1.83629 h -2.333228 v 9.48091 c 0,5.21449 0.07937,9.56027 0.176389,9.65729 0.409043,0.40904 4.322854,0.16846 5.711452,-0.35108 z m 51.262159,-14.21613 c -1.457298,-0.26318 -2.913401,-2.44879 -2.906064,-4.36201 0.0051,-1.32561 0.837853,-2.94352 1.933279,-3.75597 0.596982,-0.44278 1.13249,-0.55405 2.666428,-0.55405 1.694855,0 2.03313,0.0867 2.891293,0.74128 1.291823,0.98532 1.765064,1.97837 1.765064,3.7038 0,1.17393 -0.144446,1.62805 -0.810154,2.54704 -1.192908,1.64676 -2.883924,2.15954 -5.539846,1.67991 z m 14.923783,0.0256 c -0.30489,-0.0686 -1.01926,-0.60084 -1.5875,-1.18276 -1.021071,-1.04568 -1.033161,-1.08201 -1.033161,-3.1064 0,-1.78677 0.0845,-2.15454 0.661461,-2.8799 1.20537,-1.51532 3.67074,-2.06069 5.82083,-1.28762 1.07645,0.38703 2.31062,2.16148 2.55628,3.67532 0.19004,1.17111 -0.91879,3.67065 -1.91913,4.3261 -0.63347,0.41506 -3.4228,0.69734 -4.49878,0.45526 z m 14.97414,-0.0143 c -0.88449,-0.18066 -1.27401,-0.52698 -2.16186,-1.92214 -1.31425,-2.06519 -0.72909,-4.90026 1.29112,-6.25548 1.09176,-0.73239 4.26235,-0.70844 5.26581,0.0398 1.45232,1.0829 1.82264,1.85906 1.82264,3.82011 0,1.95283 -0.37085,2.7369 -1.79873,3.80297 -0.71842,0.53637 -3.00761,0.80304 -4.41898,0.51476 z m 14.89888,-0.004 c -0.83073,-0.16142 -2.37726,-1.97979 -2.75438,-3.23852 -0.81265,-2.71237 1.50953,-5.57269 4.52425,-5.57269 2.03834,0 3.6103,1.01119 4.35952,2.80434 0.72147,1.72671 0.42853,3.16732 -0.98406,4.83929 -1.01003,1.1955 -2.85135,1.61334 -5.14533,1.16758 z"
       id="path302" /></g></svg>
