<?xml version="1.0" encoding="UTF-8" standalone="no"?>
<!-- Created with Inkscape (http://www.inkscape.org/) -->

<svg
   width="94.505356mm"
   height="94.504997mm"
   viewBox="0 0 94.505354 94.504996"
   version="1.1"
   id="svg5"
   xml:space="preserve"
   inkscape:version="1.2.2 (732a01da63, 2022-12-09)"
   sodipodi:docname="dczm-vesmir-white.svg"
   xmlns:inkscape="http://www.inkscape.org/namespaces/inkscape"
   xmlns:sodipodi="http://sodipodi.sourceforge.net/DTD/sodipodi-0.dtd"
   xmlns="http://www.w3.org/2000/svg"
   xmlns:svg="http://www.w3.org/2000/svg"><sodipodi:namedview
     id="namedview7"
     pagecolor="#ffffff"
     bordercolor="#000000"
     borderopacity="0.25"
     inkscape:showpageshadow="2"
     inkscape:pageopacity="0.0"
     inkscape:pagecheckerboard="0"
     inkscape:deskcolor="#d1d1d1"
     inkscape:document-units="mm"
     showgrid="false"
     inkscape:zoom="1.829812"
     inkscape:cx="237.45609"
     inkscape:cy="225.15974"
     inkscape:window-width="2560"
     inkscape:window-height="1369"
     inkscape:window-x="-8"
     inkscape:window-y="-8"
     inkscape:window-maximized="1"
     inkscape:current-layer="g1836" /><defs
     id="defs2" /><g
     inkscape:label="Layer 1"
     inkscape:groupmode="layer"
     id="layer1"
     transform="translate(-43.987324,-23.907995)"><g
       id="g1836"><path
         id="rect2633"
         style="fill:#ffffff;fill-opacity:1;stroke-width:171.753;stroke-linecap:round;stroke-miterlimit:14.6;paint-order:markers fill stroke"
         d="m 94.36371,48.63189 c -0.177159,-4.23e-4 -0.352702,0.01338 -0.525906,0.04467 -2.105859,0.380902 -4.258205,1.882806 -6.21564,2.736831 -5.074944,2.214008 -10.182975,4.471693 -15.166172,6.882368 -4.175168,2.020085 -8.231755,4.410904 -12.928539,4.411158 -5.376178,2.44e-4 -4.801361,0.292766 -10.179355,0.292766 -1.16655,0 -4.796561,-0.600677 -5.305149,0.797842 -0.384151,1.056406 0.874689,1.176555 1.575763,1.18971 2.235814,0.042 4.476633,9.4e-4 6.712895,9.4e-4 5.377272,0 6.188171,0.861434 11.422484,-0.409794 2.774661,-0.673766 5.200755,-2.576079 7.956024,-3.363726 0.450012,2.062108 4.995639,1.338379 6.712899,1.220786 5.28379,-0.361751 10.609114,-0.466451 15.912045,-0.474909 1.056416,-0.0017 4.597331,0.21518 5.149275,-0.82357 0.608396,-1.144672 -0.923619,-1.398697 -1.668998,-1.412605 -2.503171,-0.04725 -4.961347,0.247166 -7.458286,0.247166 -2.340565,0 -4.633892,0.136979 -6.961527,0.238916 -3.369373,0.147437 -6.830995,0.25646 -10.193654,0.258339 v -0.248143 c 4.778336,-1.375891 9.691184,-4.112234 14.171672,-6.279737 1.987506,-0.961686 4.740547,-2.837256 6.961518,-2.996627 2.353497,-0.169059 5.454599,1.549865 7.707401,2.209469 6.33522,1.854991 12.60707,3.977784 18.89556,5.98693 4.30271,1.374651 8.63875,2.647073 12.92854,4.062985 0.9137,0.301583 3.71474,1.612448 4.46361,0.596316 0.57357,-0.7787 -0.36689,-1.477771 -0.98771,-1.74281 -1.74261,-0.743388 -3.66213,-1.137605 -5.46491,-1.713672 -7.78224,-2.486245 -15.54857,-5.046452 -23.37082,-7.402926 -3.49195,-1.051934 -6.94262,-2.242753 -10.442283,-3.267586 -1.141683,-0.334369 -2.460612,-1.038149 -3.700737,-1.041118 z M 73.161565,64.475958 c -0.302864,-0.01542 -0.621118,8.36e-4 -0.954199,0.05292 -5.754935,0.900024 -4.234091,9.192186 1.491755,8.318765 5.061467,-0.771982 4.005408,-8.140384 -0.537556,-8.371688 z m 15.688677,0.0063 c -0.157022,0.0054 -0.317812,0.019 -0.482201,0.04127 -5.900375,0.799326 -4.309672,9.237056 1.491755,8.324102 5.137217,-0.80831 3.857926,-8.53151 -1.009554,-8.365373 z m 32.326208,0.184526 c -0.31501,0.0086 -0.64338,0.04958 -0.98431,0.127224 -5.50606,1.25407 -3.17694,9.492502 2.23763,8.185227 5.15401,-1.244448 3.47173,-8.441367 -1.25332,-8.312451 z m -15.88874,0.02671 c -0.32007,-0.0056 -0.65619,0.02119 -1.00762,0.08449 -5.491144,0.989529 -3.61874,9.221994 1.74038,8.289147 5.24677,-0.913227 4.06818,-8.28971 -0.73276,-8.373634 z m -8.850504,9.587626 c -0.09922,0.0016 -0.21002,0.01763 -0.333608,0.04953 -1.169779,0.301837 -1.422678,2.817184 -1.676281,3.791058 -0.99573,3.82436 -2.083983,7.632323 -3.149091,11.436781 -0.202136,0.722009 -1.478354,4.169507 0.321947,3.934313 1.268738,-0.165592 1.534519,-2.717775 1.812733,-3.685681 1.11509,-3.881043 2.141755,-7.787955 3.197177,-11.685413 0.182271,-0.673155 1.315441,-3.864852 -0.172877,-3.840588 z M 81.17489,74.30831 c -1.684963,0.188708 -0.206374,3.447677 0.05244,4.310649 1.17103,3.902674 2.419001,7.782739 3.590021,11.685404 0.257334,0.85801 0.664764,3.586995 2.032705,3.239423 1.588721,-0.40352 0.14677,-3.333157 -0.117029,-4.233923 C 85.588356,85.40048 84.349406,81.514946 83.140582,77.62445 82.85268,76.697833 82.563717,74.15267 81.174886,74.30831 Z m -6.332188,0.06944 c -1.48098,0.02675 -0.352329,3.03584 -0.149078,3.743952 1.113337,3.879304 2.172196,7.783237 3.202996,11.685413 0.274239,1.037763 0.505421,3.440554 1.772919,3.736668 1.933811,0.452 0.657612,-2.992276 0.455974,-3.736668 -1.056661,-3.90118 -2.127313,-7.79691 -3.229219,-11.685413 -0.281201,-0.991268 -0.490987,-3.444718 -1.721929,-3.708018 -0.122976,-0.02629 -0.232931,-0.03772 -0.331663,-0.03593 z m 38.992968,0.06313 c -0.16027,-0.01333 -0.33656,0.01855 -0.53027,0.106344 -1.31671,0.596955 0.13495,3.415352 0.41616,4.320356 1.20807,3.887507 2.38647,7.785971 3.55651,11.685413 0.26354,0.877903 0.64765,3.600818 2.11429,3.067517 1.39031,-0.505458 0.0439,-3.39123 -0.24231,-4.310649 -1.21181,-3.891482 -2.38302,-7.795162 -3.59731,-11.685413 -0.24518,-0.785776 -0.59517,-3.090276 -1.71707,-3.183568 z m -43.565351,0.01651 c -0.139422,0.0018 -0.30332,0.033 -0.494823,0.09954 -1.110859,0.386118 -1.395536,2.830584 -1.709302,3.813394 -1.210807,3.793783 -2.429603,7.610448 -3.531262,11.436791 -0.201885,0.701627 -1.539109,4.226208 0.43995,3.736668 1.158099,-0.286172 1.540769,-2.769513 1.832158,-3.736668 1.199618,-3.981984 2.368337,-7.981145 3.659947,-11.934036 0.22036,-0.674602 1.151088,-3.432736 -0.196668,-3.415689 z m 58.634891,0.0083 c -0.1346,-4.7e-4 -0.29214,0.02827 -0.47637,0.09129 -1.12478,0.384623 -1.35675,2.817409 -1.61607,3.813394 -1.01713,3.906658 -2.09838,7.805367 -3.21223,11.685413 -0.20387,0.710818 -1.3752,4.036204 0.54096,3.542435 1.20236,-0.309786 1.47735,-2.797046 1.7399,-3.791057 1.05244,-3.983478 2.12927,-7.972688 3.26127,-11.934036 0.19355,-0.67775 1.06367,-3.402835 -0.23746,-3.407439 z m -26.26207,0.06411 c -0.0967,0.0026 -0.20435,0.01866 -0.32389,0.04953 -1.1131,0.287159 -1.41196,2.614794 -1.69814,3.542425 -1.174251,3.808941 -2.413304,7.606962 -3.516206,11.436782 -0.227743,0.791113 -1.756805,4.336321 0.197644,4.111068 1.234421,-0.142212 1.620445,-2.660341 1.899654,-3.613814 1.169288,-3.993918 2.430988,-7.96175 3.670628,-11.934036 0.20745,-0.664988 1.2205,-3.630719 -0.22969,-3.591956 z m 4.89822,0.04418 c -0.078,-0.0026 -0.15964,0.0053 -0.24571,0.02525 -1.52181,0.353548 -0.2869,3.377079 -0.032,4.268401 1.08773,3.806459 2.11739,7.627596 3.19717,11.436781 0.26503,0.935327 0.55586,3.538235 1.97152,3.365191 1.5509,-0.18945 0.24273,-3.315717 0.0175,-4.111068 -1.10216,-3.888495 -2.17864,-7.784478 -3.23505,-11.685404 -0.21887,-0.807653 -0.50387,-3.259458 -1.67337,-3.29915 z"
         sodipodi:nodetypes="cccccsccsccccccscccccccscccccccsccsssscsssccssccsscccsccccsccccssssccccccsssccccccsccccccccsccccccssccccccsssccccccss" /></g><path
       style="fill:#000000;stroke-width:0.264583"
       id="path966"
       d="" /></g></svg>
