<?xml version="1.0" encoding="UTF-8" standalone="no"?>
<!-- Created with Inkscape (http://www.inkscape.org/) -->

<svg
   width="118.135mm"
   height="118.135mm"
   viewBox="0 0 118.135 118.135"
   version="1.1"
   id="svg5"
   xml:space="preserve"
   inkscape:version="1.2.2 (732a01da63, 2022-12-09)"
   sodipodi:docname="evzen-white.svg"
   xmlns:inkscape="http://www.inkscape.org/namespaces/inkscape"
   xmlns:sodipodi="http://sodipodi.sourceforge.net/DTD/sodipodi-0.dtd"
   xmlns="http://www.w3.org/2000/svg"
   xmlns:svg="http://www.w3.org/2000/svg"><sodipodi:namedview
     id="namedview7"
     pagecolor="#ffffff"
     bordercolor="#000000"
     borderopacity="0.25"
     inkscape:showpageshadow="2"
     inkscape:pageopacity="0.0"
     inkscape:pagecheckerboard="0"
     inkscape:deskcolor="#d1d1d1"
     inkscape:document-units="mm"
     showgrid="false"
     inkscape:zoom="0.914906"
     inkscape:cx="-176.52087"
     inkscape:cy="402.22711"
     inkscape:window-width="2560"
     inkscape:window-height="1369"
     inkscape:window-x="-8"
     inkscape:window-y="-8"
     inkscape:window-maximized="1"
     inkscape:current-layer="g302" /><defs
     id="defs2" /><g
     inkscape:label="Layer 1"
     inkscape:groupmode="layer"
     id="layer1"
     transform="translate(-45.932499,-89.432497)"><g
       id="g302"
       transform="translate(63.043816,-12.72444)"><path
         style="fill:#ffffff;fill-opacity:1;stroke-width:0.264583"
         d="m 67.754632,214.90439 c -4.442757,-1.63672 -5.201026,-1.83953 -6.879167,-1.83989 -2.075336,-5.3e-4 -3.673149,-0.58579 -3.825335,-1.40136 -0.140859,-0.75488 0.366276,-1.13376 2.002319,-1.49595 0.838465,-0.18562 1.609704,-0.38798 1.713862,-0.44969 0.104159,-0.0617 -0.0131,-0.53682 -0.260585,-1.0558 -0.333796,-0.69997 -0.85072,-1.14588 -2.002192,-1.72715 l -1.552226,-0.78356 -1.001516,0.66277 c -3.377486,2.23512 -5.823903,1.8538 -5.823903,-0.90776 0,-0.89657 0.09058,-1.03174 0.859896,-1.2832 0.472943,-0.15459 1.812396,-0.41224 2.976562,-0.57255 1.164167,-0.16032 2.160199,-0.33465 2.213404,-0.38741 0.203684,-0.20196 -0.506598,-1.77261 -1.432293,-3.16723 -1.284541,-1.93524 -2.986328,-3.39148 -5.260384,-4.50137 -2.818884,-1.37581 -4.562309,-1.73809 -9.158875,-1.9032 -11.219537,-0.403 -25.740837,2.08442 -43.4561605,7.44381 -8.2501415,2.49591 -12.4438625,3.09173 -13.6029435,1.93265 -0.51036,-0.51035 -0.282693,-2.05016 0.38941,-2.63373 0.251815,-0.21864 6.172846,-3.29754 13.1578445,-6.84199 l 12.700001,-6.44446 -1.322917,-0.19456 c -11.812026,-1.73723 -17.818753,-2.85657 -19.6453115,-3.66086 -1.092716,-0.48117 -1.396708,-1.051 -0.921991,-1.72828 0.780672,-1.11379 4.4245385,-2.71795 6.6233635,-2.91584 9.715561,-0.87442 27.5201135,-6.22125 34.5055655,-10.36226 6.931017,-4.10875 25.44865,-22.02869 32.360522,-31.31603 2.774577,-3.72815 3.691234,-5.50462 5.06417,-9.81432 2.89636,-9.09178 6.53998,-16.28086 9.75228,-19.24186 3.92383,-3.61686 9.09809,-3.32026 14.60456,0.83717 1.80037,1.3593 4.26072,4.16188 7.9548,9.06131 2.152808,2.85525 2.689068,3.72426 2.339918,3.79187 -0.24912,0.0482 -2.085028,-0.0401 -4.079788,-0.19635 -4.13461,-0.32382 -5.17323,-0.15634 -6.35419,1.02462 -1.5857,1.5857 -1.74639,4.72836 -0.48078,9.40278 1.79368,6.62475 2.87225,15.61618 2.90406,24.20937 0.0199,5.38103 -0.0345,6.15653 -0.56597,8.06979 -2.43114,8.75141 -10.18094,17.06952 -21.82978,23.43061 -2.93452,1.60246 -5.709584,4.13317 -6.869827,6.26492 -1.197301,2.19983 -1.855441,5.47918 -1.281467,6.38522 0.178512,0.28178 0.623149,0.0601 2.006637,-1.00024 1.930237,-1.47944 3.567997,-2.40447 4.257127,-2.40447 0.3608,0 0.40475,0.17116 0.25244,0.98304 -0.26321,1.40305 -0.72484,2.18634 -2.31212,3.9232 -1.364256,1.49283 -1.379199,1.5262 -0.605055,1.35101 0.436565,-0.0988 2.996405,-0.25289 5.688545,-0.34243 4.16517,-0.13853 5.04616,-0.0991 5.91028,0.26472 0.57938,0.24392 0.96897,0.57117 0.90717,0.76201 -0.17306,0.53439 -3.32454,1.1967 -7.26993,1.52783 -2.00671,0.16842 -4.05998,0.38874 -4.56281,0.48961 l -0.914246,0.18341 2.722826,1.74099 2.72282,1.74098 3.48309,-1.02035 c 6.15978,-1.80448 8.69234,-1.65684 4.69967,0.27398 l -2.12381,1.02705 3.62861,0.12697 c 3.43879,0.12033 6.40674,0.68398 6.40674,1.21673 0,0.33455 -1.63826,1.01598 -3.18738,1.32579 -1.39161,0.2783 -6.35241,0.82963 -7.46499,0.82963 -0.5113,0 -0.51686,0.0279 -0.0979,0.4909 0.88895,0.98228 -0.12859,1.7783 -3.27266,2.5602 -0.21829,0.0543 -2.64379,-0.72907 -5.39001,-1.74079 z"
         id="path304" /></g></g></svg>
