<?xml version="1.0" encoding="UTF-8" standalone="no"?>
<!-- Created with Inkscape (http://www.inkscape.org/) -->

<svg
   width="23.566999mm"
   height="23.566999mm"
   viewBox="0 0 23.567 23.566999"
   version="1.1"
   id="svg5"
   xml:space="preserve"
   inkscape:version="1.2.2 (732a01da63, 2022-12-09)"
   sodipodi:docname="salas-white.svg"
   xmlns:inkscape="http://www.inkscape.org/namespaces/inkscape"
   xmlns:sodipodi="http://sodipodi.sourceforge.net/DTD/sodipodi-0.dtd"
   xmlns="http://www.w3.org/2000/svg"
   xmlns:svg="http://www.w3.org/2000/svg"><sodipodi:namedview
     id="namedview7"
     pagecolor="#ffffff"
     bordercolor="#000000"
     borderopacity="0.25"
     inkscape:showpageshadow="2"
     inkscape:pageopacity="0.0"
     inkscape:pagecheckerboard="0"
     inkscape:deskcolor="#d1d1d1"
     inkscape:document-units="mm"
     showgrid="false"
     inkscape:zoom="10.35098"
     inkscape:cx="41.783484"
     inkscape:cy="40.382651"
     inkscape:window-width="2560"
     inkscape:window-height="1369"
     inkscape:window-x="-8"
     inkscape:window-y="-8"
     inkscape:window-maximized="1"
     inkscape:current-layer="g4843" /><defs
     id="defs2" /><g
     inkscape:label="Layer 1"
     inkscape:groupmode="layer"
     id="layer1"
     transform="translate(-84.284285,-105.95723)"><g
       id="g4843"
       transform="translate(-1.5905549,-1.8435979)"><path
         style="fill:#ffffff;fill-opacity:1;stroke-width:0.264583"
         d="m 96.299635,130.4049 c 3.28911,-2.17992 3.52144,-2.89953 0.85637,-2.65248 -4.42272,0.40998 -6.30633,-3.20195 -4.33523,-8.31305 0.90714,-2.35223 4.31995,-6.31445 5.45486,-6.333 0.14818,-0.002 0.6525,-0.7155 1.1207,-1.58462 0.851285,-1.58022 0.851285,-1.58022 0.19844,-1.74407 -0.7005,-0.17582 -0.76772,-0.30946 -0.42636,-0.84763 0.17754,-0.27991 0.35594,-0.28159 0.954235,-0.009 0.67648,0.30823 0.78211,0.27729 1.30887,-0.38333 0.88862,-1.11443 1.67679,-0.90168 0.82613,0.22299 -0.53805,0.71137 -0.5098,0.80298 0.35854,1.16266 0.54692,0.22654 0.72776,0.4543 0.63682,0.80205 -0.11602,0.44366 -0.2027,0.45404 -1.00217,0.12 -0.97505,-0.4074 -1.2109,-0.26799 -1.69334,1.00093 -0.24849,0.65359 -0.20346,0.72364 0.64533,1.00377 1.67881,0.55405 2.24085,2.70587 1.29695,4.96549 -1.53328,3.67056 -4.612625,3.13529 -4.615185,-0.80224 -0.001,-1.77094 -0.18558,-1.84829 -1.43292,-0.60095 -1.9601,1.96009 -3.217,5.1925 -3.00643,7.73171 0.18241,2.19965 0.69602,2.57061 3.71782,2.68527 2.866525,0.10877 3.253125,0.3025 2.70786,1.35692 -0.50996,0.98616 -3.85299,3.18069 -4.84528,3.18069 -0.0977,0 0.47557,-0.43295 1.27399,-0.96212 z m 5.250705,-12.3704 c 0.97566,-2.03565 -0.0655,-4.28029 -1.55006,-3.34183 -0.529205,0.33453 -0.547375,3.18252 -0.0243,3.81274 0.51396,0.6193 1.14188,0.43148 1.57439,-0.47091 z m -5.023415,1.62471 c -0.0186,-0.1819 -0.0618,-0.59862 -0.0962,-0.92604 -0.0343,-0.32742 0.0404,-0.59531 0.16606,-0.59531 0.12565,0 0.22846,0.41672 0.22846,0.92604 0,0.86986 -0.22457,1.31795 -0.29835,0.59531 z"
         id="path4845" /></g></g></svg>
