<?xml version="1.0" encoding="UTF-8" standalone="no"?>
<!-- Created with Inkscape (http://www.inkscape.org/) -->

<svg
   width="75.994003mm"
   height="75.994003mm"
   viewBox="0 0 75.994003 75.994003"
   version="1.1"
   id="svg5"
   xml:space="preserve"
   inkscape:version="1.2.2 (732a01da63, 2022-12-09)"
   sodipodi:docname="tmm-logo.svg"
   xmlns:inkscape="http://www.inkscape.org/namespaces/inkscape"
   xmlns:sodipodi="http://sodipodi.sourceforge.net/DTD/sodipodi-0.dtd"
   xmlns="http://www.w3.org/2000/svg"
   xmlns:svg="http://www.w3.org/2000/svg"><sodipodi:namedview
     id="namedview7"
     pagecolor="#ffffff"
     bordercolor="#000000"
     borderopacity="0.25"
     inkscape:showpageshadow="2"
     inkscape:pageopacity="0.0"
     inkscape:pagecheckerboard="0"
     inkscape:deskcolor="#d1d1d1"
     inkscape:document-units="mm"
     showgrid="false"
     inkscape:zoom="0.52221046"
     inkscape:cx="-515.11799"
     inkscape:cy="59.363039"
     inkscape:window-width="1920"
     inkscape:window-height="1009"
     inkscape:window-x="-8"
     inkscape:window-y="-8"
     inkscape:window-maximized="1"
     inkscape:current-layer="layer1" /><defs
     id="defs2" /><g
     inkscape:label="Layer 1"
     inkscape:groupmode="layer"
     id="layer1"
     transform="translate(-67.002999,-110.503)"><path
       style="fill:#ffffff;stroke-width:2.485;fill-opacity:1;stroke:#ffffff;stroke-opacity:1;stroke-dasharray:none"
       d="m 68.473038,181.64262 c -0.21321,-0.0845 -0.48921,-0.37168 -0.58925,-0.61319 -0.0739,-0.17832 0.0836,-3.09666 0.71122,-13.17847 0.44335,-7.12219 0.86397,-13.94003 0.93471,-15.15076 0.36694,-6.28034 0.84053,-8.5381 2.07408,-9.88779 0.54075,-0.59167 1.10203,-0.84637 1.86655,-0.847 0.94601,-7.6e-4 1.72785,0.45965 2.41448,1.42187 0.9601,1.34546 1.33303,2.7621 1.60465,6.09558 0.2322,2.84965 0.41357,3.73836 0.85754,4.20177 0.40515,0.42288 1.21728,0.2928 1.98917,-0.31861 0.16837,-0.13337 2.42817,-2.50123 5.02177,-5.26192 l 4.71564,-5.01942 -0.33723,-0.86491 c -1.57584,-4.04166 -1.43244,-7.64728 0.41361,-10.39997 1.06588,-1.58936 3.20544,-3.09844 5.44592,-3.84114 1.34459,-0.44572 2.37905,-0.58365 3.94202,-0.52562 1.801862,0.0669 3.149122,0.37313 4.770302,1.08426 l 0.5715,0.25069 0.5715,-0.25069 c 1.62116,-0.71113 2.96842,-1.01736 4.77027,-1.08426 1.03,-0.0382 1.51379,-0.0172 2.20134,0.0958 2.28588,0.37578 4.56627,1.51063 6.13536,3.05331 2.80097,2.75383 3.31907,6.86193 1.4651,11.61696 l -0.33699,0.86429 4.72162,5.02004 c 2.5969,2.76102 4.85659,5.12979 5.02154,5.26393 0.43948,0.35737 0.92551,0.55647 1.36357,0.55858 0.9147,0.004 1.18082,-0.79559 1.47804,-4.44314 0.27212,-3.33958 0.64304,-4.74959 1.60352,-6.09558 0.68663,-0.96222 1.46847,-1.42264 2.41448,-1.42187 1.25613,0.001 2.20728,0.83611 2.82551,2.48067 0.38575,1.02616 0.5621,2.12455 0.7325,4.56235 0.0898,1.2854 0.64094,8.85848 1.22466,16.82906 0.58371,7.97058 1.0613,14.66373 1.0613,14.87367 0,0.69159 -0.60089,1.12327 -1.24904,0.89732 -0.53073,-0.18501 -0.50785,-0.0352 -0.91483,-5.99069 -0.771,-11.28212 -1.18041,-16.79014 -2.06844,-27.82826 -0.1772,-2.2026 -0.79994,-3.81404 -1.53985,-3.98462 -0.18581,-0.0428 -0.29605,0.0119 -0.61374,0.30473 -0.98489,0.90784 -1.34914,2.17659 -1.658,5.77522 -0.19321,2.25115 -0.34176,3.22748 -0.59337,3.89997 -0.52774,1.41051 -1.48867,2.06427 -2.92347,1.98896 -0.6214,-0.0326 -0.79806,-0.0809 -1.41718,-0.38773 -0.44172,-0.21888 -0.90243,-0.53459 -1.22703,-0.84084 -0.28585,-0.2697 -2.44964,-2.54776 -4.8084,-5.06236 -2.35876,-2.5146 -4.32093,-4.572 -4.36036,-4.572 -0.0394,0 -0.2486,0.26377 -0.46482,0.58616 -0.21621,0.32239 -3.05652,4.22138 -6.3118,8.66443 -3.46213,4.72539 -5.89425,8.11919 -5.85985,8.17684 0.0324,0.0542 1.60857,2.21312 3.50269,4.79757 1.89412,2.58445 3.54002,4.8895 3.65756,5.12234 0.35385,0.70092 0.4866,1.28143 0.4866,2.12786 0,1.0152 -0.10402,1.47442 -0.51677,2.28151 -1.27836,2.4997 -3.50586,4.20026 -6.27076,4.78732 -1.20425,0.2557 -3.14621,0.2617 -4.3038,0.0133 -2.64181,-0.56689 -4.796372,-2.19499 -6.081712,-4.59565 -0.47215,-0.88184 -0.63464,-1.49966 -0.63464,-2.413 0,-0.82982 0.15384,-1.48898 0.51294,-2.19772 0.11897,-0.23482 1.77931,-2.55896 3.689642,-5.16476 1.91033,-2.60579 3.47333,-4.7792 3.47333,-4.82979 0,-0.10538 0.27933,0.28008 -6.740882,-9.30192 -2.92955,-3.99861 -5.43837,-7.44666 -5.57515,-7.66234 -0.13678,-0.21567 -0.28111,-0.39214 -0.32073,-0.39214 -0.0396,0 -2.00201,2.0574 -4.36086,4.572 -2.35884,2.5146 -4.52279,4.79266 -4.80877,5.06236 -0.32452,0.30604 -0.78583,0.6221 -1.22725,0.84084 -0.61912,0.30679 -0.79578,0.35512 -1.41718,0.38773 -1.78592,0.0937 -2.82953,-0.92653 -3.21629,-3.14439 -0.067,-0.38403 -0.20077,-1.61105 -0.29733,-2.72672 -0.31267,-3.61236 -0.67634,-4.88521 -1.65299,-5.78545 -0.43039,-0.39672 -0.49315,-0.41052 -0.85734,-0.18844 -0.44317,0.27024 -0.80971,1.03091 -1.08518,2.25207 -0.16373,0.72579 -0.20781,1.10445 -0.30064,2.58234 -0.31915,5.08137 -2.04071,31.38996 -2.08224,31.82055 -0.0402,0.41675 -0.10193,0.59189 -0.27706,0.7861 -0.22515,0.24968 -0.67529,0.37961 -0.94501,0.27277 z m 37.564722,-1.89731 c 0.88568,-0.1211 2.05343,-0.51747 2.77895,-0.94325 0.76661,-0.44991 2.00979,-1.69433 2.52174,-2.52426 0.70354,-1.14054 0.80948,-2.12858 0.32889,-3.0673 -0.25141,-0.49105 -6.67903,-9.29197 -6.78625,-9.29197 -0.11838,0 -6.553302,8.82829 -6.817042,9.35254 -0.2203,0.43788 -0.25369,0.59517 -0.25162,1.18534 0.002,0.55331 0.044,0.77012 0.22499,1.16037 0.55372,1.19382 1.75998,2.55368 2.828112,3.18825 1.43493,0.85247 3.31486,1.19423 5.17223,0.94028 z m 4.64161,-27.00948 c 5.57096,-7.61627 6.50847,-8.92731 6.61037,-9.24404 0.0355,-0.1103 -0.59964,-0.83704 -2.44176,-2.794 -1.36935,-1.45471 -3.22853,-3.44503 -4.13153,-4.42293 -2.7469,-2.97478 -4.15459,-4.29366 -5.36528,-5.02683 l -0.47145,-0.2855 -0.47146,0.2855 c -1.1011,0.6668 -2.65995,2.09758 -4.692702,4.30717 -0.57834,0.62865 -2.44382,2.62491 -4.14552,4.43613 -1.7017,1.81123 -3.10722,3.32728 -3.12338,3.36899 -0.0561,0.14489 0.54904,1.03909 2.65405,3.92159 7.539152,10.32378 9.741572,13.32481 9.779012,13.3249 0.0233,6e-5 2.63312,-3.54188 5.79965,-7.87098 z M 95.087448,137.7142 c 5.337092,-5.70012 6.088542,-6.46236 7.201462,-7.30486 l 0.57036,-0.43177 -0.54956,-0.16974 c -1.44224,-0.44546 -3.048572,-0.60974 -4.311772,-0.44097 -2.12357,0.28374 -4.1421,1.26732 -5.56423,2.71134 -0.76579,0.77757 -1.18636,1.47374 -1.53788,2.54566 -0.23101,0.70443 -0.2689,0.95482 -0.30509,2.01581 -0.0477,1.39943 0.0382,2.06404 0.45405,3.51286 0.43311,1.50888 0.38394,1.46844 0.99394,0.8174 0.28157,-0.30052 1.65349,-1.7656 3.04872,-3.25573 z m 23.501462,2.88647 c 0.48884,-1.52607 0.6193,-2.39779 0.57769,-3.86014 -0.0337,-1.18524 -0.063,-1.39023 -0.30206,-2.11667 -0.36049,-1.09532 -0.77946,-1.78018 -1.58117,-2.58459 -2.50725,-2.51573 -6.20015,-3.35372 -9.83366,-2.23144 l -0.54956,0.16974 0.54753,0.41448 c 0.78558,0.5947 2.03657,1.78987 3.45465,3.30048 2.38063,2.53597 6.31424,6.73659 6.7983,7.25976 0.26908,0.29082 0.52206,0.50847 0.56219,0.48366 0.0401,-0.0248 0.18687,-0.40068 0.32609,-0.83528 z m -35.439612,-8.97543 c -2.51207,-0.47782 -4.63597,-2.04692 -5.82639,-4.30445 -1.26037,-2.39016 -1.26037,-5.18636 0,-7.57652 1.51071,-2.86493 4.42042,-4.54493 7.6178,-4.39837 1.2804,0.0587 2.12126,0.27212 3.23493,0.82108 2.19289,1.08095 3.73994,2.96371 4.38251,5.33355 0.19848,0.732 0.27012,2.63156 0.1292,3.42588 -0.56298,3.17335 -2.95781,5.75424 -6.09564,6.56923 -0.90636,0.23541 -2.55901,0.29762 -3.44241,0.1296 z m 2.98437,-1.91339 c 1.86114,-0.47432 3.30331,-1.63745 4.145,-3.34299 0.62071,-1.25777 0.82468,-2.46022 0.63193,-3.72533 -0.39879,-2.61749 -2.32488,-4.73892 -4.84114,-5.33212 -0.78253,-0.18448 -2.26363,-0.16734 -3.05619,0.0354 -2.17817,0.55709 -3.87663,2.1983 -4.5615,4.40776 -0.25654,0.82761 -0.28078,2.52978 -0.0482,3.38667 0.65576,2.41622 2.54898,4.15668 5.09782,4.68649 0.52567,0.10926 2.00436,0.0442 2.63229,-0.11584 z m 37.415042,1.91428 c -3.32124,-0.64512 -5.89876,-3.15798 -6.6084,-6.4426 -0.21203,-0.9814 -0.19681,-2.49902 0.0346,-3.45499 0.39891,-1.64757 1.21149,-3.05302 2.41633,-4.17928 4.63415,-4.33193 12.10456,-2.03794 13.60985,4.17928 0.23146,0.95597 0.24667,2.47359 0.0346,3.45499 -0.41688,1.92956 -1.54382,3.71155 -3.08956,4.88539 -0.70773,0.53746 -2.05434,1.19316 -2.92617,1.42484 -0.87041,0.23131 -2.61877,0.29797 -3.47133,0.13237 z m 2.86195,-1.87954 c 2.26735,-0.50578 4.14688,-2.32103 4.76847,-4.60539 0.20573,-0.75606 0.20638,-2.45713 0.001,-3.21734 -0.60043,-2.22499 -2.40035,-4.0136 -4.60689,-4.57794 -0.8711,-0.22279 -2.29979,-0.22279 -3.17088,0 -2.20655,0.56434 -4.00646,2.35295 -4.60689,4.57794 -0.20515,0.76021 -0.20449,2.46128 0.001,3.21734 0.61202,2.24919 2.42442,4.03161 4.65792,4.58086 0.78134,0.19215 2.15336,0.20353 2.95578,0.0245 z"
       id="path248"
       sodipodi:nodetypes="csssssssssscssssscsccsscsscsssscssssscsssssssssscsssssssssssssssssscsssssssccssssssccssssssscssscssssscsssscssssscsscssssscsssssssccssscscscccscsscsscccscssscscc" /></g></svg>
