<?xml version="1.0" encoding="UTF-8" standalone="no"?>
<!-- Created with Inkscape (http://www.inkscape.org/) -->

<svg
   width="86.704002mm"
   height="86.704002mm"
   viewBox="0 0 86.704002 86.704002"
   version="1.1"
   id="svg5"
   xml:space="preserve"
   inkscape:version="1.2.2 (732a01da63, 2022-12-09)"
   sodipodi:docname="veka-white.svg"
   xmlns:inkscape="http://www.inkscape.org/namespaces/inkscape"
   xmlns:sodipodi="http://sodipodi.sourceforge.net/DTD/sodipodi-0.dtd"
   xmlns="http://www.w3.org/2000/svg"
   xmlns:svg="http://www.w3.org/2000/svg"><sodipodi:namedview
     id="namedview7"
     pagecolor="#ffffff"
     bordercolor="#000000"
     borderopacity="0.25"
     inkscape:showpageshadow="2"
     inkscape:pageopacity="0.0"
     inkscape:pagecheckerboard="0"
     inkscape:deskcolor="#d1d1d1"
     inkscape:document-units="mm"
     showgrid="false"
     inkscape:zoom="0.64693624"
     inkscape:cx="203.26578"
     inkscape:cy="159.21198"
     inkscape:window-width="2560"
     inkscape:window-height="1369"
     inkscape:window-x="-8"
     inkscape:window-y="-8"
     inkscape:window-maximized="1"
     inkscape:current-layer="layer1" /><defs
     id="defs2" /><g
     inkscape:label="Layer 1"
     inkscape:groupmode="layer"
     id="layer1"
     transform="translate(-61.647999,-105.14799)"><path
       id="rect405"
       style="fill:#ffffff;fill-opacity:1;stroke-width:0.354774;stroke-linecap:round;stroke-miterlimit:14.6;paint-order:markers fill stroke"
       d="m 118.72842,106.76236 c -0.73163,-0.0245 -1.50423,0.1551 -2.30942,0.6041 -1.20015,0.66921 -2.5167,2.81806 -3.96979,2.78846 -2.42835,-0.0495 -3.11124,-3.56915 -6.08541,-2.94142 -1.84097,0.38851 -4.01616,2.05645 -5.03639,3.60185 -0.53974,0.81788 -0.82412,2.42329 -1.688781,2.94452 -0.73713,0.44431 -1.97883,-0.27759 -2.799829,-0.27854 -1.279259,-0.001 -2.559316,0.57907 -3.704167,1.10123 -2.329125,1.06241 -2.79318,3.07502 -4.554244,4.5837 -1.008326,0.86394 -3.651545,1.17502 -4.970756,1.32395 -2.090207,0.23604 -4.761814,-2.50767 -6.879167,-3.08043 -3.759064,-1.0169 -9.649385,-0.17036 -12.676745,2.35334 -2.196595,1.83113 -3.426566,6.05926 -0.812354,8.12457 2.708616,2.13987 5.572292,1.44212 8.462016,0.18138 0.51927,-0.22654 2.680907,-1.81292 3.053043,-0.74207 0.22725,0.65397 -0.624624,1.50359 -0.931726,2.00815 -0.973719,1.59993 -1.913621,3.29247 -2.626196,5.02708 -2.929013,7.12971 -5.096261,19.9785 5.267379,22.82806 4.90484,1.34858 9.834832,-1.30368 14.552083,0.45527 -0.770201,2.60535 0.487441,3.99045 1.132231,6.35 0.687122,2.51407 0.35104,5.60493 0.465604,8.20209 0.04603,1.04271 0.456395,2.14137 0.132809,3.17086 -0.797188,2.53709 -6.87707,2.57018 -6.139677,5.80947 0.339725,1.49171 2.270142,1.02442 3.3507,0.88366 2.815693,-0.36697 6.830745,-1.25313 8.202083,-4.04316 H 98.4263 c 0.211139,1.67137 1.065073,4.38197 -0.325045,5.67976 -1.608399,1.50123 -7.269841,2.39352 -7.269841,5.16661 0,1.70867 2.505627,1.38639 3.626136,1.2795 2.962277,-0.28205 7.57762,-0.91326 9.32863,-3.66334 1.12103,-1.76107 -0.0301,-4.0133 -0.42065,-5.8167 -0.7086,-3.27156 -1.29326,-7.74117 0.0873,-10.84791 h 0.26458 c 1.82271,1.70787 3.57664,0.12311 5.55625,0.0744 1.63829,-0.0399 2.70853,1.8519 4.49791,1.71617 1.71133,-0.12991 2.52229,-1.58591 3.97909,-2.14974 1.16602,-0.45137 2.28334,0.6981 3.42925,0.82166 0.70511,0.076 1.5473,-0.34101 2.21485,-0.0677 1.21179,0.4961 1.41173,2.30663 0.76378,3.28559 -1.05251,1.59015 -6.03725,3.02507 -5.13819,5.51956 0.40031,1.11019 2.05585,0.86937 2.95331,0.74104 2.51803,-0.36062 5.80255,-1.41003 7.02334,-3.85558 1.05172,-2.10687 -0.94614,-4.32832 -0.40824,-6.61458 2.64767,1.56368 1.87003,4.50691 2.2288,7.14375 0.15657,1.14565 0.67831,2.64743 -0.008,3.6928 -1.1864,1.8079 -3.96495,2.48894 -5.64875,3.76979 -0.94298,0.71728 -2.17924,2.76077 -0.50178,3.49023 0.99456,0.43233 2.40071,0.006 3.40031,-0.21756 2.8485,-0.63738 7.86528,-1.59441 8.8191,-4.91546 0.36301,-1.26365 -0.51546,-2.49029 -0.75861,-3.70313 -0.66173,-3.29883 -2.4115,-8.00695 -1.40767,-11.37192 0.50165,-1.68196 2.73308,-1.61083 3.85041,-2.71043 1.57242,-1.54729 0.63385,-3.41225 1.70171,-4.89789 0.60589,-0.84296 1.76584,-0.70981 2.60139,-1.17151 0.96679,-0.53446 1.56807,-1.62161 2.00039,-2.60242 0.59665,-1.35335 -0.56206,-2.72587 -0.0186,-3.84214 1.04299,-2.14313 3.21096,-2.15094 3.04374,-5.15369 -0.0868,-1.55733 -1.72086,-2.76018 -1.67586,-4.20957 0.032,-1.0279 1.36859,-1.71153 1.71255,-2.67012 0.4236,-1.18083 0.35698,-4.30593 0.10801,-5.55211 -0.30824,-1.54411 -2.31138,-1.76945 -2.5585,-3.18947 -0.38978,-2.23943 1.43441,-3.34298 -0.0486,-5.80895 -1.1938,-1.98543 -3.51062,-1.33277 -4.71289,-2.80293 -0.61913,-0.75708 0.0611,-2.33396 -0.15555,-3.28352 -0.89455,-3.92055 -3.42901,-3.70645 -6.68021,-3.96875 -0.45693,-5.79126 -5.06334,-7.27035 -9.26041,-3.43958 -1.18815,-2.33055 -3.2787,-5.02278 -5.89163,-5.11029 z m 0.0692,3.27629 c 0.0878,0.003 0.17614,0.01 0.26562,0.0212 2.86729,0.37399 2.164,4.37154 4.5098,5.07721 2.27621,0.68477 3.66541,-3.76571 6.30039,-2.72284 2.13572,0.84535 0.38942,4.76284 2.37247,6.09576 1.70523,1.14604 3.727,-1.74871 5.29941,0.28112 1.61925,2.09052 -1.91954,5.02825 0.11008,6.68021 1.57082,1.27868 4.96123,-0.91806 5.66528,2.03553 0.54028,2.26555 -2.9733,3.97319 -2.15335,6.03271 0.93741,2.35399 5.32389,-0.10069 5.36969,3.46852 0.0336,2.60033 -3.79592,2.75751 -4.01474,5.03742 -0.21246,2.21562 3.64295,3.4582 2.30839,6.01565 -0.88424,1.69492 -3.50303,0.38608 -4.31292,1.97146 -0.80486,1.57533 2.06925,2.96064 1.73323,4.69842 -0.56118,2.90354 -3.90739,0.61061 -5.16971,2.39417 -1.11414,1.57401 1.27048,4.61122 -1.10019,5.66374 -1.45547,0.64637 -2.76729,-1.15612 -4.18889,-0.53382 -1.81981,0.79666 -0.21906,3.85677 -2.41484,4.07055 -1.94098,0.18891 -2.53773,-2.78227 -4.21783,-2.39572 -1.71794,0.39503 -1.46874,3.22737 -3.46026,3.42925 -1.73539,0.17595 -2.65551,-2.45777 -4.21576,-2.07016 -1.78699,0.44397 -1.75347,3.58652 -3.96565,3.41427 -1.88198,-0.14658 -0.9766,-3.84313 -3.16311,-3.3936 -2.50666,0.51514 -2.48841,2.9171 -5.57847,2.12546 -0.0439,-1.02076 -0.004,-3.41965 -1.35186,-3.63131 -1.74121,-0.27305 -3.14671,2.73167 -4.938196,1.72651 -1.639098,-0.91995 0.01699,-3.09252 -1.050065,-4.32945 -0.995099,-1.15358 -3.168721,0.40113 -3.789433,-1.21336 -0.732895,-1.90632 2.120223,-3.44265 -0.512113,-4.72323 0.560386,-2.54634 3.714499,-4.26773 5.280298,-6.35 2.416179,-3.21309 3.688849,-7.39854 3.956349,-11.37708 0.0913,-1.35626 -1.36307,-5.73179 0.10749,-6.45542 1.51975,-0.74745 3.55959,0.34128 4.94336,0.88315 3.56976,1.39753 6.37409,3.3865 10.05365,1.0759 3.92271,-2.463 2.12511,-6.32092 -1.05782,-8.56123 -3.39645,-2.39059 -8.5389,-3.17556 -12.43541,-1.84537 -1.56448,0.53412 -3.382,2.397 -5.023466,2.389 -1.068389,-0.005 -1.797637,-1.11036 -2.500106,-1.76991 -1.530081,-1.4365 -3.443145,-2.21924 -4.911845,-3.70779 1.402025,-1.98895 3.507849,-3.56704 6.085417,-3.11505 1.309948,0.22971 2.58911,1.75262 3.93981,0.83457 2.50613,-1.7032 0.82454,-5.31571 4.26227,-6.7815 3.01254,-1.28463 3.71017,2.43422 6.08903,3.05305 2.24379,0.58371 4.15365,-3.57692 6.874,-3.49798 z m -45.178592,9.0258 c 1.687598,0.0481 3.603618,0.80379 4.962488,1.51309 0.649208,0.33888 1.858876,0.93723 1.368392,1.84382 -0.93628,1.7305 -3.228598,1.38175 -4.806942,1.72547 -2.33603,0.50877 -4.23159,2.25519 -6.614583,2.68408 -2.968993,0.53436 -6.665158,-1.57604 -3.804936,-4.58319 1.839567,-1.93407 5.254748,-2.57315 7.773686,-3.09438 0.35551,-0.0736 0.73245,-0.1 1.121895,-0.0889 z m 14.212569,3.56258 c 2.394213,0.008 4.792259,0.73583 6.625953,2.10685 1.38615,1.03638 3.268826,2.74612 2.910416,4.60127 l -5.027083,-1.78336 -3.965133,1.06454 -2.653585,-1.93942 -4.493782,-1.83968 c 1.818347,-1.50667 4.209002,-2.21829 6.603214,-2.2102 z m 19.590533,1.60403 c 2.90407,-0.0433 6.8063,0.73263 8.96741,2.80242 2.08069,1.9926 1.02617,4.79325 -1.82366,4.93665 -3.47768,0.17489 -5.7248,-2.49666 -8.99583,-2.85358 -1.22926,-0.13415 -3.88399,0.51003 -4.79971,-0.47025 -0.912017,-0.97618 -0.008,-2.00627 0.83613,-2.56264 1.69387,-1.11634 3.79107,-1.8224 5.81566,-1.8526 z m -24.480157,3.57395 c 1.4237,0.0395 2.689275,0.73742 2.894914,2.30838 0.162719,1.24143 -6.046545,0.0448 -3.480408,3.08457 0.280194,0.33179 0.668955,0.60627 0.988571,0.89969 -0.782902,0.37624 -1.505241,0.62118 -2.380217,0.35501 -0.663548,-0.20161 -1.215719,-0.62475 -1.627808,-1.17667 -2.406652,-3.22331 0.886977,-5.54641 3.604948,-5.47098 z m 9.698633,1.99006 c 2.694811,0.0896 5.499024,2.11768 4.542359,5.09633 -0.75407,2.34764 -3.218602,3.83943 -5.635832,3.34863 -1.574535,-0.31988 -3.554941,-1.99953 -2.38125,-3.61322 1.341436,4.41934 5.243025,-2.82492 1.210779,-1.95233 -0.696648,0.15082 -1.29677,0.69926 -2.004529,0.894 0.142494,-2.74007 2.172509,-3.8431 4.268473,-3.77341 z m -16.968473,1.12758 c 2.055493,2.32912 2.484282,5.31822 6.085417,6.11435 1.48828,0.32915 2.741354,-1.19458 4.178039,-0.58498 1.347787,0.57176 2.169846,2.41105 3.494877,3.20136 4.031981,2.40533 7.607309,-0.59639 10.054167,-3.70365 h 0.264583 c 0,6.69659 -2.987151,13.68172 -9.260416,16.79639 -6.305808,3.13082 -16.277213,3.71173 -18.788001,-4.36097 -1.934446,-6.21956 2.073083,-11.89673 3.971334,-17.4625 z m 0.103353,16.40261 c -1.312183,-0.0656 -1.913914,1.69793 0.16123,2.91197 l 1.5875,-1.5875 v -0.26458 c -0.613402,-0.72822 -1.235267,-1.03422 -1.74873,-1.05989 z m 5.090128,1.45418 c -0.05277,-0.003 -0.107303,-0.002 -0.163297,5.1e-4 -2.013741,0.10504 -1.580473,3.03793 0.248563,2.90009 1.636878,-0.12354 1.550741,-2.81728 -0.08527,-2.9006 z M 96.8388,167.96431 c 1.250158,1.33429 0.772322,3.42186 0.264583,5.02709 H 96.8388 Z m 37.04166,11.64167 c 1.47135,2.34527 -0.34395,3.68327 -2.64583,3.70417 z m -33.07291,4.49792 h 0.52917 c 0.68686,2.60111 -2.588422,3.13584 -4.49792,2.91041 v -0.26458 c 1.926958,-0.25029 2.863051,-1.07924 3.96875,-2.64583 z" /><path
       style="fill:#000000;stroke-width:0.264583"
       id="path302"
       d="" /></g></svg>
