<?xml version="1.0" encoding="UTF-8" standalone="no"?>
<svg
   height="205.23195mm"
   id="svg625"
   inkscape:version="1.2.2 (732a01da63, 2022-12-09)"
   sodipodi:docname="vikariaty-map.svg"
   version="1.2"
   viewBox="0 0 2045.309 2424.0023"
   width="173.16949mm"
   xmlns:inkscape="http://www.inkscape.org/namespaces/inkscape"
   xmlns:sodipodi="http://sodipodi.sourceforge.net/DTD/sodipodi-0.dtd"
   xmlns="http://www.w3.org/2000/svg"
   xmlns:svg="http://www.w3.org/2000/svg">
   <defs
      id="defs166" />
   <sodipodi:namedview
      id="namedview164"
      pagecolor="#ffffff"
      bordercolor="#000000"
      borderopacity="0.25"
      inkscape:showpageshadow="2"
      inkscape:pageopacity="0.0"
      inkscape:pagecheckerboard="0"
      inkscape:deskcolor="#d1d1d1"
      inkscape:document-units="mm"
      showgrid="false"
      inkscape:zoom="0.75571327"
      inkscape:cx="345.36909"
      inkscape:cy="226.2763"
      inkscape:window-width="1920"
      inkscape:window-height="1009"
      inkscape:window-x="-8"
      inkscape:window-y="-8"
      inkscape:window-maximized="1"
      inkscape:current-layer="Mapa 1: SidlaVikariatu_WGS (Labels)" />
   <g
      id="Mapa 1: SidlaVikariatu_WGS (Labels)"
      inkscape:groupmode="layer"
      inkscape:label="Mapa 1: SidlaVikariatu_WGS (Labels)"
      style="fill:none;fill-rule:evenodd;stroke:#000000;stroke-width:1;stroke-linecap:square;stroke-linejoin:bevel"
      transform="translate(-38.27589,-205.94908)">
      <g
         font-size="34.375"
         font-style="normal"
         font-weight="400"
         id="g516"
         style="font-style:normal;font-weight:400;font-size:34.375px;font-family:'FreightSans W05 Book';fill:none;stroke:#000000;stroke-width:1;stroke-linecap:square;stroke-linejoin:bevel;stroke-opacity:1"
         transform="scale(0.999712)" />
      <g
         id="g7057">
         <path
            d="m 1637.4083,1482.8428 -8.5875,-8.3676 -10.1571,-6.0882 -11.8766,-0.5199 -11.4167,3.689 -11.6166,-2.2494 -5.7284,-12.1465 -10.257,6.8081 -6.0083,11.2567 -9.6072,7.3279 -10.477,5.6384 -11.8966,-1.1397 -9.8272,6.8081 -11.3567,-3.3891 -7.058,9.6573 -9.1773,7.9777 4.4987,11.2367 -12.0265,1.8895 -10.457,5.5384 -11.0668,4.4687 -11.4967,4.0188 -9.6472,-7.0179 3.179,-11.6967 -9.3573,7.6178 -8.6775,8.7775 -11.6466,-2.4393 -4.3188,-11.5467 -2.3493,-11.7666 -2.2793,-12.3664 -5.5484,-11.1368 -6.1483,-10.0871 -9.0174,-7.7578 -11.6566,-3.329 -8.4376,9.2973 -9.9171,7.9877 -6.6081,10.0271 -0.4499,11.9266 -11.6066,2.2593 -7.8578,-9.0174 -3.429,-3.6389 -4.3787,-11.2768 -10.407,-5.6184 -12.1065,-2.1493 -9.9772,-6.7581 -11.9265,3.1991 -11.3868,-4.4187 -12.5563,0.1399 -9.1274,-7.8677 -1.2197,-12.0065 -4.0588,-11.1168 -4.4587,-11.1568 -10.477,-5.6984 -12.4764,1.1997 -13.2162,0.1399 -12.7063,0.14 -12.1665,0.08 -0.2999,-12.2665 -0.3299,-13.5761 -0.24,-13.0762 -0.01,-11.8766 -9.4572,-7.6578 -10.1371,-6.858 -0.14,-12.7064 -0.01,-0.03 -0.07,-12.5963 -0.04,-13.0663 9.6673,-7.2179 10.327,6.1083 -0.3199,-12.0066 -1.0297,-12.2465 2.7492,-11.6866 8.9474,-8.4176 12.4264,-1.3496 12.7963,1.7095 14.106,-5.4784 1.7495,-12.7263 1.2796,-11.8066 9.7872,-7.008 -4.0688,-11.3867 -6.4382,-10.597 0.11,-12.2165 5.8183,-10.317 -9.3273,-7.4778 -10.7269,5.3384 -12.4664,-4.0988 -10.1771,-5.9983 -5.9283,-10.5369 -6.1982,-10.0771 -11.2068,-4.0588 -11.1867,-4.2888 -7.9778,-9.0274 0.6499,-12.6764 -6.3182,-10.0371 -7.6878,-9.2373 -2.1794,-11.6866 -4.9286,-7.148 12.2565,-1.2996 12.1665,0.09 11.9166,-0.3899 12.4764,-0.5199 5.8583,-10.307 4.4987,-11.5667 11.9965,1.2297 11.8466,2.7492 10.567,5.2885 2.0294,12.5963 10.277,5.9583 10.617,5.7084 6.0482,-10.1771 12.6664,1.0697 12.4464,3.1791 11.8466,1.7795 10.5769,-5.6384 6.6581,-9.7872 0.01,-11.9765 0.04,-11.9766 9.9871,-6.3981 10.0671,-6.8581 10.9269,5.1086 13.3861,-1.8095 9.6073,-6.898 10.8368,5.0985 11.2768,3.9189 7.9377,-8.9175 10.7469,-5.2285 12.5464,-3.299 11.4167,3.539 11.7466,-1.2197 9.3673,-8.1176 12.0665,-1.0997 7.4579,9.2373 12.0665,0.5399 10.2671,-5.8683 6.6481,-9.9672 -3.0192,-11.4167 1.9695,-11.65663 -10.8669,-5.2085 -5.3185,-10.57595 -0.8597,-7.47485 10.4869,-5.50241 4.9586,-11.15179 6.6281,-10.03411 11.8866,0.072 11.9265,-0.51385 12.0566,3.54098 12.0365,1.17066 11.8766,-0.62782 10.5569,7.79975 3.1191,12.21249 -1.1096,12.85729 -5.0486,12.00754 4.1288,11.7856 11.3768,7.4378 5.7483,13.1762 5.3185,11.7267 9.6972,7.7477 9.5472,7.138 9.0774,-7.6578 11.9066,-1.3296 11.7166,-1.4796 6.988,9.6072 6.898,9.6572 5.6684,10.417 7.9777,9.3673 8.0976,8.6576 6.2882,10.327 3.629,11.2367 8.1676,9.5173 4.9386,11.3467 8.9474,7.7078 6.7081,9.9272 11.4367,3.8089 3.7889,11.3967 5.6184,10.5469 7.4079,9.3773 9.4272,7.3979 11.7666,1.3896 6.4782,9.9171 6.758,10.0571 8.9974,8.5976 -2.7892,11.4967 7.7178,10.0371 -4.9885,11.2667 -1.6496,11.7366 4.5187,10.9269 3.8389,11.5667 -1.2096,11.9865 -0.7398,11.8766 5.8983,10.327 10.8969,6.2682 9.1373,8.4076 -0.2899,12.0965 -1.8595,8.0277 -11.5166,6.2182 -10.8769,-5.2485 -11.0968,-6.2582 -10.347,-6.6281 -12.2165,-1.3996 -9.8172,-6.6881 -5.4984,-10.7169 -11.3267,-6.0082 -11.7167,-4.6187 -11.6566,2.0794 -9.1974,7.5578 0.5299,11.8566 -0.5698,11.9566 -1.5996,11.8366 -7.7078,9.0074 -10.4769,6.1882 -8.6376,8.3976 -12.3964,0.5198 -10.9868,4.5687 -5.0186,10.9768 -11.8566,-0.8097 -7.6078,9.1173 -4.7386,11.0768 0.9297,11.9266 3.3391,11.7166 5.7983,10.487 2.4693,12.8063 11.5067,3.1191 -4.8086,10.8369 0.1799,4.0588"
            id="path90"
            inkscape:connector-curvature="0"
            style="font-style:normal;font-weight:400;font-size:34.375px;font-family:'FreightSans W05 Book';fill:#090909;fill-opacity:1;fill-rule:evenodd;stroke:#ffffff;stroke-width:9.68751157;stroke-linecap:square;stroke-linejoin:bevel;stroke-opacity:1;stroke-dasharray:none" />
         <g
            font-size="34.375"
            font-style="normal"
            font-weight="400"
            id="g183"
            style="font-style:normal;font-weight:400;font-size:34.375px;font-family:'FreightSans W05 Book';fill:#090909;fill-opacity:1;fill-rule:evenodd;stroke:#ffffff;stroke-width:5.39766407;stroke-linecap:square;stroke-linejoin:bevel;stroke-opacity:1;stroke-dasharray:none"
            transform="matrix(1.79476,0,0,1.79476,1447.06,1302.97)">
            <circle
               cx="12"
               cy="12"
               id="circle181"
               r="8"
               style="fill:#090909;fill-opacity:1;stroke:#ffffff;stroke-opacity:1;stroke-width:5.39766407;stroke-dasharray:none" />
         </g>
      </g>
      <g
         font-size="34.375"
         font-style="normal"
         font-weight="400"
         id="g522"
         style="font-style:normal;font-weight:400;font-size:34.375px;font-family:'FreightSans W05 Book';fill:none;stroke:#000000;stroke-width:1;stroke-linecap:square;stroke-linejoin:bevel;stroke-opacity:1"
         transform="scale(0.999712)" />
      <g
         id="g7052">
         <path
            d="m 1104.5418,1078.7292 5.6084,-3.8388 2.9591,-0.9298 0.08,1.1997 0.03,0.5698 0.09,1.4796 2.1794,-0.05 1.9394,-0.04 0.9597,-0.02 1.8695,3.1491 1.7495,5.4684 0.3999,0.7998 2.1793,-0.4999 0.3199,0.7998 4.9286,7.148 2.1794,11.6866 7.6878,9.2373 6.3182,10.0371 -0.6499,12.6764 7.9778,9.0274 11.1867,4.2888 11.2068,4.0588 6.1982,10.0771 5.9283,10.5369 10.1771,5.9983 12.4664,4.0988 10.7269,-5.3384 9.3273,7.4778 -5.8183,10.317 -0.11,12.2165 6.4382,10.597 4.0688,11.3867 -9.7872,7.008 -1.2796,11.8066 -1.7495,12.7263 -14.106,5.4784 -12.7963,-1.7095 -12.4264,1.3496 -8.9474,8.4176 -2.7492,11.6866 1.0297,12.2465 0.3199,12.0066 -10.327,-6.1083 -9.6673,7.2179 0.04,13.0663 0.07,12.5963 -12.1365,0.03 -12.6963,0.05 -11.5067,-3.8389 -10.8569,-5.2285 -11.6366,3.609 -9.9972,-8.3476 -9.5972,-7.1979 -6.748,10.9768 -12.1166,0.6798 -12.2764,1.0597 -8.0077,12.0365 -0.14,11.9266 -14.3158,3.479 -12.7664,-0.13 -11.96652,-0.1499 -0.23494,11.9665 -10.01811,6.8581 -7.89373,8.9774 -10.18106,-6.0183 -11.78761,-1.1197 -9.20035,-7.5178 -6.31818,-11.5867 2.62125,-12.2864 4.44872,-12.0566 2.22736,-13.9559 -4.60868,-10.9569 -2.68922,-11.8266 -3.53598,-11.2767 -4.8616,10.7769 -7.78576,9.1973 -10.33202,5.9983 -11.94456,1.4696 -9.69821,-7.8378 -10.44199,-6.0982 -12.32945,0.2399 -8.37459,8.3976 -11.48969,4.7786 -5.42743,10.597 4.43272,11.1867 14.50882,1.3896 6.71607,10.0671 -1.20966,15.1457 -9.27632,7.5778 -6.87102,9.6172 -11.17978,-3.9388 -12.05353,1.2696 -10.56196,7.3079 -5.83832,10.377 -12.00654,-1.0897 -12.72733,-0.6498 -3.484,11.7966 -5.2075,10.9269 7.89973,8.9874 -3.06712,12.1165 -9.54425,7.0579 -9.42029,-7.4678 -7.65079,-9.5373 -10.89786,-4.8985 -4.89159,-11.3868 -10.426,-6.1782 -6.89302,-9.6172 -10.26304,-7.078 -10.27104,-6.1382 -11.87858,-2.0494 -3.90887,-13.4761 -8.95542,-8.0477 -1.83947,11.8166 -12.27947,2.5393 -7.47884,9.9371 -10.53497,-7.2379 -12.44741,0.5398 -9.48327,7.2279 -11.14579,4.0289 -10.21505,-6.4582 -11.72463,-3.0791 -11.87758,-0.1299 -6.42614,9.9971 -8.55854,8.3176 -5.63138,10.8169 -10.35701,6.788 -9.52926,8.1577 -9.31132,7.3578 -1.24064,0.27 0.95773,-4.9386 2.73021,-11.5367 6.06125,-10.1371 -11.1098,-4.2887 -11.7766,-3.3591 -9.26533,-7.9077 -4.1778,-11.1068 -9.10538,-7.5178 11.67364,-1.8695 6.933,-10.307 -3.65694,-11.3367 -8.67251,-8.1777 -12.1215,-1.6695 -9.87816,7.1579 5.99227,11.0368 -0.58883,12.8363 -9.0174,8.3976 -9.79218,-6.6081 -12.61836,0.9098 -12.00954,-0.2999 -11.7956,-2.3194 11.49568,-3.8489 9.25634,-7.7477 8.40258,-10.0171 -10.7849,-6.0783 -9.33931,-7.6378 1.0597,-12.0965 1.10768,-13.0662 4.26277,-11.2768 1.3836,-11.9765 -4.66465,-11.6167 2.15338,-11.6666 -10.10209,-6.1483 8.6575,-9.2273 12.46241,-1.6495 7.86874,-9.0174 -8.93743,-10.1371 3.72793,-11.4867 -1.77349,-11.9966 -6.934,-10.9468 10.02511,-6.7081 8.48155,-8.5975 -7.58581,-9.9971 1.98043,-11.7266 -0.013,-12.1865 11.13679,-4.4387 11.66664,-2.3794 11.8176,-2.5092 5.11553,-10.8069 0.3309,-11.8766 -2.4393,-11.6666 11.34373,7.0479 11.87458,-0.3599 9.69521,6.938 3.1451,11.5367 -3.58097,11.6866 6.38416,10.587 5.95828,10.507 3.8109,-11.8066 8.80247,-7.9877 12.63236,-3.1191 5.71435,10.7869 -6.30918,10.327 11.69363,3.7489 11.09081,4.2188 11.83159,0.01 9.62223,-7.088 12.04753,-2.7192 11.98154,-0.2099 0.04,-12.1365 6.44515,-10.1971 8.19863,-8.7875 -8.02368,-8.7874 -3.34004,-11.6667 -7.6448,-9.0374 11.74062,-2.7692 3.76491,-11.4167 10.12909,-6.2582 10.09409,6.1982 14.13892,4.0289 14.33787,0.6898 11.84059,0.4998 9.77119,6.6581 11.77661,1.6295 8.6575,-8.1776 10.28804,-6.1882 7.55482,-9.0774 11.32474,-4.3088 2.39831,-11.8565 10.61794,5.4384 11.0988,4.0388 5.04155,-10.7269 7.81075,-9.5372 10.95784,-5.8583 1.81948,-12.0766 4.99756,-10.7869 6.28819,-10.10705 -3.52199,-11.87358 7.13795,9.66721 9.86515,7.78472 10.26505,4.8486 9.64622,6.8881 -6.14123,10.5269 11.47469,-4.0188 11.35773,-5.7783 10.7589,4.9285 10.54296,5.9383 12.67935,2.1694 6.80804,10.267 11.4457,3.3591 5.66437,-10.677 11.59666,-2.3793 7.40487,-9.5572 9.18935,-7.6178 0.096,-0.18 3.496,2.2594 0.65081,-1.6995 1.0417,-2.7192 1.7155,-4.4788 4.97857,-1.3296 5.2155,1.8195 6.78404,2.3593 0.85176,-6.698 1.48257,0.3798 9.35125,2.4193 0.18,-9.88411 5.2185,1.3926 -0.18,3.45301 0.8998,2.8892 1.9694,-0.3299 4.1088,-0.6898 1.3496,2.9391 0.01,0.9497 0.06,2.9292 -3.0291,-0.9397 -0.8198,2.1094 -2.6592,6.818 -0.21,2.7292 -0.3999,5.2285 -0.02,0.2199 -1.0398,10.1271 -0.06,0.2599 2.3493,0.7198 4.8186,1.4896 2.1994,0.6798 2.7592,0.8498 0.05,0.1799 -0.5699,2.8692 7.4879,-0.5798 2.5692,-0.7998 0.7498,-0.2299 -1.1896,11.9565 0.4898,0.3199 3.6889,2.3693 3.1192,1.9995 0.1699,0.1099 1.1097,-1.3496 -0.9897,-1.2096 -2.5893,-2.9792 3.8989,-5.4284 0.9097,0.6998 1.3097,2.5692 0.6698,1.3197 8.9174,0.8997 3.0491,1.4596 1.3596,7.5878 7.2979,0.2499 0.2499,0.9897 13.3762,0.06 -0.02,-1.0697 4.9186,-0.4098 0.1599,6.688 -7.6078,0.22 0.21,5.1385 0.01,0.1699 -11.8166,4.6987 v 0.1 l 0.8397,2.1794 1.3596,3.539 1.8295,-0.14 1.1597,-0.08 3.5789,-0.26 5.0186,-0.3699 2.9991,2.9692 2.1694,2.1494 8.2976,0.02 12.0365,0.03 2.1594,-0.23 3.9089,-0.4199 -0.7298,-9.7272"
            id="path74"
            inkscape:connector-curvature="0"
            style="font-style:normal;font-weight:400;font-size:34.375px;font-family:'FreightSans W05 Book';fill:#090909;fill-opacity:1;fill-rule:evenodd;stroke:#ffffff;stroke-width:9.68751157;stroke-linecap:square;stroke-linejoin:bevel;stroke-opacity:1;stroke-dasharray:none" />
         <g
            font-size="34.375"
            font-style="normal"
            font-weight="400"
            id="g159"
            style="font-style:normal;font-weight:400;font-size:34.375px;font-family:'FreightSans W05 Book';fill:#090909;fill-opacity:1;fill-rule:evenodd;stroke:#ffffff;stroke-width:5.39766407;stroke-linecap:square;stroke-linejoin:bevel;stroke-opacity:1;stroke-dasharray:none"
            transform="matrix(1.79476,0,0,1.79476,948.907,1230.82)">
            <circle
               cx="12"
               cy="12"
               id="circle157"
               r="8"
               style="fill:#090909;fill-opacity:1;stroke:#ffffff;stroke-opacity:1;stroke-width:5.39766407;stroke-dasharray:none" />
         </g>
      </g>
      <g
         id="g8544">
         <path
            d="m 608.94958,2524.1329 9.33031,-8.0377 6.38616,-10.1471 -6.16622,-11.0568 11.93256,-1.2197 11.27275,-4.3087 10.89486,-4.5787 11.92857,0.7198 -3.24607,-11.5067 -4.06683,-11.5767 -5.12852,-11.7866 -4.97857,-11.2567 -8.20363,-8.9075 -4.20379,-11.2367 -7.80575,-8.9774 -3.97486,-11.3268 1.97943,-11.7066 -1.23864,-11.8266 -1.82048,-11.8366 2.88517,-11.9365 3.17909,-11.3968 3.87888,-11.2067 3.18008,-11.5267 1.42759,-11.8266 -8.6885,-9.6672 -6.34217,-10.0271 -4.1478,-11.1168 -5.14352,-11.7866 -9.21935,-7.5479 -10.98583,4.8486 -9.82317,6.5981 -6.64709,-10.127 -10.33702,-7.5379 -0.6848,-11.8765 8.27062,-8.4276 -0.82777,-11.7966 -4.4827,-11.1368 -7.78476,-8.9174 -9.50426,-7.9078 -4.02284,-11.1767 -2.26035,-11.6167 -5.16552,-11.5767 4.73864,-10.8168 1.3716,-11.9666 -6.941,-9.9071 -8.9974,-7.7478 -12.43842,-0.8598 -7.50584,9.3174 -6.99598,-9.9172 -7.15594,-9.6372 -9.95214,6.798 -2.72121,11.7466 -10.83488,5.2285 -11.64365,2.8592 -3.08811,-11.4467 -9.09238,-7.5578 -2.99114,-11.4467 10.21606,-6.1083 10.56396,5.6684 2.97614,-11.5567 3.43801,-11.3167 -9.78918,-6.6081 -11.58666,-2.8592 1.20565,-12.0165 -7.37188,-9.8072 -11.60865,-2.8792 1.68851,-11.7466 -4.44172,-4.5287 7.15394,-9.4073 9.0134,-7.6977 11.1258,-5.0886 0.38189,-11.8666 10.69792,5.6284 9.18235,8.0477 11.24176,-4.3387 9.7242,6.918 11.72063,1.9094 -1.89846,-12.2864 10.98284,-7.038 3.24506,-12.6164 6.67308,-10.0171 -2.18737,-11.7866 -4.63566,-10.9568 -11.24176,-5.0486 -3.69894,-11.8266 6.01427,-10.357 11.84859,-1.8295 3.85389,-11.2167 8.77247,-7.9877 10.64693,-5.1885 10.01712,6.2581 8.75847,7.9578 11.22177,4.4387 11.88858,1.0197 11.68563,2.7692 6.73206,-10.1371 12.10751,-0.2099 7.87573,-9.0974 2.62025,-8.1677 11.13879,-4.8486 9.68321,-7.5278 11.85259,2.2694 10.37201,-5.6984 -1.50357,12.2665 3.97885,11.3367 8.11267,8.6975 7.80975,10.467 3.26306,12.6063 -0.82876,12.0466 12.05752,0.4698 -1.82547,12.2965 -5.79233,10.427 11.69663,3.2091 3.02413,11.5466 0.58783,12.2565 11.7946,4.9186 6.98999,9.9471 2.71521,-11.7366 1.02571,-12.3164 0.26292,-11.8766 -7.52983,-9.1874 10.44799,-5.9183 11.48669,-4.2887 10.39301,-5.9983 -8.84145,-8.2576 -6.44915,-10.2471 11.02483,-4.7186 9.89015,6.5681 2.39231,11.7466 11.92856,0.1 9.11138,8.0377 9.3823,7.6378 10.50397,-6.1883 10.60994,5.7284 11.77761,3.2291 11.87858,0.1999 11.96255,-1.0897 10.97484,5.1185 4.79262,-10.9568 11.22377,-4.5687 4.39673,11.4467 3.90588,11.3667 9.46227,7.5579 11.86758,-0.3799 11.75961,1.3996 -1.46158,11.9065 -11.38272,-3.249 -0.90574,11.9665 10.64394,6.5481 -3.482,11.6867 -4.26977,11.0468 -0.42088,12.2365 8.62552,8.0676 11.04082,-4.6186 11.87658,2.1294 11.81859,3.6589 12.33045,3.2691 3.59896,11.2867 7.77376,9.3273 11.93457,0.6498 11.03084,4.4987 9.1174,-7.5578 5.0585,10.6769 -7.9777,10.557 -5.2585,11.7366 -2.2194,11.7466 5.5784,10.477 8.4476,9.0674 11.2468,4.1388 10.5169,-5.5284 1.5896,-11.7066 7.3579,-9.2573 11.4667,4.3987 11.7666,2.0894 3.8589,11.2767 9.7471,6.7181 6.3782,10.0971 -0.4899,12.3464 -0.5498,5.5884 2.6792,12.0765 -4.7386,14.7958 -9.6372,14.3359 4.9186,17.145 8.6675,8.8375 9.2273,7.6378 8.1777,8.9974 4.7286,10.8568 -3.459,11.6967 -9.8672,6.768 -11.7866,1.5196 -11.4667,-4.8886 -7.9877,-9.2973 4.6587,-10.9469 -9.4273,-7.4278 -9.9871,-6.8581 -10.8069,6.3082 3.539,12.8963 -8.9375,7.8078 -6.9679,10.6969 0.7197,13.0062 -3.5289,11.2768 -6.8881,13.2662 -0.07,19.0045 6.1282,10.7169 -2.5393,11.6766 11.1068,-4.5986 10.8169,5.6483 -4.1088,11.0768 0.8698,13.3062 -1.5596,12.1165 -7.3879,9.7272 -11.0368,5.0886 -7.3479,9.9671 -4.8586,10.8269 -2.9191,12.1265 -0.3199,12.0465 -9.96617,6.3782 -2.39431,12.7563 -0.80077,11.9166 -5.35846,10.7069 -8.00469,9.1673 -3.77591,12.7064 -6.12824,10.6769 0.49086,12.0065 3.62196,11.3668 -11.99155,-0.01 -11.58366,-2.5093 -11.85159,-0.7398 -8.89844,8.1277 2.99814,11.8765 -0.88274,12.0466 -12.47041,0.4099 -12.1745,-1.6096 -11.4417,-3.2091 -3.59296,11.3168 -10.52797,-5.5584 -11.95056,0.3799 -12.37044,1.3696 -12.11351,1.3596 -12.04053,0.04 -4.91058,10.8768 -2.15038,12.0966 -5.51241,10.6169 -10.15408,6.0982 -11.56467,4.1988 -12.12451,-1.4196 -11.63264,-3.369 -11.64065,3.539 -12.8633,3.0491 -11.17378,-4.7786 -6.2242,-10.337 -9.35431,-7.8878 -10.78789,-6.0382 2.89516,-11.6167 -9.41028,-7.3279 -10.71492,-5.4084 -12.11751,2.8492 -9.55025,7.2379 -5.41744,-10.7369 -2.90416,-11.7266 7.58482,-9.0674 9.65621,-7.3579 -0.12796,-11.9866 -8.78847,-9.0973 -10.69492,-5.1785 -11.96555,-0.4999 -11.0928,4.7886 -12.1725,2.1094 -11.93656,-0.1699 -9.91114,-2.4393"
            id="path94"
            inkscape:connector-curvature="0"
            style="font-style:normal;font-weight:400;font-size:34.375px;font-family:'FreightSans W05 Book';fill:#090909;fill-opacity:1;fill-rule:evenodd;stroke:#ffffff;stroke-width:9.68751157;stroke-linecap:square;stroke-linejoin:bevel;stroke-opacity:1;stroke-dasharray:none" />
         <g
            font-size="34.375"
            font-style="normal"
            font-weight="400"
            id="g447"
            style="font-style:normal;font-weight:400;font-size:34.375px;font-family:'FreightSans W05 Book';fill:#090909;fill-opacity:1;fill-rule:evenodd;stroke:#ffffff;stroke-width:5.39766407;stroke-linecap:square;stroke-linejoin:bevel;stroke-opacity:1;stroke-dasharray:none"
            transform="matrix(1.79476,0,0,1.79476,675.65799,2285.41)">
            <circle
               cx="12"
               cy="12"
               id="circle445"
               r="8"
               style="fill:#090909;fill-opacity:1;stroke:#ffffff;stroke-opacity:1;stroke-width:5.39766407;stroke-dasharray:none" />
         </g>
      </g>
      <g
         font-size="34.375"
         font-style="normal"
         font-weight="400"
         id="g534"
         style="font-style:normal;font-weight:400;font-size:34.375px;font-family:'FreightSans W05 Book';fill:none;stroke:#000000;stroke-width:1;stroke-linecap:square;stroke-linejoin:bevel;stroke-opacity:1"
         transform="scale(0.999712)" />
      <g
         id="g7067">
         <path
            d="m 1931.9934,1729.1619 6.4882,9.9771 0.9597,12.1665 -0.4899,11.9665 -5.4084,11.0069 -11.5367,3.8589 -10.9968,4.7186 -12.1065,1.9694 1.1696,12.1965 5.9783,11.1568 6.4881,10.6569 4.4288,11.1268 2.0494,11.8466 -0.4599,11.7966 2.9692,11.7067 -10.3371,-5.7184 -9.7172,-6.918 -11.1767,-4.1788 -11.9466,-0.17 -11.4567,5.0886 -8.0277,9.3073 -6.0582,10.337 -11.9666,2.8292 -9.5073,7.7378 -10.7569,4.8986 -9.6672,7.0379 0.9897,11.7766 1.8395,11.7067 -1.0097,2.0294 -12.2565,1.0497 -11.8166,-0.18 -11.7966,-1.1296 2.2294,-11.7267 1.3196,-11.9865 -5.7983,-10.547 -0.08,-11.8266 -7.2679,-9.3373 -12.1865,-1.9494 -12.2365,3.369 -11.7866,1.2097 -13.1762,-0.3199 -11.5067,3.5489 -1.2796,-11.7566 6.5081,-9.9571 -8.1676,8.7275 -10.407,5.6284 -11.8066,0.5198 -13.0063,4.0089 -9.7871,-9.2974 -8.3177,-10.4969 -7.8877,-9.0474 -4.6286,-11.0968 -8.2877,-9.3973 -3.8189,-11.1968 -9.6572,6.888 -0.9697,-12.1265 -12.0965,-0.6998 -12.1165,-1.7995 -8.9674,-8.1076 11.6966,-3.729 -3.2291,-11.3967 4.8586,-10.9968 -11.8966,0.8597 -10.377,6.0483 -12.3764,1.5296 -11.6266,4.0888 -11.7667,-1.7095 -12.5763,-1.7095 -10.8969,5.4584 -11.6166,-2.2794 -12.2665,-3.0591 -11.7166,-2.2093 -7.018,-9.5473 -11.9866,-1.0897 -12.4864,1.6396 -11.5866,2.6292 -11.5567,-4.4987 3.8789,-12.8963 -10.9069,-6.0982 -10.9668,-5.3385 -11.9066,0.3299 -8.6875,8.5975 -11.1968,5.3785 -9.9871,7.2979 -3.279,11.4767 -3.429,11.3967 -7.2979,9.9471 -12.5164,-0.8497 -4.7187,12.2165 -11.8166,-0.4299 -0.2999,-0.4499 -7.5278,-6.4281 -12.1765,-1.5196 -10.567,-5.2985 5.4485,-10.7969 -4.0389,-11.2367 -1.6495,-12.4764 -3.0691,-11.5067 -10.637,-5.1985 -11.3267,-5.2385 -2.8592,-11.7166 -7.7877,-9.0674 -8.5975,-8.7375 -10.2671,6.3282 -7.9177,-10.0971 -9.4373,-7.4779 6.2882,-1.1996 6.3082,-10.2471 8.3876,-8.5175 10.8468,-4.9086 5.3285,-10.6969 -10.247,-7.4779 0.1699,-11.8166 8.7475,8.5576 8.2676,-8.8475 11.7966,-0.5998 3.2091,-11.5267 3.9688,-11.2068 5.2585,-10.6469 -1.5695,-11.7066 -2.1994,-11.7566 -11.7266,3.1691 1.5196,-12.6964 11.2067,4.4887 11.3767,3.419 5.1886,-11.0768 2.3893,-11.5866 4.3087,-11.0469 2.9892,-11.4267 9.3473,-7.3279 -2.3893,-11.8865 5.6983,-10.677 3.8589,-11.5866 3.429,3.6389 7.8578,9.0174 11.6066,-2.2593 0.4499,-11.9266 6.6081,-10.0271 9.9171,-7.9877 8.4376,-9.2973 11.6566,3.329 9.0174,7.7578 6.1483,10.0871 5.5484,11.1368 2.2793,12.3664 2.3493,11.7666 4.3188,11.5467 11.6466,2.4393 8.6775,-8.7775 9.3573,-7.6178 -3.179,11.6967 9.6472,7.0179 11.4967,-4.0188 11.0668,-4.4687 10.457,-5.5384 12.0265,-1.8895 -4.4987,-11.2367 9.1773,-7.9777 7.058,-9.6573 11.3567,3.3891 9.8272,-6.8081 11.8966,1.1397 10.477,-5.6384 9.6072,-7.3279 6.0083,-11.2567 10.257,-6.8081 5.7284,12.1465 11.6166,2.2494 11.4167,-3.689 11.8766,0.5199 10.1571,6.0882 8.5875,8.3676 -1.5595,4.7287 3.249,11.6766 0.11,12.9563 -7.1979,9.3873 -11.6067,2.7992 -11.6766,-2.2294 -4.9286,10.8069 11.5267,3.0691 11.5266,3.7989 -6.948,9.5972 2.8992,11.4867 11.5267,3.599 10.277,-6.798 11.8766,0.5198 10.0371,-7.2579 11.4767,-3.9289 9.5573,7.9777 3.7489,11.4967 11.3867,3.2291 11.5267,-4.0588 9.7272,7.3279 9.6972,7.4578 9.1074,7.6178 10.147,8.1877 8.2077,9.4672 0.8397,11.8466 0.6199,12.2765 4.3287,11.1468 8.2476,8.5075 7.5279,9.5773 -1.5096,11.7866 2.6192,11.5466 7.3779,9.5073 8.7775,9.5472 11.9166,1.0797 -5.0686,-10.8568 -0.06,-12.3765 10.9269,-5.4384 11.8566,2.0194 11.9965,-3.1391 11.9466,0.6898 10.7569,5.3985 4.2388,11.0868 9.0773,7.6478 9.3973,7.2179 11.0169,-5.2385 12.4964,0.1899 12.1964,-0.05 -5.3184,11.6066 10.0771,6.5481 4.6086,11.2768"
            id="path78"
            inkscape:connector-curvature="0"
            style="font-style:normal;font-weight:400;font-size:34.375px;font-family:'FreightSans W05 Book';fill:#090909;fill-opacity:1;fill-rule:evenodd;stroke:#ffffff;stroke-width:9.68751157;stroke-linecap:square;stroke-linejoin:bevel;stroke-opacity:1;stroke-dasharray:none" />
         <g
            font-size="34.375"
            font-style="normal"
            font-weight="400"
            id="g351"
            style="font-style:normal;font-weight:400;font-size:34.375px;font-family:'FreightSans W05 Book';fill:#090909;fill-opacity:1;fill-rule:evenodd;stroke:#ffffff;stroke-width:5.39766407;stroke-linecap:square;stroke-linejoin:bevel;stroke-opacity:1;stroke-dasharray:none"
            transform="matrix(1.79476,0,0,1.79476,1588.27,1631.2)">
            <circle
               cx="12"
               cy="12"
               id="circle349"
               r="8"
               style="fill:#090909;fill-opacity:1;stroke:#ffffff;stroke-opacity:1;stroke-width:5.39766407;stroke-dasharray:none" />
         </g>
      </g>
      <g
         id="g8562">
         <g
            id="g8554">
            <path
               d="m 238.67924,2154.0795 -12.11951,1.8494 -10.07809,-6.2182 -5.28948,-11.9065 11.99255,-0.1 -3.56398,-11.5067 5.94929,-10.337 -9.61223,-6.938 -7.43586,-9.3473 -1.33062,-11.8466 -5.13052,-10.9669 -6.69707,-11.4767 -4.68865,-10.9868 11.54767,-3.8489 -4.53669,-11.3867 3.42501,-11.4067 -7.37287,-9.3573 -8.62252,-8.3676 10.84788,-4.9786 10.70491,5.3385 12.95627,-1.3496 8.05768,-8.8075 9.40829,-8.4176 4.1758,-11.2067 -8.21264,-9.2974 -7.93671,9.4773 -6.55811,10.0271 -2.38132,-11.6166 -2.79119,-12.3665 -9.07339,-7.6778 -13.48211,1.9595 0.64081,-11.9366 -4.11281,-11.3867 -0.81277,-12.3065 6.57511,-10.397 10.7379,-5.0385 7.92072,-8.9774 10.60695,-5.8283 7.16793,9.8471 11.97755,-0.1199 11.70663,-2.2394 3.20108,-11.5567 -10.27105,-5.9583 -7.21892,-9.3972 0.18695,-11.8266 -3.52798,-12.6664 3.07811,-11.6966 -2.21736,-11.6567 -12.10551,-0.2199 -4.22079,-11.0868 0.19095,-12.5664 5.25648,-10.6669 3.42302,-11.3267 9.92014,-6.7681 7.60781,-9.4873 11.74761,-4.4787 10.18807,-6.5781 11.55667,-3.1791 -10.0661,-6.5781 9.32531,-8.6275 8.85545,-8.3876 4.27177,-12.8563 6.90201,-9.6772 -3.1261,-11.4667 -7.09695,-9.7172 2.7582,-11.5866 -5.70835,-10.687 1.77449,-11.7366 7.14494,-9.9971 11.49869,-4.6187 9.83916,-6.658 4.12381,-11.3768 11.66364,2.6593 11.68664,3.7589 11.69463,-1.9095 10.01611,-6.5681 4.96257,11.3268 10.82688,-4.9586 10.81989,5.1185 10.70791,6.0383 -8.93742,-7.9477 -5.19851,-10.9669 10.0761,-8.5275 2.0824,-11.6767 -11.84359,-2.9391 -9.13936,-7.5778 -2.89517,11.7966 -11.38272,-4.6587 -7.83274,9.0374 -12.03954,-0.2099 0.039,-11.9166 -10.94384,4.5587 -12.21349,-3.1791 -3.88488,-11.4967 -10.02311,-7.3379 -4.95857,-11.0268 -2.58526,-11.7566 8.88844,-7.9577 11.62465,2.4293 11.36473,-5.1285 12.02254,-2.6993 7.58281,-9.5372 10.87387,-6.1582 7.51384,-9.3573 12.10951,-0.06 -2.4463,-12.2065 -10.90986,-7.9077 -12.24947,-1.7595 -12.81331,-2.0894 -12.27246,4.3887 -9.10038,-7.6378 -11.99254,0.18 -12.41043,0.1599 -9.0254,-11.6166 -0.14796,-11.9066 -3.86988,-11.2268 -4.01584,-11.2767 -11.56167,-3.509 -12.40143,-0.9497 -11.92557,-0.7698 6.91201,9.6772 -11.38772,3.1591 -9.0314,7.6178 -4.09681,11.3367 -10.29304,-6.2082 4.02684,-11.6966 -4.80262,-11.2168 -1.62953,-12.9263 -0.91673,-12.1864 -11.23277,4.5386 -10.26604,-6.748 -3.57697,11.5067 1.71851,12.5764 -8.87345,8.1076 -9.92114,6.828 -9.08038,-8.6874 -8.32561,-8.3776 -11.80659,-3.469 -11.67664,-4.2188 0.97472,13.2662 -2.7752,11.6266 4.12481,11.4567 -12.62036,-0.5098 -5.5644,-10.697 -7.25391,-9.8671 -9.917945,6.4781 -10.891663,-4.5687 1.684415,-12.3264 -10.111687,-6.0983 -10.365714,6.5781 -12.854297,-2.0894 -12.561481,-2.9691 -4.297562,-11.1068 6.48973,-9.9671 3.469201,-11.4067 -8.271717,-8.5076 6.958895,-10.1971 12.126707,-1.3096 3.844492,-12.2764 -10.372012,-6.3882 6.604697,-9.9271 11.237663,-3.719 11.983848,2.4693 9.588538,8.1277 -3.05472,-11.4667 9.937437,-7.2479 3.899575,-11.1868 9.64622,-7.5378 10.65893,5.3084 4.25878,-11.0568 7.2669,-9.8371 11.93856,-1.0497 11.88058,0.8597 11.24176,-3.6689 11.92357,1.3596 5.71135,-10.627 -1.60154,-12.1965 1.20666,-13.0562 2.59525,-11.7866 11.21977,-4.5287 -7.78976,-9.1474 13.25418,1.3097 13.67806,-4.5087 -3.03213,-12.5264 5.67637,-12.7564 2.38031,-11.6266 0.41388,-11.9266 -4.8386,-10.9368 3.88688,-12.3465 11.52368,2.9092 10.21606,-6.1782 8.52654,-9.3473 10.08909,-8.9275 9.75819,-6.688 4.21779,-2.9192 0.82676,12.0265 1.93744,11.7567 12.24347,-0.7798 -0.81576,-11.9366 5.50941,-10.7169 8.53554,-8.1976 11.8226,-1.0897 10.24505,-6.6181 11.1078,4.7286 11.26675,3.549 12.1625,1.0697 10.72691,7.5078 11.7996,0.8498 6.48813,-10.0171 11.55367,-2.5193 9.61923,-7.038 12.43242,-3.7989 10.12908,6.5481 10.19206,6.4382 9.70221,7.3179 1.82147,11.9565 3.06112,6.0983 0.013,12.1865 -1.98043,11.7266 7.58581,9.9971 -8.48155,8.5975 -10.02511,6.7081 6.934,10.9468 1.77349,11.9966 -3.72793,11.4867 8.93743,10.1371 -7.86874,9.0174 -12.46241,1.6495 -8.6575,9.2273 10.10209,6.1483 -2.15338,11.6666 4.66465,11.6167 -1.3836,11.9765 -4.26277,11.2768 -1.10768,13.0662 -1.0597,12.0965 9.33931,7.6378 10.7849,6.0783 -8.40258,10.0171 -9.25634,7.7477 -11.49568,3.8489 11.7956,2.3194 12.00954,0.2999 12.61836,-0.9098 9.79218,6.6081 9.0174,-8.3976 0.58883,-12.8363 -5.99227,-11.0368 9.87816,-7.1579 12.1215,1.6695 8.67251,8.1777 3.65694,11.3367 -6.933,10.307 -11.67364,1.8695 9.10538,7.5178 4.1778,11.1068 9.26533,7.9077 11.7766,3.3591 11.1098,4.2887 -6.06125,10.1371 -2.73021,11.5367 -0.95773,4.9386 6.06625,10.457 6.29119,10.077 8.96542,9.9372 6.84303,9.6572 -6.38416,10.7469 -10.57696,6.2482 -10.99483,4.7486 -5.69236,10.9169 -0.24993,12.0465 -6.00527,10.2771 -10.50397,5.7183 1.3746,11.7666 -3.56297,11.3568 -12.48041,0.1899 -3.03012,11.6666 2.34832,11.6767 10.47798,6.0882 8.24563,8.7175 3.1071,12.2965 -7.60481,9.5572 -9.6982,6.7481 0.45687,11.8566 0.46686,11.8665 9.3903,-7.3079 10.86287,5.1586 11.54667,-2.4793 9.41529,-7.3279 10.58095,6.6481 10.17807,8.0876 10.30503,6.2582 10.49298,7.9278 10.44399,7.1479 9.77418,6.868 11.93057,-0.6198 10.22905,6.0582 10.80589,4.9886 -0.46387,12.0365 0.32291,12.1166 -8.78847,8.0276 -1.82748,11.7267 7.44986,9.2673 10.10409,6.1582 10.7349,5.3485 10.73591,4.9985 12.05053,0.4599 5.05055,10.9968 -0.025,0.9498 -1.90045,7.8677 0.94673,12.2365 -3.63595,12.1865 -10.03311,6.2782 -10.7729,-7.098 2.0954,-11.8266 -9.35731,-7.3579 -13.50811,-3.7789 -11.0918,4.6287 1.98343,11.9065 -11.75462,5.6684 -9.98312,8.2077 3.36303,12.0065 -1.60354,11.7666 -4.28476,11.1468 2.03041,11.9266 -2.10739,11.7566 10.93985,6.1882 10.44799,6.768 9.08838,7.9777 -2.62025,8.1677 -7.87573,9.0974 -12.10751,0.2099 -6.73206,10.1371 -11.68563,-2.7692 -11.88858,-1.0197 -11.22177,-4.4387 -8.75847,-7.9578 -10.01712,-6.2581 -10.64693,5.1885 -8.77247,7.9877 -3.85389,11.2167 -11.84859,1.8295 -6.01427,10.357 3.69894,11.8266 11.24176,5.0486 4.63566,10.9568 2.18737,11.7866 -6.67308,10.0171 -3.24506,12.6164 -10.98284,7.038 1.89846,12.2864 -11.72063,-1.9094 -9.7242,-6.918 -11.24176,4.3387 -9.18235,-8.0477 -10.69792,-5.6284 -0.38189,11.8666 -11.1258,5.0886 -9.0134,7.6977 -7.15394,9.4073 -8.56853,-8.6275 -11.63465,2.5393 -9.22634,7.7678 -7.17593,9.7871 -1.80948,11.8566 -11.1028,-4.0188 -9.42529,7.4378 -7.84374,-9.5272 -11.71262,6.0682 -10.33303,6.7381 -11.55267,-3.349 -5.99027,10.237 -8.12666,9.4573 -10.15508,6.0982 -11.08281,-6.2582 -8.72548,-8.1476 -11.4737,-3.609 -11.87657,-0.5998 -7.14695,9.8671 -0.53584,12.0666 2.0944,11.9765 4.58767,10.9069 3.31205,11.5466 -7.62081,9.7572 -11.31873,4.2488 -3.85789,11.4967 -1.10369,11.8166 -1.55255,0.7898"
               id="path84"
               inkscape:connector-curvature="0"
               style="font-style:normal;font-weight:400;font-size:34.375px;font-family:'FreightSans W05 Book';fill:#090909;fill-opacity:1;fill-rule:evenodd;stroke:#ffffff;stroke-width:9.68751157;stroke-linecap:square;stroke-linejoin:bevel;stroke-opacity:1;stroke-dasharray:none" />
            <g
               font-size="34.375"
               font-style="normal"
               font-weight="400"
               id="g135"
               style="font-style:normal;font-weight:400;font-size:34.375px;font-family:'FreightSans W05 Book';fill:#090909;fill-opacity:1;fill-rule:evenodd;stroke:#ffffff;stroke-width:5.39766407;stroke-linecap:square;stroke-linejoin:bevel;stroke-opacity:1;stroke-dasharray:none"
               transform="matrix(1.79476,0,0,1.79476,317.729,1691.23)">
               <circle
                  cx="12"
                  cy="12"
                  id="circle133"
                  r="8"
                  style="fill:#090909;fill-opacity:1;stroke:#ffffff;stroke-opacity:1;stroke-width:5.39766407;stroke-dasharray:none" />
            </g>
         </g>
         <g
            font-size="34.375"
            font-style="normal"
            font-weight="400"
            id="g399"
            style="font-style:normal;font-weight:400;font-size:34.375px;font-family:'FreightSans W05 Book';fill:#090909;fill-opacity:1;fill-rule:evenodd;stroke:#ffffff;stroke-width:5.39766407;stroke-linecap:square;stroke-linejoin:bevel;stroke-opacity:1;stroke-dasharray:none"
            transform="matrix(1.79476,0,0,1.79476,154.312,1353.24)">
            <circle
               cx="12"
               cy="12"
               id="circle397"
               r="8"
               style="fill:#090909;fill-opacity:1;stroke:#ffffff;stroke-opacity:1;stroke-width:5.39766407;stroke-dasharray:none" />
         </g>
      </g>
      <g
         font-size="34.375"
         font-style="normal"
         font-weight="400"
         id="g552"
         style="font-style:normal;font-weight:400;font-size:34.375px;font-family:'FreightSans W05 Book';fill:none;stroke:#000000;stroke-width:1;stroke-linecap:square;stroke-linejoin:bevel;stroke-opacity:1"
         transform="scale(0.999712)" />
      <g
         id="g8549">
         <path
            d="m 429.63723,2025.7564 4.44172,4.5287 -1.68851,11.7466 11.60865,2.8792 7.37188,9.8072 -1.20565,12.0165 11.58666,2.8592 9.78918,6.6081 -3.43801,11.3167 -2.97614,11.5567 -10.56396,-5.6684 -10.21606,6.1083 2.99114,11.4467 9.09238,7.5578 3.08811,11.4467 11.64365,-2.8592 10.83488,-5.2285 2.72121,-11.7466 9.95214,-6.798 7.15594,9.6372 6.99598,9.9172 7.50584,-9.3174 12.43842,0.8598 8.9974,7.7478 6.941,9.9071 -1.3716,11.9666 -4.73864,10.8168 5.16552,11.5767 2.26035,11.6167 4.02284,11.1767 9.50426,7.9078 7.78476,8.9174 4.4827,11.1368 0.82777,11.7966 -8.27062,8.4276 0.6848,11.8765 10.33702,7.5379 6.64709,10.127 9.82317,-6.5981 10.98583,-4.8486 9.21935,7.5479 5.14352,11.7866 4.1478,11.1168 6.34217,10.0271 8.6885,9.6672 -1.42759,11.8266 -3.18008,11.5267 -3.87888,11.2067 -3.17909,11.3968 -2.88517,11.9365 1.82048,11.8366 1.23864,11.8266 -1.97943,11.7066 3.97486,11.3268 7.80575,8.9774 4.20379,11.2367 8.20363,8.9075 4.97857,11.2567 5.12852,11.7866 4.06683,11.5767 3.24607,11.5067 -11.92857,-0.7198 -10.89486,4.5787 -11.27275,4.3087 -11.93256,1.2197 6.16622,11.0568 -6.38616,10.1471 -9.33031,8.0377 -8.39159,-8.3876 -9.49726,-8.4176 -12.07452,-1.8295 -11.56367,-2.6292 -3.76692,-11.3867 -12.4744,1.5495 -9.0154,8.2177 -9.51226,7.6178 -9.67522,-7.3779 -8.73448,-8.1677 -7.09796,-9.5672 -6.48513,-9.8672 -11.30474,-4.0988 -8.22363,-8.7974 -11.91957,2.3793 -12.20848,-1.4396 -7.25291,9.5672 12.04553,0.3799 10.0571,6.2782 10.26704,5.9683 -4.1558,11.5167 -4.25178,11.3067 8.04869,9.5173 5.29747,10.7769 -5.12952,10.7169 -8.73149,8.9574 -9.0214,7.6478 -10.01111,8.1676 -6.02127,-10.217 -1.20965,-11.8566 -7.16994,-9.6272 -8.28561,-8.6375 -11.4347,3.5889 -0.63582,11.8366 -2.51428,11.6367 -12.86529,-3.1791 -11.77561,-2.9692 -9.30932,-7.4978 -9.7262,-6.958 -6.92,9.8772 -3.92987,-11.4168 -2.37132,-11.7566 -11.64764,-2.9191 -3.54898,-11.5567 -6.76705,-10.267 -8.17764,9.0674 -6.49313,10.077 -11.62965,3.0192 -0.93773,11.9865 -10.73491,-6.4581 -11.7906,-2.7792 -1.71851,-12.1365 -0.6898,-11.7966 -11.50868,-3.429 -8.52755,-8.3376 -8.61152,-8.3276 -9.38529,-7.5579 1.0197,-11.8565 10.53497,-6.2882 -3.64995,-11.3368 -10.04211,-7.4778 -11.30174,-5.3885 -9.01041,-7.6977 -2.49428,-11.7566 -0.75678,-12.0766 -3.35503,-11.7766 -4.81162,-10.9468 -4.11781,-11.1368 -2.12739,-11.6567 10.96484,-4.6686 4.13181,-11.1568 5.36346,-10.557 5.27648,-11.4167 10.69392,5.4785 10.02011,6.3281 3.60596,11.4667 11.8066,-0.9497 11.24976,-5.6784 11.1178,-4.6586 11.51468,-4.5587 10.24405,-6.1282 7.6438,-9.5973 -1.25264,-12.0665 -4.20779,-11.2668 2.13638,-12.3064 3.16109,-11.5367 -3.83889,-11.1868 -7.86074,-8.9674 -4.62766,-11.6466 -5.37645,-10.517 -12.60337,-1.3896 -12.61137,5.3285 -8.10667,-9.0174 -11.92156,0.3099 -10.0721,-6.1782 -2.28434,-12.2365 0.13596,-12.1165 -1.25964,-11.8166 -2.0804,-7.9577 1.55255,-0.7898 1.10369,-11.8166 3.85789,-11.4967 11.31873,-4.2488 7.62081,-9.7572 -3.31205,-11.5466 -4.58767,-10.9069 -2.0944,-11.9765 0.53584,-12.0666 7.14695,-9.8671 11.87657,0.5998 11.4737,3.609 8.72548,8.1476 11.08281,6.2582 10.15508,-6.0982 8.12666,-9.4573 5.99027,-10.237 11.55267,3.349 10.33303,-6.7381 11.71262,-6.0682 7.84374,9.5272 9.42529,-7.4378 11.1028,4.0188 1.80948,-11.8566 7.17593,-9.7871 9.22634,-7.7678 11.63465,-2.5393 8.56853,8.6275"
            id="path92"
            inkscape:connector-curvature="0"
            style="font-style:normal;font-weight:400;font-size:34.375px;font-family:'FreightSans W05 Book';fill:#090909;fill-opacity:1;fill-rule:evenodd;stroke:#ffffff;stroke-width:9.68751157;stroke-linecap:square;stroke-linejoin:bevel;stroke-opacity:1;stroke-dasharray:none" />
         <g
            font-size="34.375"
            font-style="normal"
            font-weight="400"
            id="g207"
            style="font-style:normal;font-weight:400;font-size:34.375px;font-family:'FreightSans W05 Book';fill:#090909;fill-opacity:1;fill-rule:evenodd;stroke:#ffffff;stroke-width:5.39766407;stroke-linecap:square;stroke-linejoin:bevel;stroke-opacity:1;stroke-dasharray:none"
            transform="matrix(1.79476,0,0,1.79476,424.784,2402.8)">
            <circle
               cx="12"
               cy="12"
               id="circle205"
               r="8"
               style="fill:#090909;fill-opacity:1;stroke:#ffffff;stroke-opacity:1;stroke-width:5.39766407;stroke-dasharray:none" />
         </g>
      </g>
      <g
         font-size="34.375"
         font-style="normal"
         font-weight="400"
         id="g558"
         style="font-style:normal;font-weight:400;font-size:34.375px;font-family:'FreightSans W05 Book';fill:none;stroke:#000000;stroke-width:1;stroke-linecap:square;stroke-linejoin:bevel;stroke-opacity:1"
         transform="scale(0.999712)" />
      <path
         d="m 1326.038,1491.3504 -3.8589,11.5866 -5.6983,10.677 2.3893,11.8865 -9.3473,7.3279 -2.9892,11.4267 -4.3087,11.0469 -2.3893,11.5866 -5.1886,11.0768 -11.3767,-3.419 -11.2067,-4.4887 -1.5196,12.6964 11.7266,-3.1691 2.1994,11.7566 1.5695,11.7066 -5.2585,10.6469 -3.9688,11.2068 -3.2091,11.5267 -11.7966,0.5998 -8.2676,8.8475 -8.7475,-8.5576 -0.1699,11.8166 10.247,7.4779 -5.3285,10.6969 -10.8468,4.9086 -8.3876,8.5175 -6.3082,10.2471 -6.2882,1.1996 -9.5172,-6.3681 3.419,-11.3668 3.249,-11.4567 -4.3187,-11.2767 -10.8969,-5.1885 -2.6892,-11.8466 -11.6667,2.3193 -9.5172,-7.0879 -8.7775,-8.1777 -11.5766,2.5493 -8.7075,8.0777 -3.8089,11.2367 5.4184,10.637 -4.5587,10.9668 -12.9363,-0.13 -7.2779,-9.6772 -11.9565,4.4287 -7.148,-9.9171 -8.0776,-8.7375 -11.6767,-3.429 -10.267,-6.1082 -11.0568,4.5187 -12.0066,-1.9895 -10.277,-8.3775 -2.9891,-11.4467 -5.8484,-10.2571 -7.1479,9.4973 -8.1876,8.7574 -11.7767,1.4096 -4.5087,10.9569 -3.58892,11.3667 6.60812,10.1971 -4.87462,11.2967 -10.62694,6.0983 -12.1325,1.3096 -8.31761,-8.5276 -8.43257,-8.2676 -9.97012,-6.5981 -10.19707,6.3282 -11.55567,3.499 -10.35202,7.6178 -10.37401,7.6878 -12.51039,-0.16 -3.20208,-11.3667 -11.64365,-2.1094 -11.08181,-4.1288 -8.12865,-9.7672 -9.92015,-7.2279 -3.43301,-11.6666 -11.62265,-4.3588 -11.93656,-1.0597 -1.42259,-13.5461 -11.95955,0.4099 -4.1978,-11.5267 -11.68663,2.3893 -11.72362,2.9392 3.51699,11.3167 -7.22892,9.5673 -1.86347,12.0165 -11.95455,-2.5592 -8.23563,9.0673 -0.46886,11.8766 -10.93885,4.9086 -12.18549,3.1591 -11.78861,1.0897 -5.36545,-10.527 -8.44057,-8.9974 -9.76919,8.2976 -10.28103,8.3876 7.49484,9.2273 10.12508,6.5581 2.7712,12.0266 1.43759,12.5464 -4.50171,11.1168 -7.03497,10.0271 -5.78233,10.327 1.45258,11.8366 -5.85531,10.427 4.81161,10.8969 -11.95456,-0.04 0.025,-0.9498 -5.05055,-10.9968 -12.05053,-0.4599 -10.73591,-4.9985 -10.7349,-5.3485 -10.10409,-6.1582 -7.44986,-9.2673 1.82748,-11.7267 8.78847,-8.0276 -0.32291,-12.1166 0.46387,-12.0365 -10.80589,-4.9886 -10.22905,-6.0582 -11.93057,0.6198 -9.77418,-6.868 -10.44399,-7.1479 -10.49298,-7.9278 -10.30503,-6.2582 -10.17807,-8.0876 -10.58095,-6.6481 -9.41529,7.3279 -11.54667,2.4793 -10.86287,-5.1586 -9.3903,7.3079 -0.46686,-11.8665 -0.45687,-11.8566 9.6982,-6.7481 7.60481,-9.5572 -3.1071,-12.2965 -8.24563,-8.7175 -10.47798,-6.0882 -2.34832,-11.6767 3.03012,-11.6666 12.48041,-0.1899 3.56297,-11.3568 -1.3746,-11.7666 10.50397,-5.7183 6.00527,-10.2771 0.24993,-12.0465 5.69236,-10.9169 10.99483,-4.7486 10.57696,-6.2482 6.38416,-10.7469 -6.84303,-9.6572 -8.96542,-9.9372 -6.29119,-10.077 -6.06625,-10.457 1.24064,-0.27 9.31132,-7.3578 9.52926,-8.1577 10.35701,-6.788 5.63138,-10.8169 8.55854,-8.3176 6.42614,-9.9971 11.87758,0.1299 11.72463,3.0791 10.21505,6.4582 11.14579,-4.0289 9.48327,-7.2279 12.44741,-0.5398 10.53497,7.2379 7.47884,-9.9371 12.27947,-2.5393 1.83947,-11.8166 8.95542,8.0477 3.90887,13.4761 11.87858,2.0494 10.27104,6.1382 10.26304,7.078 6.89302,9.6172 10.426,6.1782 4.89159,11.3868 10.89786,4.8985 7.65079,9.5373 9.42029,7.4678 9.54425,-7.0579 3.06712,-12.1165 -7.89973,-8.9874 5.2075,-10.9269 3.484,-11.7966 12.72733,0.6498 12.00654,1.0897 5.83832,-10.377 10.56196,-7.3079 12.05353,-1.2696 11.17978,3.9388 6.87102,-9.6172 9.27632,-7.5778 1.20966,-15.1457 -6.71607,-10.0671 -14.50882,-1.3896 -4.43272,-11.1867 5.42743,-10.597 11.48969,-4.7786 8.37459,-8.3976 12.32945,-0.2399 10.44199,6.0982 9.69821,7.8378 11.94456,-1.4696 10.33202,-5.9983 7.78576,-9.1973 4.8616,-10.7769 3.53598,11.2767 2.68922,11.8266 4.60868,10.9569 -2.22736,13.9559 -4.44872,12.0566 -2.62125,12.2864 6.31818,11.5867 9.20035,7.5178 11.78761,1.1197 10.18106,6.0183 7.89373,-8.9774 10.01811,-6.8581 0.23494,-11.9665 11.96652,0.1499 12.7664,0.13 14.3158,-3.479 0.14,-11.9266 8.0077,-12.0365 12.2764,-1.0597 12.1166,-0.6798 6.748,-10.9768 9.5972,7.1979 9.9972,8.3476 11.6366,-3.609 10.8569,5.2285 11.5067,3.8389 12.6963,-0.05 12.1365,-0.03 0.01,0.03 0.14,12.7064 10.1371,6.858 9.4572,7.6578 0.01,11.8766 0.24,13.0762 0.3299,13.5761 0.2999,12.2665 12.1665,-0.08 12.7063,-0.14 13.2162,-0.1399 12.4764,-1.1997 10.477,5.6984 4.4587,11.1568 4.0588,11.1168 1.2197,12.0065 9.1274,7.8677 12.5563,-0.1399 11.3868,4.4187 11.9265,-3.1991 9.9772,6.7581 12.1065,2.1493 10.407,5.6184 4.3787,11.2768"
         id="path80"
         inkscape:connector-curvature="0"
         style="font-style:normal;font-weight:400;font-size:34.375px;font-family:'FreightSans W05 Book';fill:#090909;fill-opacity:1;fill-rule:evenodd;stroke:#ffffff;stroke-width:9.68751157;stroke-linecap:square;stroke-linejoin:bevel;stroke-opacity:1;stroke-dasharray:none" />
      <g
         font-size="34.375"
         font-style="normal"
         font-weight="400"
         id="g303"
         style="font-style:normal;font-weight:400;font-size:34.375px;font-family:'FreightSans W05 Book';fill:#090909;fill-opacity:1;fill-rule:evenodd;stroke:#ffffff;stroke-width:5.39766407;stroke-linecap:square;stroke-linejoin:bevel;stroke-opacity:1;stroke-dasharray:none"
         transform="matrix(1.79476,0,0,1.79476,891.757,1528.98)">
         <circle
            cx="12"
            cy="12"
            id="circle301"
            r="8"
            style="fill:#090909;fill-opacity:1;stroke:#ffffff;stroke-opacity:1;stroke-width:5.39766407;stroke-dasharray:none" />
      </g>
      <g
         font-size="34.375"
         font-style="normal"
         font-weight="400"
         id="g564"
         style="font-style:normal;font-weight:400;font-size:34.375px;font-family:'FreightSans W05 Book';fill:none;stroke:#000000;stroke-width:1;stroke-linecap:square;stroke-linejoin:bevel;stroke-opacity:1"
         transform="scale(0.999712)" />
      <g
         id="g6304">
         <path
            d="m 421.67053,741.06352 -6.18622,-10.62894 -8.37559,-8.81546 -8.80346,-8.13865 -4.09882,-11.17679 1.41159,-12.17849 -9.93114,-6.5751 11.57767,-3.06912 -0.52685,-11.88757 -5.2145,-10.81689 -7.86073,-9.19235 0.6778,-12.02254 -0.21794,-12.08452 11.79761,0.60683 11.97055,-1.52156 10.99483,5.30847 5.36745,-10.54096 10.90586,-6.952 9.13037,-7.91372 6.56611,-10.19606 2.34832,-11.67864 11.87658,1.7475 7.79476,9.14236 9.30931,-7.56082 12.12551,-0.3369 11.54668,-4.25278 8.33959,-8.42757 6.00727,-10.16507 -3.60096,-11.54368 5.75434,-11.22376 6.03026,-10.32103 3.44901,-11.81959 -3.96586,-11.56167 10.29504,-5.9293 10.27204,6.12324 1.44358,-12.40643 -5.34546,-10.84887 -7.73277,-8.92643 1.37261,-12.55538 7.05296,-10.13208 1.90146,-11.68964 -11.8216,1.45958 1.56555,-11.83559 -7.88573,-9.05439 -9.98812,-6.72706 -11.13279,-4.1808 -11.89058,-2.61124 -10.0611,-7.05297 11.33773,-3.67594 -2.0814,-11.79161 -5.01455,-10.88386 9.3553,-7.89573 -2.59025,-11.89757 6.13423,-10.16407 -3.02113,-11.43471 1.22565,-11.90157 -9.87316,-6.56311 -2.93615,-11.57866 -7.58382,-11.15379 -11.65564,-2.79619 0.53385,-13.01226 4.53969,-11.0888 8.71549,-8.44357 7.9817,-10.0601 6.5791,-10.48698 4.25478,-11.34373 5.69636,-10.55296 10.99183,-5.04555 11.8006,0.59683 8.93643,7.86373 12.22248,3.85189 10.87486,7.27691 7.86774,10.28604 12.51539,3.64694 12.82131,-1.19165 11.63565,3.83189 8.05568,11.69164 12.26246,2.64323 12.96227,-2.72221 11.76361,2.4223 10.83388,4.81161 11.95456,-3.24106 11.74961,-1.3786 12.96327,2.83018 11.90357,3.10711 11.02482,7.2739 6.10424,10.22206 11.59366,3.82889 12.06053,3.32404 13.58509,1.55856 12.42942,5.40844 14.00296,3.40602 7.61181,12.37943 6.955,11.65564 11.4547,5.34646 12.00554,0.68481 10.67692,-4.22079 -8.65051,6.53212 -5.00156,10.86787 -5.57139,10.59695 -11.86558,1.85446 -11.16479,3.90388 -8.40258,8.49355 -8.13965,10.0721 6.21821,10.0761 6.95,10.15807 7.73577,8.98641 9.96313,7.89273 -1.4066,12.01654 4.20179,11.13579 -4.58268,12.41842 -2.62924,12.00354 -3.88088,11.56167 -5.17251,10.68692 6.63309,10.26005 -3.79891,11.7866 -2.90216,11.55367 2.73821,11.55268 0.42088,11.81059 1.90245,11.99555 1.55255,12.60037 -0.72479,11.82459 0.67781,11.84959 -4.93858,10.92885 -8.31561,8.53354 -5.15051,10.70192 -11.51069,2.68523 -9.7102,6.75905 -11.69963,-1.66052 -6.57311,-9.97913 -9.32631,-7.58481 -11.21077,-5.88631 -8.98341,-8.24362 -8.22763,8.73148 -8.76448,8.6945 -7.12594,9.86815 5.11652,11.14579 5.15852,11.30175 7.17193,9.49926 8.43857,9.69421 7.79575,9.39729 8.59153,8.53254 1.81548,11.77661 3.76791,11.33174 -9.64822,0.98971 -12.03853,0.79177 -11.85059,2.86218 -11.83559,3.89788 -11.89257,0.97771 -8.52755,-8.17864 -8.95342,-7.75477 1.31562,-11.7946 -9.76818,-6.90001 -12.76533,1.01771 -11.30374,-5.47543 -11.40471,-3.97085 -6.86803,-9.60324 -11.97754,0.069 -3.81491,11.72863 -9.22434,7.50483 -3.42701,11.30475 -11.18078,3.86388 -9.42928,-7.43785 -10.81289,5.12352 -8.05268,8.6665 -11.74262,2.7772 -11.74761,1.17966 -0.52885,11.91157 4.13481,11.48469 4.56568,11.35373 7.34089,9.55825 -8.92343,8.39558 -10.86487,4.66866 -11.88958,-0.063 -7.31089,-9.32431 -11.90557,-2.04141 -10.69592,-5.00256 -10.53097,-5.69336 -9.24833,-7.95171 -8.65851,8.30161 -8.93042,8.81646 -8.76948,-8.18664 -11.71562,-1.84447"
            id="path76"
            inkscape:connector-curvature="0"
            style="font-style:normal;font-weight:400;font-size:34.375px;font-family:'FreightSans W05 Book';fill:#090909;fill-opacity:1;fill-rule:evenodd;stroke:#ffffff;stroke-width:9.68751157;stroke-linecap:square;stroke-linejoin:bevel;stroke-opacity:1;stroke-dasharray:none" />
         <circle
            cx="599.34711"
            cy="554.58514"
            id="circle421"
            r="14.35808"
            style="font-style:normal;font-weight:400;font-size:34.375px;font-family:'FreightSans W05 Book';fill:#090909;fill-opacity:1;fill-rule:evenodd;stroke:#ffffff;stroke-width:9.68751157;stroke-linecap:square;stroke-linejoin:bevel;stroke-opacity:1;stroke-dasharray:none" />
      </g>
      <g
         font-size="34.375"
         font-style="normal"
         font-weight="400"
         id="g570"
         style="font-style:normal;font-weight:400;font-size:34.375px;font-family:'FreightSans W05 Book';fill:none;stroke:#000000;stroke-width:1;stroke-linecap:square;stroke-linejoin:bevel;stroke-opacity:1"
         transform="scale(0.999712)" />
      <g
         id="g7062">
         <path
            d="m 1931.9934,1729.1619 -4.6086,-11.2768 -10.0771,-6.5481 5.3184,-11.6066 -12.1964,0.05 -12.4964,-0.1899 -11.0169,5.2385 -9.3973,-7.2179 -9.0773,-7.6478 -4.2388,-11.0868 -10.7569,-5.3985 -11.9466,-0.6898 -11.9965,3.1391 -11.8566,-2.0194 -10.9269,5.4384 0.06,12.3765 5.0686,10.8568 -11.9166,-1.0797 -8.7775,-9.5472 -7.3779,-9.5073 -2.6192,-11.5466 1.5096,-11.7866 -7.5279,-9.5773 -8.2476,-8.5075 -4.3287,-11.1468 -0.6199,-12.2765 -0.8397,-11.8466 -8.2077,-9.4672 -10.147,-8.1877 -9.1074,-7.6178 -9.6972,-7.4578 -9.7272,-7.3279 -11.5267,4.0588 -11.3867,-3.2291 -3.7489,-11.4967 -9.5573,-7.9777 -11.4767,3.9289 -10.0371,7.2579 -11.8766,-0.5198 -10.277,6.798 -11.5267,-3.599 -2.8992,-11.4867 6.948,-9.5972 -11.5266,-3.7989 -11.5267,-3.0691 4.9286,-10.8069 11.6766,2.2294 11.6067,-2.7992 7.1979,-9.3873 -0.11,-12.9563 -3.249,-11.6766 1.5595,-4.7287 -0.1799,-4.0588 4.8086,-10.8369 -11.5067,-3.1191 -2.4693,-12.8063 -5.7983,-10.487 -3.3391,-11.7166 -0.9297,-11.9266 4.7386,-11.0768 7.6078,-9.1173 11.8566,0.8097 5.0186,-10.9768 10.9868,-4.5687 12.3964,-0.5198 8.6376,-8.3976 10.4769,-6.1882 7.7078,-9.0074 1.5996,-11.8366 0.5698,-11.9566 -0.5299,-11.8566 9.1974,-7.5578 11.6566,-2.0794 11.7167,4.6187 11.3267,6.0082 5.4984,10.7169 9.8172,6.6881 12.2165,1.3996 10.347,6.6281 11.0968,6.2582 10.8769,5.2485 11.5166,-6.2182 11.2268,3.8389 11.0968,4.0388 9.6072,6.938 5.8883,10.477 7.4079,9.2573 9.3373,7.2979 6.1083,10.2871 11.9865,0.07 11.7266,3.3391 10.8269,4.9786 11.3967,3.229 10.3171,6.3882 11.3167,4.1488 11.5067,3.2291 10.1271,-6.2982 10.5469,-6.6581 6.3682,-10.9569 1.5595,-11.8565 6.4182,-10.1571 6.5881,-10.577 4.2788,-11.3467 11.8466,0.7698 9.3273,-7.3279 9.8371,-6.6281 10.607,-5.6384 9.5772,7.028 -2.6292,11.6466 1.7295,12.2165 -1.7095,11.8566 -2.4593,11.7966 10.277,8.0477 11.4967,3.0091 5.8883,10.467 6.808,9.8572 1.8595,11.6966 -1.9794,11.6866 -8.5376,8.1877 -6.5481,9.8571 3.599,11.3968 9.2773,8.1076 -3.359,11.4067 -10.1271,7.108 -11.6266,3.1891 -11.8566,0.9497 -9.3273,-7.6178 -10.9269,-5.0186 -12.1365,2.1994 -12.1565,-1.4896 -12.0365,0.5699 -11.3068,4.2187 -12.1565,2.3294 -11.8666,-1.6196 -1.9294,11.9766 6.7181,9.7472 4.3087,11.4867 -1.3596,11.8266 2.8292,11.6566 6.5281,10.0671 -2.6092,11.7266 1.3296,12.0766 5.6883,11.3767 3.4191,11.5966 9.5572,7.9877 6.4681,10.0771 1.6896,11.8966 2.7792,11.5167 -0.3999,11.8166 -3.2691,11.7066 -10.8369,5.9483 -12.4164,1.3696 -11.8066,-1.5595 -12.4464,-2.6893 -5.2785,10.607 -0.5898,11.8566 -0.2199,12.3664 -5.5085,3.8889"
            id="path82"
            inkscape:connector-curvature="0"
            style="font-style:normal;font-weight:400;font-size:34.375px;font-family:'FreightSans W05 Book';fill:#090909;fill-opacity:1;fill-rule:evenodd;stroke:#ffffff;stroke-width:9.68751157;stroke-linecap:square;stroke-linejoin:bevel;stroke-opacity:1;stroke-dasharray:none" />
         <g
            font-size="34.375"
            font-style="normal"
            font-weight="400"
            id="g279"
            style="font-style:normal;font-weight:400;font-size:34.375px;font-family:'FreightSans W05 Book';fill:#090909;fill-opacity:1;fill-rule:evenodd;stroke:#ffffff;stroke-width:5.39766407;stroke-linecap:square;stroke-linejoin:bevel;stroke-opacity:1;stroke-dasharray:none"
            transform="matrix(1.79476,0,0,1.79476,1663.12,1434.11)">
            <circle
               cx="12"
               cy="12"
               id="circle277"
               r="8"
               style="fill:#090909;fill-opacity:1;stroke:#ffffff;stroke-opacity:1;stroke-width:5.39766407;stroke-dasharray:none" />
         </g>
      </g>
      <g
         font-size="34.375"
         font-style="normal"
         font-weight="400"
         id="g576"
         style="font-style:normal;font-weight:400;font-size:34.375px;font-family:'FreightSans W05 Book';fill:none;stroke:#000000;stroke-width:1;stroke-linecap:square;stroke-linejoin:bevel;stroke-opacity:1"
         transform="scale(0.999712)" />
      <g
         id="g7072">
         <path
            d="m 1289.8684,2168.0854 -3.399,-2.7892 -4.4487,-11.0968 -7.7878,-9.9671 -4.6486,-10.9868 -7.3579,-10.9669 -7.4079,-9.2473 13.3462,-1.3196 11.9765,-1.1897 13.4961,-1.3196 11.8066,-4.4887 0.6898,-12.0066 -6.0282,-10.407 -1.4896,-11.7466 11.1968,-4.6786 1.6795,-11.6867 9.3273,-7.2679 7.2379,-9.5472 5.4984,-10.8369 3.1091,-11.5467 -1.8694,-12.0665 4.7586,-11.0768 -1.2596,-12.4964 4.0588,-11.1068 -7.7978,-9.0974 1.7196,-11.7066 0.6098,-12.2265 5.1185,-11.0268 2.2094,-11.6467 9.3773,-7.6777 11.9965,1.2396 4.4687,11.1568 3.439,11.4467 10.1171,6.938 -4.3087,-12.7663 -0.3599,-12.4464 -3.3791,-11.9366 -3.6989,-11.2968 1.7195,-11.8865 3.1491,-11.8666 -5.5684,-10.487 -4.9886,-11.1368 4.3988,-10.9768 11.9365,-5.2385 2.2794,-11.9366 -12.1365,1.5896 -11.9066,2.0094 -9.1174,8.4076 -11.0568,5.1385 -8.7275,-8.0577 -7.8577,-8.9474 -3.8689,-11.1568 0.2999,0.4499 11.8166,0.4299 4.7187,-12.2165 12.5164,0.8497 7.2979,-9.9471 3.429,-11.3967 3.279,-11.4767 9.9871,-7.2979 11.1968,-5.3785 8.6875,-8.5975 11.9066,-0.3299 10.9668,5.3385 10.9069,6.0982 -3.8789,12.8963 11.5567,4.4987 11.5866,-2.6292 12.4864,-1.6396 11.9866,1.0897 7.018,9.5473 11.7166,2.2093 12.2665,3.0591 11.6166,2.2794 10.8969,-5.4584 12.5763,1.7095 11.7667,1.7095 11.6266,-4.0888 12.3764,-1.5296 10.377,-6.0483 11.8966,-0.8597 -4.8586,10.9968 3.2291,11.3967 -11.6966,3.729 8.9674,8.1076 12.1165,1.7995 12.0965,0.6998 0.9697,12.1265 9.6572,-6.888 3.8189,11.1968 8.2877,9.3973 4.6286,11.0968 7.8877,9.0474 8.3177,10.4969 9.7871,9.2974 13.0063,-4.0089 11.8066,-0.5198 10.407,-5.6284 8.1676,-8.7275 -6.5081,9.9571 1.2796,11.7566 11.5067,-3.5489 13.1762,0.3199 11.7866,-1.2097 12.2365,-3.369 12.1865,1.9494 7.2679,9.3373 0.08,11.8266 5.7983,10.547 -1.3196,11.9865 -2.2294,11.7267 11.7966,1.1296 11.8166,0.18 12.2565,-1.0497 2.8692,11.5767 -1.5496,12.0765 -2.0194,11.7066 1.1697,11.9965 -3.9289,11.4168 8.1776,8.8174 4.6287,10.9069 6.6781,9.8171 -1.1997,11.9966 2.1894,11.6466 -1.7195,11.7766 -2.6792,12.1765 -12.4365,-4.0088 -11.2467,-3.9389 -8.1377,-8.9474 -11.0268,-5.2785 -11.6466,-2.5692 -11.0768,-5.3285 -12.1365,-0.4899 -1.7295,-11.8565 -5.0386,-10.8069 1.4696,-12.1265 1.2696,-12.0466 -10.507,-7.2779 -11.4667,-3.6889 -11.9765,-1.4896 -10.7069,-5.7983 -6.7981,10.217 -8.9474,8.0277 -11.3467,-4.1288 -12.8263,-2.0694 -12.8763,-0.2899 -11.2168,4.5387 -6.1282,10.327 1.4996,11.7266 9.0773,8.4476 3.1291,11.4367 -5.5984,10.567 -7.5378,9.2273 -11.7166,3.8889 -3.409,11.7566 -5.4884,10.577 -10.1971,6.4881 -3.0191,11.7466 -4.2988,11.0968 -5.4184,11.1768 -2.4293,12.2365 -3.639,11.5866 9.9971,-6.2982 -4.5087,11.0369 8.8475,8.0376 11.3567,4.9686 8.5376,8.2376 9.8571,6.7381 8.7475,7.9877 11.5167,-2.6992 11.8566,2.4893 12.6363,-1.2697 12.7164,0.6998 11.7266,2.9192 11.8666,0.7798 10.367,6.4781 7.3179,9.4173 3.349,11.3467 11.3967,-3.8489 10.2071,6.5781 10.437,5.9783 3.399,11.3567 2.1894,11.6767 0.3099,13.2162 6.878,9.8171 -1.0897,11.8766 7.4778,9.4773 2.0794,11.7066 -9.8771,6.5381 -12.2165,-1.6195 -11.2367,-3.9089 -9.6773,6.968 -6.938,9.8672 -11.7166,-2.5893 -11.2667,-3.589 -11.5767,-2.5292 -5.2685,10.6969 -5.9183,10.277 -2.9891,11.7966 -11.4067,3.689 1.5895,-11.8966 0.3999,-11.8666 -9.9272,8.0077 -12.0965,-1.6595 1.4396,11.7966 -5.8583,10.547 -8.5575,8.6375 -11.4667,-3.689 -8.8575,-8.1076 -8.6275,-8.0677 -4.5387,-10.9968 -5.7783,-10.417 -11.9266,0.4798 -9.3573,-7.2479 -4.8186,-10.8969 -11.1268,-4.9185 -12.5864,-0.29 -11.2767,-4.6786 -10.9569,-4.5287 -11.9865,1.3296 -11.9966,0.04 -4.3587,-11.0068 -11.3567,-3.8489 -11.8266,0.7898 -11.8266,0.2199 -10.567,-5.9083 -8.4175,-8.5975 -11.8366,-3.589 1.8994,-11.6766 -4.6886,-10.9869 -6.3182,-10.317 8.6175,-8.5675 -9.7472,-7.5379 -11.8166,1.4096 -7.8477,-9.0574 -6.5581,-10.247 -10.2371,6.1982 -10.5869,-5.4884 -9.2674,-8.1377 -11.9065,2.3394 -10.647,5.1285 -0.9297,-11.9766 -8.8275,-8.1376 -11.7666,1.3896 -12.2264,1.6295 -11.8866,2.9092 -6.0383,5.3584"
            id="path88"
            inkscape:connector-curvature="0"
            style="font-style:normal;font-weight:400;font-size:34.375px;font-family:'FreightSans W05 Book';fill:#090909;fill-opacity:1;fill-rule:evenodd;stroke:#ffffff;stroke-width:9.68751157;stroke-linecap:square;stroke-linejoin:bevel;stroke-opacity:1;stroke-dasharray:none" />
         <g
            font-size="34.375"
            font-style="normal"
            font-weight="400"
            id="g375"
            style="font-style:normal;font-weight:400;font-size:34.375px;font-family:'FreightSans W05 Book';fill:#090909;fill-opacity:1;fill-rule:evenodd;stroke:#ffffff;stroke-width:5.39766407;stroke-linecap:square;stroke-linejoin:bevel;stroke-opacity:1;stroke-dasharray:none"
            transform="matrix(1.79476,0,0,1.79476,1501.58,1814.79)">
            <circle
               cx="12"
               cy="12"
               id="circle373"
               r="8"
               style="fill:#090909;fill-opacity:1;stroke:#ffffff;stroke-opacity:1;stroke-width:5.39766407;stroke-dasharray:none" />
         </g>
      </g>
      <g
         font-size="34.375"
         font-style="normal"
         font-weight="400"
         id="g582"
         style="font-style:normal;font-weight:400;font-size:34.375px;font-family:'FreightSans W05 Book';fill:none;stroke:#000000;stroke-width:1;stroke-linecap:square;stroke-linejoin:bevel;stroke-opacity:1"
         transform="scale(0.999712)" />
      <g
         id="g6309">
         <path
            d="m 827.44363,757.98764 2.18737,-19.54537 -9.66321,-4.69364 -15.01967,3.52798 -3.20008,-6.91501 -8.61052,-2.16537 -1.57755,-0.39689 -4.20979,-7.04797 -0.62082,-1.0377 -12.95426,-2.68423 0.22093,8.82246 -8.42457,-4.24578 -1.33062,1.28663 -5.17851,5.00956 -0.56083,0.54284 -1.28364,-1.90745 -2.28634,-3.39802 -5.06654,-4.99456 -5.42144,-13.04124 -0.73978,-0.025 -1.15167,-0.038 -3.76791,-11.33174 -1.81548,-11.77661 -8.59153,-8.53254 -7.79575,-9.39729 -8.43857,-9.69421 -7.17193,-9.49926 -5.15852,-11.30175 -5.11652,-11.14579 7.12594,-9.86815 8.76448,-8.6945 8.22763,-8.73148 8.98341,8.24362 11.21077,5.88631 9.32631,7.58481 6.57311,9.97913 11.69963,1.66052 9.7102,-6.75905 11.51069,-2.68523 5.15051,-10.70192 8.31561,-8.53354 4.93858,-10.92885 -0.67781,-11.84959 0.72479,-11.82459 -1.55255,-12.60037 -1.90245,-11.99555 -0.42088,-11.81059 -2.73821,-11.55268 2.90216,-11.55367 3.79891,-11.7866 -6.63309,-10.26005 5.17251,-10.68692 3.88088,-11.56167 2.62924,-12.00354 4.58268,-12.41842 -4.20179,-11.13579 1.4066,-12.01654 -9.96313,-7.89273 -7.73577,-8.98641 -6.95,-10.15807 -6.21821,-10.0761 8.13965,-10.0721 8.40258,-8.49355 11.16479,-3.90388 11.86558,-1.85446 5.57139,-10.59695 5.00156,-10.86787 8.65051,-6.53212 10.99483,5.18451 11.65965,-3.30005 11.63964,-6.21021 11.65864,-3.36703 11.63765,2.52927 11.76161,-5.99228 5.46143,-12.27346 14.29888,-1.3916 13.09823,-3.57497 5.14352,10.97884 8.76347,8.15465 2.33433,11.61965 1.07669,11.96256 -1.00871,11.7846 7.55382,9.14937 6.29819,10.0591 9.33431,8.05768 2.03341,11.63864 5.76934,11.24177 2.21536,11.62965 3.85889,11.49668 -1.99342,11.92857 11.27775,3.59396 11.4167,3.19808 9.3773,-8.48356 11.8066,-4.30376 10.607,-5.57039 10.4169,-5.68536 11.5467,2.54226 9.9072,-6.61609 11.0968,-4.90559 11.8266,-3.8029 11.8765,1.44858 10.9769,5.06954 10.517,5.64837 1.0097,11.85059 8.8874,8.19864 2.0294,11.76261 3.599,11.32174 0.9497,12.08752 -1.7295,12.1365 5.8883,10.67792 6.2482,10.02911 10.2271,6.02127 -10.7269,6.31418 -11.3368,5.87631 -9.6272,6.934 -7.2479,9.80218 8.9774,8.13365 11.2068,4.92259 11.7866,1.0357 6.778,10.20306 10.2971,-7.90372 7.6178,-9.61623 10.9568,-5.51142 10.1771,5.40345 0.03,7.9817 1.6095,12.43242 8.1077,8.85245 12.1065,-1.78149 11.3367,-4.93258 5.0486,-10.90086 8.9974,-7.95071 10.5369,5.74834 12.3065,-2.93515 1.4296,11.84759 -4.5687,11.48669 1.9194,11.75161 -0.3399,12.24048 6.6481,9.86316 12.3465,3.63495 -3.479,11.42571 6.0582,10.36101 3.7989,11.25376 -10.7369,5.29447 -2.2193,12.01754 -9.2274,7.79476 11.5967,3.24806 -9.7472,7.96071 -10.487,5.65637 -5.8883,10.27404 0.6498,12.31745 7.138,9.50926 8.8274,8.49955 4.1488,11.4537 -9.9471,6.80904 -12.4764,-0.6958 -11.7666,1.0427 -9.4773,7.31689 -11.6866,-1.83547 -8.7175,8.28662 -7.208,9.50826 -11.8565,1.22664 -8.4476,8.36859 -11.4567,-4.72863 -11.8066,-2.42131 -9.0674,-7.72577 -12.3064,-4.95058 -7.6278,-10.08109 -8.7675,8.86544 -0.9997,11.98355 -10.9969,4.38174 -11.9865,0.53285 -7.5778,9.40829 -2.7292,11.72662 -12.1365,-1.37561 -1.3097,11.94556 -7.5678,9.22635 -1.3196,11.7796 -0.9597,11.89458 -4.2888,11.4287 1.6895,11.71563 2.3893,11.95056 6.948,9.58823 4.8186,10.82289 2.9892,11.84558 -9.7672,6.88702 -8.9574,9.25733 -10.437,-6.48313 -10.8369,-4.92058 -8.1477,-9.07739 -9.2573,7.45386 -4.6287,10.99383 -10.5469,5.62338 -9.4973,-7.9727 -10.7569,5.00655 -10.29602,5.95129 -11.52068,3.1031 8.15465,9.00041 7.3169,9.77219 7.15495,9.7172 -2.0394,11.68063 -11.79663,2.91316 -11.92256,2.57926 -6.66908,9.91115 -12.08552,0.11296 4.76763,11.31476 1.98842,11.7066 -0.096,0.18 -9.18935,7.6178 -7.40487,9.5572 -11.59666,2.3793 -5.66437,10.677 -11.4457,-3.3591 -6.80804,-10.267 -12.67935,-2.1694 -10.54296,-5.9383 -10.7589,-4.9285 -11.35773,5.7783 -11.47469,4.0188 6.14123,-10.5269 -9.64622,-6.8881 -0.016,-0.1999 -0.10397,-1.3396 -0.3559,-1.2796 -0.11996,-0.4299 -0.25093,-0.8998 -1.61953,-2.0894 -1.61354,-2.1693 -0.78077,-1.0497 0.11596,-1.46163 1.12268,-1.98143 -4.1678,-6.936 -0.37889,-3.89588 1.51356,-2.27434 1.43959,-2.16338 2.15038,-3.1371 -0.38989,-0.26792 -1.10368,-0.57883 1.31662,-2.92816 0.77478,-2.15538 1.43858,-1.91844 -2.7642,-2.55127 -0.51185,-0.47186 -5.28848,-4.8806 -1.33861,2.0954 -3.05412,-4.43672 -0.11397,-1.00471 -0.12796,-1.13168 1.66352,-1.05969 0.3379,-3.31505 0.065,-0.63282 -1.80948,-1.61753 -0.53584,-2.75521 -1.29563,-6.66408 -0.10397,-0.53084 -0.42288,-2.36832 -0.092,-0.51085 3.69993,-5.16752 2.4483,-0.18894 -0.31591,-9.31132 1.99742,-1.93244 0.30591,-0.29592 1.80249,-4.39373 -6.83704,-3.09211 0.24893,-2.05841 -0.58883,-3.57597 -3.56297,-1.16466 0.3569,-1.80648 0.17195,-0.86975 -0.67581,-0.20794 -8.48256,-2.61025 0.29292,-2.82019 -0.15196,-4.10281 4.61667,1.16566 -0.051,-1.16466 -0.19694,-4.41273 2.54926,-1.90346 2.57626,-1.92444 0.95272,0.54384 6.98399,-9.10437 0.66281,-0.86476 -6.14723,-6.85802 -1.3676,1.29063 -3.59297,3.39002 -1.56955,-1.22465 -1.87546,-1.46257 -6.54111,1.3806 -3.60596,-0.28492 -5.95329,-3.91687 -1.85746,2.31133 -0.94173,1.17366 -1.46958,1.82848 -0.87974,-1.28463 -0.81477,-1.18966 -5.64537,-8.24562 -1.35561,-1.97943 2.16837,-4.8626 2.68523,-1.89846 1.09368,-0.77277 1.0497,-4.8556 0.095,-0.43688 1.85347,-8.57853 0.19394,-0.89974 0.75579,-3.49399 1.24164,-1.17066 4.59068,-4.32476 2.12838,-1.86946 1.00971,-0.88674 10.30203,-9.0464 0.59383,-0.52085 9.42429,-8.27561 4.1778,-4.98857 1.3766,-1.64252 1.59454,-1.90446 6.938,3.24507 2.19437,-0.81177 3.93986,-1.45758 1.27963,-0.47286 -1.66352,-4.38974 -8.90743,-23.49023 -1.24064,-5.83832 -1.24964,-5.8843 -3.62196,2.91816 -10.42,-4.70565 -8.23463,-3.71893"
            id="path70"
            inkscape:connector-curvature="0"
            style="font-style:normal;font-weight:400;font-size:34.375px;font-family:'FreightSans W05 Book';fill:#090909;fill-opacity:1;fill-rule:evenodd;stroke:#ffffff;stroke-width:9.68751157;stroke-linecap:square;stroke-linejoin:bevel;stroke-opacity:1;stroke-dasharray:none" />
         <g
            font-size="34.375"
            font-style="normal"
            font-weight="400"
            id="g231"
            style="font-style:normal;font-weight:400;font-size:34.375px;font-family:'FreightSans W05 Book';fill:#090909;fill-opacity:1;fill-rule:evenodd;stroke:#ffffff;stroke-width:5.39766407;stroke-linecap:square;stroke-linejoin:bevel;stroke-opacity:1;stroke-dasharray:none"
            transform="matrix(1.79476,0,0,1.79476,1034.79,611.703)">
            <circle
               cx="12"
               cy="12"
               id="circle229"
               r="8"
               style="fill:#090909;fill-opacity:1;stroke:#ffffff;stroke-opacity:1;stroke-width:5.39766407;stroke-dasharray:none" />
         </g>
      </g>
      <g
         font-size="34.375"
         font-style="normal"
         font-weight="400"
         id="g588"
         style="font-style:normal;font-weight:400;font-size:34.375px;font-family:'FreightSans W05 Book';fill:none;stroke:#000000;stroke-width:1;stroke-linecap:square;stroke-linejoin:bevel;stroke-opacity:1"
         transform="scale(0.999712)" />
      <g
         id="g8539">
         <g
            id="g7805">
            <path
               d="m 631.16118,1886.5365 -9.08838,-7.9777 -10.44799,-6.768 -10.93985,-6.1882 2.10739,-11.7566 -2.03041,-11.9266 4.28476,-11.1468 1.60354,-11.7666 -3.36303,-12.0065 9.98312,-8.2077 11.75462,-5.6684 -1.98343,-11.9065 11.0918,-4.6287 13.50811,3.7789 9.35731,7.3579 -2.0954,11.8266 10.7729,7.098 10.03311,-6.2782 3.63595,-12.1865 -0.94673,-12.2365 1.90045,-7.8677 11.95456,0.04 -4.81161,-10.8969 5.85531,-10.427 -1.45258,-11.8366 5.78233,-10.327 7.03497,-10.0271 4.50171,-11.1168 -1.43759,-12.5464 -2.7712,-12.0266 -10.12508,-6.5581 -7.49484,-9.2273 10.28103,-8.3876 9.76919,-8.2976 8.44057,8.9974 5.36545,10.527 11.78861,-1.0897 12.18549,-3.1591 10.93885,-4.9086 0.46886,-11.8766 8.23563,-9.0673 11.95455,2.5592 1.86347,-12.0165 7.22892,-9.5673 -3.51699,-11.3167 11.72362,-2.9392 11.68663,-2.3893 4.1978,11.5267 11.95955,-0.4099 1.42259,13.5461 11.93656,1.0597 11.62265,4.3588 3.43301,11.6666 9.92015,7.2279 8.12865,9.7672 11.08181,4.1288 11.64365,2.1094 3.20208,11.3667 12.51039,0.16 10.37401,-7.6878 10.35202,-7.6178 11.55567,-3.499 10.19707,-6.3282 9.97012,6.5981 8.43257,8.2676 8.31761,8.5276 12.1325,-1.3096 10.62694,-6.0983 4.87462,-11.2967 -6.60812,-10.1971 3.58892,-11.3667 4.5087,-10.9569 11.7767,-1.4096 8.1876,-8.7574 7.1479,-9.4973 5.8484,10.2571 2.9891,11.4467 10.277,8.3775 12.0066,1.9895 11.0568,-4.5187 10.267,6.1082 11.6767,3.429 8.0776,8.7375 7.148,9.9171 11.9565,-4.4287 7.2779,9.6772 12.9363,0.13 4.5587,-10.9668 -5.4184,-10.637 3.8089,-11.2367 8.7075,-8.0777 11.5766,-2.5493 8.7775,8.1777 9.5172,7.0879 11.6667,-2.3193 2.6892,11.8466 10.8969,5.1885 4.3187,11.2767 -3.249,11.4567 -3.419,11.3668 9.5172,6.3681 9.4373,7.4779 7.9177,10.0971 10.2671,-6.3282 8.5975,8.7375 7.7877,9.0674 2.8592,11.7166 11.3267,5.2385 10.637,5.1985 3.0691,11.5067 1.6495,12.4764 4.0389,11.2367 -5.4485,10.7969 10.567,5.2985 12.1765,1.5196 7.5278,6.4281 3.8689,11.1568 7.8577,8.9474 8.7275,8.0577 11.0568,-5.1385 9.1174,-8.4076 11.9066,-2.0094 12.1365,-1.5896 -2.2794,11.9366 -11.9365,5.2385 -4.3988,10.9768 4.9886,11.1368 5.5684,10.487 -3.1491,11.8666 -1.7195,11.8865 3.6989,11.2968 3.3791,11.9366 0.3599,12.4464 4.3087,12.7663 -10.1171,-6.938 -3.439,-11.4467 -4.4687,-11.1568 -11.9965,-1.2396 -9.3773,7.6777 -2.2094,11.6467 -5.1185,11.0268 -0.6098,12.2265 -1.7196,11.7066 7.7978,9.0974 -4.0588,11.1068 1.2596,12.4964 -4.7586,11.0768 1.8694,12.0665 -3.1091,11.5467 -5.4984,10.8369 -7.2379,9.5472 -9.3273,7.2679 -1.6795,11.6867 -11.1968,4.6786 1.4896,11.7466 6.0282,10.407 -0.6898,12.0066 -11.8066,4.4887 -13.4961,1.3196 -11.9765,1.1897 -13.3462,1.3196 7.4079,9.2473 7.3579,10.9669 4.6486,10.9868 7.7878,9.9671 4.4487,11.0968 3.399,2.7892 -6.838,9.6373 -1.9894,11.6966 -9.7972,-6.7281 -4.5287,-11.0168 -11.3867,-3.379 -8.0877,-8.8075 -6.1382,-10.1071 -2.2394,-12.0065 -5.4184,-11.4467 -11.9466,-0.6398 -11.8366,-1.6196 -11.1568,4.1088 -11.0368,4.5187 -10.8469,6.6181 -9.5872,-8.0876 -7.3579,9.7072 -11.2367,3.8189 -5.5184,-10.647 -10.467,5.8284 -11.8266,-2.3794 2.3693,12.1365 -6.3382,10.537 -11.6366,3.8989 -11.7167,-2.0794 -2.9891,1.2596 0.5498,-5.5884 0.4899,-12.3464 -6.3782,-10.0971 -9.7471,-6.7181 -3.8589,-11.2767 -11.7666,-2.0894 -11.4667,-4.3987 -7.3579,9.2573 -1.5896,11.7066 -10.5169,5.5284 -11.2468,-4.1388 -8.4476,-9.0674 -5.5784,-10.477 2.2194,-11.7466 5.2585,-11.7366 7.9777,-10.557 -5.0585,-10.6769 -9.1174,7.5578 -11.03084,-4.4987 -11.93457,-0.6498 -7.77376,-9.3273 -3.59896,-11.2867 -12.33045,-3.2691 -11.81859,-3.6589 -11.87658,-2.1294 -11.04082,4.6186 -8.62552,-8.0676 0.42088,-12.2365 4.26977,-11.0468 3.482,-11.6867 -10.64394,-6.5481 0.90574,-11.9665 11.38272,3.249 1.46158,-11.9065 -11.75961,-1.3996 -11.86758,0.3799 -9.46227,-7.5579 -3.90588,-11.3667 -4.39673,-11.4467 -11.22377,4.5687 -4.79262,10.9568 -10.97484,-5.1185 -11.96255,1.0897 -11.87858,-0.1999 -11.77761,-3.2291 -10.60994,-5.7284 -10.50397,6.1883 -9.3823,-7.6378 -9.11138,-8.0377 -11.92856,-0.1 -2.39231,-11.7466 -9.89015,-6.5681 -11.02483,4.7186 6.44915,10.2471 8.84145,8.2576 -10.39301,5.9983 -11.48669,4.2887 -10.44799,5.9183 7.52983,9.1874 -0.26292,11.8766 -1.02571,12.3164 -2.71521,11.7366 -6.98999,-9.9471 -11.7946,-4.9186 -0.58783,-12.2565 -3.02413,-11.5466 -11.69663,-3.2091 5.79233,-10.427 1.82547,-12.2965 -12.05752,-0.4698 0.82876,-12.0466 -3.26306,-12.6063 -7.80975,-10.467 -8.11267,-8.6975 -3.97885,-11.3367 1.50357,-12.2665 -10.37201,5.6984 -11.85259,-2.2694 -9.68321,7.5278 -11.13879,4.8486"
               id="path86"
               inkscape:connector-curvature="0"
               style="font-style:normal;font-weight:400;font-size:34.375px;font-family:'FreightSans W05 Book';fill:#090909;fill-opacity:1;fill-rule:evenodd;stroke:#ffffff;stroke-width:9.68751157;stroke-linecap:square;stroke-linejoin:bevel;stroke-opacity:1;stroke-dasharray:none" />
            <g
               font-size="34.375"
               font-style="normal"
               font-weight="400"
               id="g327"
               style="font-style:normal;font-weight:400;font-size:34.375px;font-family:'FreightSans W05 Book';fill:#090909;fill-opacity:1;fill-rule:evenodd;stroke:#ffffff;stroke-width:5.39766407;stroke-linecap:square;stroke-linejoin:bevel;stroke-opacity:1;stroke-dasharray:none"
               transform="matrix(1.79476,0,0,1.79476,914.21599,1682.49)">
               <circle
                  cx="12"
                  cy="12"
                  id="circle325"
                  r="8"
                  style="fill:#090909;fill-opacity:1;stroke:#ffffff;stroke-opacity:1;stroke-width:5.39766407;stroke-dasharray:none" />
            </g>
         </g>
      </g>
      <g
         font-size="34.375"
         font-style="normal"
         font-weight="400"
         id="g594"
         style="font-style:normal;font-weight:400;font-size:34.375px;font-family:'FreightSans W05 Book';fill:none;stroke:#000000;stroke-width:1;stroke-linecap:square;stroke-linejoin:bevel;stroke-opacity:1"
         transform="scale(0.999712)" />
      <g
         id="g6314">
         <path
            d="m 1104.5418,1078.7292 0.7298,9.7272 -3.9089,0.4199 -2.1594,0.23 -12.0365,-0.03 -8.2976,-0.02 -2.1694,-2.1494 -2.9991,-2.9692 -5.0186,0.3699 -3.5789,0.26 -1.1597,0.08 -1.8295,0.14 -1.3596,-3.539 -0.8397,-2.1794 v -0.1 l 11.8166,-4.6987 -0.01,-0.1699 -0.21,-5.1385 7.6078,-0.22 -0.1599,-6.688 -4.9186,0.4098 0.02,1.0697 -13.3762,-0.06 -0.2499,-0.9897 -7.2979,-0.2499 -1.3596,-7.5878 -3.0491,-1.4596 -8.9174,-0.8997 -0.6698,-1.3197 -1.3097,-2.5692 -0.9097,-0.6998 -3.8989,5.4284 2.5893,2.9792 0.9897,1.2096 -1.1097,1.3496 -0.1699,-0.1099 -3.1192,-1.9995 -3.6889,-2.3693 -0.4898,-0.3199 1.1896,-11.9565 -0.7498,0.2299 -2.5692,0.7998 -7.4879,0.5798 0.5699,-2.8692 -0.05,-0.1799 -2.7592,-0.8498 -2.1994,-0.6798 -4.8186,-1.4896 -2.3493,-0.7198 0.06,-0.2599 1.0398,-10.1271 0.02,-0.2199 0.3999,-5.2285 0.21,-2.7292 2.6592,-6.818 0.8198,-2.1094 3.0291,0.9397 -0.06,-2.9292 -0.01,-0.9497 -1.3496,-2.9391 -4.1088,0.6898 -1.9694,0.3299 -0.8998,-2.8892 0.18,-3.45301 -5.2185,-1.3926 -0.18,9.88411 -9.35129,-2.4193 -1.48257,-0.3798 -0.85176,6.698 -6.78404,-2.3593 -5.2155,-1.8195 -4.97857,1.3296 -1.7155,4.4788 -1.0417,2.7192 -0.65081,1.6995 -3.496,-2.2594 -1.98842,-11.7066 -4.76763,-11.31474 12.08552,-0.11296 6.66908,-9.91115 11.92256,-2.57926 11.79663,-2.91316 2.0394,-11.68063 -7.15495,-9.7172 -7.3169,-9.77219 -8.15465,-9.00041 11.52068,-3.1031 10.29602,-5.95129 10.7569,-5.00655 9.4973,7.9727 10.5469,-5.62338 4.6287,-10.99383 9.2573,-7.45386 8.1477,9.07739 10.8369,4.92058 10.437,6.48313 8.9574,-9.25733 9.7672,-6.88702 -2.9892,-11.84558 -4.8186,-10.82289 -6.948,-9.58823 -2.3893,-11.95056 -1.6895,-11.71563 4.2888,-11.4287 0.9597,-11.89458 1.3196,-11.7796 7.5678,-9.22635 1.3097,-11.94556 12.1365,1.37561 2.7292,-11.72662 7.5778,-9.40829 11.9865,-0.53285 10.9969,-4.38174 0.9997,-11.98355 8.7675,-8.86544 7.6278,10.08109 12.3064,4.95058 9.0674,7.72577 11.8066,2.42131 11.4567,4.72863 8.4476,-8.36859 11.8565,-1.22664 7.208,-9.50826 8.7175,-8.28662 11.6866,1.83547 9.4773,-7.31689 11.7666,-1.0427 12.4764,0.6958 9.9471,-6.80904 -4.1488,-11.4537 -8.8274,-8.49955 -7.138,-9.50926 -0.6498,-12.31745 5.8883,-10.27404 10.487,-5.65637 9.7472,-7.96071 -11.5967,-3.24806 9.2274,-7.79476 2.2193,-12.01754 10.7369,-5.29447 -3.7989,-11.25376 -6.0582,-10.36101 3.479,-11.42571 -12.3465,-3.63495 -6.6481,-9.86316 0.3399,-12.24048 -1.9194,-11.75161 4.5687,-11.48669 -1.4296,-11.84759 -12.3065,2.93515 -10.5369,-5.74834 -8.9974,7.95071 -5.0486,10.90086 -11.3367,4.93258 -12.1065,1.78149 -8.1077,-8.85245 -1.6095,-12.43242 -0.03,-7.9817 1.2296,-12.58838 2.5293,-12.10651 2.6192,-12.00054 4.9786,-11.14879 8.5975,-8.78947 9.3273,-8.04668 6.4582,-11.1068 9.8771,-6.63809 4.2388,-11.4677 11.0168,5.37945 11.6967,-1.67751 10.327,5.92529 7.1679,9.69121 11.5567,-3.32804 10.6369,6.66608 10.9569,5.64937 8.4175,8.80846 4.1788,11.14679 3.669,11.29275 11.6466,-2.24735 11.0369,-4.34075 12.1465,-0.97072 6.748,-10.0691 1.6195,-12.18449 0.3399,-11.84859 4.4588,-11.31174 3.0691,-11.64465 5.1785,-10.88886 12.0465,0.99271 11.9766,3.8429 12.3064,-0.21694 11.8066,-1.0587 5.7584,10.46199 11.7166,3.34504 13.3461,1.14167 9.8472,-7.05397 10.457,-5.71535 10.8169,4.77362 12.2065,3.485 3.9488,11.26575 4.8086,11.63165 11.9666,-0.3329 6.918,10.25204 6.878,9.75319 7.4479,9.3783 6.5781,10.26005 7.9377,9.20734 11.4567,3.42602 7.4778,9.25733 10.2971,6.79104 7.9977,9.29133 8.1676,9.95613 6.818,10.44499 6.2782,11.4507 -2.2993,11.63865 -9.7272,7.73977 -10.317,6.75805 -11.5467,3.05312 -10.0971,7.00998 6.6281,10.23506 0.8997,12.39842 -7.9877,8.95442 -10.157,6.06926 2.8891,12.8163 6.3582,10.40601 -9.2273,8.23562 -7.7878,9.20035 -11.9266,5.5664 -6.1582,10.7729 -5.2285,10.93085 -9.1773,7.6398 -9.6573,7.18493 -10.8368,-5.31747 -10.1171,-7.45185 -10.2271,-6.2732 -10.9168,4.72464 0.7098,11.97155 -3.9589,11.1288 -7.5278,9.82017 -5.4385,10.84887 -11.9765,1.02271 -11.9766,-4.39374 -4.7886,11.16579 -10.237,-6.72706 -8.7275,8.09166 2.9491,11.71563 -9.2773,7.37987 -12.4164,-2.33232 -4.1388,11.0858 -11.3867,3.18209 9.9071,7.18992 4.1888,11.09381 -8.1976,8.98541 -6.0883,-10.13308 -11.8366,-2.00142 -8.7175,8.09466 -3.7589,12.49241 -2.1894,12.21148 11.3068,5.43543 6.4281,11.19278 2.3694,11.63165 4.2887,11.15178 11.3967,-4.98556 10.7569,-5.38345 7.7578,9.7212 10.0771,6.50113 -6.0782,10.54496 8.3276,8.42957 10.9768,4.72264 1.7495,12.35944 7.8277,10.39301 5.4085,10.79989 4.5487,7.92871 0.8597,7.47485 5.3185,10.57595 10.8669,5.2085 -1.9695,11.65663 3.0192,11.4167 -6.6481,9.9672 -10.2671,5.8683 -12.0665,-0.5399 -7.4579,-9.2373 -12.0665,1.0997 -9.3673,8.1176 -11.7466,1.2197 -11.4167,-3.539 -12.5464,3.299 -10.7469,5.2285 -7.9377,8.9175 -11.2768,-3.9189 -10.8368,-5.0985 -9.6073,6.898 -13.3861,1.8095 -10.9269,-5.1086 -10.0671,6.8581 -9.9871,6.3981 -0.04,11.9766 -0.01,11.9765 -6.6581,9.7872 -10.5769,5.6384 -11.8466,-1.7795 -12.4464,-3.1791 -12.6664,-1.0697 -6.0482,10.1771 -10.617,-5.7084 -10.277,-5.9583 -2.0294,-12.5963 -10.567,-5.2885 -11.8466,-2.7492 -11.9965,-1.2297 -4.4987,11.5667 -5.8583,10.307 -12.4764,0.5199 -11.9166,0.3899 -12.1665,-0.09 -12.2565,1.2996 -0.3199,-0.7998 -2.1793,0.4999 -0.3999,-0.7998 -1.7495,-5.4684 -1.8695,-3.1491 -0.9597,0.02 -1.9394,0.04 -2.1794,0.05 -0.09,-1.4796 -0.03,-0.5698 -0.08,-1.1997 -2.9591,0.9298 -5.6084,3.8388"
            id="path72"
            inkscape:connector-curvature="0"
            style="font-style:normal;font-weight:400;font-size:34.375px;font-family:'FreightSans W05 Book';fill:#090909;fill-opacity:1;fill-rule:evenodd;stroke:#ffffff;stroke-width:9.68751157;stroke-linecap:square;stroke-linejoin:bevel;stroke-opacity:1;stroke-dasharray:none" />
         <g
            font-size="34.375"
            font-style="normal"
            font-weight="400"
            id="g471"
            style="font-style:normal;font-weight:400;font-size:34.375px;font-family:'FreightSans W05 Book';fill:#090909;fill-opacity:1;fill-rule:evenodd;stroke:#ffffff;stroke-width:5.39766407;stroke-linecap:square;stroke-linejoin:bevel;stroke-opacity:1;stroke-dasharray:none"
            transform="matrix(1.79476,0,0,1.79476,1315.98,862.12699)">
            <circle
               cx="12"
               cy="12"
               id="circle469"
               r="8"
               style="fill:#090909;fill-opacity:1;stroke:#ffffff;stroke-opacity:1;stroke-width:5.39766407;stroke-dasharray:none" />
         </g>
      </g>
      <g
         font-size="34.375"
         font-style="normal"
         font-weight="400"
         id="g600"
         style="font-style:normal;font-weight:400;font-size:34.375px;font-family:'FreightSans W05 Book';fill:none;stroke:#000000;stroke-width:1;stroke-linecap:square;stroke-linejoin:bevel;stroke-opacity:1"
         transform="scale(0.999712)" />
      <g
         id="g6319">
         <path
            d="m 827.44363,757.98764 8.23463,3.71893 10.42,4.70565 3.62196,-2.91816 1.24964,5.8843 1.24064,5.83832 8.90743,23.49023 1.66352,4.38974 -1.27963,0.47286 -3.93986,1.45758 -2.19437,0.81177 -6.938,-3.24507 -1.59454,1.90446 -1.3766,1.64252 -4.1778,4.98857 -9.42429,8.27561 -0.59383,0.52085 -10.30203,9.0464 -1.00971,0.88674 -2.12838,1.86946 -4.59068,4.32476 -1.24164,1.17066 -0.75579,3.49399 -0.19394,0.89974 -1.85347,8.57853 -0.095,0.43688 -1.0497,4.8556 -1.09368,0.77277 -2.68523,1.89846 -2.16837,4.8626 1.35561,1.97943 5.64537,8.24562 0.81477,1.18966 0.87974,1.28463 1.46958,-1.82848 0.94173,-1.17366 1.85746,-2.31133 5.95329,3.91687 3.60596,0.28492 6.54111,-1.3806 1.87546,1.46257 1.56955,1.22465 3.59297,-3.39002 1.3676,-1.29063 6.14723,6.85802 -0.66281,0.86476 -6.98399,9.10437 -0.95272,-0.54384 -2.57626,1.92444 -2.54926,1.90346 0.19694,4.41273 0.051,1.16466 -4.61667,-1.16566 0.15196,4.10281 -0.29292,2.82019 8.48256,2.61025 0.67581,0.20794 -0.17195,0.86975 -0.3569,1.80648 3.56297,1.16466 0.58883,3.57597 -0.24893,2.05841 6.83704,3.09211 -1.80249,4.39373 -0.30591,0.29592 -1.99742,1.93244 0.31591,9.31132 -2.4483,0.18894 -3.69993,5.16752 0.092,0.51085 0.42288,2.36832 0.10397,0.53084 1.29563,6.66408 0.53584,2.75521 1.80948,1.61753 -0.065,0.63282 -0.3379,3.31505 -1.66352,1.05969 0.12796,1.13168 0.11397,1.00471 3.05412,4.43672 1.33861,-2.0954 5.28848,4.8806 0.51185,0.47186 2.7642,2.55127 -1.43858,1.91844 -0.77478,2.15538 -1.31662,2.92816 1.10368,0.57883 0.38989,0.26792 -2.15038,3.1371 -1.43959,2.16338 -1.51356,2.27434 0.37889,3.89588 4.1678,6.936 -1.12268,1.98143 -0.11596,1.46161 0.78077,1.0497 1.61354,2.1693 1.61953,2.0894 0.25093,0.8998 0.11996,0.4299 0.3559,1.2796 0.10397,1.3396 0.016,0.1999 -10.26505,-4.8486 -9.86515,-7.78472 -7.13795,-9.66721 3.52199,11.87358 -6.28819,10.10705 -4.99756,10.7869 -1.81948,12.0766 -10.95784,5.8583 -7.81075,9.5372 -5.04155,10.7269 -11.0988,-4.0388 -10.61794,-5.4384 -2.39831,11.8565 -11.32474,4.3088 -7.55482,9.0774 -10.28804,6.1882 -8.6575,8.1776 -11.77661,-1.6295 -9.77119,-6.6581 -11.84059,-0.4998 -14.33787,-0.6898 -14.13892,-4.0289 -10.09409,-6.1982 -10.12909,6.2582 -3.76491,11.4167 -11.74062,2.7692 7.6448,9.0374 3.34004,11.6667 8.02368,8.7874 -8.19863,8.7875 -6.44515,10.1971 -0.04,12.1365 -11.98154,0.2099 -12.04753,2.7192 -9.62223,7.088 -11.83159,-0.01 -11.09081,-4.2188 -11.69363,-3.7489 6.30918,-10.327 -5.71435,-10.7869 -12.63236,3.1191 -8.80247,7.9877 -3.8109,11.8066 -5.95828,-10.507 -6.38416,-10.587 3.58097,-11.6866 -3.1451,-11.5367 -9.69521,-6.938 -11.87458,0.3599 -11.34373,-7.0479 2.4393,11.6666 -0.3309,11.8766 -5.11553,10.8069 -11.8176,2.5092 -11.66664,2.3794 -11.13679,4.4387 -3.06112,-6.0983 -1.82147,-11.9565 -9.70221,-7.3179 -10.19206,-6.4382 -10.12908,-6.5481 -12.43242,3.7989 -9.61923,7.038 -11.55367,2.5193 -6.48813,10.0171 -11.7996,-0.8498 -10.72691,-7.5078 -12.1625,-1.0697 -11.26675,-3.549 -11.1078,-4.7286 -10.24505,6.6181 -11.8226,1.0897 -8.53554,8.1976 -5.50941,10.7169 0.81576,11.9366 -12.24347,0.7798 -1.93744,-11.7567 -0.82676,-12.0265 -4.78063,-10.9268 -5.96328,-10.417 2.49828,-11.6567 -4.07182,-11.5167 8.89743,-7.9677 -5.44943,-11.9865 -10.7669,-4.9386 7.24592,-9.3373 10.70991,-4.9986 8.30061,-8.6075 8.40758,-9.3373 6.34317,-10.7069 11.41471,3.419 9.84317,-6.908 7.21192,-9.35531 12.06952,-2.62324 6.955,-10.03711 0.24793,-11.8206 4.27477,-11.0938 -8.91643,-8.41358 -10.39601,-6.49613 -3.16509,-11.82759 0.82276,-11.7846 -5.75234,-10.40401 -9.14636,-7.51083 -7.95471,-8.75048 -10.95385,4.73163 -8.91543,-8.33759 4.27177,-11.27076 11.58166,-3.48999 4.58668,-10.95085 1.07369,-12.05652 -1.44958,-11.76361 -9.86516,-6.82604 -5.22749,-10.73191 1.17666,-11.7806 0.024,-11.88758 11.33974,-3.44401 9.93414,-7.05496 -2.74921,-11.65965 11.89357,-1.09268 11.43571,-4.29176 9.22334,8.15765 8.23063,8.80846 10.22305,6.88202 10.39801,5.96728 10.13608,-6.28219 11.29275,-4.59968 11.60265,-2.7862 8.59653,-8.6595 -4.5157,-11.15579 2.09239,-12.1475 5.32047,-10.68992 2.30834,-7.45685 11.71562,1.84447 8.76948,8.18664 8.93042,-8.81646 8.65851,-8.30161 9.24833,7.95171 10.53097,5.69336 10.69592,5.00256 11.90557,2.04141 7.31089,9.32431 11.88958,0.063 10.86487,-4.66866 8.92343,-8.39558 -7.34089,-9.55825 -4.56568,-11.35373 -4.13481,-11.48469 0.52885,-11.91157 11.74761,-1.17966 11.74262,-2.7772 8.05268,-8.6665 10.81289,-5.12352 9.42928,7.43785 11.18078,-3.86388 3.42701,-11.30475 9.22434,-7.50483 3.81491,-11.72863 11.97754,-0.069 6.86803,9.60324 11.40471,3.97085 11.30374,5.47543 12.76533,-1.01771 9.76818,6.90001 -1.31562,11.7946 8.95342,7.75477 8.52755,8.17864 11.89257,-0.97771 11.83559,-3.89788 11.85059,-2.86218 12.03853,-0.79177 9.64822,-0.98971 1.15167,0.038 0.73978,0.025 5.42144,13.04124 5.06654,4.99456 2.28634,3.39802 1.28364,1.90745 0.56083,-0.54284 5.17851,-5.00956 1.33062,-1.28663 8.42457,4.24578 -0.22093,-8.82246 12.95426,2.68423 0.62082,1.0377 4.20979,7.04797 1.57755,0.39689 8.61052,2.16537 3.20008,6.91501 15.01967,-3.52798 9.66321,4.69364 -2.18737,19.54537"
            id="path68"
            inkscape:connector-curvature="0"
            style="font-style:normal;font-weight:400;font-size:34.375px;font-family:'FreightSans W05 Book';fill:#090909;fill-opacity:1;fill-rule:evenodd;stroke:#ffffff;stroke-width:9.68751157;stroke-linecap:square;stroke-linejoin:bevel;stroke-opacity:1;stroke-dasharray:none" />
         <g
            font-size="34.375"
            font-style="normal"
            font-weight="400"
            id="g255"
            style="font-style:normal;font-weight:400;font-size:34.375px;font-family:'FreightSans W05 Book';fill:#090909;fill-opacity:1;fill-rule:evenodd;stroke:#ffffff;stroke-width:5.39766407;stroke-linecap:square;stroke-linejoin:bevel;stroke-opacity:1;stroke-dasharray:none"
            transform="matrix(1.79476,0,0,1.79476,410.22499,836.81199)">
            <circle
               cx="12"
               cy="12"
               id="circle253"
               r="8"
               style="fill:#090909;fill-opacity:1;stroke:#ffffff;stroke-opacity:1;stroke-width:5.39766407;stroke-dasharray:none" />
         </g>
      </g>
   </g>
</svg>