<svg id="Component_44_1" data-name="Component 44 – 1" xmlns="http://www.w3.org/2000/svg"
   xmlns:xlink="http://www.w3.org/1999/xlink" width="379" height="80" viewBox="0 0 379 80">
   <defs>
      <clipPath id="clip-path">
         <rect id="Rectangle_455" data-name="Rectangle 455" width="80" height="80" fill="#fac878"></rect>
      </clipPath>
   </defs>
   <g id="Group_206" data-name="Group 206">
      <g id="Group_205" data-name="Group 205" clip-path="url(#clip-path)">
         <path id="Path_10452" data-name="Path 10452"
            d="M9.746,51.56,14.4,49.407l.732.593L12,55.374l3.185-1.666c.757-.4.841-.626.538-1.464l.193-.1,1.336,2.68-.193.1c-.48-.684-.675-.726-1.459-.381l-3.059,1.363c-1.069.47-1.2.757-1.092,1.647l-.185.094-.888-1.786,2.932-5.116-3.148,1.647c-.738.391-.827.609-.583,1.4l-.185.093L8.1,51.277l.185-.093c.487.679.7.736,1.466.376"
            fill="#fac878" fill-rule="evenodd"></path>
         <path id="Path_10453" data-name="Path 10453"
            d="M7.006,45.166c.154.926,1.534,1.5,3.06,1.243,1.7-.28,2.963-1.44,2.78-2.55-.153-.927-1.541-1.482-3.059-1.232-1.7.281-2.963,1.441-2.781,2.539m6.325-1.209a2.942,2.942,0,0,1-.5,2.425,3.558,3.558,0,0,1-2.312,1.4,3.194,3.194,0,0,1-4-2.708,2.933,2.933,0,0,1,.5-2.417,3.505,3.505,0,0,1,2.35-1.4,3.192,3.192,0,0,1,3.961,2.708"
            fill="#fac878" fill-rule="evenodd"></path>
         <path id="Path_10454" data-name="Path 10454"
            d="M7.65,34.12l4.571,2.238a2.894,2.894,0,0,1,.736.434,1.129,1.129,0,0,1,.184.444L7.063,38.645a.9.9,0,0,0-.731.572l-.246-.023.242-2.485.208.019c.017.458.1.591.364.617a3.293,3.293,0,0,0,.692-.077l3.551-.808L8.152,35.247a2.943,2.943,0,0,0-.747-.216c-.348-.036-.519.127-.773.711l-.206-.019.243-2.485.174.017a1.334,1.334,0,0,0,.807.865"
            fill="#fac878" fill-rule="evenodd"></path>
         <path id="Path_10455" data-name="Path 10455"
            d="M15.024,28.628l-1.617,4.635-.2-.069c.175-.846.038-1.113-.722-1.379L8.916,30.574c-.809-.282-1.053-.238-1.462.309l-.2-.068,1.474-4.227,1.518.377,0,.227c-.92.164-1.274.4-1.563,1.04l-.327.718,2.415.84.207-.681c.21-.7.146-.89-.417-1.282l.071-.2,2.007.7-.071.2a.942.942,0,0,0-1.123.744l-.265.662,1.607.561c.712.248,1.017.128,1.234-.5.25-.722.079-1.262-.672-2.18l.195-.149ZM7.606,27.22l-.395-.37L6.7,27.2l.427,2.04.15-.024Z"
            fill="#fac878" fill-rule="evenodd"></path>
         <path id="Path_10456" data-name="Path 10456"
            d="M16.1,17.629l1.254,2.41L18.6,18.691Zm4.451,2.936-.159-.146c.268-.413.272-.677.023-.907a.89.89,0,0,0-.278-.171l-.971-.423-1.5,1.62.477.85a1.281,1.281,0,0,0,.246.327c.2.189.38.182.737-.036.05-.024.112-.063.2-.11l.158.148-1.6,1.734-.159-.147c.163-.526.143-.642-.237-1.415l-2.475-5.072.6-.651,5.7,2.319a.946.946,0,0,0,.812.063l.158.147Z"
            fill="#fac878" fill-rule="evenodd"></path>
         <path id="Path_10457" data-name="Path 10457"
            d="M23.833,11.16a2.515,2.515,0,0,0-.949-.047,3.9,3.9,0,0,0-1.405.572l2.457,4c.362.589.869.761,1.36.461,1.055-.648,1.177-2.188.291-3.63a2.792,2.792,0,0,0-1.754-1.359m1.876,5.364c-.325.2-.785.4-1.312.721l-1.574.967-.114-.185c.64-.537.677-.791.25-1.487l-1.976-3.219c-.486-.792-.627-.863-1.3-.618l-.108-.176c.277-.219.486-.371.629-.471.457-.342.983-.688,1.371-.926a4.345,4.345,0,0,1,2.378-.842A3.17,3.17,0,0,1,26.784,11.9a3.157,3.157,0,0,1-1.075,4.62"
            fill="#fac878" fill-rule="evenodd"></path>
         <path id="Path_10458" data-name="Path 10458"
            d="M30.912,8.421l-.181,2.713,1.766-.5Zm2.278,4.822-.059-.208c.443-.212.584-.435.491-.762a.891.891,0,0,0-.148-.291l-.612-.866-2.124.606L30.7,12.7a1.332,1.332,0,0,0,.042.406c.078.269.23.353.649.353.055.005.13.005.229.008l.057.21-2.271.648-.059-.208c.411-.363.455-.473.531-1.332L30.4,7.161l.854-.243,3.665,4.941a.949.949,0,0,0,.661.476l.059.207Z"
            fill="#fac878" fill-rule="evenodd"></path>
         <path id="Path_10459" data-name="Path 10459"
            d="M41.3,12.333l-4.977.176-.008-.216c.851-.144,1.05-.367,1.022-1.172L37.2,7.216c-.025-.721-.187-.942-.813-1.117l-.008-.206L39.5,5.784l.008.2c-.84.166-.989.366-.954,1.314l.129,3.6c.025.741.229.951.929.926.743-.026,1.183-.382,1.766-1.413l.209.064Z"
            fill="#fac878" fill-rule="evenodd"></path>
         <path id="Path_10460" data-name="Path 10460"
            d="M47.133,7.338A1.774,1.774,0,0,0,46.128,6.7l-.51,2.507.112.171.753.228c.13-.069.234-.121.32-.178a1.457,1.457,0,0,0,.547-.93,1.383,1.383,0,0,0-.217-1.159M46.9,10.711c-.272-.425-.57-.611-1.41-.877l-.328,1.606c-.144.709.054,1.137.547,1.239a1.138,1.138,0,0,0,1.307-1.038,1.318,1.318,0,0,0-.116-.93m-1.033,2.43a12.514,12.514,0,0,1-1.405-.39l-1.95-.4.044-.212c.871.062,1.1-.1,1.266-.9l.754-3.7c.165-.809.079-1.059-.488-1.48l.041-.2,1.852.526a4.3,4.3,0,0,1,1.231.1c1.041.21,1.532.795,1.364,1.625A2.2,2.2,0,0,1,48.163,9a2.869,2.869,0,0,1-1.154.861,5.041,5.041,0,0,1,.8.521,1.506,1.506,0,0,1,.607,1.513c-.2,1-1.255,1.512-2.549,1.247"
            fill="#fac878" fill-rule="evenodd"></path>
         <path id="Path_10461" data-name="Path 10461"
            d="M53.531,15.928,49.1,13.813l.094-.195c.822.266,1.1.16,1.448-.567l1.625-3.407c.369-.772.35-1.022-.146-1.488l.088-.186L56.249,9.9l-.541,1.467-.227-.028c-.057-.931-.254-1.31-.86-1.667l-.677-.4-1.1,2.31.655.278c.675.287.867.242,1.32-.274l.194.093L54.1,13.591l-.2-.093a.94.94,0,0,0-.617-1.2l-.629-.335L51.924,13.5c-.325.68-.237,1,.36,1.282.689.327,1.244.215,2.239-.429l.129.209Z"
            fill="#fac878" fill-rule="evenodd"></path>
         <path id="Path_10462" data-name="Path 10462"
            d="M60.747,13.421l-1.85,2.2a1.7,1.7,0,0,0,.4.528,1.873,1.873,0,0,0,.426.263c.108-.017.208-.04.287-.054a1.859,1.859,0,0,0,1.007-.636c.617-.734.531-1.465-.274-2.3m-1.24,7.9a3.031,3.031,0,0,1-.971-1.825,6.566,6.566,0,0,1,.474-3,2.792,2.792,0,0,1-.281-.195,2.207,2.207,0,0,1-.218-.222l-.9,1.065c-.517.615-.52.857-.02,1.465l-.138.167L54.9,16.628l.139-.167c.73.479,1.018.438,1.543-.184l2.428-2.889a1.1,1.1,0,0,0,.14-1.592l.139-.168L60.74,13a6.78,6.78,0,0,1,1.118.753,1.674,1.674,0,0,1,.352,2.545,1.819,1.819,0,0,1-.643.509,2.823,2.823,0,0,1-1.541.132,14.462,14.462,0,0,0-.272,3.449,2.155,2.155,0,0,0,.6,1.243l-.113.133a2.688,2.688,0,0,1-.731-.439"
            fill="#fac878" fill-rule="evenodd"></path>
         <path id="Path_10463" data-name="Path 10463"
            d="M67.907,23.358c.21-.954.177-1.413-.119-1.834l-.327-.463-3.78,2.657c-.572.4-.627.846-.191,1.7l-.178.128-2.172-3.09.178-.125c.648.653,1.064.741,1.628.344l3.781-2.658-.331-.472c-.356-.5-.763-.687-1.681-.721l-.032-.241,1.5-.7a8.27,8.27,0,0,0,1.326,2.37,7.8,7.8,0,0,0,1.739,1.992l-1.107,1.207Z"
            fill="#fac878" fill-rule="evenodd"></path>
         <path id="Path_10464" data-name="Path 10464"
            d="M64.325,27.444l.2-.086c.444.582.667.635,1.378.328l3.592-1.548c.692-.3.812-.484.746-1.165l.189-.081,1.122,2.6-.19.084c-.445-.514-.665-.555-1.358-.256l-3.592,1.547c-.71.306-.828.5-.707,1.226l-.2.085Z"
            fill="#fac878" fill-rule="evenodd"></path>
         <path id="Path_10465" data-name="Path 10465"
            d="M72.339,36.447l-5.06.758-.536-.775,4.506-4.271-3.52.7c-.838.169-.982.364-.927,1.255l-.213.038-.525-2.944.212-.038c.267.791.442.886,1.292.776l3.314-.445c1.156-.155,1.366-.391,1.512-1.276l.2-.036.349,1.959L68.7,36.232l3.481-.694c.818-.168.963-.352.953-1.177l.2-.037.509,2.866-.2.036c-.279-.8-.467-.907-1.3-.779"
            fill="#fac878" fill-rule="evenodd"></path>
         <path id="Path_10466" data-name="Path 10466"
            d="M71.894,45.712l-2.464-.345c-1.513-.208-1.634-.253-2.156-.79a2.323,2.323,0,0,1-.474-1.983,3.684,3.684,0,0,1,.376-1.339,1.6,1.6,0,0,1,.419-.524c.506-.432,1.026-.53,2.164-.4l2.564.284c.862.093,1.068,0,1.351-.569l.2.022-.319,2.891-.206-.02c-.07-.776-.248-.951-1.037-1.04l-2.585-.284c-1.056-.116-1.373-.078-1.745.2a1.706,1.706,0,0,0-.535,1.084,1.408,1.408,0,0,0,1.421,1.694l1.837.2c.358.04.709.067,1.069.087.889.049,1.076-.055,1.442-.731l.205.02-.273,2.474-.205-.024c-.167-.653-.348-.807-1.053-.906"
            fill="#fac878" fill-rule="evenodd"></path>
         <path id="Path_10467" data-name="Path 10467"
            d="M64.038,52.219l.2.089c-.146.476-.079.632.381.838.038.018.081.024.117.042L68.558,54.5l-3.884-4.124,5.536.351-2.691-1.572a5.23,5.23,0,0,0-.494-.257c-.7-.314-.949-.256-1.409.34l-.2-.089,1.079-2.4.2.09a1.105,1.105,0,0,0,.588,1.283l3.394,2.17c.29.187.46.286.508.307.283.129.54-.018.817-.46l.187.085-.828,1.846-4.532-.315,3.183,3.319-.826,1.836L69,56.826c.2-.477.165-.743-.146-.882-.029-.015-.166-.063-.409-.149l-4.294-1.477c-.5-.17-.653-.136-.922.24l-.2-.089Z"
            fill="#fac878" fill-rule="evenodd"></path>
         <path id="Path_10468" data-name="Path 10468"
            d="M40,19A21,21,0,1,0,61,40,21.023,21.023,0,0,0,40,19m0,42.869A21.869,21.869,0,1,1,61.87,40,21.9,21.9,0,0,1,40,61.869"
            fill="#fac878" fill-rule="evenodd"></path>
         <path id="Path_10469" data-name="Path 10469"
            d="M40,16.393A23.609,23.609,0,1,0,63.607,40,23.635,23.635,0,0,0,40,16.393m0,48.083A24.475,24.475,0,1,1,64.476,40,24.5,24.5,0,0,1,40,64.476"
            fill="#fac878" fill-rule="evenodd"></path>
         <path id="Path_10470" data-name="Path 10470"
            d="M40,3.474A36.525,36.525,0,1,0,76.526,40,36.567,36.567,0,0,0,40,3.474m0,73.92A37.394,37.394,0,1,1,77.394,40,37.437,37.437,0,0,1,40,77.394"
            fill="#fac878" fill-rule="evenodd"></path>
         <path id="Path_10471" data-name="Path 10471"
            d="M40,.869A39.133,39.133,0,1,0,79.133,40,39.177,39.177,0,0,0,40,.869M40,80A40,40,0,1,1,80,40,40.044,40.044,0,0,1,40,80"
            fill="#fac878" fill-rule="evenodd"></path>
         <path id="Path_10472" data-name="Path 10472"
            d="M37.37,57.028a17.928,17.928,0,0,0,5.264,0l-1.353-3.69V40.954l12.526.028,3.636,1.364a17.8,17.8,0,0,0,.029-5.351L53.654,38.4H41.281l.027-12.536,1.413-3.749a17.833,17.833,0,0,0-5.438,0l1.442,3.9V38.4l-12.536-.027-3.666-1.379a17.935,17.935,0,0,0,.028,5.352l3.789-1.392H38.724L38.7,53.489ZM40,58.092a18.21,18.21,0,0,1-3.3-.293l-.512-.094,1.667-4.446V41.824H26.421l-4.536,1.7-.1-.5a18.739,18.739,0,0,1-.035-6.693l.093-.514,4.577,1.721H37.857V26.1L36.1,21.446l.51-.094a18.694,18.694,0,0,1,6.782,0l.51.093L42.15,26.1V37.533H53.575l4.578-1.72.092.513a18.709,18.709,0,0,1-.036,6.693l-.1.5-4.537-1.7H42.151V53.258l1.666,4.447-.509.093A18.281,18.281,0,0,1,40,58.092"
            fill="#fac878" fill-rule="evenodd"></path>
         <path id="Path_10473" data-name="Path 10473"
            d="M49.558,28.269a2.39,2.39,0,1,0,2.389,2.39,2.392,2.392,0,0,0-2.389-2.39m0,5.648a3.259,3.259,0,1,1,3.258-3.258,3.261,3.261,0,0,1-3.258,3.258"
            fill="#fac878" fill-rule="evenodd"></path>
         <path id="Path_10474" data-name="Path 10474"
            d="M40,67.591a2.389,2.389,0,1,0,2.389,2.388A2.391,2.391,0,0,0,40,67.591m0,5.647a3.259,3.259,0,1,1,3.257-3.259A3.261,3.261,0,0,1,40,73.238"
            fill="#fac878" fill-rule="evenodd"></path>
         <path id="Path_10475" data-name="Path 10475"
            d="M28.362,65.839a1.821,1.821,0,0,0-1.686,1.128,1.823,1.823,0,0,0,.988,2.382,1.855,1.855,0,0,0,2.385-.988,1.828,1.828,0,0,0-1.687-2.522m0,4.52a2.694,2.694,0,0,1,0-5.387,2.709,2.709,0,0,1,1.031.205,2.693,2.693,0,0,1-1.032,5.182"
            fill="#fac878" fill-rule="evenodd"></path>
         <path id="Path_10476" data-name="Path 10476"
            d="M51.639,65.84a1.879,1.879,0,0,0-.7.139,1.823,1.823,0,0,0-.988,2.382,1.856,1.856,0,0,0,2.385.991,1.825,1.825,0,0,0-.7-3.512m0,4.519a2.7,2.7,0,0,1-1.032-5.184,2.741,2.741,0,0,1,1.031-.2,2.7,2.7,0,0,1,1.033,5.185,2.741,2.741,0,0,1-1.032.2"
            fill="#fac878" fill-rule="evenodd"></path>
         <path id="Path_10477" data-name="Path 10477"
            d="M28.8,46.747a.979.979,0,1,0,.977.977.977.977,0,0,0-.977-.977m0,2.823a1.845,1.845,0,1,1,1.848-1.847A1.85,1.85,0,0,1,28.8,49.57"
            fill="#fac878" fill-rule="evenodd"></path>
         <path id="Path_10478" data-name="Path 10478"
            d="M33.143,46.747a.979.979,0,1,0,.977.977.979.979,0,0,0-.977-.977m0,2.823a1.845,1.845,0,1,1,1.847-1.847,1.85,1.85,0,0,1-1.847,1.847"
            fill="#fac878" fill-rule="evenodd"></path>
         <path id="Path_10479" data-name="Path 10479"
            d="M30.949,51.091a.979.979,0,1,0,.978.979.979.979,0,0,0-.978-.979m0,2.825A1.847,1.847,0,1,1,32.8,52.068a1.85,1.85,0,0,1-1.847,1.848"
            fill="#fac878" fill-rule="evenodd"></path>
         <path id="Path_10480" data-name="Path 10480"
            d="M29.755,28.269a2.39,2.39,0,1,0,2.389,2.39,2.392,2.392,0,0,0-2.389-2.39m0,5.648a3.259,3.259,0,1,1,3.259-3.258,3.26,3.26,0,0,1-3.259,3.258"
            fill="#fac878" fill-rule="evenodd"></path>
         <path id="Path_10481" data-name="Path 10481"
            d="M29.755,26.423a4.236,4.236,0,1,0,4.236,4.236,4.242,4.242,0,0,0-4.236-4.236m0,9.341a5.1,5.1,0,1,1,5.105-5.1,5.112,5.112,0,0,1-5.105,5.1"
            fill="#fac878" fill-rule="evenodd"></path>
         <path id="Path_10482" data-name="Path 10482"
            d="M46.989,47l4.888,7.007,1.022-.656-4.86-6.965,5.44,1.087.279-1.19-7.628-1.57-1.287,6.86,1.2.3Zm4.654,8.193L47.45,49.18l-.733,3.757-2.879-.719,1.6-8.551,2.537.572,6.83,1.367-.677,2.883-4.144-.829,4.139,5.931Z"
            fill="#fac878" fill-rule="evenodd"></path>
      </g>
   </g>
</svg>