<?xml version="1.0" encoding="UTF-8" standalone="no"?>
<svg
   id="Component_44_1"
   data-name="Component 44 – 1"
   width="80"
   height="80"
   viewBox="0 0 80 80"
   version="1.1"
   sodipodi:docname="adalbertinum.svg"
   inkscape:version="1.2.2 (732a01da63, 2022-12-09)"
   xmlns:inkscape="http://www.inkscape.org/namespaces/inkscape"
   xmlns:sodipodi="http://sodipodi.sourceforge.net/DTD/sodipodi-0.dtd"
   xmlns="http://www.w3.org/2000/svg"
   xmlns:svg="http://www.w3.org/2000/svg">
  <sodipodi:namedview
     id="namedview40"
     pagecolor="#ffffff"
     bordercolor="#000000"
     borderopacity="0.25"
     inkscape:showpageshadow="2"
     inkscape:pageopacity="0.0"
     inkscape:pagecheckerboard="0"
     inkscape:deskcolor="#d1d1d1"
     showgrid="false"
     inkscape:zoom="3.1926121"
     inkscape:cx="175.87479"
     inkscape:cy="40.092562"
     inkscape:window-width="2560"
     inkscape:window-height="1369"
     inkscape:window-x="-8"
     inkscape:window-y="-8"
     inkscape:window-maximized="1"
     inkscape:current-layer="Component_44_1" />
  <defs
     id="defs4">
    <clipPath
       id="clip-path">
      <rect
         id="Rectangle_455"
         data-name="Rectangle 455"
         width="80"
         height="80"
         fill="#fac878"
         x="0"
         y="0" />
    </clipPath>
  </defs>
  <g
     id="Group_206"
     data-name="Group 206">
    <g
       id="Group_205"
       data-name="Group 205"
       clip-path="url(#clip-path)">
      <path
         id="Path_10452"
         data-name="Path 10452"
         d="M 9.746,51.56 14.4,49.407 15.132,50 12,55.374 15.185,53.708 c 0.757,-0.4 0.841,-0.626 0.538,-1.464 l 0.193,-0.1 1.336,2.68 -0.193,0.1 C 16.579,54.24 16.384,54.198 15.6,54.543 l -3.059,1.363 c -1.069,0.47 -1.2,0.757 -1.092,1.647 l -0.185,0.094 -0.888,-1.786 2.932,-5.116 -3.148,1.647 c -0.738,0.391 -0.827,0.609 -0.583,1.4 L 9.392,53.885 8.1,51.277 8.285,51.184 c 0.487,0.679 0.7,0.736 1.466,0.376"
         fill="#fac878"
         fill-rule="evenodd" />
      <path
         id="Path_10453"
         data-name="Path 10453"
         d="m 7.006,45.166 c 0.154,0.926 1.534,1.5 3.06,1.243 1.7,-0.28 2.963,-1.44 2.78,-2.55 -0.153,-0.927 -1.541,-1.482 -3.059,-1.232 -1.7,0.281 -2.963,1.441 -2.781,2.539 m 6.325,-1.209 a 2.942,2.942 0 0 1 -0.5,2.425 3.558,3.558 0 0 1 -2.312,1.4 3.194,3.194 0 0 1 -4,-2.708 2.933,2.933 0 0 1 0.5,-2.417 3.505,3.505 0 0 1 2.35,-1.4 3.192,3.192 0 0 1 3.961,2.708"
         fill="#fac878"
         fill-rule="evenodd" />
      <path
         id="Path_10454"
         data-name="Path 10454"
         d="m 7.65,34.12 4.571,2.238 a 2.894,2.894 0 0 1 0.736,0.434 1.129,1.129 0 0 1 0.184,0.444 l -6.078,1.409 a 0.9,0.9 0 0 0 -0.731,0.572 l -0.246,-0.023 0.242,-2.485 0.208,0.019 c 0.017,0.458 0.1,0.591 0.364,0.617 A 3.293,3.293 0 0 0 7.592,37.268 L 11.143,36.46 8.152,35.247 A 2.943,2.943 0 0 0 7.405,35.031 C 7.057,34.995 6.886,35.158 6.632,35.742 L 6.426,35.723 6.669,33.238 6.843,33.255 A 1.334,1.334 0 0 0 7.65,34.12"
         fill="#fac878"
         fill-rule="evenodd" />
      <path
         id="Path_10455"
         data-name="Path 10455"
         d="m 15.024,28.628 -1.617,4.635 -0.2,-0.069 c 0.175,-0.846 0.038,-1.113 -0.722,-1.379 L 8.916,30.574 C 8.107,30.292 7.863,30.336 7.454,30.883 l -0.2,-0.068 1.474,-4.227 1.518,0.377 v 0.227 c -0.92,0.164 -1.274,0.4 -1.563,1.04 l -0.327,0.718 2.415,0.84 0.207,-0.681 c 0.21,-0.7 0.146,-0.89 -0.417,-1.282 l 0.071,-0.2 2.007,0.7 -0.071,0.2 a 0.942,0.942 0 0 0 -1.123,0.744 l -0.265,0.662 1.607,0.561 c 0.712,0.248 1.017,0.128 1.234,-0.5 0.25,-0.722 0.079,-1.262 -0.672,-2.18 l 0.195,-0.149 z M 7.606,27.22 7.211,26.85 6.7,27.2 l 0.427,2.04 0.15,-0.024 z"
         fill="#fac878"
         fill-rule="evenodd" />
      <path
         id="Path_10456"
         data-name="Path 10456"
         d="m 16.1,17.629 1.254,2.41 1.246,-1.348 z m 4.451,2.936 -0.159,-0.146 c 0.268,-0.413 0.272,-0.677 0.023,-0.907 a 0.89,0.89 0 0 0 -0.278,-0.171 l -0.971,-0.423 -1.5,1.62 0.477,0.85 a 1.281,1.281 0 0 0 0.246,0.327 c 0.2,0.189 0.38,0.182 0.737,-0.036 0.05,-0.024 0.112,-0.063 0.2,-0.11 l 0.158,0.148 -1.6,1.734 -0.159,-0.147 c 0.163,-0.526 0.143,-0.642 -0.237,-1.415 l -2.475,-5.072 0.6,-0.651 5.7,2.319 a 0.946,0.946 0 0 0 0.812,0.063 l 0.158,0.147 z"
         fill="#fac878"
         fill-rule="evenodd" />
      <path
         id="Path_10457"
         data-name="Path 10457"
         d="m 23.833,11.16 a 2.515,2.515 0 0 0 -0.949,-0.047 3.9,3.9 0 0 0 -1.405,0.572 l 2.457,4 c 0.362,0.589 0.869,0.761 1.36,0.461 1.055,-0.648 1.177,-2.188 0.291,-3.63 a 2.792,2.792 0 0 0 -1.754,-1.359 m 1.876,5.364 c -0.325,0.2 -0.785,0.4 -1.312,0.721 l -1.574,0.967 -0.114,-0.185 c 0.64,-0.537 0.677,-0.791 0.25,-1.487 l -1.976,-3.219 c -0.486,-0.792 -0.627,-0.863 -1.3,-0.618 l -0.108,-0.176 c 0.277,-0.219 0.486,-0.371 0.629,-0.471 0.457,-0.342 0.983,-0.688 1.371,-0.926 a 4.345,4.345 0 0 1 2.378,-0.842 3.17,3.17 0 0 1 2.831,1.615 3.157,3.157 0 0 1 -1.075,4.62"
         fill="#fac878"
         fill-rule="evenodd" />
      <path
         id="Path_10458"
         data-name="Path 10458"
         d="m 30.912,8.421 -0.181,2.713 1.766,-0.5 z m 2.278,4.822 -0.059,-0.208 c 0.443,-0.212 0.584,-0.435 0.491,-0.762 A 0.891,0.891 0 0 0 33.474,11.982 L 32.862,11.116 30.738,11.722 30.7,12.7 a 1.332,1.332 0 0 0 0.042,0.406 c 0.078,0.269 0.23,0.353 0.649,0.353 0.055,0.005 0.13,0.005 0.229,0.008 l 0.057,0.21 -2.271,0.648 -0.059,-0.208 c 0.411,-0.363 0.455,-0.473 0.531,-1.332 l 0.522,-5.624 0.854,-0.243 3.665,4.941 a 0.949,0.949 0 0 0 0.661,0.476 l 0.059,0.207 z"
         fill="#fac878"
         fill-rule="evenodd" />
      <path
         id="Path_10459"
         data-name="Path 10459"
         d="m 41.3,12.333 -4.977,0.176 -0.008,-0.216 c 0.851,-0.144 1.05,-0.367 1.022,-1.172 L 37.2,7.216 C 37.175,6.495 37.013,6.274 36.387,6.099 L 36.379,5.893 39.5,5.784 l 0.008,0.2 C 38.668,6.15 38.519,6.35 38.554,7.298 l 0.129,3.6 c 0.025,0.741 0.229,0.951 0.929,0.926 0.743,-0.026 1.183,-0.382 1.766,-1.413 l 0.209,0.064 z"
         fill="#fac878"
         fill-rule="evenodd" />
      <path
         id="Path_10460"
         data-name="Path 10460"
         d="M 47.133,7.338 A 1.774,1.774 0 0 0 46.128,6.7 l -0.51,2.507 0.112,0.171 0.753,0.228 c 0.13,-0.069 0.234,-0.121 0.32,-0.178 A 1.457,1.457 0 0 0 47.35,8.498 1.383,1.383 0 0 0 47.133,7.339 M 46.9,10.711 C 46.628,10.286 46.33,10.1 45.49,9.834 l -0.328,1.606 c -0.144,0.709 0.054,1.137 0.547,1.239 a 1.138,1.138 0 0 0 1.307,-1.038 1.318,1.318 0 0 0 -0.116,-0.93 m -1.033,2.43 a 12.514,12.514 0 0 1 -1.405,-0.39 l -1.95,-0.4 0.044,-0.212 c 0.871,0.062 1.1,-0.1 1.266,-0.9 l 0.754,-3.7 C 44.741,6.73 44.655,6.48 44.088,6.059 l 0.041,-0.2 1.852,0.526 a 4.3,4.3 0 0 1 1.231,0.1 c 1.041,0.21 1.532,0.795 1.364,1.625 A 2.2,2.2 0 0 1 48.163,9 a 2.869,2.869 0 0 1 -1.154,0.861 5.041,5.041 0 0 1 0.8,0.521 1.506,1.506 0 0 1 0.607,1.513 c -0.2,1 -1.255,1.512 -2.549,1.247"
         fill="#fac878"
         fill-rule="evenodd" />
      <path
         id="Path_10461"
         data-name="Path 10461"
         d="M 53.531,15.928 49.1,13.813 49.194,13.618 c 0.822,0.266 1.1,0.16 1.448,-0.567 l 1.625,-3.407 c 0.369,-0.772 0.35,-1.022 -0.146,-1.488 l 0.088,-0.186 4.04,1.93 -0.541,1.467 -0.227,-0.028 c -0.057,-0.931 -0.254,-1.31 -0.86,-1.667 l -0.677,-0.4 -1.1,2.31 0.655,0.278 c 0.675,0.287 0.867,0.242 1.32,-0.274 l 0.194,0.093 -0.913,1.912 -0.2,-0.093 a 0.94,0.94 0 0 0 -0.617,-1.2 l -0.629,-0.335 -0.73,1.537 c -0.325,0.68 -0.237,1 0.36,1.282 0.689,0.327 1.244,0.215 2.239,-0.429 l 0.129,0.209 z"
         fill="#fac878"
         fill-rule="evenodd" />
      <path
         id="Path_10462"
         data-name="Path 10462"
         d="m 60.747,13.421 -1.85,2.2 a 1.7,1.7 0 0 0 0.4,0.528 1.873,1.873 0 0 0 0.426,0.263 c 0.108,-0.017 0.208,-0.04 0.287,-0.054 a 1.859,1.859 0 0 0 1.007,-0.636 c 0.617,-0.734 0.531,-1.465 -0.274,-2.3 m -1.24,7.9 a 3.031,3.031 0 0 1 -0.971,-1.825 6.566,6.566 0 0 1 0.474,-3 2.792,2.792 0 0 1 -0.281,-0.195 2.207,2.207 0 0 1 -0.218,-0.222 l -0.9,1.065 c -0.517,0.615 -0.52,0.857 -0.02,1.465 l -0.138,0.167 -2.549,-2.149 0.139,-0.167 c 0.73,0.479 1.018,0.438 1.543,-0.184 l 2.428,-2.889 a 1.1,1.1 0 0 0 0.14,-1.592 L 59.289,11.628 60.74,13 a 6.78,6.78 0 0 1 1.118,0.753 1.674,1.674 0 0 1 0.352,2.545 1.819,1.819 0 0 1 -0.643,0.509 2.823,2.823 0 0 1 -1.541,0.132 14.462,14.462 0 0 0 -0.272,3.449 2.155,2.155 0 0 0 0.6,1.243 l -0.113,0.133 A 2.688,2.688 0 0 1 59.51,21.325"
         fill="#fac878"
         fill-rule="evenodd" />
      <path
         id="Path_10463"
         data-name="Path 10463"
         d="m 67.907,23.358 c 0.21,-0.954 0.177,-1.413 -0.119,-1.834 l -0.327,-0.463 -3.78,2.657 c -0.572,0.4 -0.627,0.846 -0.191,1.7 l -0.178,0.128 -2.172,-3.09 0.178,-0.125 c 0.648,0.653 1.064,0.741 1.628,0.344 l 3.781,-2.658 -0.331,-0.472 c -0.356,-0.5 -0.763,-0.687 -1.681,-0.721 l -0.032,-0.241 1.5,-0.7 a 8.27,8.27 0 0 0 1.326,2.37 7.8,7.8 0 0 0 1.739,1.992 l -1.107,1.207 z"
         fill="#fac878"
         fill-rule="evenodd" />
      <path
         id="Path_10464"
         data-name="Path 10464"
         d="m 64.325,27.444 0.2,-0.086 c 0.444,0.582 0.667,0.635 1.378,0.328 l 3.592,-1.548 c 0.692,-0.3 0.812,-0.484 0.746,-1.165 l 0.189,-0.081 1.122,2.6 -0.19,0.084 C 70.917,27.062 70.697,27.021 70.004,27.32 l -3.592,1.547 c -0.71,0.306 -0.828,0.5 -0.707,1.226 l -0.2,0.085 z"
         fill="#fac878"
         fill-rule="evenodd" />
      <path
         id="Path_10465"
         data-name="Path 10465"
         d="m 72.339,36.447 -5.06,0.758 -0.536,-0.775 4.506,-4.271 -3.52,0.7 c -0.838,0.169 -0.982,0.364 -0.927,1.255 l -0.213,0.038 -0.525,-2.944 0.212,-0.038 c 0.267,0.791 0.442,0.886 1.292,0.776 l 3.314,-0.445 c 1.156,-0.155 1.366,-0.391 1.512,-1.276 l 0.2,-0.036 0.349,1.959 -4.243,4.084 3.481,-0.694 c 0.818,-0.168 0.963,-0.352 0.953,-1.177 l 0.2,-0.037 0.509,2.866 -0.2,0.036 c -0.279,-0.8 -0.467,-0.907 -1.3,-0.779"
         fill="#fac878"
         fill-rule="evenodd" />
      <path
         id="Path_10466"
         data-name="Path 10466"
         d="M 71.894,45.712 69.43,45.367 c -1.513,-0.208 -1.634,-0.253 -2.156,-0.79 a 2.323,2.323 0 0 1 -0.474,-1.983 3.684,3.684 0 0 1 0.376,-1.339 1.6,1.6 0 0 1 0.419,-0.524 c 0.506,-0.432 1.026,-0.53 2.164,-0.4 l 2.564,0.284 c 0.862,0.093 1.068,0 1.351,-0.569 l 0.2,0.022 -0.319,2.891 -0.206,-0.02 c -0.07,-0.776 -0.248,-0.951 -1.037,-1.04 l -2.585,-0.284 c -1.056,-0.116 -1.373,-0.078 -1.745,0.2 a 1.706,1.706 0 0 0 -0.535,1.084 1.408,1.408 0 0 0 1.421,1.694 l 1.837,0.2 c 0.358,0.04 0.709,0.067 1.069,0.087 0.889,0.049 1.076,-0.055 1.442,-0.731 l 0.205,0.02 -0.273,2.474 -0.205,-0.024 C 72.776,45.966 72.595,45.812 71.89,45.713"
         fill="#fac878"
         fill-rule="evenodd" />
      <path
         id="Path_10467"
         data-name="Path 10467"
         d="m 64.038,52.219 0.2,0.089 c -0.146,0.476 -0.079,0.632 0.381,0.838 0.038,0.018 0.081,0.024 0.117,0.042 l 3.822,1.312 -3.884,-4.124 5.536,0.351 -2.691,-1.572 a 5.23,5.23 0 0 0 -0.494,-0.257 c -0.7,-0.314 -0.949,-0.256 -1.409,0.34 l -0.2,-0.089 1.079,-2.4 0.2,0.09 a 1.105,1.105 0 0 0 0.588,1.283 l 3.394,2.17 c 0.29,0.187 0.46,0.286 0.508,0.307 0.283,0.129 0.54,-0.018 0.817,-0.46 l 0.187,0.085 -0.828,1.846 -4.532,-0.315 3.183,3.319 L 69.186,56.91 69,56.826 c 0.2,-0.477 0.165,-0.743 -0.146,-0.882 -0.029,-0.015 -0.166,-0.063 -0.409,-0.149 l -4.294,-1.477 c -0.5,-0.17 -0.653,-0.136 -0.922,0.24 l -0.2,-0.089 z"
         fill="#fac878"
         fill-rule="evenodd" />
      <path
         id="Path_10468"
         data-name="Path 10468"
         d="M 40,19 A 21,21 0 1 0 61,40 21.023,21.023 0 0 0 40,19 m 0,42.869 A 21.869,21.869 0 1 1 61.87,40 21.9,21.9 0 0 1 40,61.869"
         fill="#fac878"
         fill-rule="evenodd" />
      <path
         id="Path_10469"
         data-name="Path 10469"
         d="M 40,16.393 A 23.609,23.609 0 1 0 63.607,40 23.635,23.635 0 0 0 40,16.393 m 0,48.083 A 24.475,24.475 0 1 1 64.476,40 24.5,24.5 0 0 1 40,64.476"
         fill="#fac878"
         fill-rule="evenodd" />
      <path
         id="Path_10470"
         data-name="Path 10470"
         d="M 40,3.474 A 36.525,36.525 0 1 0 76.526,40 36.567,36.567 0 0 0 40,3.474 m 0,73.92 A 37.394,37.394 0 1 1 77.394,40 37.437,37.437 0 0 1 40,77.394"
         fill="#fac878"
         fill-rule="evenodd" />
      <path
         id="Path_10471"
         data-name="Path 10471"
         d="M 40,0.869 A 39.133,39.133 0 1 0 79.133,40 39.177,39.177 0 0 0 40,0.869 M 40,80 A 40,40 0 1 1 80,40 40.044,40.044 0 0 1 40,80"
         fill="#fac878"
         fill-rule="evenodd" />
      <path
         id="Path_10472"
         data-name="Path 10472"
         d="m 37.37,57.028 a 17.928,17.928 0 0 0 5.264,0 l -1.353,-3.69 V 40.954 l 12.526,0.028 3.636,1.364 a 17.8,17.8 0 0 0 0.029,-5.351 L 53.654,38.4 H 41.281 l 0.027,-12.536 1.413,-3.749 a 17.833,17.833 0 0 0 -5.438,0 l 1.442,3.9 V 38.4 L 26.189,38.373 22.523,36.994 a 17.935,17.935 0 0 0 0.028,5.352 L 26.34,40.954 H 38.724 L 38.7,53.489 Z M 40,58.092 a 18.21,18.21 0 0 1 -3.3,-0.293 l -0.512,-0.094 1.667,-4.446 V 41.824 H 26.421 l -4.536,1.7 -0.1,-0.5 A 18.739,18.739 0 0 1 21.75,36.331 l 0.093,-0.514 4.577,1.721 H 37.857 V 26.1 L 36.1,21.446 36.61,21.352 a 18.694,18.694 0 0 1 6.782,0 l 0.51,0.093 -1.752,4.655 v 11.433 h 11.425 l 4.578,-1.72 0.092,0.513 a 18.709,18.709 0 0 1 -0.036,6.693 l -0.1,0.5 -4.537,-1.7 H 42.151 v 11.439 l 1.666,4.447 -0.509,0.093 A 18.281,18.281 0 0 1 40,58.092"
         fill="#fac878"
         fill-rule="evenodd" />
      <path
         id="Path_10473"
         data-name="Path 10473"
         d="m 49.558,28.269 a 2.39,2.39 0 1 0 2.389,2.39 2.392,2.392 0 0 0 -2.389,-2.39 m 0,5.648 a 3.259,3.259 0 1 1 3.258,-3.258 3.261,3.261 0 0 1 -3.258,3.258"
         fill="#fac878"
         fill-rule="evenodd" />
      <path
         id="Path_10474"
         data-name="Path 10474"
         d="M 40,67.591 A 2.389,2.389 0 1 0 42.389,69.979 2.391,2.391 0 0 0 40,67.591 m 0,5.647 A 3.259,3.259 0 1 1 43.257,69.979 3.261,3.261 0 0 1 40,73.238"
         fill="#fac878"
         fill-rule="evenodd" />
      <path
         id="Path_10475"
         data-name="Path 10475"
         d="m 28.362,65.839 a 1.821,1.821 0 0 0 -1.686,1.128 1.823,1.823 0 0 0 0.988,2.382 1.855,1.855 0 0 0 2.385,-0.988 1.828,1.828 0 0 0 -1.687,-2.522 m 0,4.52 a 2.694,2.694 0 0 1 0,-5.387 2.709,2.709 0 0 1 1.031,0.205 2.693,2.693 0 0 1 -1.032,5.182"
         fill="#fac878"
         fill-rule="evenodd" />
      <path
         id="Path_10476"
         data-name="Path 10476"
         d="m 51.639,65.84 a 1.879,1.879 0 0 0 -0.7,0.139 1.823,1.823 0 0 0 -0.988,2.382 1.856,1.856 0 0 0 2.385,0.991 1.825,1.825 0 0 0 -0.7,-3.512 m 0,4.519 a 2.7,2.7 0 0 1 -1.032,-5.184 2.741,2.741 0 0 1 1.031,-0.2 2.7,2.7 0 0 1 1.033,5.185 2.741,2.741 0 0 1 -1.032,0.2"
         fill="#fac878"
         fill-rule="evenodd" />
      <path
         id="Path_10477"
         data-name="Path 10477"
         d="m 28.8,46.747 a 0.979,0.979 0 1 0 0.977,0.977 0.977,0.977 0 0 0 -0.977,-0.977 m 0,2.823 A 1.845,1.845 0 1 1 30.648,47.723 1.85,1.85 0 0 1 28.8,49.57"
         fill="#fac878"
         fill-rule="evenodd" />
      <path
         id="Path_10478"
         data-name="Path 10478"
         d="m 33.143,46.747 a 0.979,0.979 0 1 0 0.977,0.977 0.979,0.979 0 0 0 -0.977,-0.977 m 0,2.823 a 1.845,1.845 0 1 1 1.847,-1.847 1.85,1.85 0 0 1 -1.847,1.847"
         fill="#fac878"
         fill-rule="evenodd" />
      <path
         id="Path_10479"
         data-name="Path 10479"
         d="m 30.949,51.091 a 0.979,0.979 0 1 0 0.978,0.979 0.979,0.979 0 0 0 -0.978,-0.979 m 0,2.825 a 1.847,1.847 0 1 1 1.851,-1.848 1.85,1.85 0 0 1 -1.847,1.848"
         fill="#fac878"
         fill-rule="evenodd" />
      <path
         id="Path_10480"
         data-name="Path 10480"
         d="m 29.755,28.269 a 2.39,2.39 0 1 0 2.389,2.39 2.392,2.392 0 0 0 -2.389,-2.39 m 0,5.648 a 3.259,3.259 0 1 1 3.259,-3.258 3.26,3.26 0 0 1 -3.259,3.258"
         fill="#fac878"
         fill-rule="evenodd" />
      <path
         id="Path_10481"
         data-name="Path 10481"
         d="m 29.755,26.423 a 4.236,4.236 0 1 0 4.236,4.236 4.242,4.242 0 0 0 -4.236,-4.236 m 0,9.341 a 5.1,5.1 0 1 1 5.105,-5.1 5.112,5.112 0 0 1 -5.105,5.1"
         fill="#fac878"
         fill-rule="evenodd" />
      <path
         id="Path_10482"
         data-name="Path 10482"
         d="m 46.989,47 4.888,7.007 1.022,-0.656 -4.86,-6.965 5.44,1.087 0.279,-1.19 -7.628,-1.57 -1.287,6.86 1.2,0.3 z m 4.654,8.193 -4.193,-6.013 -0.733,3.757 -2.879,-0.719 1.6,-8.551 2.537,0.572 6.83,1.367 -0.677,2.883 -4.144,-0.829 4.139,5.931 z"
         fill="#fac878"
         fill-rule="evenodd" />
    </g>
  </g>
</svg>
