<?xml version="1.0" encoding="utf-8"?>
<!-- Generator: Adobe Illustrator 23.0.6, SVG Export Plug-In . SVG Version: 6.00 Build 0)  -->
<svg version="1.1" id="Vrstva_1" xmlns="http://www.w3.org/2000/svg" xmlns:xlink="http://www.w3.org/1999/xlink" x="0px" y="0px"
	 viewBox="0 0 68.2 81.6" style="enable-background:new 0 0 68.2 81.6;" xml:space="preserve">
<style type="text/css">
	.st0{clip-path:url(#SVGID_2_);}
	.st1{fill:#D9D9D9;}
	.st2{fill:none;stroke:#1D1D1B;stroke-width:0.15;stroke-linecap:round;stroke-linejoin:round;}
	.st3{clip-path:url(#SVGID_4_);}
	.st4{clip-path:url(#SVGID_6_);}
	.st5{fill:#DB312A;}
	.st6{clip-path:url(#SVGID_8_);}
	.st7{clip-path:url(#SVGID_10_);}
	.st8{fill:#E1BC67;}
	.st9{clip-path:url(#SVGID_12_);}
	.st10{clip-path:url(#SVGID_14_);}
	.st11{clip-path:url(#SVGID_16_);}
	.st12{clip-path:url(#SVGID_18_);}
	.st13{clip-path:url(#SVGID_20_);}
	
		.st14{fill-rule:evenodd;clip-rule:evenodd;fill:#DB312A;stroke:#1D1D1B;stroke-width:0.15;stroke-linecap:round;stroke-linejoin:round;}
	.st15{fill:none;stroke:#DADADA;stroke-width:3.000000e-02;stroke-linecap:round;stroke-linejoin:round;}
	.st16{clip-path:url(#SVGID_22_);}
	.st17{clip-path:url(#SVGID_24_);}
	.st18{clip-path:url(#SVGID_26_);}
	.st19{clip-path:url(#SVGID_28_);}
	.st20{clip-path:url(#SVGID_30_);}
	.st21{clip-path:url(#SVGID_32_);}
	.st22{clip-path:url(#SVGID_34_);}
	.st23{clip-path:url(#SVGID_36_);}
	.st24{clip-path:url(#SVGID_38_);}
	.st25{clip-path:url(#SVGID_40_);}
	.st26{clip-path:url(#SVGID_42_);}
	.st27{clip-path:url(#SVGID_44_);}
	
		.st28{fill-rule:evenodd;clip-rule:evenodd;fill:#FFFFFF;stroke:#1D1D1B;stroke-width:0.15;stroke-linecap:round;stroke-linejoin:round;}
	.st29{fill-rule:evenodd;clip-rule:evenodd;fill:#FFFFFF;}
</style>
<title>logo-BiHK</title>
<g>
	<defs>
		<path id="SVGID_1_" d="M46.8,23.3c-3.5-1.2-7.1-2.1-10.8-2.5V3.2C42,7,45.8,13.7,48.1,19.5L46.8,23.3z"/>
	</defs>
	<clipPath id="SVGID_2_">
		<use xlink:href="#SVGID_1_"  style="overflow:visible;"/>
	</clipPath>
	<g class="st0">
		<rect x="35.3" y="2.4" class="st1" width="13.9" height="22.4"/>
	</g>
</g>
<path class="st2" d="M46.8,23.3c-3.5-1.2-7.1-2.1-10.8-2.5V3.2C42,7,45.8,13.7,48.1,19.5L46.8,23.3z"/>
<g>
	<defs>
		<path id="SVGID_3_" d="M21.3,29c7.7-2.6,16-2.6,23.6,0.1C43.6,31.8,22.1,31.5,21.3,29z"/>
	</defs>
	<clipPath id="SVGID_4_">
		<use xlink:href="#SVGID_3_"  style="overflow:visible;"/>
	</clipPath>
	<g class="st3">
		<g>
			<defs>
				<rect id="SVGID_5_" x="21.3" y="26.3" width="23.6" height="5.5"/>
			</defs>
			<clipPath id="SVGID_6_">
				<use xlink:href="#SVGID_5_"  style="overflow:visible;"/>
			</clipPath>
			<g class="st4">
				
					<image style="overflow:visible;enable-background:new    ;" width="194" height="49" xlink:href="7746CFBF180B54EE.png"  transform="matrix(0.1273 0 0 -0.1273 21.4123 32.01)">
				</image>
				<rect x="18" y="25.9" class="st5" width="27.8" height="5.9"/>
			</g>
		</g>
	</g>
</g>
<path class="st2" d="M21.3,29c7.7-2.6,16-2.6,23.6,0.1C43.6,31.8,22.1,31.5,21.3,29z"/>
<g>
	<defs>
		<path id="SVGID_7_" d="M25.4,27.1c-1.4,2-3,3.8-4.8,5.6c2.2,0.2,4.4,0.2,6.7,0.1c2-1.9,3.8-4.1,5.2-6.5
			C30.1,26.3,27.7,26.6,25.4,27.1L25.4,27.1z"/>
	</defs>
	<clipPath id="SVGID_8_">
		<use xlink:href="#SVGID_7_"  style="overflow:visible;"/>
	</clipPath>
	<g class="st6">
		<g>
			<defs>
				<rect id="SVGID_9_" x="20.7" y="26.3" width="11.9" height="6.6"/>
			</defs>
			<clipPath id="SVGID_10_">
				<use xlink:href="#SVGID_9_"  style="overflow:visible;"/>
			</clipPath>
			<g class="st7">
				<rect x="19.4" y="26.3" class="st8" width="13.4" height="7.1"/>
			</g>
		</g>
	</g>
</g>
<path class="st2" d="M25.4,27.1c-1.4,2-3,3.8-4.8,5.6c2.2,0.2,4.4,0.2,6.7,0.1c2-1.9,3.8-4.1,5.2-6.5C30.1,26.3,27.7,26.6,25.4,27.1
	L25.4,27.1z"/>
<g>
	<defs>
		<path id="SVGID_11_" d="M40.1,27.1c1.4,2,3,3.8,4.8,5.5c-2.2,0.2-4.4,0.2-6.7,0.2c-2-1.9-3.8-4.1-5.2-6.5
			C35.4,26.2,37.7,26.5,40.1,27.1z"/>
	</defs>
	<clipPath id="SVGID_12_">
		<use xlink:href="#SVGID_11_"  style="overflow:visible;"/>
	</clipPath>
	<g class="st9">
		<g>
			<defs>
				<rect id="SVGID_13_" x="32.9" y="26.2" width="11.9" height="6.6"/>
			</defs>
			<clipPath id="SVGID_14_">
				<use xlink:href="#SVGID_13_"  style="overflow:visible;"/>
			</clipPath>
			<g class="st10">
				<rect x="32.9" y="26.2" class="st8" width="13.4" height="7.1"/>
			</g>
		</g>
	</g>
</g>
<path class="st2" d="M40.1,27.1c1.4,2,3,3.8,4.8,5.5c-2.2,0.2-4.4,0.2-6.7,0.2c-2-1.9-3.8-4.1-5.2-6.5
	C35.4,26.2,37.7,26.5,40.1,27.1z"/>
<g>
	<defs>
		<path id="SVGID_15_" d="M19.1,23.2c3.6-1.2,7.3-2,11-2.5V3.1c-6.1,3.8-10,10.5-12.4,16.3L19.1,23.2L19.1,23.2z"/>
	</defs>
	<clipPath id="SVGID_16_">
		<use xlink:href="#SVGID_15_"  style="overflow:visible;"/>
	</clipPath>
	<g class="st11">
		<rect x="15.9" y="1.7" class="st1" width="15.5" height="22.6"/>
	</g>
</g>
<path class="st2" d="M19.1,23.2c3.6-1.2,7.3-2,11-2.5V3.1c-6.1,3.8-10,10.5-12.4,16.3L19.1,23.2L19.1,23.2z"/>
<g>
	<defs>
		<path id="SVGID_17_" d="M33,1.5c1,0.5,2.1,1,3,1.7v17.4c3.7,0.5,7.3,1.3,10.8,2.6l-2,5.9c-8.5-2.5-14.6-2.7-23.6,0L19,23.2
			c3.6-1.2,7.3-2,11-2.5V3.1C31,2.5,32,1.9,33,1.5z"/>
	</defs>
	<clipPath id="SVGID_18_">
		<use xlink:href="#SVGID_17_"  style="overflow:visible;"/>
	</clipPath>
	<g class="st12">
		<g>
			<defs>
				<rect id="SVGID_19_" x="19.1" y="1.5" width="27.8" height="27.6"/>
			</defs>
			<clipPath id="SVGID_20_">
				<use xlink:href="#SVGID_19_"  style="overflow:visible;"/>
			</clipPath>
			<g class="st13">
				
					<image style="overflow:visible;enable-background:new    ;" width="226" height="224" xlink:href="7746CFBF180B54F2.png"  transform="matrix(0.1294 0 0 -0.1294 18.8206 29.42)">
				</image>
				<rect x="16.3" class="st8" width="33.6" height="30.6"/>
			</g>
		</g>
	</g>
</g>
<path class="st2" d="M33,1.5c1,0.5,2.1,1,3,1.7v17.4c3.7,0.5,7.3,1.3,10.8,2.6l-2,5.9c-8.5-2.5-14.6-2.7-23.6,0L19,23.2
	c3.6-1.2,7.3-2,11-2.5V3.1C31,2.5,32,1.9,33,1.5z"/>
<path class="st14" d="M33.1,6.4c0.7,0,1.2,0.5,1.2,1.2c0,0.7-0.5,1.2-1.2,1.2c-0.7,0-1.2-0.5-1.2-1.2c0,0,0,0,0,0l0,0
	C31.9,6.9,32.4,6.4,33.1,6.4z"/>
<path class="st14" d="M33.1,11.4c0.7,0,1.2,0.5,1.2,1.2s-0.5,1.2-1.2,1.2c-0.7,0-1.2-0.5-1.2-1.2l0,0C31.9,12,32.4,11.4,33.1,11.4
	C33.1,11.4,33.1,11.4,33.1,11.4z"/>
<path class="st14" d="M33.1,16.5c0.7,0,1.2,0.5,1.2,1.2c0,0.7-0.5,1.2-1.2,1.2c-0.7,0-1.2-0.5-1.2-1.2l0,0
	C31.9,17.1,32.4,16.5,33.1,16.5z"/>
<path class="st14" d="M36.5,23.1c0.7,0,1.2,0.5,1.2,1.2c0,0.7-0.5,1.2-1.2,1.2s-1.2-0.5-1.2-1.2c0,0,0,0,0,0l0,0
	C35.2,23.6,35.8,23.1,36.5,23.1L36.5,23.1L36.5,23.1L36.5,23.1z"/>
<path class="st14" d="M42.3,23.8c0.7,0,1.2,0.5,1.2,1.2c0,0.7-0.5,1.2-1.2,1.2c-0.7,0-1.2-0.5-1.2-1.2S41.6,23.8,42.3,23.8
	L42.3,23.8z"/>
<path class="st14" d="M29.5,23c0.7,0,1.2,0.6,1.2,1.2s-0.6,1.2-1.2,1.2c-0.7,0-1.2-0.5-1.2-1.2C28.3,23.6,28.8,23.1,29.5,23
	C29.5,23.1,29.5,23,29.5,23z"/>
<path class="st14" d="M23.9,23.8c0.7,0,1.2,0.5,1.2,1.2c0,0.7-0.5,1.2-1.2,1.2c-0.7,0-1.2-0.5-1.2-1.2l0,0
	C22.6,24.4,23.2,23.9,23.9,23.8C23.9,23.8,23.9,23.8,23.9,23.8z"/>
<path class="st15" d="M31.9,7.8L31.9,7.8V8L32,8.1L32,8.3l0.1,0.1l0.2,0.1l0.2,0.1l0.2,0.1l0.2,0.1h0.6l0.2-0.1l0.2-0.1l0.2-0.1
	L34,8.3l0.1-0.2l0,0l0.1-0.3V7.3l-0.1-0.2L34,6.9l-0.2-0.2l-0.2-0.1l-0.2-0.1l-0.2-0.1h-0.5l-0.2,0.1l-0.2,0.1l-0.2,0.2L32,7
	l-0.1,0.3l0,0V7.8 M31.9,12.8L31.9,12.8v0.2l0.1,0.2l0.1,0.1l0.1,0.2l0.2,0.1l0.2,0.1l0.2,0.1l0.2,0.1h0.6l0.2-0.1l0.2-0.1l0.2-0.1
	l0.1-0.2l0.1-0.2l0,0l0.1-0.3v-0.5L34.1,12L34,11.9l-0.2-0.1l-0.2-0.2l-0.2-0.1h-0.7l-0.2,0.1l-0.2,0.2l-0.2,0.2L32,12.1l-0.1,0.3
	l0,0L31.9,12.8 M31.9,17.9L31.9,17.9v0.2l0.1,0.2l0.1,0.2l0.1,0.1l0.2,0.1l0.2,0.1l0.2,0.1h0.8l0.2-0.1l0.2-0.1l0.2-0.1l0.1-0.2
	l0.1-0.2l0,0l0.1-0.3v-0.5l-0.1-0.2L34,17l-0.2-0.2l-0.2-0.1l-0.2-0.1l-0.2-0.1h-0.5l-0.2,0.1l-0.2,0.1l-0.2,0.2L32,17.1l-0.1,0.3
	l0,0L31.9,17.9 M28.4,24.5L28.4,24.5v0.4l0.1,0.2l0.1,0.1l0.1,0.1l0.2,0.1l0.2,0.1l0.2,0.1h0.6l0.2-0.1l0.2-0.1l0.2-0.1l0.1-0.2
	l0.1-0.2l0,0l0.1-0.3V24l-0.1-0.2v-0.2l-0.2-0.2l-0.2-0.1L30,23.1l-0.2-0.1h-0.5L29,23.1l-0.2,0.1l-0.2,0.2l-0.1,0.2L28.4,24l0,0
	L28.4,24.5 M35.3,24.4L35.3,24.4v0.2l0.1,0.2l0.1,0.2l0.1,0.1l0.1,0.1l0.2,0.1l0.2,0.1l0.2,0.1h0.6l0.2-0.1l0.2-0.1l0.1-0.1l0.1-0.2
	l0.1-0.2l0,0l0.1-0.3V24l-0.1-0.2l-0.1-0.2l-0.2-0.2l-0.2-0.1l-0.2-0.1l-0.3-0.1h-0.4l-0.2,0.1l-0.2,0.1l-0.2,0.2l-0.1,0.2L35.3,24
	l0,0L35.3,24.4 M22.7,25.3L22.7,25.3v0.2l0.1,0.2l0.1,0.2l0.1,0.1l0.2,0.1l0.2,0.1l0.2,0.1l0.2,0.1h0.6l0.2-0.1l0.2-0.1l0.2-0.1
	l0.1-0.2l0.1-0.2l0,0l0.1-0.3v-0.3L25,24.8l-0.1-0.2l-0.2-0.2l-0.2-0.2l-0.2-0.1L24.2,24L24,23.9h-0.4L23.3,24l-0.2,0.1L23,24.3
	l-0.2,0.2l-0.1,0.3l0,0L22.7,25.3 M41.1,25.3L41.1,25.3v0.2l0.1,0.2l0.1,0.2l0.1,0.1l0.2,0.1l0.2,0.1l0.2,0.1l0.2,0.1h0.5l0.2-0.1
	l0.2-0.1L43,26l0.1-0.2l0.1-0.2l0,0l0.1-0.3v-0.5l-0.1-0.2l-0.1-0.2L43,24.2l-0.2-0.1L42.5,24l-0.2-0.1h-0.5L41.6,24l-0.1,0.1
	l-0.2,0.2l-0.2,0.2l-0.1,0.3l0,0L41.1,25.3"/>
<path class="st14" d="M33.1,6.4c0.7,0,1.2,0.5,1.2,1.2c0,0.7-0.5,1.2-1.2,1.2c-0.7,0-1.2-0.5-1.2-1.2c0,0,0,0,0,0l0,0
	C31.9,6.9,32.4,6.4,33.1,6.4z"/>
<path class="st14" d="M33.1,11.4c0.7,0,1.2,0.5,1.2,1.2s-0.5,1.2-1.2,1.2c-0.7,0-1.2-0.5-1.2-1.2l0,0C31.9,12,32.4,11.4,33.1,11.4
	C33.1,11.4,33.1,11.4,33.1,11.4z"/>
<path class="st14" d="M33.1,16.5c0.7,0,1.2,0.5,1.2,1.2c0,0.7-0.5,1.2-1.2,1.2c-0.7,0-1.2-0.5-1.2-1.2l0,0
	C31.9,17.1,32.4,16.5,33.1,16.5z"/>
<path class="st14" d="M36.5,23.1c0.7,0,1.2,0.5,1.2,1.2c0,0.7-0.5,1.2-1.2,1.2s-1.2-0.5-1.2-1.2c0,0,0,0,0,0l0,0
	C35.2,23.6,35.8,23.1,36.5,23.1L36.5,23.1L36.5,23.1L36.5,23.1z"/>
<path class="st14" d="M42.3,23.8c0.7,0,1.2,0.5,1.2,1.2c0,0.7-0.5,1.2-1.2,1.2c-0.7,0-1.2-0.5-1.2-1.2S41.6,23.8,42.3,23.8
	L42.3,23.8z"/>
<path class="st14" d="M29.5,23c0.7,0,1.2,0.6,1.2,1.2s-0.6,1.2-1.2,1.2c-0.7,0-1.2-0.5-1.2-1.2C28.3,23.6,28.8,23.1,29.5,23
	C29.5,23.1,29.5,23,29.5,23z"/>
<path class="st14" d="M23.9,23.8c0.7,0,1.2,0.5,1.2,1.2c0,0.7-0.5,1.2-1.2,1.2c-0.7,0-1.2-0.5-1.2-1.2l0,0
	C22.6,24.4,23.2,23.9,23.9,23.8C23.9,23.8,23.9,23.8,23.9,23.8z"/>
<path class="st15" d="M31.9,7.8L31.9,7.8V8L32,8.1L32,8.3l0.1,0.1l0.2,0.1l0.2,0.1l0.2,0.1l0.2,0.1h0.6l0.2-0.1l0.2-0.1l0.2-0.1
	L34,8.3l0.1-0.2l0,0l0.1-0.3V7.3l-0.1-0.2L34,6.9l-0.2-0.2l-0.2-0.1l-0.2-0.1l-0.2-0.1h-0.5l-0.2,0.1l-0.2,0.1l-0.2,0.2L32,7
	l-0.1,0.3l0,0V7.8 M31.9,12.8L31.9,12.8v0.2l0.1,0.2l0.1,0.1l0.1,0.2l0.2,0.1l0.2,0.1l0.2,0.1l0.2,0.1h0.6l0.2-0.1l0.2-0.1l0.2-0.1
	l0.1-0.2l0.1-0.2l0,0l0.1-0.3v-0.5L34.1,12L34,11.9l-0.2-0.1l-0.2-0.2l-0.2-0.1h-0.7l-0.2,0.1l-0.2,0.2l-0.2,0.2L32,12.1l-0.1,0.3
	l0,0L31.9,12.8 M31.9,17.9L31.9,17.9v0.2l0.1,0.2l0.1,0.2l0.1,0.1l0.2,0.1l0.2,0.1l0.2,0.1h0.8l0.2-0.1l0.2-0.1l0.2-0.1l0.1-0.2
	l0.1-0.2l0,0l0.1-0.3v-0.5l-0.1-0.2L34,17l-0.2-0.2l-0.2-0.1l-0.2-0.1l-0.2-0.1h-0.5l-0.2,0.1l-0.2,0.1l-0.2,0.2L32,17.1l-0.1,0.3
	l0,0L31.9,17.9 M28.4,24.5L28.4,24.5v0.4l0.1,0.2l0.1,0.1l0.1,0.1l0.2,0.1l0.2,0.1l0.2,0.1h0.6l0.2-0.1l0.2-0.1l0.2-0.1l0.1-0.2
	l0.1-0.2l0,0l0.1-0.3V24l-0.1-0.2v-0.2l-0.2-0.2l-0.2-0.1L30,23.1l-0.2-0.1h-0.5L29,23.1l-0.2,0.1l-0.2,0.2l-0.1,0.2L28.4,24l0,0
	L28.4,24.5 M35.3,24.4L35.3,24.4v0.2l0.1,0.2l0.1,0.2l0.1,0.1l0.1,0.1l0.2,0.1l0.2,0.1l0.2,0.1h0.6l0.2-0.1l0.2-0.1l0.1-0.1l0.1-0.2
	l0.1-0.2l0,0l0.1-0.3V24l-0.1-0.2l-0.1-0.2l-0.2-0.2l-0.2-0.1l-0.2-0.1l-0.3-0.1h-0.4l-0.2,0.1l-0.2,0.1l-0.2,0.2l-0.1,0.2L35.3,24
	l0,0L35.3,24.4 M22.7,25.3L22.7,25.3v0.2l0.1,0.2l0.1,0.2l0.1,0.1l0.2,0.1l0.2,0.1l0.2,0.1l0.2,0.1h0.6l0.2-0.1l0.2-0.1l0.2-0.1
	l0.1-0.2l0.1-0.2l0,0l0.1-0.3v-0.3L25,24.8l-0.1-0.2l-0.2-0.2l-0.2-0.2l-0.2-0.1L24.2,24L24,23.9h-0.4L23.3,24l-0.2,0.1L23,24.3
	l-0.2,0.2l-0.1,0.3l0,0L22.7,25.3 M41.1,25.3L41.1,25.3v0.2l0.1,0.2l0.1,0.2l0.1,0.1l0.2,0.1l0.2,0.1l0.2,0.1l0.2,0.1h0.5l0.2-0.1
	l0.2-0.1L43,26l0.1-0.2l0.1-0.2l0,0l0.1-0.3v-0.5l-0.1-0.2l-0.1-0.2L43,24.2l-0.2-0.1L42.5,24l-0.2-0.1h-0.5L41.6,24l-0.1,0.1
	l-0.2,0.2l-0.2,0.2l-0.1,0.3l0,0L41.1,25.3"/>
<path class="st14" d="M33.1,6.4c0.7,0,1.2,0.5,1.2,1.2c0,0.7-0.5,1.2-1.2,1.2c-0.7,0-1.2-0.5-1.2-1.2c0,0,0,0,0,0l0,0
	C31.9,6.9,32.4,6.4,33.1,6.4z"/>
<path class="st14" d="M33.1,11.4c0.7,0,1.2,0.5,1.2,1.2s-0.5,1.2-1.2,1.2c-0.7,0-1.2-0.5-1.2-1.2l0,0C31.9,12,32.4,11.4,33.1,11.4
	C33.1,11.4,33.1,11.4,33.1,11.4z"/>
<path class="st14" d="M33.1,16.5c0.7,0,1.2,0.5,1.2,1.2c0,0.7-0.5,1.2-1.2,1.2c-0.7,0-1.2-0.5-1.2-1.2l0,0
	C31.9,17.1,32.4,16.5,33.1,16.5z"/>
<path class="st14" d="M36.5,23.1c0.7,0,1.2,0.5,1.2,1.2c0,0.7-0.5,1.2-1.2,1.2s-1.2-0.5-1.2-1.2c0,0,0,0,0,0l0,0
	C35.2,23.6,35.8,23.1,36.5,23.1L36.5,23.1L36.5,23.1L36.5,23.1z"/>
<path class="st14" d="M42.3,23.8c0.7,0,1.2,0.5,1.2,1.2c0,0.7-0.5,1.2-1.2,1.2c-0.7,0-1.2-0.5-1.2-1.2S41.6,23.8,42.3,23.8
	L42.3,23.8z"/>
<path class="st14" d="M29.5,23c0.7,0,1.2,0.6,1.2,1.2s-0.6,1.2-1.2,1.2c-0.7,0-1.2-0.5-1.2-1.2C28.3,23.6,28.8,23.1,29.5,23
	C29.5,23.1,29.5,23,29.5,23z"/>
<path class="st14" d="M23.9,23.8c0.7,0,1.2,0.5,1.2,1.2c0,0.7-0.5,1.2-1.2,1.2c-0.7,0-1.2-0.5-1.2-1.2l0,0
	C22.6,24.4,23.2,23.9,23.9,23.8C23.9,23.8,23.9,23.8,23.9,23.8z"/>
<path class="st15" d="M31.9,7.8L31.9,7.8V8L32,8.1L32,8.3l0.1,0.1l0.2,0.1l0.2,0.1l0.2,0.1l0.2,0.1h0.6l0.2-0.1l0.2-0.1l0.2-0.1
	L34,8.3l0.1-0.2l0,0l0.1-0.3V7.3l-0.1-0.2L34,6.9l-0.2-0.2l-0.2-0.1l-0.2-0.1l-0.2-0.1h-0.5l-0.2,0.1l-0.2,0.1l-0.2,0.2L32,7
	l-0.1,0.3l0,0V7.8"/>
<path class="st2" d="M33.1,6.4c0.7,0,1.2,0.5,1.2,1.2c0,0.7-0.5,1.2-1.2,1.2c-0.7,0-1.2-0.5-1.2-1.2c0,0,0,0,0,0l0,0
	C31.9,6.9,32.4,6.4,33.1,6.4z"/>
<path class="st2" d="M33.1,11.4c0.7,0,1.2,0.5,1.2,1.2s-0.5,1.2-1.2,1.2c-0.7,0-1.2-0.5-1.2-1.2l0,0C31.9,12,32.4,11.4,33.1,11.4
	C33.1,11.4,33.1,11.4,33.1,11.4z"/>
<path class="st2" d="M36.5,23.1c0.7,0,1.2,0.5,1.2,1.2c0,0.7-0.5,1.2-1.2,1.2s-1.2-0.5-1.2-1.2c0,0,0,0,0,0l0,0
	C35.2,23.6,35.8,23.1,36.5,23.1L36.5,23.1L36.5,23.1L36.5,23.1z"/>
<path class="st2" d="M42.3,23.8c0.7,0,1.2,0.5,1.2,1.2c0,0.7-0.5,1.2-1.2,1.2c-0.7,0-1.2-0.5-1.2-1.2S41.6,23.8,42.3,23.8L42.3,23.8
	z"/>
<path class="st2" d="M29.5,23c0.7,0,1.2,0.6,1.2,1.2s-0.6,1.2-1.2,1.2c-0.7,0-1.2-0.5-1.2-1.2C28.3,23.6,28.8,23.1,29.5,23
	C29.5,23.1,29.5,23,29.5,23z"/>
<path class="st2" d="M23.9,23.8c0.7,0,1.2,0.5,1.2,1.2c0,0.7-0.5,1.2-1.2,1.2c-0.7,0-1.2-0.5-1.2-1.2l0,0
	C22.6,24.4,23.2,23.9,23.9,23.8C23.9,23.8,23.9,23.8,23.9,23.8z"/>
<path class="st2" d="M30.1,20.7c2-0.2,4-0.2,6-0.1"/>
<g>
	<defs>
		<path id="SVGID_21_" d="M64.3,46.8c-0.3,1.3-0.5,2.7-0.8,4c-0.3,0.1-0.7,0.1-1,0c0.3-1.4,0.5-2.7,0.8-4.1
			C63.6,46.7,63.9,46.7,64.3,46.8L64.3,46.8z M63.4,46.6c-0.3,1.3-0.6,2.8-0.8,4.1c-0.3,0.1-0.7,0.1-1-0.1c0.3-1.4,0.6-2.7,0.9-4.1
			C62.7,46.5,63.1,46.5,63.4,46.6L63.4,46.6z M62.4,46.5c-0.3,1.3-0.6,2.8-0.9,4.1c-0.3,0-0.7,0-1-0.2c0.3-1.4,0.6-2.7,0.9-4.1
			C61.7,46.4,62.1,46.4,62.4,46.5L62.4,46.5z M61.5,46.4c-0.3,1.3-0.6,2.7-0.9,4c-0.3,0-0.6,0-0.9-0.1c0.3-1.4,0.6-2.7,0.9-4.1
			C60.9,46.2,61.2,46.3,61.5,46.4L61.5,46.4z M60.6,46.2c-0.3,1.3-0.6,2.8-0.9,4.1c-0.3,0-0.6,0-0.9-0.1c0.3-1.4,0.6-2.8,0.9-4.1
			C60,46.1,60.3,46.1,60.6,46.2z M59.7,46.1c-0.3,1.3-0.6,2.8-0.9,4.1c-0.3,0-0.6,0-0.9-0.1c0.3-1.4,0.5-2.8,0.8-4.2
			C59,45.9,59.4,46,59.7,46.1L59.7,46.1z M58.7,45.9c-0.3,1.3-0.5,2.8-0.8,4.1c-0.3,0-0.6,0-0.8-0.2c0.2-1.4,0.4-2.7,0.7-4.1
			C58.1,45.8,58.4,45.9,58.7,45.9z"/>
	</defs>
	<clipPath id="SVGID_22_">
		<use xlink:href="#SVGID_21_"  style="overflow:visible;"/>
	</clipPath>
	<g class="st16">
		<rect x="56.8" y="45.4" class="st5" width="8" height="6"/>
	</g>
</g>
<path class="st2" d="M64.3,46.8c-0.3,1.3-0.5,2.7-0.8,4c-0.3,0.1-0.7,0.1-1,0c0.3-1.4,0.5-2.7,0.8-4.1
	C63.6,46.7,63.9,46.7,64.3,46.8L64.3,46.8z M63.4,46.6c-0.3,1.3-0.6,2.8-0.8,4.1c-0.3,0.1-0.7,0.1-1-0.1c0.3-1.4,0.6-2.7,0.9-4.1
	C62.7,46.5,63.1,46.5,63.4,46.6L63.4,46.6z M62.4,46.5c-0.3,1.3-0.6,2.8-0.9,4.1c-0.3,0-0.7,0-1-0.2c0.3-1.4,0.6-2.7,0.9-4.1
	C61.7,46.4,62.1,46.4,62.4,46.5L62.4,46.5z M61.5,46.4c-0.3,1.3-0.6,2.7-0.9,4c-0.3,0-0.6,0-0.9-0.1c0.3-1.4,0.6-2.7,0.9-4.1
	C60.9,46.2,61.2,46.3,61.5,46.4L61.5,46.4z M60.6,46.2c-0.3,1.3-0.6,2.8-0.9,4.1c-0.3,0-0.6,0-0.9-0.1c0.3-1.4,0.6-2.8,0.9-4.1
	C60,46.1,60.3,46.1,60.6,46.2z M59.7,46.1c-0.3,1.3-0.6,2.8-0.9,4.1c-0.3,0-0.6,0-0.9-0.1c0.3-1.4,0.5-2.8,0.8-4.2
	C59,45.9,59.4,46,59.7,46.1L59.7,46.1z M58.7,45.9c-0.3,1.3-0.5,2.8-0.8,4.1c-0.3,0-0.6,0-0.8-0.2c0.2-1.4,0.4-2.7,0.7-4.1
	C58.1,45.8,58.4,45.9,58.7,45.9z"/>
<path class="st14" d="M57.8,45.9c-0.1-0.1-0.1-0.1-0.2-0.1c-0.1-0.3,0-0.7,0.2-0.9c0.1,0,0.2,0,0.2,0l6.3,0.8
	c0.1,0.1,0.2,0.1,0.3,0.1c0.1,0.3,0,0.7-0.2,1c-0.1,0-0.2,0-0.3,0L57.8,45.9L57.8,45.9z"/>
<g>
	<defs>
		<path id="SVGID_23_" d="M58.6,35.2l-0.2-6.3C60.8,30.3,63,32,65,34c0.1,3.9-0.1,7.8-0.7,11.7c-2.1-0.3-4.2-0.6-6.3-0.8
			C58.4,41.6,58.6,38.4,58.6,35.2z"/>
	</defs>
	<clipPath id="SVGID_24_">
		<use xlink:href="#SVGID_23_"  style="overflow:visible;"/>
	</clipPath>
	<g class="st17">
		<rect x="56.4" y="27.8" class="st8" width="11.8" height="19.2"/>
	</g>
</g>
<path class="st2" d="M58.6,35.2l-0.2-6.3C60.8,30.3,63,32,65,34c0.1,3.9-0.1,7.8-0.7,11.7c-2.1-0.3-4.2-0.6-6.3-0.8
	C58.4,41.6,58.6,38.4,58.6,35.2z"/>
<g>
	<defs>
		<path id="SVGID_25_" d="M58.6,35.2l-0.2-6.3c-0.6,0.2-9.6,2.9-10.4,3.3c4.4,1.9,3.9,1.7,8.4,3.6L58.6,35.2z"/>
	</defs>
	<clipPath id="SVGID_26_">
		<use xlink:href="#SVGID_25_"  style="overflow:visible;"/>
	</clipPath>
	<g class="st18">
		<rect x="47.4" y="27.1" class="st1" width="13.7" height="11.9"/>
	</g>
</g>
<path class="st2" d="M58.6,35.2l-0.2-6.3c-0.6,0.2-9.6,2.9-10.4,3.3c4.4,1.9,3.9,1.7,8.4,3.6L58.6,35.2z"/>
<g>
	<defs>
		<polygon id="SVGID_27_" points="62.3,40.6 61.3,40.5 61.1,41.4 60.3,41.3 60.1,42.3 61,42.5 61,43.4 61.9,43.5 62.1,42.6 
			62.9,42.7 63.1,41.7 62.2,41.5 62.3,40.6 		"/>
	</defs>
	<clipPath id="SVGID_28_">
		<use xlink:href="#SVGID_27_"  style="overflow:visible;"/>
	</clipPath>
	<g class="st19">
		<rect x="59.3" y="39.9" class="st5" width="4.8" height="4.2"/>
	</g>
</g>
<polygon class="st2" points="62.3,40.6 61.3,40.5 61.1,41.3 60.3,41.3 60.1,42.3 61,42.5 61,43.4 61.9,43.5 62.1,42.6 62.9,42.7 
	63.1,41.7 62.2,41.5 62.3,40.6 "/>
<g>
	<defs>
		<path id="SVGID_29_" d="M1.7,46.8c0.3,1.3,0.5,2.7,0.8,4c0.3,0.1,0.7,0.1,1,0c-0.3-1.4-0.5-2.7-0.8-4.1
			C2.4,46.7,2.1,46.8,1.7,46.8L1.7,46.8z M2.6,46.6l0.8,4.1c0.3,0.1,0.7,0,1-0.1c-0.3-1.4-0.6-2.7-0.9-4.1C3.3,46.5,3,46.6,2.6,46.6
			L2.6,46.6z M3.6,46.5c0.3,1.3,0.6,2.8,0.9,4.1c0.3,0,0.7,0,1-0.2c-0.3-1.4-0.6-2.7-0.9-4.1C4.2,46.4,3.9,46.5,3.6,46.5L3.6,46.5z
			 M4.5,46.5c0.3,1.3,0.6,2.7,0.9,4c0.3,0,0.6,0,0.9-0.1C6,49,5.7,47.6,5.4,46.3C5.1,46.3,4.8,46.3,4.5,46.5L4.5,46.5z M5.4,46.3
			c0.3,1.3,0.6,2.8,0.9,4.1c0.3,0,0.6,0,0.9-0.1c-0.3-1.4-0.6-2.8-0.9-4.1C6,46.2,5.6,46.2,5.4,46.3L5.4,46.3z M6.4,46.1
			c0.3,1.3,0.6,2.8,0.9,4.1c0.3,0,0.6,0,0.9-0.1c-0.3-1.4-0.6-2.8-0.8-4.2C7,46,6.6,46,6.4,46.1L6.4,46.1z M7.4,46
			c0.3,1.3,0.5,2.8,0.8,4.1c0.3,0,0.6,0,0.8-0.2c-0.2-1.4-0.4-2.7-0.7-4.1C8,45.9,7.7,45.9,7.4,46z"/>
	</defs>
	<clipPath id="SVGID_30_">
		<use xlink:href="#SVGID_29_"  style="overflow:visible;"/>
	</clipPath>
	<g class="st20">
		<rect x="1.3" y="45.1" class="st5" width="8" height="6.2"/>
	</g>
</g>
<path class="st2" d="M1.7,46.8c0.3,1.3,0.5,2.7,0.8,4c0.3,0.1,0.7,0.1,1,0c-0.3-1.4-0.5-2.7-0.8-4.1C2.4,46.7,2.1,46.8,1.7,46.8
	L1.7,46.8z M2.6,46.6l0.8,4.1c0.3,0.1,0.7,0,1-0.1c-0.3-1.4-0.6-2.7-0.9-4.1C3.3,46.5,3,46.6,2.6,46.6L2.6,46.6z M3.6,46.5
	c0.3,1.3,0.6,2.8,0.9,4.1c0.3,0,0.7,0,1-0.2c-0.3-1.4-0.6-2.7-0.9-4.1C4.2,46.4,3.9,46.5,3.6,46.5L3.6,46.5z M4.5,46.5
	c0.3,1.3,0.6,2.7,0.9,4c0.3,0,0.6,0,0.9-0.1C6,49,5.7,47.6,5.4,46.3C5.1,46.3,4.8,46.3,4.5,46.5L4.5,46.5z M5.4,46.3
	c0.3,1.3,0.6,2.8,0.9,4.1c0.3,0,0.6,0,0.9-0.1c-0.3-1.4-0.6-2.8-0.9-4.1C6,46.2,5.6,46.2,5.4,46.3L5.4,46.3z M6.4,46.1
	c0.3,1.3,0.6,2.8,0.9,4.1c0.3,0,0.6,0,0.9-0.1c-0.3-1.4-0.6-2.8-0.8-4.2C7,46,6.6,46,6.4,46.1L6.4,46.1z M7.4,46
	c0.3,1.3,0.5,2.8,0.8,4.1c0.3,0,0.6,0,0.8-0.2c-0.2-1.4-0.4-2.7-0.7-4.1C8,45.9,7.7,45.9,7.4,46z"/>
<path class="st14" d="M8.2,45.9c0.1-0.1,0.1-0.1,0.2-0.1c0.1-0.3,0-0.7-0.2-1H7.9l-6.3,0.8c-0.1,0.1-0.2,0.1-0.3,0.1
	c-0.1,0.3,0,0.7,0.1,1c0.1,0,0.2,0,0.3,0L8.2,45.9L8.2,45.9z"/>
<g>
	<defs>
		<path id="SVGID_31_" d="M7.4,35.2l0.2-6.3C5.2,30.4,3,32.1,1,34c-0.1,3.9,0.1,7.8,0.7,11.7c2.1-0.3,4.2-0.6,6.3-0.8
			C7.6,41.6,7.4,38.4,7.4,35.2z"/>
	</defs>
	<clipPath id="SVGID_32_">
		<use xlink:href="#SVGID_31_"  style="overflow:visible;"/>
	</clipPath>
	<g class="st21">
		<rect y="27.5" class="st8" width="10.5" height="18.4"/>
	</g>
</g>
<path class="st2" d="M7.4,35.2l0.2-6.3C5.2,30.4,3,32.1,1,34c-0.1,3.9,0.1,7.8,0.7,11.7c2.1-0.3,4.2-0.6,6.3-0.8
	C7.6,41.6,7.4,38.4,7.4,35.2z"/>
<g>
	<defs>
		<path id="SVGID_33_" d="M7.4,35.2l0.2-6.3c0.6,0.2,9.6,2.9,10.4,3.3c-4.4,1.9-3.9,1.7-8.4,3.6L7.4,35.2z"/>
	</defs>
	<clipPath id="SVGID_34_">
		<use xlink:href="#SVGID_33_"  style="overflow:visible;"/>
	</clipPath>
	<g class="st22">
		<rect x="5.7" y="27.5" class="st1" width="13.9" height="10.6"/>
	</g>
</g>
<path class="st2" d="M7.4,35.2l0.2-6.3c0.6,0.2,9.6,2.9,10.4,3.3c-4.4,1.9-3.9,1.7-8.4,3.6L7.4,35.2z"/>
<g>
	<defs>
		<polygon id="SVGID_35_" points="3.7,40.6 4.7,40.5 4.9,41.4 5.7,41.4 5.9,42.4 4.9,42.6 5,43.4 4.1,43.5 3.9,42.6 3,42.7 
			2.9,41.7 3.8,41.5 3.7,40.6 		"/>
	</defs>
	<clipPath id="SVGID_36_">
		<use xlink:href="#SVGID_35_"  style="overflow:visible;"/>
	</clipPath>
	<g class="st23">
		<rect x="2.9" y="39.9" class="st5" width="3.4" height="3.9"/>
	</g>
</g>
<polygon class="st2" points="3.7,40.6 4.7,40.5 4.9,41.4 5.7,41.4 5.9,42.4 4.9,42.6 5,43.4 4.1,43.5 3.9,42.6 3,42.7 2.9,41.7 
	3.8,41.5 3.7,40.6 "/>
<path class="st8" d="M10.5,52.9L10.5,52.9c1.8,16.7,6.6,28.4,22.6,28.6s20.6-11.8,22.4-28.6l0,0C36.7,54.5,29.5,54.5,10.5,52.9
	L10.5,52.9z"/>
<g>
	<defs>
		<path id="SVGID_37_" d="M10.5,52.9L10.5,52.9c1.8,16.7,6.6,28.4,22.6,28.6s20.6-11.8,22.4-28.6l0,0C36.7,54.5,29.5,54.5,10.5,52.9
			L10.5,52.9z"/>
	</defs>
	<clipPath id="SVGID_38_">
		<use xlink:href="#SVGID_37_"  style="overflow:visible;"/>
	</clipPath>
	<g class="st24">
		<rect x="10.5" y="52.9" class="st8" width="45" height="28.7"/>
	</g>
</g>
<path class="st2" d="M10.5,52.9L10.5,52.9c1.8,16.7,6.6,28.4,22.6,28.6s20.6-11.8,22.4-28.6l0,0C36.7,54.5,29.5,54.5,10.5,52.9
	L10.5,52.9z"/>
<g>
	<defs>
		<path id="SVGID_39_" d="M55.5,52.9c0.7-6.6,0.9-13.9,1.3-21.6c-18.2,1.8-29,1.8-47.5,0.1c0.2,7.7,0.5,14.9,1.2,21.5
			C25.5,54.6,40.6,54.6,55.5,52.9L55.5,52.9z"/>
	</defs>
	<clipPath id="SVGID_40_">
		<use xlink:href="#SVGID_39_"  style="overflow:visible;"/>
	</clipPath>
	<g class="st25">
		<g>
			<defs>
				<rect id="SVGID_41_" x="9.3" y="31.3" width="47.5" height="23.4"/>
			</defs>
			<clipPath id="SVGID_42_">
				<use xlink:href="#SVGID_41_"  style="overflow:visible;"/>
			</clipPath>
			<g class="st26">
				<rect x="5.3" y="29.5" class="st5" width="53.5" height="25.6"/>
			</g>
		</g>
	</g>
</g>
<path class="st2" d="M55.5,52.9c0.7-6.6,0.9-13.9,1.3-21.6c-18.2,1.8-29,1.8-47.5,0.1c0.2,7.7,0.5,14.9,1.2,21.5
	C25.5,54.6,40.6,54.6,55.5,52.9L55.5,52.9z"/>
<g>
	<defs>
		<path id="SVGID_43_" d="M33,36.1c1.3,0,2.4,1.1,2.5,2.4c-0.1,0.9-0.6,1.7-1.3,2.1l0.6,0.9c1.1-0.6,1.7-1.8,1.7-3
			c-0.2-1.8-1.7-3.3-3.5-3.4c-1.8,0.1-3.3,1.5-3.5,3.4c0.1,1.2,0.8,2.4,1.9,3l0,0l0.5-0.8c-0.8-0.5-1.3-1.4-1.4-2.3
			C30.7,37.2,31.7,36.2,33,36.1L33,36.1z"/>
	</defs>
	<clipPath id="SVGID_44_">
		<use xlink:href="#SVGID_43_"  style="overflow:visible;"/>
	</clipPath>
	<g class="st27">
		<rect x="29.1" y="34.1" class="st8" width="8" height="8.3"/>
	</g>
</g>
<path class="st2" d="M33,36.1c1.3,0,2.4,1.1,2.5,2.4c-0.1,0.9-0.6,1.7-1.3,2.1l0.6,0.9c1.1-0.6,1.7-1.8,1.7-3
	c-0.2-1.8-1.7-3.3-3.5-3.4c-1.8,0.1-3.3,1.5-3.5,3.4c0.1,1.2,0.8,2.4,1.9,3l0,0l0.5-0.8c-0.8-0.5-1.3-1.4-1.4-2.3
	C30.7,37.2,31.7,36.2,33,36.1L33,36.1z"/>
<path class="st28" d="M31.3,41.8L31.3,41.8c-0.1,1.8,0.1,3.6,0.5,5.3c-0.8,0.5-1.4,0.1-0.9-0.4c-0.5,0.4-1.9,0.3-1.3-0.7
	c-0.8,0.7-2.5,0.2-1.3-0.5c-2.1,0.1-3-0.3-2.2-1c-1.8,0.2-2.6-0.1-2-0.8c-1.8,0.1-2.5-0.5-1.9-1.1c-1.9,0-1.8-0.8-1.6-1
	c-1.3,0.1-2.1-0.7-1.4-1.1c-1.9,0.1-1.8-1.1-1-1.1c3.2-0.1,6.3,0,9.4,0.3C28.9,39.9,29.5,42,31.3,41.8L31.3,41.8z"/>
<path class="st2" d="M19.3,40.6c2.3,0.1,4.6,0.1,6.9,0.2c1.4,0.2,2.6,2.3,4.5,2 M20.7,41.6l4.6,0.1 M22.3,42.6l4.5,0.1 M24.1,43.7
	h3.3 M26.1,44.5h2 M28.3,45.5l0.9-0.4 M29.5,46.1l0.7-0.6 M30.8,46.7l0.7-0.4"/>
<path class="st29" d="M35,47l2.9,3c0.2,0.4-0.2,0.9-1.7-0.5c1.3,1.3,0.4,1.8-0.9,0.4c1,1.4-0.2,1.5-0.9,0.2c0.4,1.6-0.3,1.4-0.8,0.2
	c0.2,0.8-1.2,2.5-1,0.4c-0.2,1.1-1.2,0.9-1.1-0.3c-0.5,0.9-1.6,0.9-1.3,0c-0.3,0.6-1.1,0.6-0.7-0.2c-0.5,0.5-1.5,0.4-1.3-0.3
	c0.8-0.9,2.3-1.8,3.2-2.6L35,47L35,47z M29.6,50.1l1.1-1.4L29.6,50.1z M30.3,50.4l1-1.3L30.3,50.4z M31.6,50.4l0.5-1.2L31.6,50.4z
	 M32.7,50.7l0.2-1.2L32.7,50.7z M33.7,50.3l-0.1-1L33.7,50.3L33.7,50.3z M34.5,50.1l-0.3-1L34.5,50.1z M35.4,50l-0.5-1.1L35.4,50z
	 M36.2,49.5l-0.7-1L36.2,49.5z"/>
<path class="st2" d="M35,47l2.9,3c0.2,0.4-0.2,0.9-1.7-0.5c1.3,1.3,0.4,1.8-0.9,0.4c1,1.4-0.2,1.5-0.9,0.2c0.4,1.6-0.3,1.4-0.8,0.2
	c0.2,0.8-1.2,2.5-1,0.4c-0.2,1.1-1.2,0.9-1.1-0.3c-0.5,0.9-1.6,0.9-1.3,0c-0.3,0.6-1.1,0.6-0.7-0.2c-0.5,0.5-1.5,0.4-1.3-0.3
	c0.8-0.9,2.3-1.8,3.2-2.6L35,47L35,47z M29.6,50.1l1.1-1.4 M30.3,50.4l1-1.3 M31.6,50.4l0.5-1.2 M32.7,50.7l0.2-1.2 M33.7,50.3
	l-0.1-1 M34.4,50.1l-0.3-1 M35.3,50l-0.5-1.1 M36.2,49.5l-0.7-1"/>
<path class="st28" d="M34.9,41.8L34.9,41.8c0.1,1.8-0.1,3.6-0.5,5.3c0.8,0.5,1.4,0.1,0.9-0.4c0.5,0.4,1.9,0.3,1.3-0.6
	c0.8,0.7,2.5,0.2,1.2-0.5c2.1,0.1,3-0.3,2.2-1c1.8,0.2,2.6-0.1,2-0.8c1.8,0.1,2.5-0.5,1.9-1.1c1.9,0,1.8-0.8,1.5-1
	c1.3,0.1,2.1-0.7,1.4-1.1c1.9,0.1,1.8-1.1,1-1.1c-3.2-0.1-6.3,0-9.4,0.3C37.3,39.8,36.7,42,34.9,41.8L34.9,41.8z"/>
<path class="st2" d="M46.9,40.5c-2.3,0.1-4.6,0.1-6.9,0.2c-1.3,0.2-2.5,2.3-4.5,2 M45.5,41.6l-4.6,0.1 M43.9,42.6l-4.5,0.1 M42,43.7
	h-3.3 M40.1,44.5h-2 M37.9,45.5l-0.9-0.4 M36.6,46.1L36,45.4 M35.4,46.7l-0.7-0.5"/>
<path class="st28" d="M34.3,47.6c0.7-1.6,1-3.4,0.9-5.1v-0.5L34,40.3h-1.9L31,41.9v0.5c-0.1,1.8,0.2,3.5,0.9,5.2L34.3,47.6z"/>
<path class="st28" d="M33,37.3c0.9,0.1,1.5,0.8,1.5,1.6c0,0.5-0.2,0.9-0.5,1.3l-1,1.6l-1-1.6c-0.3-0.3-0.5-0.8-0.5-1.2
	C31.5,38.1,32.2,37.3,33,37.3z"/>
<path class="st2" d="M32,44.6c0.7,0.2,1.3,0.2,2,0"/>
<path class="st28" d="M31.9,39c0.2,0,0.4,0.2,0.4,0.4c0.1,0.3,0,0.5-0.2,0.6s-0.4-0.1-0.4-0.4C31.6,39.3,31.7,39.1,31.9,39z"/>
<path class="st28" d="M34.2,39c-0.2,0-0.4,0.1-0.4,0.4c-0.1,0.2,0,0.5,0.2,0.5c0.2,0,0.4-0.2,0.4-0.4C34.5,39.3,34.4,39.1,34.2,39z"
	/>
<path class="st2" d="M31.9,47.5c0.4-0.7,0.7-1.4,0.8-2.2"/>
<path class="st2" d="M34.3,47.5c-0.4-0.7-0.7-1.4-0.8-2.2"/>
<polygon class="st14" points="26.6,58.2 23,74.2 26.4,75.1 29.2,64.8 33.1,71 36.8,64.7 39.6,75.1 43,74.2 39.4,58.2 36.4,58.3 
	33.1,63.4 29.6,58.4 26.6,58.2 "/>
<path class="st28" d="M34.4,46.9c-0.1,0.3-0.2,0.5-0.3,0.8c-0.2,0.2-0.5,0.3-0.6,0.5c0,0,0,0.1,0,0.2c0,0,0.1,0,0.2,0l0,0l0.5-0.3
	v0.4c0,0.2,0.2,0.2,0.2,0V48l0.4,0.3c0.1,0.1,0.2-0.1,0.2-0.2s-0.5-0.4-0.5-0.6l0.2-0.5C34.6,46.6,34.4,46.7,34.4,46.9L34.4,46.9z"
	/>
<path class="st28" d="M31.8,47c0.1,0.3,0.2,0.5,0.3,0.8c0.2,0.2,0.5,0.3,0.6,0.5s0,0.3-0.1,0.2l-0.5-0.3v0.4c0,0.2-0.2,0.2-0.2,0
	v-0.5l-0.4,0.3c-0.1,0.1-0.2-0.1-0.2-0.2s0.5-0.4,0.5-0.6l-0.1-0.5C31.6,46.7,31.8,46.9,31.8,47L31.8,47z"/>
</svg>
