<?xml version="1.0" encoding="UTF-8" standalone="no"?>
<!-- Generator: Adobe Illustrator 23.0.6, SVG Export Plug-In . SVG Version: 6.00 Build 0)  -->

<svg
   version="1.1"
   id="Vrstva_1"
   x="0px"
   y="0px"
   viewBox="0 0 80.726002 80.725999"
   xml:space="preserve"
   sodipodi:docname="bihk.svg"
   width="80.725998"
   height="80.725998"
   inkscape:version="1.2.2 (732a01da63, 2022-12-09)"
   xmlns:inkscape="http://www.inkscape.org/namespaces/inkscape"
   xmlns:sodipodi="http://sodipodi.sourceforge.net/DTD/sodipodi-0.dtd"
   xmlns:xlink="http://www.w3.org/1999/xlink"
   xmlns="http://www.w3.org/2000/svg"
   xmlns:svg="http://www.w3.org/2000/svg"><defs
   id="defs401" /><sodipodi:namedview
   id="namedview399"
   pagecolor="#ffffff"
   bordercolor="#000000"
   borderopacity="0.25"
   inkscape:showpageshadow="2"
   inkscape:pageopacity="0.0"
   inkscape:pagecheckerboard="0"
   inkscape:deskcolor="#d1d1d1"
   showgrid="false"
   inkscape:zoom="8.8994936"
   inkscape:cx="6.6857737"
   inkscape:cy="50.002845"
   inkscape:window-width="2560"
   inkscape:window-height="1369"
   inkscape:window-x="-8"
   inkscape:window-y="-8"
   inkscape:window-maximized="1"
   inkscape:current-layer="Vrstva_1" />
<style
   type="text/css"
   id="style2">
	.st0{clip-path:url(#SVGID_2_);}
	.st1{fill:#D9D9D9;}
	.st2{fill:none;stroke:#1D1D1B;stroke-width:0.15;stroke-linecap:round;stroke-linejoin:round;}
	.st3{clip-path:url(#SVGID_4_);}
	.st4{clip-path:url(#SVGID_6_);}
	.st5{fill:#DB312A;}
	.st6{clip-path:url(#SVGID_8_);}
	.st7{clip-path:url(#SVGID_10_);}
	.st8{fill:#E1BC67;}
	.st9{clip-path:url(#SVGID_12_);}
	.st10{clip-path:url(#SVGID_14_);}
	.st11{clip-path:url(#SVGID_16_);}
	.st12{clip-path:url(#SVGID_18_);}
	.st13{clip-path:url(#SVGID_20_);}
	
		.st14{fill-rule:evenodd;clip-rule:evenodd;fill:#DB312A;stroke:#1D1D1B;stroke-width:0.15;stroke-linecap:round;stroke-linejoin:round;}
	.st15{fill:none;stroke:#DADADA;stroke-width:3.000000e-02;stroke-linecap:round;stroke-linejoin:round;}
	.st16{clip-path:url(#SVGID_22_);}
	.st17{clip-path:url(#SVGID_24_);}
	.st18{clip-path:url(#SVGID_26_);}
	.st19{clip-path:url(#SVGID_28_);}
	.st20{clip-path:url(#SVGID_30_);}
	.st21{clip-path:url(#SVGID_32_);}
	.st22{clip-path:url(#SVGID_34_);}
	.st23{clip-path:url(#SVGID_36_);}
	.st24{clip-path:url(#SVGID_38_);}
	.st25{clip-path:url(#SVGID_40_);}
	.st26{clip-path:url(#SVGID_42_);}
	.st27{clip-path:url(#SVGID_44_);}
	
		.st28{fill-rule:evenodd;clip-rule:evenodd;fill:#FFFFFF;stroke:#1D1D1B;stroke-width:0.15;stroke-linecap:round;stroke-linejoin:round;}
	.st29{fill-rule:evenodd;clip-rule:evenodd;fill:#FFFFFF;}
</style>
<title
   id="title4">logo-BiHK</title>



















































































<g
   id="g1544"
   transform="translate(7.362999,-1.1382295)"><g
     id="g16">
	<defs
   id="defs7">
		<path
   id="SVGID_1_"
   d="M 46.8,23.3 C 43.3,22.1 39.7,21.2 36,20.8 V 3.2 c 6,3.8 9.8,10.5 12.1,16.3 z" />
	</defs>
	<clipPath
   id="SVGID_2_">
		<use
   xlink:href="#SVGID_1_"
   style="overflow:visible"
   id="use9" />
	</clipPath>
	<g
   class="st0"
   clip-path="url(#SVGID_2_)"
   id="g14">
		<rect
   x="35.299999"
   y="2.4000001"
   class="st1"
   width="13.9"
   height="22.4"
   id="rect12" />
	</g>
</g><path
     class="st2"
     d="M 46.8,23.3 C 43.3,22.1 39.7,21.2 36,20.8 V 3.2 c 6,3.8 9.8,10.5 12.1,16.3 z"
     id="path18" /><g
     id="g42">
	<defs
   id="defs21">
		<path
   id="SVGID_3_"
   d="M 21.3,29 C 29,26.4 37.3,26.4 44.9,29.1 43.6,31.8 22.1,31.5 21.3,29 Z" />
	</defs>
	<clipPath
   id="SVGID_4_">
		<use
   xlink:href="#SVGID_3_"
   style="overflow:visible"
   id="use23" />
	</clipPath>
	<g
   class="st3"
   clip-path="url(#SVGID_4_)"
   id="g40">
		<g
   id="g38">
			<defs
   id="defs27">
				<rect
   id="SVGID_5_"
   x="21.299999"
   y="26.299999"
   width="23.6"
   height="5.5" />
			</defs>
			<clipPath
   id="SVGID_6_">
				<use
   xlink:href="#SVGID_5_"
   style="overflow:visible"
   id="use29" />
			</clipPath>
			<g
   class="st4"
   clip-path="url(#SVGID_6_)"
   id="g36">
				
					<image
   style="overflow:visible;enable-background:new"
   width="194"
   height="49"
   xlink:href="7746CFBF180B54EE.png"
   transform="matrix(0.1273,0,0,-0.1273,21.4123,32.01)"
   id="image32">
				</image>
				<rect
   x="18"
   y="25.9"
   class="st5"
   width="27.799999"
   height="5.9000001"
   id="rect34" />
			</g>
		</g>
	</g>
</g><path
     class="st2"
     d="M 21.3,29 C 29,26.4 37.3,26.4 44.9,29.1 43.6,31.8 22.1,31.5 21.3,29 Z"
     id="path44" /><g
     id="g66">
	<defs
   id="defs47">
		<path
   id="SVGID_7_"
   d="m 25.4,27.1 c -1.4,2 -3,3.8 -4.8,5.6 2.2,0.2 4.4,0.2 6.7,0.1 2,-1.9 3.8,-4.1 5.2,-6.5 -2.4,0 -4.8,0.3 -7.1,0.8 z" />
	</defs>
	<clipPath
   id="SVGID_8_">
		<use
   xlink:href="#SVGID_7_"
   style="overflow:visible"
   id="use49" />
	</clipPath>
	<g
   class="st6"
   clip-path="url(#SVGID_8_)"
   id="g64">
		<g
   id="g62">
			<defs
   id="defs53">
				<rect
   id="SVGID_9_"
   x="20.700001"
   y="26.299999"
   width="11.9"
   height="6.5999999" />
			</defs>
			<clipPath
   id="SVGID_10_">
				<use
   xlink:href="#SVGID_9_"
   style="overflow:visible"
   id="use55" />
			</clipPath>
			<g
   class="st7"
   clip-path="url(#SVGID_10_)"
   id="g60">
				<rect
   x="19.4"
   y="26.299999"
   class="st8"
   width="13.4"
   height="7.0999999"
   id="rect58" />
			</g>
		</g>
	</g>
</g><path
     class="st2"
     d="m 25.4,27.1 c -1.4,2 -3,3.8 -4.8,5.6 2.2,0.2 4.4,0.2 6.7,0.1 2,-1.9 3.8,-4.1 5.2,-6.5 -2.4,0 -4.8,0.3 -7.1,0.8 z"
     id="path68" /><g
     id="g90">
	<defs
   id="defs71">
		<path
   id="SVGID_11_"
   d="m 40.1,27.1 c 1.4,2 3,3.8 4.8,5.5 -2.2,0.2 -4.4,0.2 -6.7,0.2 -2,-1.9 -3.8,-4.1 -5.2,-6.5 2.4,-0.1 4.7,0.2 7.1,0.8 z" />
	</defs>
	<clipPath
   id="SVGID_12_">
		<use
   xlink:href="#SVGID_11_"
   style="overflow:visible"
   id="use73" />
	</clipPath>
	<g
   class="st9"
   clip-path="url(#SVGID_12_)"
   id="g88">
		<g
   id="g86">
			<defs
   id="defs77">
				<rect
   id="SVGID_13_"
   x="32.900002"
   y="26.200001"
   width="11.9"
   height="6.5999999" />
			</defs>
			<clipPath
   id="SVGID_14_">
				<use
   xlink:href="#SVGID_13_"
   style="overflow:visible"
   id="use79" />
			</clipPath>
			<g
   class="st10"
   clip-path="url(#SVGID_14_)"
   id="g84">
				<rect
   x="32.900002"
   y="26.200001"
   class="st8"
   width="13.4"
   height="7.0999999"
   id="rect82" />
			</g>
		</g>
	</g>
</g><path
     class="st2"
     d="m 40.1,27.1 c 1.4,2 3,3.8 4.8,5.5 -2.2,0.2 -4.4,0.2 -6.7,0.2 -2,-1.9 -3.8,-4.1 -5.2,-6.5 2.4,-0.1 4.7,0.2 7.1,0.8 z"
     id="path92" /><g
     id="g104">
	<defs
   id="defs95">
		<path
   id="SVGID_15_"
   d="m 19.1,23.2 c 3.6,-1.2 7.3,-2 11,-2.5 V 3.1 C 24,6.9 20.1,13.6 17.7,19.4 Z" />
	</defs>
	<clipPath
   id="SVGID_16_">
		<use
   xlink:href="#SVGID_15_"
   style="overflow:visible"
   id="use97" />
	</clipPath>
	<g
   class="st11"
   clip-path="url(#SVGID_16_)"
   id="g102">
		<rect
   x="15.9"
   y="1.7"
   class="st1"
   width="15.5"
   height="22.6"
   id="rect100" />
	</g>
</g><path
     class="st2"
     d="m 19.1,23.2 c 3.6,-1.2 7.3,-2 11,-2.5 V 3.1 C 24,6.9 20.1,13.6 17.7,19.4 Z"
     id="path106" /><g
     id="g130">
	<defs
   id="defs109">
		<path
   id="SVGID_17_"
   d="m 33,1.5 c 1,0.5 2.1,1 3,1.7 v 17.4 c 3.7,0.5 7.3,1.3 10.8,2.6 l -2,5.9 c -8.5,-2.5 -14.6,-2.7 -23.6,0 L 19,23.2 c 3.6,-1.2 7.3,-2 11,-2.5 V 3.1 c 1,-0.6 2,-1.2 3,-1.6 z" />
	</defs>
	<clipPath
   id="SVGID_18_">
		<use
   xlink:href="#SVGID_17_"
   style="overflow:visible"
   id="use111" />
	</clipPath>
	<g
   class="st12"
   clip-path="url(#SVGID_18_)"
   id="g128">
		<g
   id="g126">
			<defs
   id="defs115">
				<rect
   id="SVGID_19_"
   x="19.1"
   y="1.5"
   width="27.799999"
   height="27.6" />
			</defs>
			<clipPath
   id="SVGID_20_">
				<use
   xlink:href="#SVGID_19_"
   style="overflow:visible"
   id="use117" />
			</clipPath>
			<g
   class="st13"
   clip-path="url(#SVGID_20_)"
   id="g124">
				
					<image
   style="overflow:visible;enable-background:new"
   width="226"
   height="224"
   xlink:href="7746CFBF180B54F2.png"
   transform="matrix(0.1294,0,0,-0.1294,18.8206,29.42)"
   id="image120">
				</image>
				<rect
   x="16.299999"
   class="st8"
   width="33.599998"
   height="30.6"
   id="rect122"
   y="0" />
			</g>
		</g>
	</g>
</g><path
     class="st2"
     d="m 33,1.5 c 1,0.5 2.1,1 3,1.7 v 17.4 c 3.7,0.5 7.3,1.3 10.8,2.6 l -2,5.9 c -8.5,-2.5 -14.6,-2.7 -23.6,0 L 19,23.2 c 3.6,-1.2 7.3,-2 11,-2.5 V 3.1 c 1,-0.6 2,-1.2 3,-1.6 z"
     id="path132" /><path
     class="st14"
     d="m 33.1,6.4 c 0.7,0 1.2,0.5 1.2,1.2 0,0.7 -0.5,1.2 -1.2,1.2 -0.7,0 -1.2,-0.5 -1.2,-1.2 0,0 0,0 0,0 v 0 c 0,-0.7 0.5,-1.2 1.2,-1.2 z"
     id="path134" /><path
     class="st14"
     d="m 33.1,11.4 c 0.7,0 1.2,0.5 1.2,1.2 0,0.7 -0.5,1.2 -1.2,1.2 -0.7,0 -1.2,-0.5 -1.2,-1.2 v 0 c 0,-0.6 0.5,-1.2 1.2,-1.2 0,0 0,0 0,0 z"
     id="path136" /><path
     class="st14"
     d="m 33.1,16.5 c 0.7,0 1.2,0.5 1.2,1.2 0,0.7 -0.5,1.2 -1.2,1.2 -0.7,0 -1.2,-0.5 -1.2,-1.2 v 0 c 0,-0.6 0.5,-1.2 1.2,-1.2 z"
     id="path138" /><path
     class="st14"
     d="m 36.5,23.1 c 0.7,0 1.2,0.5 1.2,1.2 0,0.7 -0.5,1.2 -1.2,1.2 -0.7,0 -1.2,-0.5 -1.2,-1.2 0,0 0,0 0,0 v 0 c -0.1,-0.7 0.5,-1.2 1.2,-1.2 z"
     id="path140" /><path
     class="st14"
     d="m 42.3,23.8 c 0.7,0 1.2,0.5 1.2,1.2 0,0.7 -0.5,1.2 -1.2,1.2 -0.7,0 -1.2,-0.5 -1.2,-1.2 0,-0.7 0.5,-1.2 1.2,-1.2 z"
     id="path142" /><path
     class="st14"
     d="m 29.5,23 c 0.7,0 1.2,0.6 1.2,1.2 0,0.6 -0.6,1.2 -1.2,1.2 -0.7,0 -1.2,-0.5 -1.2,-1.2 0,-0.6 0.5,-1.1 1.2,-1.2 0,0.1 0,0 0,0 z"
     id="path144" /><path
     class="st14"
     d="m 23.9,23.8 c 0.7,0 1.2,0.5 1.2,1.2 0,0.7 -0.5,1.2 -1.2,1.2 -0.7,0 -1.2,-0.5 -1.2,-1.2 v 0 c -0.1,-0.6 0.5,-1.1 1.2,-1.2 0,0 0,0 0,0 z"
     id="path146" /><path
     class="st15"
     d="M 31.9,7.8 V 7.8 8 L 32,8.1 v 0.2 l 0.1,0.1 0.2,0.1 0.2,0.1 0.2,0.1 0.2,0.1 h 0.6 L 33.7,8.7 33.9,8.6 34.1,8.5 34,8.3 34.1,8.1 v 0 L 34.2,7.8 V 7.3 L 34.1,7.1 34,6.9 33.8,6.7 33.6,6.6 33.4,6.5 33.2,6.4 H 32.7 L 32.5,6.5 32.3,6.6 32.1,6.8 32,7 31.9,7.3 v 0 0.5 m 0,5 v 0 0.2 l 0.1,0.2 0.1,0.1 0.1,0.2 0.2,0.1 0.2,0.1 0.2,0.1 0.2,0.1 h 0.6 l 0.2,-0.1 0.2,-0.1 0.2,-0.1 0.1,-0.2 0.1,-0.2 v 0 l 0.1,-0.3 V 12.4 L 34.1,12 34,11.9 33.8,11.8 33.6,11.6 33.4,11.5 h -0.7 l -0.2,0.1 -0.2,0.2 -0.2,0.2 -0.1,0.1 -0.1,0.3 v 0 0.4 m 0,5.1 v 0 0.2 l 0.1,0.2 0.1,0.2 0.1,0.1 0.2,0.1 0.2,0.1 0.2,0.1 h 0.8 l 0.2,-0.1 0.2,-0.1 0.2,-0.1 0.1,-0.2 0.1,-0.2 v 0 l 0.1,-0.3 V 17.4 L 34.4,17.2 34,17 33.8,16.8 33.6,16.7 33.4,16.6 33.2,16.5 h -0.5 l -0.2,0.1 -0.2,0.1 -0.2,0.2 -0.1,0.2 -0.1,0.3 v 0 0.5 m -3.5,6.6 v 0 0.4 l 0.1,0.2 0.1,0.1 0.1,0.1 0.2,0.1 0.2,0.1 0.2,0.1 h 0.6 l 0.2,-0.1 0.2,-0.1 0.2,-0.1 0.1,-0.2 0.1,-0.2 v 0 l 0.1,-0.3 V 24 L 30.7,23.8 V 23.6 L 30.5,23.4 30.3,23.3 30,23.1 29.8,23 h -0.5 l -0.3,0.1 -0.2,0.1 -0.2,0.2 -0.1,0.2 -0.1,0.4 v 0 0.5 m 6.9,-0.1 v 0 0.2 l 0.1,0.2 0.1,0.2 0.1,0.1 0.1,0.1 0.2,0.1 0.2,0.1 0.2,0.1 h 0.6 l 0.2,-0.1 0.2,-0.1 0.1,-0.1 0.1,-0.2 0.1,-0.2 v 0 l 0.1,-0.3 V 24 l -0.1,-0.2 -0.1,-0.2 -0.2,-0.2 -0.2,-0.1 -0.2,-0.1 -0.3,-0.1 h -0.4 l -0.2,0.1 -0.2,0.1 -0.2,0.2 -0.1,0.2 -0.2,0.3 v 0 0.4 m -12.6,0.9 v 0 0.2 l 0.1,0.2 0.1,0.2 0.1,0.1 0.2,0.1 0.2,0.1 0.2,0.1 0.2,0.1 h 0.6 l 0.2,-0.1 0.2,-0.1 0.2,-0.1 0.1,-0.2 0.1,-0.2 v 0 l 0.1,-0.3 V 25.1 L 25,24.8 24.9,24.6 24.7,24.4 24.5,24.2 24.3,24.1 24.2,24 24,23.9 h -0.4 l -0.3,0.1 -0.2,0.1 -0.1,0.2 -0.2,0.2 -0.1,0.3 v 0 0.5 m 18.4,0 v 0 0.2 l 0.1,0.2 0.1,0.2 0.1,0.1 0.2,0.1 0.2,0.1 0.2,0.1 0.2,0.1 h 0.5 l 0.2,-0.1 0.2,-0.1 -0.1,-0.2 0.1,-0.2 0.1,-0.2 v 0 l 0.1,-0.3 V 24.8 L 43.2,24.6 43.1,24.4 43,24.2 42.8,24.1 42.5,24 42.3,23.9 h -0.5 l -0.2,0.1 -0.1,0.1 -0.2,0.2 -0.2,0.2 -0.1,0.3 v 0 l 0.1,0.5"
     id="path148" /><path
     class="st14"
     d="m 33.1,6.4 c 0.7,0 1.2,0.5 1.2,1.2 0,0.7 -0.5,1.2 -1.2,1.2 -0.7,0 -1.2,-0.5 -1.2,-1.2 0,0 0,0 0,0 v 0 c 0,-0.7 0.5,-1.2 1.2,-1.2 z"
     id="path150" /><path
     class="st14"
     d="m 33.1,11.4 c 0.7,0 1.2,0.5 1.2,1.2 0,0.7 -0.5,1.2 -1.2,1.2 -0.7,0 -1.2,-0.5 -1.2,-1.2 v 0 c 0,-0.6 0.5,-1.2 1.2,-1.2 0,0 0,0 0,0 z"
     id="path152" /><path
     class="st14"
     d="m 33.1,16.5 c 0.7,0 1.2,0.5 1.2,1.2 0,0.7 -0.5,1.2 -1.2,1.2 -0.7,0 -1.2,-0.5 -1.2,-1.2 v 0 c 0,-0.6 0.5,-1.2 1.2,-1.2 z"
     id="path154" /><path
     class="st14"
     d="m 36.5,23.1 c 0.7,0 1.2,0.5 1.2,1.2 0,0.7 -0.5,1.2 -1.2,1.2 -0.7,0 -1.2,-0.5 -1.2,-1.2 0,0 0,0 0,0 v 0 c -0.1,-0.7 0.5,-1.2 1.2,-1.2 z"
     id="path156" /><path
     class="st14"
     d="m 42.3,23.8 c 0.7,0 1.2,0.5 1.2,1.2 0,0.7 -0.5,1.2 -1.2,1.2 -0.7,0 -1.2,-0.5 -1.2,-1.2 0,-0.7 0.5,-1.2 1.2,-1.2 z"
     id="path158" /><path
     class="st14"
     d="m 29.5,23 c 0.7,0 1.2,0.6 1.2,1.2 0,0.6 -0.6,1.2 -1.2,1.2 -0.7,0 -1.2,-0.5 -1.2,-1.2 0,-0.6 0.5,-1.1 1.2,-1.2 0,0.1 0,0 0,0 z"
     id="path160" /><path
     class="st14"
     d="m 23.9,23.8 c 0.7,0 1.2,0.5 1.2,1.2 0,0.7 -0.5,1.2 -1.2,1.2 -0.7,0 -1.2,-0.5 -1.2,-1.2 v 0 c -0.1,-0.6 0.5,-1.1 1.2,-1.2 0,0 0,0 0,0 z"
     id="path162" /><path
     class="st15"
     d="M 31.9,7.8 V 7.8 8 L 32,8.1 v 0.2 l 0.1,0.1 0.2,0.1 0.2,0.1 0.2,0.1 0.2,0.1 h 0.6 L 33.7,8.7 33.9,8.6 34.1,8.5 34,8.3 34.1,8.1 v 0 L 34.2,7.8 V 7.3 L 34.1,7.1 34,6.9 33.8,6.7 33.6,6.6 33.4,6.5 33.2,6.4 H 32.7 L 32.5,6.5 32.3,6.6 32.1,6.8 32,7 31.9,7.3 v 0 0.5 m 0,5 v 0 0.2 l 0.1,0.2 0.1,0.1 0.1,0.2 0.2,0.1 0.2,0.1 0.2,0.1 0.2,0.1 h 0.6 l 0.2,-0.1 0.2,-0.1 0.2,-0.1 0.1,-0.2 0.1,-0.2 v 0 l 0.1,-0.3 V 12.4 L 34.1,12 34,11.9 33.8,11.8 33.6,11.6 33.4,11.5 h -0.7 l -0.2,0.1 -0.2,0.2 -0.2,0.2 -0.1,0.1 -0.1,0.3 v 0 0.4 m 0,5.1 v 0 0.2 l 0.1,0.2 0.1,0.2 0.1,0.1 0.2,0.1 0.2,0.1 0.2,0.1 h 0.8 l 0.2,-0.1 0.2,-0.1 0.2,-0.1 0.1,-0.2 0.1,-0.2 v 0 l 0.1,-0.3 V 17.4 L 34.4,17.2 34,17 33.8,16.8 33.6,16.7 33.4,16.6 33.2,16.5 h -0.5 l -0.2,0.1 -0.2,0.1 -0.2,0.2 -0.1,0.2 -0.1,0.3 v 0 0.5 m -3.5,6.6 v 0 0.4 l 0.1,0.2 0.1,0.1 0.1,0.1 0.2,0.1 0.2,0.1 0.2,0.1 h 0.6 l 0.2,-0.1 0.2,-0.1 0.2,-0.1 0.1,-0.2 0.1,-0.2 v 0 l 0.1,-0.3 V 24 L 30.7,23.8 V 23.6 L 30.5,23.4 30.3,23.3 30,23.1 29.8,23 h -0.5 l -0.3,0.1 -0.2,0.1 -0.2,0.2 -0.1,0.2 -0.1,0.4 v 0 0.5 m 6.9,-0.1 v 0 0.2 l 0.1,0.2 0.1,0.2 0.1,0.1 0.1,0.1 0.2,0.1 0.2,0.1 0.2,0.1 h 0.6 l 0.2,-0.1 0.2,-0.1 0.1,-0.1 0.1,-0.2 0.1,-0.2 v 0 l 0.1,-0.3 V 24 l -0.1,-0.2 -0.1,-0.2 -0.2,-0.2 -0.2,-0.1 -0.2,-0.1 -0.3,-0.1 h -0.4 l -0.2,0.1 -0.2,0.1 -0.2,0.2 -0.1,0.2 -0.2,0.3 v 0 0.4 m -12.6,0.9 v 0 0.2 l 0.1,0.2 0.1,0.2 0.1,0.1 0.2,0.1 0.2,0.1 0.2,0.1 0.2,0.1 h 0.6 l 0.2,-0.1 0.2,-0.1 0.2,-0.1 0.1,-0.2 0.1,-0.2 v 0 l 0.1,-0.3 V 25.1 L 25,24.8 24.9,24.6 24.7,24.4 24.5,24.2 24.3,24.1 24.2,24 24,23.9 h -0.4 l -0.3,0.1 -0.2,0.1 -0.1,0.2 -0.2,0.2 -0.1,0.3 v 0 0.5 m 18.4,0 v 0 0.2 l 0.1,0.2 0.1,0.2 0.1,0.1 0.2,0.1 0.2,0.1 0.2,0.1 0.2,0.1 h 0.5 l 0.2,-0.1 0.2,-0.1 -0.1,-0.2 0.1,-0.2 0.1,-0.2 v 0 l 0.1,-0.3 V 24.8 L 43.2,24.6 43.1,24.4 43,24.2 42.8,24.1 42.5,24 42.3,23.9 h -0.5 l -0.2,0.1 -0.1,0.1 -0.2,0.2 -0.2,0.2 -0.1,0.3 v 0 l 0.1,0.5"
     id="path164" /><path
     class="st14"
     d="m 33.1,6.4 c 0.7,0 1.2,0.5 1.2,1.2 0,0.7 -0.5,1.2 -1.2,1.2 -0.7,0 -1.2,-0.5 -1.2,-1.2 0,0 0,0 0,0 v 0 c 0,-0.7 0.5,-1.2 1.2,-1.2 z"
     id="path166" /><path
     class="st14"
     d="m 33.1,11.4 c 0.7,0 1.2,0.5 1.2,1.2 0,0.7 -0.5,1.2 -1.2,1.2 -0.7,0 -1.2,-0.5 -1.2,-1.2 v 0 c 0,-0.6 0.5,-1.2 1.2,-1.2 0,0 0,0 0,0 z"
     id="path168" /><path
     class="st14"
     d="m 33.1,16.5 c 0.7,0 1.2,0.5 1.2,1.2 0,0.7 -0.5,1.2 -1.2,1.2 -0.7,0 -1.2,-0.5 -1.2,-1.2 v 0 c 0,-0.6 0.5,-1.2 1.2,-1.2 z"
     id="path170" /><path
     class="st14"
     d="m 36.5,23.1 c 0.7,0 1.2,0.5 1.2,1.2 0,0.7 -0.5,1.2 -1.2,1.2 -0.7,0 -1.2,-0.5 -1.2,-1.2 0,0 0,0 0,0 v 0 c -0.1,-0.7 0.5,-1.2 1.2,-1.2 z"
     id="path172" /><path
     class="st14"
     d="m 42.3,23.8 c 0.7,0 1.2,0.5 1.2,1.2 0,0.7 -0.5,1.2 -1.2,1.2 -0.7,0 -1.2,-0.5 -1.2,-1.2 0,-0.7 0.5,-1.2 1.2,-1.2 z"
     id="path174" /><path
     class="st14"
     d="m 29.5,23 c 0.7,0 1.2,0.6 1.2,1.2 0,0.6 -0.6,1.2 -1.2,1.2 -0.7,0 -1.2,-0.5 -1.2,-1.2 0,-0.6 0.5,-1.1 1.2,-1.2 0,0.1 0,0 0,0 z"
     id="path176" /><path
     class="st14"
     d="m 23.9,23.8 c 0.7,0 1.2,0.5 1.2,1.2 0,0.7 -0.5,1.2 -1.2,1.2 -0.7,0 -1.2,-0.5 -1.2,-1.2 v 0 c -0.1,-0.6 0.5,-1.1 1.2,-1.2 0,0 0,0 0,0 z"
     id="path178" /><path
     class="st15"
     d="M 31.9,7.8 V 7.8 8 L 32,8.1 v 0.2 l 0.1,0.1 0.2,0.1 0.2,0.1 0.2,0.1 0.2,0.1 h 0.6 L 33.7,8.7 33.9,8.6 34.1,8.5 34,8.3 34.1,8.1 v 0 L 34.2,7.8 V 7.3 L 34.1,7.1 34,6.9 33.8,6.7 33.6,6.6 33.4,6.5 33.2,6.4 H 32.7 L 32.5,6.5 32.3,6.6 32.1,6.8 32,7 31.9,7.3 v 0 0.5"
     id="path180" /><path
     class="st2"
     d="m 33.1,6.4 c 0.7,0 1.2,0.5 1.2,1.2 0,0.7 -0.5,1.2 -1.2,1.2 -0.7,0 -1.2,-0.5 -1.2,-1.2 0,0 0,0 0,0 v 0 c 0,-0.7 0.5,-1.2 1.2,-1.2 z"
     id="path182" /><path
     class="st2"
     d="m 33.1,11.4 c 0.7,0 1.2,0.5 1.2,1.2 0,0.7 -0.5,1.2 -1.2,1.2 -0.7,0 -1.2,-0.5 -1.2,-1.2 v 0 c 0,-0.6 0.5,-1.2 1.2,-1.2 0,0 0,0 0,0 z"
     id="path184" /><path
     class="st2"
     d="m 36.5,23.1 c 0.7,0 1.2,0.5 1.2,1.2 0,0.7 -0.5,1.2 -1.2,1.2 -0.7,0 -1.2,-0.5 -1.2,-1.2 0,0 0,0 0,0 v 0 c -0.1,-0.7 0.5,-1.2 1.2,-1.2 z"
     id="path186" /><path
     class="st2"
     d="m 42.3,23.8 c 0.7,0 1.2,0.5 1.2,1.2 0,0.7 -0.5,1.2 -1.2,1.2 -0.7,0 -1.2,-0.5 -1.2,-1.2 0,-0.7 0.5,-1.2 1.2,-1.2 z"
     id="path188" /><path
     class="st2"
     d="m 29.5,23 c 0.7,0 1.2,0.6 1.2,1.2 0,0.6 -0.6,1.2 -1.2,1.2 -0.7,0 -1.2,-0.5 -1.2,-1.2 0,-0.6 0.5,-1.1 1.2,-1.2 0,0.1 0,0 0,0 z"
     id="path190" /><path
     class="st2"
     d="m 23.9,23.8 c 0.7,0 1.2,0.5 1.2,1.2 0,0.7 -0.5,1.2 -1.2,1.2 -0.7,0 -1.2,-0.5 -1.2,-1.2 v 0 c -0.1,-0.6 0.5,-1.1 1.2,-1.2 0,0 0,0 0,0 z"
     id="path192" /><path
     class="st2"
     d="m 30.1,20.7 c 2,-0.2 4,-0.2 6,-0.1"
     id="path194" /><g
     id="g206">
	<defs
   id="defs197">
		<path
   id="SVGID_21_"
   d="m 64.3,46.8 c -0.3,1.3 -0.5,2.7 -0.8,4 -0.3,0.1 -0.7,0.1 -1,0 0.3,-1.4 0.5,-2.7 0.8,-4.1 0.3,0 0.6,0 1,0.1 z m -0.9,-0.2 c -0.3,1.3 -0.6,2.8 -0.8,4.1 -0.3,0.1 -0.7,0.1 -1,-0.1 0.3,-1.4 0.6,-2.7 0.9,-4.1 0.2,0 0.6,0 0.9,0.1 z m -1,-0.1 c -0.3,1.3 -0.6,2.8 -0.9,4.1 -0.3,0 -0.7,0 -1,-0.2 0.3,-1.4 0.6,-2.7 0.9,-4.1 0.3,0.1 0.7,0.1 1,0.2 z m -0.9,-0.1 c -0.3,1.3 -0.6,2.7 -0.9,4 -0.3,0 -0.6,0 -0.9,-0.1 0.3,-1.4 0.6,-2.7 0.9,-4.1 0.3,0 0.6,0.1 0.9,0.2 z m -0.9,-0.2 c -0.3,1.3 -0.6,2.8 -0.9,4.1 -0.3,0 -0.6,0 -0.9,-0.1 0.3,-1.4 0.6,-2.8 0.9,-4.1 0.3,0 0.6,0 0.9,0.1 z m -0.9,-0.1 c -0.3,1.3 -0.6,2.8 -0.9,4.1 -0.3,0 -0.6,0 -0.9,-0.1 0.3,-1.4 0.5,-2.8 0.8,-4.2 0.3,0 0.7,0.1 1,0.2 z m -1,-0.2 c -0.3,1.3 -0.5,2.8 -0.8,4.1 -0.3,0 -0.6,0 -0.8,-0.2 0.2,-1.4 0.4,-2.7 0.7,-4.1 0.3,0.1 0.6,0.2 0.9,0.2 z" />
	</defs>
	<clipPath
   id="SVGID_22_">
		<use
   xlink:href="#SVGID_21_"
   style="overflow:visible"
   id="use199" />
	</clipPath>
	<g
   class="st16"
   clip-path="url(#SVGID_22_)"
   id="g204">
		<rect
   x="56.799999"
   y="45.400002"
   class="st5"
   width="8"
   height="6"
   id="rect202" />
	</g>
</g><path
     class="st2"
     d="m 64.3,46.8 c -0.3,1.3 -0.5,2.7 -0.8,4 -0.3,0.1 -0.7,0.1 -1,0 0.3,-1.4 0.5,-2.7 0.8,-4.1 0.3,0 0.6,0 1,0.1 z m -0.9,-0.2 c -0.3,1.3 -0.6,2.8 -0.8,4.1 -0.3,0.1 -0.7,0.1 -1,-0.1 0.3,-1.4 0.6,-2.7 0.9,-4.1 0.2,0 0.6,0 0.9,0.1 z m -1,-0.1 c -0.3,1.3 -0.6,2.8 -0.9,4.1 -0.3,0 -0.7,0 -1,-0.2 0.3,-1.4 0.6,-2.7 0.9,-4.1 0.3,0.1 0.7,0.1 1,0.2 z m -0.9,-0.1 c -0.3,1.3 -0.6,2.7 -0.9,4 -0.3,0 -0.6,0 -0.9,-0.1 0.3,-1.4 0.6,-2.7 0.9,-4.1 0.3,0 0.6,0.1 0.9,0.2 z m -0.9,-0.2 c -0.3,1.3 -0.6,2.8 -0.9,4.1 -0.3,0 -0.6,0 -0.9,-0.1 0.3,-1.4 0.6,-2.8 0.9,-4.1 0.3,0 0.6,0 0.9,0.1 z m -0.9,-0.1 c -0.3,1.3 -0.6,2.8 -0.9,4.1 -0.3,0 -0.6,0 -0.9,-0.1 0.3,-1.4 0.5,-2.8 0.8,-4.2 0.3,0 0.7,0.1 1,0.2 z m -1,-0.2 c -0.3,1.3 -0.5,2.8 -0.8,4.1 -0.3,0 -0.6,0 -0.8,-0.2 0.2,-1.4 0.4,-2.7 0.7,-4.1 0.3,0.1 0.6,0.2 0.9,0.2 z"
     id="path208" /><path
     class="st14"
     d="m 57.8,45.9 c -0.1,-0.1 -0.1,-0.1 -0.2,-0.1 -0.1,-0.3 0,-0.7 0.2,-0.9 0.1,0 0.2,0 0.2,0 l 6.3,0.8 c 0.1,0.1 0.2,0.1 0.3,0.1 0.1,0.3 0,0.7 -0.2,1 -0.1,0 -0.2,0 -0.3,0 z"
     id="path210" /><g
     id="g222">
	<defs
   id="defs213">
		<path
   id="SVGID_23_"
   d="m 58.6,35.2 -0.2,-6.3 c 2.4,1.4 4.6,3.1 6.6,5.1 0.1,3.9 -0.1,7.8 -0.7,11.7 -2.1,-0.3 -4.2,-0.6 -6.3,-0.8 0.4,-3.3 0.6,-6.5 0.6,-9.7 z" />
	</defs>
	<clipPath
   id="SVGID_24_">
		<use
   xlink:href="#SVGID_23_"
   style="overflow:visible"
   id="use215" />
	</clipPath>
	<g
   class="st17"
   clip-path="url(#SVGID_24_)"
   id="g220">
		<rect
   x="56.400002"
   y="27.799999"
   class="st8"
   width="11.8"
   height="19.200001"
   id="rect218" />
	</g>
</g><path
     class="st2"
     d="m 58.6,35.2 -0.2,-6.3 c 2.4,1.4 4.6,3.1 6.6,5.1 0.1,3.9 -0.1,7.8 -0.7,11.7 -2.1,-0.3 -4.2,-0.6 -6.3,-0.8 0.4,-3.3 0.6,-6.5 0.6,-9.7 z"
     id="path224" /><g
     id="g236">
	<defs
   id="defs227">
		<path
   id="SVGID_25_"
   d="m 58.6,35.2 -0.2,-6.3 c -0.6,0.2 -9.6,2.9 -10.4,3.3 4.4,1.9 3.9,1.7 8.4,3.6 z" />
	</defs>
	<clipPath
   id="SVGID_26_">
		<use
   xlink:href="#SVGID_25_"
   style="overflow:visible"
   id="use229" />
	</clipPath>
	<g
   class="st18"
   clip-path="url(#SVGID_26_)"
   id="g234">
		<rect
   x="47.400002"
   y="27.1"
   class="st1"
   width="13.7"
   height="11.9"
   id="rect232" />
	</g>
</g><path
     class="st2"
     d="m 58.6,35.2 -0.2,-6.3 c -0.6,0.2 -9.6,2.9 -10.4,3.3 4.4,1.9 3.9,1.7 8.4,3.6 z"
     id="path238" /><g
     id="g250">
	<defs
   id="defs241">
		<polygon
   id="SVGID_27_"
   points="60.1,42.3 61,42.5 61,43.4 61.9,43.5 62.1,42.6 62.9,42.7 63.1,41.7 62.2,41.5 62.3,40.6 61.3,40.5 61.1,41.4 60.3,41.3 " />
	</defs>
	<clipPath
   id="SVGID_28_">
		<use
   xlink:href="#SVGID_27_"
   style="overflow:visible"
   id="use243" />
	</clipPath>
	<g
   class="st19"
   clip-path="url(#SVGID_28_)"
   id="g248">
		<rect
   x="59.299999"
   y="39.900002"
   class="st5"
   width="4.8000002"
   height="4.1999998"
   id="rect246" />
	</g>
</g><polygon
     class="st2"
     points="60.1,42.3 61,42.5 61,43.4 61.9,43.5 62.1,42.6 62.9,42.7 63.1,41.7 62.2,41.5 62.3,40.6 61.3,40.5 61.1,41.3 60.3,41.3 "
     id="polygon252" /><g
     id="g264">
	<defs
   id="defs255">
		<path
   id="SVGID_29_"
   d="m 1.7,46.8 c 0.3,1.3 0.5,2.7 0.8,4 0.3,0.1 0.7,0.1 1,0 C 3.2,49.4 3,48.1 2.7,46.7 c -0.3,0 -0.6,0.1 -1,0.1 z m 0.9,-0.2 0.8,4.1 c 0.3,0.1 0.7,0 1,-0.1 C 4.1,49.2 3.8,47.9 3.5,46.5 3.3,46.5 3,46.6 2.6,46.6 Z m 1,-0.1 c 0.3,1.3 0.6,2.8 0.9,4.1 0.3,0 0.7,0 1,-0.2 C 5.2,49 4.9,47.7 4.6,46.3 c -0.4,0.1 -0.7,0.2 -1,0.2 z m 0.9,0 c 0.3,1.3 0.6,2.7 0.9,4 0.3,0 0.6,0 0.9,-0.1 C 6,49 5.7,47.6 5.4,46.3 c -0.3,0 -0.6,0 -0.9,0.2 z m 0.9,-0.2 c 0.3,1.3 0.6,2.8 0.9,4.1 0.3,0 0.6,0 0.9,-0.1 -0.3,-1.4 -0.6,-2.8 -0.9,-4.1 -0.3,0 -0.7,0 -0.9,0.1 z m 1,-0.2 c 0.3,1.3 0.6,2.8 0.9,4.1 0.3,0 0.6,0 0.9,-0.1 C 7.9,48.7 7.6,47.3 7.4,45.9 7,46 6.6,46 6.4,46.1 Z m 1,-0.1 c 0.3,1.3 0.5,2.8 0.8,4.1 0.3,0 0.6,0 0.8,-0.2 C 8.8,48.5 8.6,47.2 8.3,45.8 8,45.9 7.7,45.9 7.4,46 Z" />
	</defs>
	<clipPath
   id="SVGID_30_">
		<use
   xlink:href="#SVGID_29_"
   style="overflow:visible"
   id="use257" />
	</clipPath>
	<g
   class="st20"
   clip-path="url(#SVGID_30_)"
   id="g262">
		<rect
   x="1.3"
   y="45.099998"
   class="st5"
   width="8"
   height="6.1999998"
   id="rect260" />
	</g>
</g><path
     class="st2"
     d="m 1.7,46.8 c 0.3,1.3 0.5,2.7 0.8,4 0.3,0.1 0.7,0.1 1,0 C 3.2,49.4 3,48.1 2.7,46.7 c -0.3,0 -0.6,0.1 -1,0.1 z m 0.9,-0.2 0.8,4.1 c 0.3,0.1 0.7,0 1,-0.1 C 4.1,49.2 3.8,47.9 3.5,46.5 3.3,46.5 3,46.6 2.6,46.6 Z m 1,-0.1 c 0.3,1.3 0.6,2.8 0.9,4.1 0.3,0 0.7,0 1,-0.2 C 5.2,49 4.9,47.7 4.6,46.3 c -0.4,0.1 -0.7,0.2 -1,0.2 z m 0.9,0 c 0.3,1.3 0.6,2.7 0.9,4 0.3,0 0.6,0 0.9,-0.1 C 6,49 5.7,47.6 5.4,46.3 c -0.3,0 -0.6,0 -0.9,0.2 z m 0.9,-0.2 c 0.3,1.3 0.6,2.8 0.9,4.1 0.3,0 0.6,0 0.9,-0.1 -0.3,-1.4 -0.6,-2.8 -0.9,-4.1 -0.3,0 -0.7,0 -0.9,0.1 z m 1,-0.2 c 0.3,1.3 0.6,2.8 0.9,4.1 0.3,0 0.6,0 0.9,-0.1 C 7.9,48.7 7.6,47.3 7.4,45.9 7,46 6.6,46 6.4,46.1 Z m 1,-0.1 c 0.3,1.3 0.5,2.8 0.8,4.1 0.3,0 0.6,0 0.8,-0.2 C 8.8,48.5 8.6,47.2 8.3,45.8 8,45.9 7.7,45.9 7.4,46 Z"
     id="path266" /><path
     class="st14"
     d="m 8.2,45.9 c 0.1,-0.1 0.1,-0.1 0.2,-0.1 0.1,-0.3 0,-0.7 -0.2,-1 H 7.9 l -6.3,0.8 c -0.1,0.1 -0.2,0.1 -0.3,0.1 -0.1,0.3 0,0.7 0.1,1 0.1,0 0.2,0 0.3,0 z"
     id="path268" /><g
     id="g280">
	<defs
   id="defs271">
		<path
   id="SVGID_31_"
   d="M 7.4,35.2 7.6,28.9 C 5.2,30.4 3,32.1 1,34 0.9,37.9 1.1,41.8 1.7,45.7 3.8,45.4 5.9,45.1 8,44.9 7.6,41.6 7.4,38.4 7.4,35.2 Z" />
	</defs>
	<clipPath
   id="SVGID_32_">
		<use
   xlink:href="#SVGID_31_"
   style="overflow:visible"
   id="use273" />
	</clipPath>
	<g
   class="st21"
   clip-path="url(#SVGID_32_)"
   id="g278">
		<rect
   y="27.5"
   class="st8"
   width="10.5"
   height="18.4"
   id="rect276"
   x="0" />
	</g>
</g><path
     class="st2"
     d="M 7.4,35.2 7.6,28.9 C 5.2,30.4 3,32.1 1,34 0.9,37.9 1.1,41.8 1.7,45.7 3.8,45.4 5.9,45.1 8,44.9 7.6,41.6 7.4,38.4 7.4,35.2 Z"
     id="path282" /><g
     id="g294">
	<defs
   id="defs285">
		<path
   id="SVGID_33_"
   d="m 7.4,35.2 0.2,-6.3 c 0.6,0.2 9.6,2.9 10.4,3.3 -4.4,1.9 -3.9,1.7 -8.4,3.6 z" />
	</defs>
	<clipPath
   id="SVGID_34_">
		<use
   xlink:href="#SVGID_33_"
   style="overflow:visible"
   id="use287" />
	</clipPath>
	<g
   class="st22"
   clip-path="url(#SVGID_34_)"
   id="g292">
		<rect
   x="5.6999998"
   y="27.5"
   class="st1"
   width="13.9"
   height="10.6"
   id="rect290" />
	</g>
</g><path
     class="st2"
     d="m 7.4,35.2 0.2,-6.3 c 0.6,0.2 9.6,2.9 10.4,3.3 -4.4,1.9 -3.9,1.7 -8.4,3.6 z"
     id="path296" /><g
     id="g308">
	<defs
   id="defs299">
		<polygon
   id="SVGID_35_"
   points="5.9,42.4 4.9,42.6 5,43.4 4.1,43.5 3.9,42.6 3,42.7 2.9,41.7 3.8,41.5 3.7,40.6 4.7,40.5 4.9,41.4 5.7,41.4 " />
	</defs>
	<clipPath
   id="SVGID_36_">
		<use
   xlink:href="#SVGID_35_"
   style="overflow:visible"
   id="use301" />
	</clipPath>
	<g
   class="st23"
   clip-path="url(#SVGID_36_)"
   id="g306">
		<rect
   x="2.9000001"
   y="39.900002"
   class="st5"
   width="3.4000001"
   height="3.9000001"
   id="rect304" />
	</g>
</g><polygon
     class="st2"
     points="5.9,42.4 4.9,42.6 5,43.4 4.1,43.5 3.9,42.6 3,42.7 2.9,41.7 3.8,41.5 3.7,40.6 4.7,40.5 4.9,41.4 5.7,41.4 "
     id="polygon310" /><path
     class="st8"
     d="m 10.5,52.9 v 0 c 1.8,16.7 6.6,28.4 22.6,28.6 16,0.2 20.6,-11.8 22.4,-28.6 v 0 c -18.8,1.6 -26,1.6 -45,0 z"
     id="path312" /><g
     id="g324">
	<defs
   id="defs315">
		<path
   id="SVGID_37_"
   d="m 10.5,52.9 v 0 c 1.8,16.7 6.6,28.4 22.6,28.6 16,0.2 20.6,-11.8 22.4,-28.6 v 0 c -18.8,1.6 -26,1.6 -45,0 z" />
	</defs>
	<clipPath
   id="SVGID_38_">
		<use
   xlink:href="#SVGID_37_"
   style="overflow:visible"
   id="use317" />
	</clipPath>
	<g
   class="st24"
   clip-path="url(#SVGID_38_)"
   id="g322">
		<rect
   x="10.5"
   y="52.900002"
   class="st8"
   width="45"
   height="28.700001"
   id="rect320" />
	</g>
</g><path
     class="st2"
     d="m 10.5,52.9 v 0 c 1.8,16.7 6.6,28.4 22.6,28.6 16,0.2 20.6,-11.8 22.4,-28.6 v 0 c -18.8,1.6 -26,1.6 -45,0 z"
     id="path326" /><g
     id="g348">
	<defs
   id="defs329">
		<path
   id="SVGID_39_"
   d="m 55.5,52.9 c 0.7,-6.6 0.9,-13.9 1.3,-21.6 -18.2,1.8 -29,1.8 -47.5,0.1 0.2,7.7 0.5,14.9 1.2,21.5 15,1.7 30.1,1.7 45,0 z" />
	</defs>
	<clipPath
   id="SVGID_40_">
		<use
   xlink:href="#SVGID_39_"
   style="overflow:visible"
   id="use331" />
	</clipPath>
	<g
   class="st25"
   clip-path="url(#SVGID_40_)"
   id="g346">
		<g
   id="g344">
			<defs
   id="defs335">
				<rect
   id="SVGID_41_"
   x="9.3000002"
   y="31.299999"
   width="47.5"
   height="23.4" />
			</defs>
			<clipPath
   id="SVGID_42_">
				<use
   xlink:href="#SVGID_41_"
   style="overflow:visible"
   id="use337" />
			</clipPath>
			<g
   class="st26"
   clip-path="url(#SVGID_42_)"
   id="g342">
				<rect
   x="5.3000002"
   y="29.5"
   class="st5"
   width="53.5"
   height="25.6"
   id="rect340" />
			</g>
		</g>
	</g>
</g><path
     class="st2"
     d="m 55.5,52.9 c 0.7,-6.6 0.9,-13.9 1.3,-21.6 -18.2,1.8 -29,1.8 -47.5,0.1 0.2,7.7 0.5,14.9 1.2,21.5 15,1.7 30.1,1.7 45,0 z"
     id="path350" /><g
     id="g362">
	<defs
   id="defs353">
		<path
   id="SVGID_43_"
   d="m 33,36.1 c 1.3,0 2.4,1.1 2.5,2.4 -0.1,0.9 -0.6,1.7 -1.3,2.1 l 0.6,0.9 c 1.1,-0.6 1.7,-1.8 1.7,-3 -0.2,-1.8 -1.7,-3.3 -3.5,-3.4 -1.8,0.1 -3.3,1.5 -3.5,3.4 0.1,1.2 0.8,2.4 1.9,3 v 0 l 0.5,-0.8 c -0.8,-0.5 -1.3,-1.4 -1.4,-2.3 0.2,-1.2 1.2,-2.2 2.5,-2.3 z" />
	</defs>
	<clipPath
   id="SVGID_44_">
		<use
   xlink:href="#SVGID_43_"
   style="overflow:visible"
   id="use355" />
	</clipPath>
	<g
   class="st27"
   clip-path="url(#SVGID_44_)"
   id="g360">
		<rect
   x="29.1"
   y="34.099998"
   class="st8"
   width="8"
   height="8.3000002"
   id="rect358" />
	</g>
</g><path
     class="st2"
     d="m 33,36.1 c 1.3,0 2.4,1.1 2.5,2.4 -0.1,0.9 -0.6,1.7 -1.3,2.1 l 0.6,0.9 c 1.1,-0.6 1.7,-1.8 1.7,-3 -0.2,-1.8 -1.7,-3.3 -3.5,-3.4 -1.8,0.1 -3.3,1.5 -3.5,3.4 0.1,1.2 0.8,2.4 1.9,3 v 0 l 0.5,-0.8 c -0.8,-0.5 -1.3,-1.4 -1.4,-2.3 0.2,-1.2 1.2,-2.2 2.5,-2.3 z"
     id="path364" /><path
     class="st28"
     d="m 31.3,41.8 v 0 c -0.1,1.8 0.1,3.6 0.5,5.3 -0.8,0.5 -1.4,0.1 -0.9,-0.4 -0.5,0.4 -1.9,0.3 -1.3,-0.7 -0.8,0.7 -2.5,0.2 -1.3,-0.5 -2.1,0.1 -3,-0.3 -2.2,-1 -1.8,0.2 -2.6,-0.1 -2,-0.8 -1.8,0.1 -2.5,-0.5 -1.9,-1.1 -1.9,0 -1.8,-0.8 -1.6,-1 -1.3,0.1 -2.1,-0.7 -1.4,-1.1 -1.9,0.1 -1.8,-1.1 -1,-1.1 3.2,-0.1 6.3,0 9.4,0.3 1.3,0.2 1.9,2.3 3.7,2.1 z"
     id="path366" /><path
     class="st2"
     d="m 19.3,40.6 c 2.3,0.1 4.6,0.1 6.9,0.2 1.4,0.2 2.6,2.3 4.5,2 m -10,-1.2 4.6,0.1 m -3,0.9 4.5,0.1 m -2.7,1 h 3.3 m -1.3,0.8 h 2 m 0.2,1 0.9,-0.4 m 0.3,1 0.7,-0.6 m 0.6,1.2 0.7,-0.4"
     id="path368" /><path
     class="st29"
     d="m 35,47 2.9,3 c 0.2,0.4 -0.2,0.9 -1.7,-0.5 1.3,1.3 0.4,1.8 -0.9,0.4 1,1.4 -0.2,1.5 -0.9,0.2 0.4,1.6 -0.3,1.4 -0.8,0.2 0.2,0.8 -1.2,2.5 -1,0.4 -0.2,1.1 -1.2,0.9 -1.1,-0.3 -0.5,0.9 -1.6,0.9 -1.3,0 C 29.9,51 29.1,51 29.5,50.2 29,50.7 28,50.6 28.2,49.9 29,49 30.5,48.1 31.4,47.3 Z m -5.4,3.1 1.1,-1.4 z m 0.7,0.3 1,-1.3 z m 1.3,0 0.5,-1.2 z m 1.1,0.3 0.2,-1.2 z m 1,-0.4 -0.1,-1 z m 0.8,-0.2 -0.3,-1 z M 35.4,50 34.9,48.9 Z m 0.8,-0.5 -0.7,-1 z"
     id="path370" /><path
     class="st2"
     d="m 35,47 2.9,3 c 0.2,0.4 -0.2,0.9 -1.7,-0.5 1.3,1.3 0.4,1.8 -0.9,0.4 1,1.4 -0.2,1.5 -0.9,0.2 0.4,1.6 -0.3,1.4 -0.8,0.2 0.2,0.8 -1.2,2.5 -1,0.4 -0.2,1.1 -1.2,0.9 -1.1,-0.3 -0.5,0.9 -1.6,0.9 -1.3,0 C 29.9,51 29.1,51 29.5,50.2 29,50.7 28,50.6 28.2,49.9 29,49 30.5,48.1 31.4,47.3 Z m -5.4,3.1 1.1,-1.4 m -0.4,1.7 1,-1.3 m 0.3,1.3 0.5,-1.2 m 0.6,1.5 0.2,-1.2 m 0.8,0.8 -0.1,-1 m 0.8,0.8 -0.3,-1 m 1.2,0.9 -0.5,-1.1 m 1.4,0.6 -0.7,-1"
     id="path372" /><path
     class="st28"
     d="m 34.9,41.8 v 0 c 0.1,1.8 -0.1,3.6 -0.5,5.3 0.8,0.5 1.4,0.1 0.9,-0.4 0.5,0.4 1.9,0.3 1.3,-0.6 0.8,0.7 2.5,0.2 1.2,-0.5 2.1,0.1 3,-0.3 2.2,-1 1.8,0.2 2.6,-0.1 2,-0.8 1.8,0.1 2.5,-0.5 1.9,-1.1 1.9,0 1.8,-0.8 1.5,-1 1.3,0.1 2.1,-0.7 1.4,-1.1 1.9,0.1 1.8,-1.1 1,-1.1 -3.2,-0.1 -6.3,0 -9.4,0.3 -1.1,0 -1.7,2.2 -3.5,2 z"
     id="path374" /><path
     class="st2"
     d="m 46.9,40.5 c -2.3,0.1 -4.6,0.1 -6.9,0.2 -1.3,0.2 -2.5,2.3 -4.5,2 m 10,-1.1 -4.6,0.1 m 3,0.9 -4.5,0.1 m 2.6,1 h -3.3 m 1.4,0.8 h -2 m -0.2,1 -0.9,-0.4 m -0.4,1 -0.6,-0.7 m -0.6,1.3 -0.7,-0.5"
     id="path376" /><path
     class="st28"
     d="m 34.3,47.6 c 0.7,-1.6 1,-3.4 0.9,-5.1 V 42 L 34,40.3 H 32.1 L 31,41.9 v 0.5 c -0.1,1.8 0.2,3.5 0.9,5.2 z"
     id="path378" /><path
     class="st28"
     d="m 33,37.3 c 0.9,0.1 1.5,0.8 1.5,1.6 0,0.5 -0.2,0.9 -0.5,1.3 l -1,1.6 -1,-1.6 c -0.3,-0.3 -0.5,-0.8 -0.5,-1.2 0,-0.9 0.7,-1.7 1.5,-1.7 z"
     id="path380" /><path
     class="st2"
     d="m 32,44.6 c 0.7,0.2 1.3,0.2 2,0"
     id="path382" /><path
     class="st28"
     d="m 31.9,39 c 0.2,0 0.4,0.2 0.4,0.4 0.1,0.3 0,0.5 -0.2,0.6 -0.2,0.1 -0.4,-0.1 -0.4,-0.4 -0.1,-0.3 0,-0.5 0.2,-0.6 z"
     id="path384" /><path
     class="st28"
     d="m 34.2,39 c -0.2,0 -0.4,0.1 -0.4,0.4 -0.1,0.2 0,0.5 0.2,0.5 0.2,0 0.4,-0.2 0.4,-0.4 0.1,-0.2 0,-0.4 -0.2,-0.5 z"
     id="path386" /><path
     class="st2"
     d="m 31.9,47.5 c 0.4,-0.7 0.7,-1.4 0.8,-2.2"
     id="path388" /><path
     class="st2"
     d="M 34.3,47.5 C 33.9,46.8 33.6,46.1 33.5,45.3"
     id="path390" /><polygon
     class="st14"
     points="33.1,71 36.8,64.7 39.6,75.1 43,74.2 39.4,58.2 36.4,58.3 33.1,63.4 29.6,58.4 26.6,58.2 23,74.2 26.4,75.1 29.2,64.8 "
     id="polygon392" /><path
     class="st28"
     d="m 34.4,46.9 c -0.1,0.3 -0.2,0.5 -0.3,0.8 -0.2,0.2 -0.5,0.3 -0.6,0.5 0,0 0,0.1 0,0.2 0,0 0.1,0 0.2,0 v 0 l 0.5,-0.3 v 0.4 c 0,0.2 0.2,0.2 0.2,0 V 48 l 0.4,0.3 C 34.9,48.4 35,48.2 35,48.1 35,48 34.5,47.7 34.5,47.5 L 34.7,47 c -0.1,-0.4 -0.3,-0.3 -0.3,-0.1 z"
     id="path394" /><path
     class="st28"
     d="m 31.8,47 c 0.1,0.3 0.2,0.5 0.3,0.8 0.2,0.2 0.5,0.3 0.6,0.5 0.1,0.2 0,0.3 -0.1,0.2 l -0.5,-0.3 v 0.4 c 0,0.2 -0.2,0.2 -0.2,0 v -0.5 l -0.4,0.3 c -0.1,0.1 -0.2,-0.1 -0.2,-0.2 0,-0.1 0.5,-0.4 0.5,-0.6 l -0.1,-0.5 c -0.1,-0.4 0.1,-0.2 0.1,-0.1 z"
     id="path396" /></g>
</svg>
