<?xml version="1.0" encoding="UTF-8" standalone="no"?>
<!-- Created with Inkscape (http://www.inkscape.org/) -->

<svg
   width="108.158mm"
   height="108.158mm"
   viewBox="0 0 108.15799 108.158"
   version="1.1"
   id="svg5"
   xml:space="preserve"
   inkscape:version="1.2.2 (732a01da63, 2022-12-09)"
   sodipodi:docname="fhk.svg"
   xmlns:inkscape="http://www.inkscape.org/namespaces/inkscape"
   xmlns:sodipodi="http://sodipodi.sourceforge.net/DTD/sodipodi-0.dtd"
   xmlns="http://www.w3.org/2000/svg"
   xmlns:svg="http://www.w3.org/2000/svg"><sodipodi:namedview
     id="namedview7"
     pagecolor="#ffffff"
     bordercolor="#000000"
     borderopacity="0.25"
     inkscape:showpageshadow="2"
     inkscape:pageopacity="0.0"
     inkscape:pagecheckerboard="0"
     inkscape:deskcolor="#d1d1d1"
     inkscape:document-units="mm"
     showgrid="false"
     inkscape:zoom="0.457453"
     inkscape:cx="-326.80953"
     inkscape:cy="37.162288"
     inkscape:window-width="2560"
     inkscape:window-height="1369"
     inkscape:window-x="-8"
     inkscape:window-y="-8"
     inkscape:window-maximized="1"
     inkscape:current-layer="layer1" /><defs
     id="defs2" /><g
     inkscape:label="Layer 1"
     inkscape:groupmode="layer"
     id="layer1"
     transform="translate(-35.717239,6.876049)"><g
       id="g302"
       transform="translate(-3.0932137,-1.2347567)"><path
         style="fill:#9f1f47;stroke-width:0.0846667"
         d="m 98.15654,92.064966 c -0.700183,-0.133773 -1.179879,-0.61578 -1.334915,-1.34134 -0.172447,-0.807051 0.202093,-1.591259 0.948974,-1.986949 0.29372,-0.155608 0.491106,-0.186579 1.19831,-0.188044 0.465667,-9.32e-4 0.970492,0.02986 1.121831,0.06849 l 0.27517,0.07022 V 88.25456 c 0,-0.51772 -0.16381,-0.947225 -0.433229,-1.135939 -0.289734,-0.202937 -1.29819,-0.184082 -1.953033,0.03652 -0.523875,0.176488 -0.656493,0.14776 -0.660443,-0.143053 -0.006,-0.442375 2.192835,-0.77387 2.848725,-0.429471 0.34548,0.181398 0.59865,0.507365 0.70721,0.910522 0.0509,0.189162 0.0772,1.167536 0.0638,2.380776 l -0.0227,2.059643 h -0.21166 c -0.17692,0 -0.21603,-0.04518 -0.2382,-0.275166 -0.0146,-0.151342 -0.0457,-0.275167 -0.0692,-0.275167 -0.0234,0 -0.16652,0.0945 -0.31795,0.210007 -0.493447,0.376369 -1.337715,0.583506 -1.92274,0.471737 z m 1.290458,-0.678679 c 0.240664,-0.09144 0.545873,-0.270019 0.678242,-0.396833 0.23035,-0.220692 0.24067,-0.264033 0.24067,-1.010632 V 89.19878 l -0.444501,-0.107061 c -1.386478,-0.333951 -2.475363,0.138658 -2.575095,1.117667 -0.07539,0.740004 0.487377,1.343169 1.253208,1.343169 0.225447,0 0.606811,-0.07482 0.847476,-0.166268 z m 7.760072,0.671703 c -0.51422,-0.08638 -1.19522,-0.459418 -1.52559,-0.835703 -0.14344,-0.163355 -0.35989,-0.508296 -0.48101,-0.766538 -0.18323,-0.390643 -0.22023,-0.590736 -0.22023,-1.190972 0,-0.643771 0.0298,-0.782006 0.2769,-1.283927 0.31849,-0.646921 0.70434,-1.020267 1.36884,-1.324492 1.26004,-0.576859 2.80996,0.01731 3.45116,1.323044 0.20919,0.425983 0.23709,0.577503 0.23704,1.287153 -5e-5,0.639124 -0.0367,0.883472 -0.17828,1.189635 -0.53389,1.154277 -1.72265,1.804416 -2.92883,1.6018 z m 1.12858,-0.634882 c 0.78577,-0.267741 1.34191,-1.060001 1.41,-2.008665 0.0498,-0.694022 -0.11857,-1.203046 -0.55944,-1.691022 -0.45027,-0.498391 -0.88445,-0.694267 -1.53897,-0.694267 -0.93271,0 -1.7183,0.588027 -1.98489,1.485722 -0.28202,0.949664 -0.0864,1.76033 0.582,2.412153 0.61681,0.601506 1.3037,0.764447 2.0913,0.496079 z m 5.18835,0.655549 c -0.0882,-0.05778 -2.36326,-5.088822 -2.42026,-5.352102 -0.0356,-0.164244 0.37592,-0.219989 0.50034,-0.06778 0.0495,0.06056 0.51547,1.08099 1.03547,2.267619 0.52001,1.186629 0.95536,2.16739 0.96745,2.179472 0.0121,0.01208 0.45378,-0.95879 0.98155,-2.157501 0.52777,-1.198711 0.9963,-2.227097 1.04117,-2.285306 0.0449,-0.05821 0.19379,-0.105833 0.33092,-0.105833 0.20761,0 0.24069,0.0273 0.1976,0.163034 -0.11498,0.362272 -2.34456,5.220623 -2.43963,5.316068 -0.0563,0.05652 -0.14388,0.07557 -0.19461,0.04233 z m 5.54126,-0.02422 c -0.85104,-0.134002 -1.46805,-0.600812 -1.86803,-1.413282 -0.25694,-0.521927 -0.27899,-0.631071 -0.27899,-1.381353 0,-0.76393 0.0185,-0.850824 0.29633,-1.395595 0.49073,-0.962041 1.29608,-1.437504 2.413,-1.424584 1.36624,0.01581 2.38225,1.097043 2.31161,2.459973 l -0.0256,0.493962 -2.22607,0.02258 -2.22607,0.02258 0.0561,0.316086 c 0.087,0.489686 0.46742,1.125093 0.8319,1.389303 0.68963,0.499906 1.64988,0.53147 2.51977,0.08284 l 0.49328,-0.254406 0.12496,0.178409 c 0.15256,0.217797 0.0692,0.342663 -0.38234,0.573041 -0.56676,0.289145 -1.42215,0.427711 -2.03986,0.330446 z m 2.27762,-3.502567 c -0.12915,-1.145811 -1.24696,-1.817971 -2.46213,-1.48054 -0.60442,0.167843 -1.22383,0.890473 -1.3555,1.581395 l -0.0524,0.275167 h 1.95623 1.95622 z m -33.974616,3.323861 c -0.02348,-0.06133 -0.03278,-2.187956 -0.02069,-4.725839 l 0.022,-4.614333 h 0.254 0.254 l 0.02222,3.069166 c 0.01222,1.688042 0.03902,3.069167 0.05956,3.069167 0.02053,0 0.696333,-0.477783 1.501778,-1.061746 1.256666,-0.911098 1.503736,-1.058257 1.741379,-1.037166 0.152315,0.01352 0.282338,0.06159 0.288939,0.106832 0.0066,0.04525 -0.6409,0.559596 -1.438893,1.143 -0.797993,0.583413 -1.45189,1.083064 -1.453105,1.110336 -0.0012,0.02728 0.741835,0.686367 1.651222,1.464648 0.909386,0.77829 1.631038,1.451297 1.603669,1.495578 -0.02737,0.04429 -0.191181,0.08052 -0.364028,0.08052 -0.284369,0 -0.467136,-0.131911 -1.921169,-1.386544 l -1.606903,-1.386544 -0.04233,1.365377 -0.04233,1.365377 -0.233315,0.02684 c -0.136213,0.01566 -0.251078,-0.01958 -0.275997,-0.08467 z m 5.588375,-0.09034 c -0.02557,-0.104775 -0.03582,-1.31445 -0.02278,-2.688167 l 0.02372,-2.497667 0.230962,-0.02661 c 0.209495,-0.02414 0.235889,0.0042 0.283965,0.304851 l 0.053,0.331461 0.191499,-0.191491 c 0.105324,-0.105325 0.35854,-0.277952 0.562701,-0.383616 0.475048,-0.245855 1.375195,-0.272152 1.714127,-0.05007 0.254762,0.166921 0.267874,0.218635 0.110131,0.434366 -0.102573,0.140275 -0.154154,0.14511 -0.545741,0.05117 -0.607751,-0.145796 -1.252965,0.04492 -1.714981,0.506942 l -0.335333,0.335331 v 2.032 2.032 h -0.252387 c -0.191513,0 -0.263601,-0.04595 -0.298883,-0.1905 z m 9.905621,0.09034 c -0.0235,-0.06133 -0.0328,-2.187956 -0.0207,-4.725839 l 0.022,-4.614333 h 0.254 0.254 v 4.698999 4.699 l -0.23332,0.02684 c -0.13621,0.01566 -0.25108,-0.01958 -0.276,-0.08467 z m -4.862259,-7.595616 c -0.06129,-0.11452 -0.05608,-0.183464 0.01819,-0.240876 0.223577,-0.17283 2.252219,-1.207347 2.367559,-1.207347 0.1754,0 0.34018,0.38663 0.20825,0.488611 -0.13281,0.102659 -2.347472,1.120056 -2.438123,1.120056 -0.0385,0 -0.108647,-0.0722 -0.155873,-0.160444 z m 20.287019,0.103996 c -0.20436,-0.204351 -0.005,-0.380466 1.07944,-0.95272 0.62474,-0.329726 1.19013,-0.599499 1.25641,-0.599499 0.17405,0 0.33766,0.387198 0.20646,0.488611 -0.12286,0.09496 -2.34408,1.120056 -2.42699,1.120056 -0.0324,0 -0.0843,-0.0254 -0.11532,-0.05645 z m -6.25984,-4.947589 c -0.85897,-0.132698 -1.57598,-0.684556 -1.95531,-1.504933 -0.1485,-0.321158 -0.18096,-0.550842 -0.18096,-1.280363 0,-1.017135 0.13495,-1.420495 0.67537,-2.018674 0.73734,-0.816153 2.03409,-1.064675 3.02491,-0.579721 0.51676,0.252933 0.8185,0.555168 1.09466,1.096501 0.18949,0.371441 0.29603,1.108634 0.20985,1.452033 l -0.055,0.219194 h -2.19972 c -2.48492,0 -2.32315,-0.05376 -2.07036,0.688162 0.41433,1.215966 1.70537,1.74277 2.96097,1.20821 0.72238,-0.307543 0.81218,-0.326974 0.89637,-0.194013 0.12921,0.204046 0.0857,0.310709 -0.19787,0.484522 -0.58765,0.360265 -1.49911,0.537802 -2.20289,0.429082 z m 2.30873,-3.304642 c 0,-0.338345 -0.19272,-0.82511 -0.45049,-1.137827 -0.53434,-0.648241 -1.50606,-0.818625 -2.32925,-0.408406 -0.4964,0.247362 -0.79613,0.590635 -0.98627,1.129538 -0.22461,0.636625 -0.34411,0.597374 1.81867,0.597374 1.93165,0 1.94734,-0.0014 1.94734,-0.180679 z m 4.03441,3.304701 c -1.55179,-0.243383 -2.5354,-1.61207 -2.32498,-3.235198 0.23366,-1.802291 2.26298,-2.913058 3.92066,-2.145995 0.53157,0.245982 0.88924,0.52451 0.88924,0.692472 0,0.05452 -0.0684,0.161027 -0.15202,0.236694 -0.14169,0.128228 -0.1797,0.117898 -0.55946,-0.152104 -1.21769,-0.865742 -2.86786,-0.377249 -3.39584,1.005264 -0.21296,0.557607 -0.14169,1.431731 0.15848,1.943947 0.74843,1.277095 2.49264,1.512121 3.49071,0.470366 0.18927,-0.197553 0.24994,-0.218957 0.3838,-0.135365 0.23085,0.14417 0.19606,0.329615 -0.11617,0.61937 -0.65344,0.606408 -1.41402,0.838632 -2.29442,0.700549 z M 98.602156,79.263553 c -0.53709,-0.265853 -0.806558,-0.719514 -0.84642,-1.424982 -0.02571,-0.454922 0.0036,-0.636947 0.148366,-0.920657 0.215297,-0.422021 0.701434,-0.794876 1.228926,-0.942568 0.378359,-0.105927 1.496702,-0.0801 2.017992,0.04663 l 0.23477,0.05706 -0.0545,-0.49707 c -0.0661,-0.602403 -0.17573,-0.853423 -0.46683,-1.068755 -0.30421,-0.225036 -1.243462,-0.215045 -1.912627,0.02035 -0.460247,0.161908 -0.497513,0.163678 -0.596737,0.02833 -0.05821,-0.0794 -0.105834,-0.170518 -0.105834,-0.20248 0,-0.237371 1.034487,-0.529073 1.904998,-0.537168 0.83935,-0.0078 1.25773,0.178283 1.51854,0.675446 0.16384,0.312318 0.1748,0.473862 0.1748,2.576872 v 2.243666 h -0.21167 c -0.17692,0 -0.21602,-0.04518 -0.2382,-0.275166 -0.0146,-0.151342 -0.0457,-0.275167 -0.0692,-0.275167 -0.0234,0 -0.16652,0.0945 -0.31795,0.210007 -0.64297,0.490415 -1.73348,0.61976 -2.408454,0.285657 z m 1.975424,-0.558935 c 0.18626,-0.09533 0.44493,-0.272043 0.57481,-0.392718 0.22812,-0.211946 0.23531,-0.24445 0.21166,-0.957699 l -0.0245,-0.738301 -0.381,-0.116146 c -0.64924,-0.197925 -1.425438,-0.169189 -1.904159,0.0705 -0.568161,0.284463 -0.756798,0.565785 -0.756798,1.128632 0,0.516585 0.160394,0.820022 0.570053,1.078416 0.349137,0.220218 1.208954,0.183668 1.709904,-0.07269 z m 4.39106,0.577833 c -0.52041,-0.236313 -0.98448,-0.698018 -1.25722,-1.250806 -0.31469,-0.637828 -0.3906,-1.642821 -0.17565,-2.325463 0.50093,-1.590853 2.14305,-2.318664 3.6772,-1.629808 0.2501,0.112302 0.46854,0.204182 0.48541,0.204182 0.0169,0 0.0408,-0.981075 0.0533,-2.180166 l 0.0226,-2.180167 h 0.254 0.254 v 4.699 4.698999 H 108.076 c -0.16107,0 -0.2217,-0.05948 -0.2766,-0.271339 l -0.0703,-0.27134 -0.35842,0.237727 c -0.19712,0.130742 -0.48791,0.281415 -0.6462,0.334831 -0.44909,0.151545 -1.35181,0.117797 -1.7558,-0.06565 z m 1.70192,-0.484302 c 0.23035,-0.07849 0.55127,-0.282177 0.73666,-0.467572 l 0.32849,-0.328489 -0.0231,-1.54327 -0.0231,-1.543262 -0.44327,-0.224722 c -0.95075,-0.481991 -1.93023,-0.369579 -2.59799,0.298187 -1.07923,1.079229 -0.75485,3.177396 0.58592,3.789799 0.4225,0.192972 0.90754,0.1995 1.43632,0.01933 z m -19.302296,0.462246 c -0.02348,-0.06133 -0.03278,-2.187956 -0.02069,-4.725839 l 0.022,-4.614333 h 0.254 0.254 l 0.02251,2.352785 0.02251,2.352776 0.278483,-0.212403 c 0.505004,-0.385191 1.072703,-0.586173 1.66616,-0.589881 0.991638,-0.0062 1.593757,0.349047 1.957547,1.154938 0.192708,0.426898 0.200941,0.524815 0.201192,2.392451 l 2.54e-4,1.947333 h -0.254 -0.254 l -0.0436,-1.862666 c -0.03427,-1.464335 -0.07278,-1.92604 -0.180073,-2.159 -0.49558,-1.076079 -1.884115,-1.210056 -3.006779,-0.290119 l -0.364839,0.298958 -0.02269,2.006414 -0.02269,2.006413 -0.233316,0.02684 c -0.136213,0.01566 -0.251078,-0.01958 -0.275997,-0.08467 z m 6.562979,-2.609435 v -2.720314 l 0.232833,0.02679 c 0.194009,0.02232 0.237257,0.07267 0.259364,0.301955 0.01459,0.151342 0.04766,0.275167 0.07349,0.275167 0.02583,0 0.175983,-0.113284 0.33368,-0.251748 0.532376,-0.467428 1.387036,-0.601548 2.085133,-0.327211 0.258293,0.101507 0.288869,0.215959 0.119555,0.447514 -0.102573,0.140276 -0.154154,0.14511 -0.545741,0.05117 -0.599725,-0.143874 -1.211407,0.03466 -1.646967,0.48072 l -0.315524,0.32313 -0.02274,2.030044 -0.02274,2.030044 -0.275167,0.02653 -0.275166,0.02653 z m 9.947607,-9.465606 c -1.02201,-0.480441 -1.3451,-1.813407 -0.65813,-2.715193 0.46172,-0.606103 1.60783,-0.890744 2.68019,-0.665632 l 0.582,0.122176 -0.0404,-0.564384 c -0.0482,-0.673816 -0.21993,-0.973843 -0.63597,-1.111145 -0.3883,-0.128153 -1.21896,-0.05251 -1.78491,0.162532 -0.35915,0.136464 -0.44899,0.145109 -0.52732,0.05074 -0.34169,-0.411711 0.40848,-0.743825 1.69758,-0.751556 1.04345,-0.0063 1.35361,0.120617 1.64274,0.672001 0.16485,0.314361 0.17956,0.498178 0.20499,2.561167 l 0.0274,2.222499 h -0.26023 c -0.2327,0 -0.26023,-0.02687 -0.26023,-0.254 0,-0.1397 -0.0177,-0.254 -0.0394,-0.254 -0.0217,0 -0.2917,0.138676 -0.60005,0.30817 -0.7063,0.388222 -1.48605,0.471509 -2.02825,0.216628 z m 1.44653,-0.479662 c 0.23001,-0.0683 0.57983,-0.243044 0.77736,-0.388323 l 0.35917,-0.264127 v -0.794645 -0.794643 l -0.47655,-0.138536 c -0.60598,-0.176165 -1.39966,-0.132654 -1.8535,0.101612 -0.94387,0.487201 -0.96881,1.745923 -0.0438,2.21236 0.4424,0.223088 0.66859,0.235212 1.23736,0.0663 z m 19.45268,0.480653 c -1.12925,-0.403606 -1.80615,-1.425584 -1.80615,-2.726904 0,-0.782885 0.23526,-1.394835 0.74495,-1.937724 1.31262,-1.398089 3.56765,-1.002567 4.3848,0.769066 0.50613,1.097346 0.24313,2.498816 -0.61785,3.292439 -0.73954,0.681677 -1.81514,0.921436 -2.70575,0.603123 z m 1.70751,-0.599525 c 0.79428,-0.362788 1.2603,-1.133853 1.2603,-2.085263 0,-1.295316 -0.87191,-2.237111 -2.07546,-2.241808 -0.57428,-0.0022 -0.98357,0.15658 -1.42026,0.551106 -1.13692,1.027127 -0.83411,3.134988 0.54209,3.77351 0.4456,0.206756 1.24352,0.207907 1.69333,0.0025 z m 14.05467,0.671627 c -0.75026,-0.183464 -1.34226,-0.698644 -1.70858,-1.486891 -0.20323,-0.437278 -0.23609,-0.614081 -0.23609,-1.269999 0,-0.655919 0.0329,-0.832722 0.23609,-1.27 0.28769,-0.619053 0.64134,-1.001384 1.20058,-1.297947 0.36702,-0.194634 0.52469,-0.224598 1.18533,-0.225274 0.68618,-6.77e-4 0.80685,0.02406 1.21273,0.248899 0.2479,0.137324 0.5642,0.392951 0.70289,0.56806 0.32921,0.415656 0.59979,1.22512 0.56612,1.693581 l -0.0264,0.367347 -2.24367,0.04233 -2.24367,0.04233 0.0284,0.296333 c 0.0425,0.443281 0.43381,1.102225 0.83579,1.407363 0.67699,0.513893 1.5801,0.536668 2.549,0.06427 0.43411,-0.211658 0.45402,-0.213834 0.56863,-0.06231 0.16528,0.218499 0.1221,0.297197 -0.28846,0.525721 -0.6825,0.379874 -1.64336,0.526212 -2.3387,0.356184 z m 2.4958,-3.370724 c -0.008,-1.417167 -1.80793,-2.178377 -3.04002,-1.285864 -0.45057,0.326396 -0.84213,1.101889 -0.77749,1.539864 0.005,0.03493 0.86663,0.0635 1.91438,0.0635 h 1.905 z m -55.313686,3.224386 c -0.03104,-0.03104 -0.05644,-1.114992 -0.05644,-2.408771 v -2.352331 l -0.486834,-0.02539 c -0.460867,-0.02404 -0.488262,-0.03781 -0.513623,-0.258225 -0.02999,-0.260629 -0.04614,-0.252286 0.53479,-0.276227 l 0.423333,-0.01744 0.0471,-1.218414 c 0.05144,-1.330732 0.18873,-1.813302 0.655936,-2.305668 0.433472,-0.456813 0.83076,-0.603943 1.633831,-0.605063 0.666432,-9.31e-4 0.777753,0.02421 1.312333,0.296364 0.475334,0.241992 0.58413,0.33489 0.58413,0.498773 0,0.358552 -0.217641,0.393022 -0.67004,0.10612 -0.855151,-0.542321 -1.709415,-0.526611 -2.339941,0.04303 -0.457549,0.413369 -0.588352,0.893669 -0.588352,2.160397 v 1.000633 h 1.814822 c 0.998152,0 1.910449,0.03636 2.027326,0.08079 l 0.212506,0.0808 0.0046,2.522705 c 0.0025,1.387487 -0.02807,2.573379 -0.06801,2.635321 -0.04114,0.0638 -0.178743,0.100499 -0.317437,0.08467 l -0.244809,-0.02795 -0.02249,-2.391833 -0.02249,-2.391833 h -1.692014 -1.692015 v 2.413 2.412999 h -0.239888 c -0.13194,0 -0.26529,-0.0254 -0.296334,-0.05645 z m 6.50173,-0.04939 c -0.02228,-0.05821 -0.03061,-2.163233 -0.01851,-4.677833 l 0.022,-4.572 0.275167,-0.02653 0.275166,-0.02653 v 4.704364 4.704364 H 94.52125 c -0.141162,0 -0.274887,-0.04762 -0.297168,-0.105833 z m 2.501158,-4.593166 v -4.709729 l 0.275167,0.02653 0.275167,0.02653 0.02253,2.307167 c 0.01239,1.268941 0.05535,2.307166 0.09547,2.307166 0.04012,0 0.122835,-0.06012 0.18382,-0.133605 0.217415,-0.261968 0.957552,-0.565772 1.480651,-0.607761 1.084893,-0.08708 1.843523,0.359918 2.206073,1.299862 0.13963,0.362024 0.16013,0.653616 0.16013,2.277838 v 1.862666 l -0.2668,0.02591 -0.26681,0.02591 -0.0295,-1.84868 c -0.0286,-1.788452 -0.0366,-1.862392 -0.24616,-2.269574 -0.14623,-0.284094 -0.3251,-0.48236 -0.55034,-0.610002 -0.63449,-0.359571 -1.662741,-0.189505 -2.404035,0.39761 l -0.339623,0.268987 -0.02269,2.004922 -0.02268,2.004921 -0.275167,0.02654 -0.275167,0.02653 z m 12.191998,2.041058 c 0,-2.284511 0.0178,-2.664788 0.127,-2.706676 0.23556,-0.09039 0.381,0.03787 0.381,0.336009 0,0.158001 0.0171,0.287275 0.038,0.287275 0.0209,0 0.14471,-0.09908 0.27517,-0.22019 0.13046,-0.121104 0.34815,-0.277677 0.48375,-0.34794 0.34062,-0.176481 1.11887,-0.23269 1.56203,-0.112817 0.35406,0.09577 0.36709,0.110716 0.31662,0.363075 -0.0692,0.345945 -0.0813,0.353344 -0.39785,0.242995 -0.44609,-0.155507 -0.93903,-0.112101 -1.41382,0.124496 -0.77768,0.387532 -0.7792,0.392806 -0.7792,2.693951 v 1.997763 h -0.29634 -0.29633 z m 4.23333,0 c 0,-2.284511 0.0178,-2.664788 0.127,-2.706676 0.23556,-0.09039 0.381,0.03787 0.381,0.336009 0,0.322724 0.0778,0.359454 0.28238,0.133368 0.24936,-0.275541 0.92783,-0.556042 1.43447,-0.593051 0.71366,-0.05213 1.2131,0.116448 1.65543,0.558777 l 0.37219,0.37219 0.2656,-0.252211 c 0.59985,-0.569608 1.61388,-0.828966 2.40454,-0.615011 0.43787,0.118485 0.90318,0.510774 1.12756,0.950606 0.24186,0.474078 0.34283,1.448497 0.31448,3.034607 l -0.025,1.397 -0.26484,0.02576 -0.26484,0.02576 -0.0344,-1.848052 c -0.0328,-1.75811 -0.0446,-1.868561 -0.24316,-2.269427 -0.27108,-0.547221 -0.69746,-0.79903 -1.35629,-0.800981 -0.53684,-0.0016 -1.17674,0.270893 -1.53622,0.654161 -0.20988,0.223774 -0.21574,0.25668 -0.14133,0.794207 0.0427,0.308418 0.0672,1.203768 0.0544,1.98967 l -0.0233,1.428902 h -0.29633 -0.29634 l -0.0423,-1.947333 c -0.0404,-1.859173 -0.0513,-1.961827 -0.24137,-2.267466 -0.52689,-0.847487 -1.82153,-0.877271 -2.74867,-0.06323 l -0.31196,0.273909 v 2.023229 2.023229 h -0.29633 -0.29634 z m 16.764,0.0062 c 0,-2.552217 0.007,-2.664247 0.1622,-2.704905 0.21488,-0.05619 0.3458,0.08702 0.3458,0.378266 0,0.130386 0.0194,0.237066 0.0431,0.237066 0.0237,0 0.20137,-0.114676 0.39485,-0.254834 0.90977,-0.65903 2.27288,-0.67285 3.02315,-0.03065 0.60314,0.516271 0.6876,0.900775 0.6876,3.130358 v 1.907187 l -0.27517,-0.02653 -0.27516,-0.02654 -0.0423,-1.905 c -0.0464,-2.087787 -0.0757,-2.218984 -0.59211,-2.653545 -0.61473,-0.51725 -1.78251,-0.370889 -2.61239,0.327414 l -0.2638,0.221963 -0.0227,2.004584 -0.0227,2.004584 -0.27517,0.02654 -0.27517,0.02653 z m 6.51934,-0.01524 c 0,-1.7145 0.0302,-2.67078 0.0847,-2.677584 0.0466,-0.0058 0.14182,-0.01058 0.21167,-0.01058 0.0699,0 0.1651,0.0048 0.21167,0.01058 0.0544,0.0068 0.0847,0.963084 0.0847,2.677584 v 2.666999 h -0.29633 -0.29633 z m -0.0393,-5.542256 c -0.19581,-0.216371 -0.11203,-0.569358 0.16511,-0.695634 0.4405,-0.2007 0.84563,0.385969 0.50309,0.728509 -0.18207,0.182062 -0.48727,0.167045 -0.6682,-0.03287 z M 80.596243,57.483624 c -1.376791,-0.335629 -2.59976,-1.56866 -2.915874,-2.939864 -0.233252,-1.011778 -0.01654,-2.178299 0.574578,-3.092876 0.401702,-0.621511 0.895846,-1.036944 1.668768,-1.402951 0.562992,-0.266599 0.630845,-0.278376 1.603862,-0.278376 0.993767,0 1.030108,0.0067 1.660713,0.307888 1.407114,0.671977 2.278307,2.044042 2.275281,3.583401 -0.0049,2.513276 -2.429059,4.417169 -4.867328,3.822778 z m -8.440207,-8.406903 c 0.06112,-0.02446 0.134144,-0.02145 0.162278,0.0067 0.02813,0.02813 -0.02187,0.04814 -0.111125,0.04447 -0.09863,-0.0041 -0.118694,-0.02412 -0.05115,-0.05115 z m 18.626665,0 c 0.06112,-0.02446 0.134144,-0.02145 0.162278,0.0067 0.02813,0.02813 -0.02187,0.04814 -0.111125,0.04447 -0.09863,-0.0041 -0.118694,-0.02412 -0.05115,-0.05115 z M 71.452244,47.441224 c 0.08429,-0.09313 0.172295,-0.169333 0.195578,-0.169333 0.02328,0 -0.02663,0.0762 -0.110911,0.169333 -0.08429,0.09313 -0.172295,0.169333 -0.195579,0.169333 -0.02328,0 0.02663,-0.0762 0.110912,-0.169333 z m 20.012865,-0.0635 c -0.105314,-0.134286 -0.102319,-0.137281 0.03197,-0.03197 0.08149,0.06391 0.148167,0.130586 0.148167,0.148167 0,0.06968 -0.06953,0.02483 -0.180134,-0.1162 z M 67.007244,45.631257 c 0,-0.01758 0.06668,-0.08426 0.148167,-0.148166 0.134286,-0.105315 0.137281,-0.10232 0.03197,0.03197 -0.110606,0.141034 -0.180134,0.185884 -0.180134,0.1162 z m 20.404666,-0.508 c 0,-0.01758 0.06667,-0.08426 0.148166,-0.148166 0.134287,-0.105315 0.137281,-0.10232 0.03197,0.03197 -0.110606,0.141033 -0.180133,0.185883 -0.180133,0.116199 z M 65.415084,44.858891 c 0.0017,-0.1397 0.0207,-0.1866 0.04217,-0.104222 0.02147,0.08238 0.02005,0.196678 -0.0031,0.254 -0.02319,0.05732 -0.04076,-0.01008 -0.03903,-0.149778 z m 32.173331,0 c 0.0017,-0.1397 0.0207,-0.1866 0.04217,-0.104222 0.02147,0.08238 0.02005,0.196678 -0.0031,0.254 -0.02319,0.05732 -0.04076,-0.01008 -0.03903,-0.149778 z m -30.23582,-0.176389 c 0.0041,-0.09863 0.02413,-0.118694 0.05115,-0.05115 0.02446,0.06112 0.02145,0.134144 -0.0067,0.162278 -0.02813,0.02813 -0.04814,-0.02187 -0.04447,-0.111125 z m 18.467154,-0.331611 c 0.0017,-0.1397 0.0207,-0.1866 0.04217,-0.104222 0.02147,0.08238 0.02005,0.196678 -0.0031,0.254 -0.02319,0.05732 -0.04076,-0.01008 -0.03903,-0.149778 z m -13.647838,0.09503 c 0,-0.01758 0.06668,-0.08426 0.148166,-0.148167 0.134287,-0.105314 0.137281,-0.102319 0.03197,0.03197 -0.110606,0.141034 -0.180133,0.185884 -0.180133,0.1162 z m -5.0908,-0.285533 c -0.105314,-0.134287 -0.10232,-0.137281 0.03197,-0.03197 0.08149,0.06391 0.148166,0.130586 0.148166,0.148167 0,0.06968 -0.06953,0.02483 -0.180133,-0.1162 z m 28.839798,-0.02117 c 0.08429,-0.09313 0.172295,-0.169333 0.195578,-0.169333 0.02328,0 -0.02663,0.0762 -0.110911,0.169333 -0.08429,0.09313 -0.172295,0.169334 -0.195579,0.169334 -0.02328,0 0.02663,-0.0762 0.110912,-0.169334 z m -14.497554,-0.228 c 0.08238,-0.02147 0.196678,-0.02005 0.254,0.0031 0.05732,0.02319 -0.01008,0.04076 -0.149778,0.03903 -0.1397,-0.0017 -0.1866,-0.0207 -0.104222,-0.04217 z m 11.000393,-0.23766 c 0.0017,-0.1397 0.0207,-0.186601 0.04217,-0.104223 0.02147,0.08238 0.02005,0.196679 -0.0031,0.254 -0.02319,0.05732 -0.04076,-0.01008 -0.03903,-0.149777 z m -11.666215,-0.0635 -0.16129,-0.1905 0.1905,0.161289 c 0.179023,0.151572 0.229044,0.219711 0.16129,0.219711 -0.01607,0 -0.101792,-0.08573 -0.1905,-0.1905 z m 6.728243,0.04233 c -0.105314,-0.134286 -0.102319,-0.137281 0.03197,-0.03197 0.08149,0.06391 0.148167,0.130586 0.148167,0.148167 0,0.06968 -0.06953,0.02483 -0.180134,-0.1162 z m 3.270467,-0.6985 c 0.08429,-0.09313 0.172295,-0.169333 0.195578,-0.169333 0.02328,0 -0.02663,0.0762 -0.110912,0.169333 -0.08428,0.09313 -0.172294,0.169333 -0.195578,0.169333 -0.02328,0 0.02663,-0.0762 0.110912,-0.169333 z m 1.3862,0.02117 c -0.105315,-0.134287 -0.10232,-0.137281 0.03197,-0.03197 0.08149,0.06391 0.148167,0.130585 0.148167,0.148167 0,0.06968 -0.06953,0.02483 -0.180133,-0.1162 z m -11.376866,-0.6985 c 0.08429,-0.09313 0.172295,-0.169334 0.195578,-0.169334 0.02328,0 -0.02663,0.0762 -0.110912,0.169334 -0.08428,0.09313 -0.172295,0.169333 -0.195578,0.169333 -0.02328,0 0.02663,-0.0762 0.110912,-0.169333 z m -20.801541,-0.22717 c 0.06112,-0.02446 0.134145,-0.02145 0.162279,0.0067 0.02813,0.02813 -0.02187,0.04814 -0.111125,0.04447 -0.09863,-0.0041 -0.118695,-0.02412 -0.05115,-0.05115 z m 42.836044,0.0018 c 0.0582,-0.02349 0.15345,-0.02349 0.21166,0 0.0582,0.02349 0.0106,0.0427 -0.10583,0.0427 -0.11642,0 -0.16404,-0.01922 -0.10583,-0.0427 z m -21.376725,-0.08727 c 0.08238,-0.02147 0.196678,-0.02005 0.254,0.0031 0.05732,0.02319 -0.01008,0.04076 -0.149778,0.03903 -0.1397,-0.0017 -0.1866,-0.0207 -0.104222,-0.04217 z M 101.90955,41.09126 c 0,-0.162983 0.0174,-0.229658 0.0387,-0.148166 0.0213,0.08149 0.0213,0.214841 0,0.296333 -0.0213,0.08149 -0.0387,0.01482 -0.0387,-0.148167 z m 1.94733,0 c 0,-0.162983 0.0174,-0.229658 0.0387,-0.148166 0.0213,0.08149 0.0213,0.214841 0,0.296333 -0.0213,0.08149 -0.0387,0.01482 -0.0387,-0.148167 z m -26.61577,-0.0635 c -0.105314,-0.134286 -0.102319,-0.137281 0.03197,-0.03197 0.08149,0.06391 0.148167,0.130585 0.148167,0.148166 0,0.06968 -0.06953,0.02483 -0.180134,-0.1162 z m 7.072422,-0.04233 -0.161289,-0.1905 0.1905,0.161289 c 0.179023,0.151572 0.229044,0.219711 0.161289,0.219711 -0.01607,0 -0.101791,-0.08572 -0.1905,-0.1905 z m -23.667087,-0.635 c -0.105315,-0.134286 -0.10232,-0.137281 0.03197,-0.03197 0.141034,0.110606 0.185884,0.180134 0.1162,0.180134 -0.01758,0 -0.08426,-0.06668 -0.148166,-0.148167 z m 23.395304,-0.0635 c 0.0017,-0.1397 0.0207,-0.1866 0.04217,-0.104222 0.02147,0.08238 0.02005,0.196678 -0.0031,0.254 -0.02319,0.05732 -0.04076,-0.01008 -0.03903,-0.149778 z M 66.774411,39.932194 c 0.08149,-0.0213 0.214842,-0.0213 0.296333,0 0.08149,0.0213 0.01482,0.03872 -0.148166,0.03872 -0.162984,0 -0.229659,-0.01742 -0.148167,-0.03872 z m 6.096,0 c 0.08149,-0.0213 0.214841,-0.0213 0.296333,0 0.08149,0.0213 0.01482,0.03872 -0.148167,0.03872 -0.162983,0 -0.229658,-0.01742 -0.148166,-0.03872 z m 17.01961,-3.38e-4 c 0.08238,-0.02147 0.196678,-0.02006 0.254,0.0031 0.05732,0.02319 -0.01008,0.04076 -0.149778,0.03903 -0.1397,-0.0017 -0.1866,-0.0207 -0.104222,-0.04217 z m 6.095999,0 c 0.08238,-0.02147 0.196678,-0.02006 0.254,0.0031 0.05732,0.02319 -0.01008,0.04076 -0.149778,0.03903 -0.1397,-0.0017 -0.1866,-0.0207 -0.104222,-0.04217 z m -6.761821,-0.301132 -0.161289,-0.1905 0.1905,0.16129 c 0.179022,0.151572 0.229043,0.21971 0.161289,0.21971 -0.01607,0 -0.101792,-0.08573 -0.1905,-0.1905 z m 7.543377,0.02117 c 0.08428,-0.09313 0.172295,-0.169333 0.195578,-0.169333 0.02328,0 -0.02663,0.0762 -0.110912,0.169333 -0.08428,0.09313 -0.172295,0.169333 -0.195578,0.169333 -0.02328,0 0.02663,-0.0762 0.110912,-0.169333 z m -18.854207,-0.31184 c 0.06112,-0.02446 0.134144,-0.02145 0.162278,0.0067 0.02813,0.02813 -0.02187,0.04814 -0.111125,0.04447 -0.09863,-0.0041 -0.118694,-0.02412 -0.05115,-0.05115 z M 65.92622,38.974558 c 0,-0.162984 0.01743,-0.229659 0.03872,-0.148167 0.0213,0.08149 0.0213,0.214842 0,0.296333 -0.0213,0.08149 -0.03872,0.01482 -0.03872,-0.148166 z m 1.947334,0 c 0,-0.162984 0.01742,-0.229659 0.03872,-0.148167 0.0213,0.08149 0.0213,0.214842 0,0.296333 -0.0213,0.08149 -0.03872,0.01482 -0.03872,-0.148166 z m 4.148666,0 c 0,-0.162984 0.01742,-0.229659 0.03872,-0.148167 0.02129,0.08149 0.02129,0.214842 0,0.296333 -0.0213,0.08149 -0.03872,0.01482 -0.03872,-0.148166 z m -5.247809,-0.989697 c 0.08149,-0.0213 0.214842,-0.0213 0.296333,0 0.08149,0.0213 0.01482,0.03872 -0.148166,0.03872 -0.162984,0 -0.229659,-0.01742 -0.148167,-0.03872 z m 6.096,0 c 0.08149,-0.0213 0.214841,-0.0213 0.296333,0 0.08149,0.0213 0.01482,0.03872 -0.148167,0.03872 -0.162983,0 -0.229658,-0.01742 -0.148166,-0.03872 z m 17.01961,-3.38e-4 c 0.08238,-0.02147 0.196678,-0.02006 0.254,0.0031 0.05732,0.02319 -0.01008,0.04076 -0.149778,0.03903 -0.1397,-0.0017 -0.1866,-0.0207 -0.104222,-0.04217 z m 6.095999,0 c 0.08238,-0.02147 0.196678,-0.02006 0.254,0.0031 0.05732,0.02319 -0.01008,0.04076 -0.149778,0.03903 -0.1397,-0.0017 -0.1866,-0.0207 -0.104222,-0.04217 z M 51.915412,37.479152 c 0.05821,-0.02349 0.153458,-0.02349 0.211667,0 0.05821,0.02349 0.01058,0.0427 -0.105834,0.0427 -0.116416,0 -0.164041,-0.01922 -0.105833,-0.0427 z M 82.07791,37.249258 c 0,-0.01758 0.06668,-0.08426 0.148167,-0.148167 0.134286,-0.105314 0.137281,-0.10232 0.03197,0.03197 -0.110606,0.141033 -0.180133,0.185884 -0.180133,0.1162 z m 27.9565,-0.772367 c 0.002,-0.1397 0.0207,-0.1866 0.0422,-0.104222 0.0215,0.08238 0.0201,0.196678 -0.003,0.254 -0.0232,0.05732 -0.0407,-0.01008 -0.039,-0.149778 z m -59.02248,-0.0071 c 0.0041,-0.09863 0.02412,-0.118695 0.05115,-0.05115 0.02446,0.06112 0.02145,0.134145 -0.0067,0.162279 -0.02813,0.02813 -0.04814,-0.02187 -0.04447,-0.111125 z m 60.95999,-0.169334 c 0.004,-0.09863 0.0241,-0.118694 0.0512,-0.05115 0.0245,0.06112 0.0215,0.134144 -0.007,0.162278 -0.0281,0.02813 -0.0482,-0.02187 -0.0445,-0.111125 z M 52.687779,35.778391 c -0.105315,-0.134286 -0.10232,-0.137281 0.03197,-0.03197 0.08149,0.06391 0.148167,0.130585 0.148167,0.148166 0,0.06968 -0.06953,0.02483 -0.180133,-0.1162 z m 57.626461,-0.02117 c 0.0843,-0.09313 0.1723,-0.169334 0.19558,-0.169334 0.0233,0 -0.0266,0.0762 -0.11091,0.169334 -0.0843,0.09313 -0.1723,0.169333 -0.19558,0.169333 -0.0233,0 0.0266,-0.0762 0.11091,-0.169333 z m 1.34662,-0.02117 -0.16129,-0.1905 0.1905,0.161289 c 0.17902,0.151572 0.22905,0.219711 0.16129,0.219711 -0.0161,0 -0.10179,-0.08572 -0.1905,-0.1905 z M 76.04541,34.431152 c 0.05821,-0.02349 0.153459,-0.02349 0.211667,0 0.05821,0.02349 0.01058,0.04271 -0.105833,0.04271 -0.116417,0 -0.164042,-0.01922 -0.105834,-0.04271 z m 0.740834,-0.282594 c 0.08429,-0.09313 0.172295,-0.169333 0.195578,-0.169333 0.02328,0 -0.02663,0.0762 -0.110912,0.169333 -0.08428,0.09313 -0.172295,0.169333 -0.195578,0.169333 -0.02328,0 0.02663,-0.0762 0.110912,-0.169333 z m 26.034996,-0.4553 c 0,-0.01758 0.0667,-0.08426 0.14817,-0.148167 0.13429,-0.105314 0.13728,-0.102319 0.032,0.03197 -0.11061,0.141034 -0.18014,0.185884 -0.18014,0.1162 z M 77.095945,33.471225 c 0,-0.116417 0.01922,-0.164042 0.0427,-0.105834 0.02349,0.05821 0.02349,0.153459 0,0.211667 -0.02349,0.05821 -0.0427,0.01058 -0.0427,-0.105833 z m 10.667999,0 c 0,-0.116417 0.01922,-0.164042 0.0427,-0.105834 0.02349,0.05821 0.02349,0.153459 0,0.211667 -0.02349,0.05821 -0.0427,0.01058 -0.0427,-0.105833 z M 61.774417,32.920891 c 0.0017,-0.1397 0.0207,-0.1866 0.04217,-0.104222 0.02147,0.08238 0.02005,0.196678 -0.0031,0.254 -0.02319,0.05732 -0.04076,-0.01008 -0.03903,-0.149778 z m 39.454663,0 c 0.002,-0.1397 0.0207,-0.1866 0.0422,-0.104222 0.0215,0.08238 0.0201,0.196678 -0.003,0.254 -0.0232,0.05732 -0.0408,-0.01008 -0.039,-0.149778 z M 86.71341,32.483818 c 0.05821,-0.02349 0.153458,-0.02349 0.211666,0 0.05821,0.02349 0.01058,0.0427 -0.105833,0.0427 -0.116417,0 -0.164042,-0.01922 -0.105833,-0.0427 z M 59.979911,32.338591 c 0,-0.01758 0.06667,-0.08426 0.148167,-0.148166 0.134287,-0.105315 0.137281,-0.10232 0.03197,0.03197 -0.110606,0.141034 -0.180134,0.185884 -0.180134,0.1162 z m 60.621329,-0.338666 c 0,-0.01758 0.0667,-0.08426 0.14817,-0.148167 0.13429,-0.105314 0.13728,-0.10232 0.032,0.03197 -0.11061,0.141033 -0.18014,0.185884 -0.18014,0.1162 z m -76.609959,-0.8147 c 0,-0.116417 0.01922,-0.164042 0.0427,-0.105833 0.02349,0.05821 0.02349,0.153458 0,0.211666 -0.02349,0.05821 -0.0427,0.01058 -0.0427,-0.105833 z m 24.24363,-0.08467 c 0.08429,-0.09313 0.172295,-0.169333 0.195578,-0.169333 0.02328,0 -0.02663,0.0762 -0.110911,0.169333 -0.08429,0.09313 -0.172295,0.169334 -0.195579,0.169334 -0.02328,0 0.02663,-0.0762 0.110912,-0.169334 z m 24.934332,0.0527 c 0,-0.01758 0.06668,-0.08426 0.148166,-0.148167 0.134287,-0.105314 0.137281,-0.102319 0.03197,0.03197 -0.110606,0.141034 -0.180133,0.185884 -0.180133,0.1162 z m -49.495708,-0.666533 -0.161289,-0.1905 0.1905,0.161289 c 0.179022,0.151572 0.229044,0.219711 0.161289,0.219711 -0.01607,0 -0.101791,-0.08573 -0.1905,-0.1905 z m -0.727497,-0.29067 c 0.06112,-0.02446 0.134144,-0.02145 0.162278,0.0067 0.02813,0.02813 -0.02187,0.04814 -0.111125,0.04447 -0.09863,-0.0041 -0.118695,-0.02413 -0.05115,-0.05115 z m 77.046662,0 c 0.0611,-0.02446 0.13415,-0.02145 0.16228,0.0067 0.0281,0.02813 -0.0219,0.04814 -0.11113,0.04447 -0.0986,-0.0041 -0.11869,-0.02413 -0.0512,-0.05115 z m -37.840923,-2.54566 c -0.105315,-0.134287 -0.10232,-0.137281 0.03197,-0.03197 0.08149,0.06391 0.148167,0.130586 0.148167,0.148167 0,0.06968 -0.06953,0.02483 -0.180133,-0.1162 z m -8.302408,-1.857004 c 0.06112,-0.02446 0.134144,-0.02145 0.162278,0.0067 0.02813,0.02813 -0.02187,0.04814 -0.111125,0.04447 -0.09863,-0.0041 -0.118694,-0.02412 -0.05115,-0.05115 z m -0.711836,-0.301996 -0.161289,-0.1905 0.1905,0.161289 c 0.179023,0.151572 0.229044,0.219711 0.161289,0.219711 -0.01607,0 -0.101791,-0.08573 -0.1905,-0.1905 z m 15.239999,0 -0.161289,-0.1905 0.1905,0.161289 c 0.104775,0.08871 0.1905,0.174434 0.1905,0.1905 0,0.06775 -0.06814,0.01773 -0.219711,-0.161289 z m 1.362711,0.02117 c 0.08428,-0.09313 0.172295,-0.169333 0.195578,-0.169333 0.02328,0 -0.02663,0.0762 -0.110911,0.169333 -0.08429,0.09313 -0.172295,0.169334 -0.195579,0.169334 -0.02328,0 0.02663,-0.0762 0.110912,-0.169334 z M 72.862612,24.835225 c 0,-0.116416 0.01922,-0.164041 0.0427,-0.105833 0.02349,0.05821 0.02349,0.153458 0,0.211666 -0.02349,0.05821 -0.0427,0.01058 -0.0427,-0.105833 z m 15.243137,-0.04233 c 0.0017,-0.1397 0.0207,-0.1866 0.04217,-0.104222 0.02147,0.08238 0.02005,0.196678 -0.0031,0.254 -0.02319,0.05732 -0.04076,-0.01008 -0.03903,-0.149778 z m 1.947333,0 c 0.0017,-0.1397 0.0207,-0.1866 0.04217,-0.104222 0.02147,0.08238 0.02005,0.196678 -0.0031,0.254 -0.02319,0.05732 -0.04076,-0.01008 -0.03903,-0.149778 z m -8.583714,-5.603503 c 0.06112,-0.02446 0.134145,-0.02145 0.162278,0.0067 0.02813,0.02813 -0.02187,0.04814 -0.111125,0.04447 -0.09863,-0.0041 -0.118694,-0.02413 -0.05115,-0.05115 z m 0.682409,-1.698997 c -0.105315,-0.134286 -0.10232,-0.137281 0.03197,-0.03197 0.08149,0.06391 0.148167,0.130586 0.148167,0.148167 0,0.06968 -0.06953,0.02483 -0.180133,-0.1162 z m -11.938,-3.132666 c -0.105314,-0.134287 -0.102319,-0.137281 0.03197,-0.03197 0.141034,0.110606 0.185884,0.180133 0.1162,0.180133 -0.01758,0 -0.08426,-0.06668 -0.148167,-0.148166 z m 20.997332,0 c -0.105314,-0.134287 -0.102319,-0.137281 0.03197,-0.03197 0.141034,0.110606 0.185884,0.180133 0.1162,0.180133 -0.01758,0 -0.08426,-0.06668 -0.148167,-0.148166 z m 13.202921,-0.16367 c 0.0611,-0.02446 0.13415,-0.02145 0.16228,0.0067 0.0281,0.02813 -0.0219,0.04815 -0.11112,0.04447 -0.0986,-0.0041 -0.1187,-0.02412 -0.0512,-0.05115 z m -0.5425,-0.301997 -0.16129,-0.1905 0.1905,0.161289 c 0.17902,0.151572 0.22904,0.219711 0.16129,0.219711 -0.0161,0 -0.10179,-0.08573 -0.1905,-0.1905 z m -46.357752,-0.04233 c -0.105314,-0.134287 -0.102319,-0.137281 0.03197,-0.03197 0.141033,0.110606 0.185884,0.180133 0.1162,0.180133 -0.01758,0 -0.08426,-0.06668 -0.148167,-0.148166 z m 14.420638,-0.148167 c 0.0017,-0.1397 0.0207,-0.1866 0.04217,-0.104222 0.02147,0.08238 0.02005,0.196678 -0.0031,0.254 -0.02319,0.05732 -0.04076,-0.01008 -0.03903,-0.149778 z m 19.049999,0 c 0.0017,-0.1397 0.0207,-0.1866 0.04217,-0.104222 0.02147,0.08238 0.02005,0.196678 -0.0031,0.254 -0.02319,0.05732 -0.04076,-0.01008 -0.03903,-0.149778 z m 1.947333,0 c 0.0017,-0.1397 0.0207,-0.1866 0.04217,-0.104222 0.02147,0.08238 0.02005,0.196678 -0.0031,0.254 -0.02319,0.05732 -0.04076,-0.01008 -0.03903,-0.149778 z M 57.277263,13.355837 c 0.0041,-0.09863 0.02413,-0.118694 0.05115,-0.05115 0.02446,0.06112 0.02145,0.134144 -0.0067,0.162278 -0.02813,0.02813 -0.04814,-0.02187 -0.04447,-0.111125 z m 1.957154,-0.162278 c 0.0017,-0.1397 0.0207,-0.1866 0.04217,-0.104222 0.02147,0.08238 0.02005,0.196678 -0.0031,0.254 -0.02319,0.05732 -0.04076,-0.01008 -0.03903,-0.149778 z m 10.905494,-0.0743 c 0,-0.01758 0.06668,-0.08426 0.148166,-0.148167 0.134287,-0.105314 0.137282,-0.102319 0.03197,0.03197 -0.110606,0.141034 -0.180133,0.185884 -0.180133,0.1162 z m 20.997332,0 c 0,-0.01758 0.06668,-0.08426 0.148166,-0.148167 0.134287,-0.105314 0.137281,-0.102319 0.03197,0.03197 -0.110606,0.141034 -0.180133,0.185884 -0.180133,0.1162 z m -33.697331,-0.508 c 0,-0.01758 0.06668,-0.08426 0.148166,-0.148167 0.134287,-0.105314 0.137281,-0.102319 0.03197,0.03197 -0.110606,0.141034 -0.180133,0.185884 -0.180133,0.1162 z m 46.397328,0 c 0,-0.01758 0.0667,-0.08426 0.14817,-0.148167 0.13429,-0.105314 0.13728,-0.102319 0.032,0.03197 -0.11061,0.141034 -0.18014,0.185884 -0.18014,0.1162 z m 0.70011,-0.365373 c 0.0824,-0.02147 0.19668,-0.02006 0.254,0.0031 0.0573,0.02319 -0.0101,0.04076 -0.14977,0.03903 -0.1397,-0.0017 -0.1866,-0.0207 -0.10423,-0.04217 z M 82.07791,6.599926 c 0,-0.017581 0.06668,-0.084256 0.148167,-0.1481667 0.134286,-0.1053143 0.137281,-0.1023196 0.03197,0.031967 C 82.147437,6.6247596 82.07791,6.66961 82.07791,6.599926 Z m -0.6985,-1.8021062 c 0.05821,-0.023487 0.153458,-0.023487 0.211667,0 0.05821,0.023487 0.01058,0.042705 -0.105834,0.042705 -0.116416,0 -0.164041,-0.019218 -0.105833,-0.042705 z"
         id="path306" /><path
         style="fill:#201f1e;stroke-width:0.0846667"
         d="m 71.600081,48.815356 c -0.138088,-0.128994 -0.279086,-0.322807 -0.313329,-0.430695 -0.09805,-0.30894 0.0197,-0.72482 0.272379,-0.962015 0.687882,-0.645719 1.726012,-0.116904 1.600973,0.815524 -0.101296,0.755386 -1.009533,1.09142 -1.560023,0.577186 z m 18.601936,0.0017 c -0.519913,-0.464583 -0.394653,-1.29226 0.241237,-1.59401 0.760728,-0.360989 1.609511,0.454733 1.285955,1.235867 -0.250273,0.604212 -1.043611,0.790259 -1.527192,0.358143 z M 65.933148,45.672201 c -0.341976,-0.214556 -0.449904,-0.41816 -0.449904,-0.848741 0,-0.259239 0.06028,-0.410358 0.247055,-0.6194 0.216619,-0.242438 0.299224,-0.276502 0.670513,-0.276502 0.499273,0 0.811756,0.233535 0.941571,0.703685 0.22223,0.804849 -0.699899,1.485997 -1.409235,1.040958 z m 30.17874,0.01178 c -0.531463,-0.329523 -0.610276,-1.060158 -0.160808,-1.490776 0.630904,-0.604443 1.620829,-0.197877 1.620829,0.665682 0,0.39733 -0.162658,0.668083 -0.508935,0.84715 -0.319118,0.165022 -0.662193,0.157066 -0.951086,-0.02206 z m -20.40408,-0.491964 c -0.253719,-0.137666 -0.487898,-0.520356 -0.487898,-0.797312 0,-0.533933 0.462727,-1.017485 0.973667,-1.017485 0.32569,0 0.699523,0.223454 0.845233,0.505229 0.451629,0.873354 -0.467773,1.777951 -1.331002,1.309568 z m 10.720963,0.04956 c -0.568673,-0.229769 -0.726697,-1.06103 -0.293806,-1.545518 0.216618,-0.242438 0.299223,-0.276502 0.670512,-0.276502 0.332616,0 0.470726,0.04441 0.6438,0.207001 0.790736,0.742858 -0.01666,2.020618 -1.020506,1.615019 z m -15.246215,-0.71424 c -0.550301,-0.247578 -0.709748,-1.036151 -0.301812,-1.492672 0.465455,-0.52089 1.338779,-0.392774 1.601025,0.234869 0.343611,0.822378 -0.484671,1.624261 -1.299213,1.257803 z m 19.801425,-0.05162 c -0.336279,-0.205025 -0.542313,-0.647458 -0.469964,-1.009198 0.07892,-0.39458 0.551268,-0.766632 0.973305,-0.766632 0.27854,0 0.399093,0.0549 0.632054,0.287867 0.239697,0.239697 0.287867,0.349885 0.287867,0.658494 0,0.444594 -0.176245,0.723124 -0.558679,0.882916 -0.378798,0.158272 -0.532952,0.148742 -0.864583,-0.05345 z M 80.841777,43.597358 C 80.605785,43.361366 80.55391,43.24541 80.55391,42.953891 c 0,-0.291519 0.05187,-0.407475 0.287867,-0.643467 0.24531,-0.24531 0.346405,-0.287866 0.683846,-0.287866 0.323162,0 0.440693,0.04471 0.63913,0.243151 0.43496,0.43496 0.43496,0.941404 0,1.376364 -0.198437,0.198438 -0.315968,0.243151 -0.63913,0.243151 -0.337441,0 -0.438536,-0.04256 -0.683846,-0.287866 z M 59.336445,41.734691 c -0.222211,-0.222211 -0.287867,-0.358343 -0.287867,-0.596871 0,-0.432491 0.19452,-0.761076 0.550572,-0.930035 1.056495,-0.501338 1.934154,1.047586 0.937842,1.655136 -0.423227,0.258084 -0.860991,0.211327 -1.200547,-0.12823 z m 43.070785,0.169713 c -0.27822,-0.154204 -0.42609,-0.452005 -0.42966,-0.865261 -0.006,-0.648981 0.60092,-1.085109 1.22335,-0.879689 0.78707,0.259757 0.88655,1.394436 0.15505,1.768528 -0.24661,0.126118 -0.69894,0.114878 -0.94874,-0.02358 z M 77.675287,41.250106 c -0.559014,-0.22291 -0.788535,-0.744947 -0.563901,-1.282572 0.148375,-0.355112 0.50582,-0.569643 0.94912,-0.569643 0.238528,0 0.37466,0.06566 0.596871,0.287867 0.222211,0.222211 0.287867,0.358343 0.287867,0.596871 0,0.434646 -0.215086,0.800976 -0.553238,0.942265 -0.331092,0.138339 -0.424753,0.141634 -0.716719,0.02521 z m 6.72249,-0.277415 c -0.241418,-0.241418 -0.287867,-0.348866 -0.287867,-0.665915 0,-0.470397 0.228006,-0.784266 0.664779,-0.915127 0.622823,-0.186602 1.220979,0.269135 1.220979,0.930269 0,0.561594 -0.405393,0.93864 -1.009208,0.93864 -0.229217,0 -0.369335,-0.06852 -0.588683,-0.287867 z m -18.14602,-1.327312 c -0.21923,-0.219231 -0.260513,-0.325533 -0.260513,-0.670821 0,-0.345289 0.04128,-0.45159 0.260513,-0.670821 0.218801,-0.218801 0.325818,-0.260512 0.66838,-0.260512 0.33323,0 0.455985,0.04495 0.67082,0.245635 0.228926,0.21385 0.262954,0.302582 0.262954,0.685698 0,0.383116 -0.03403,0.471848 -0.262954,0.685697 -0.214835,0.200687 -0.33759,0.245636 -0.67082,0.245636 -0.342562,0 -0.449579,-0.04171 -0.66838,-0.260512 z m 6.26814,0.142359 c -0.263607,-0.146106 -0.42591,-0.447396 -0.429652,-0.79758 -0.0062,-0.583549 0.349786,-0.942217 0.938081,-0.94505 0.477871,-0.0023 0.796858,0.220525 0.911844,0.636968 0.106981,0.387454 -0.01958,0.829324 -0.300927,1.05063 -0.255432,0.200923 -0.807186,0.228049 -1.119346,0.05503 z m 16.788546,-0.169714 c -0.331466,-0.331465 -0.384764,-0.749638 -0.146874,-1.152355 0.290722,-0.492152 1.062811,-0.586332 1.469851,-0.179293 0.434959,0.43496 0.434959,0.941404 0,1.376363 -0.198438,0.198439 -0.315969,0.243152 -0.639131,0.243152 -0.337441,0 -0.438535,-0.04256 -0.683846,-0.287867 z m 6.202589,0.113991 c -0.694478,-0.546275 -0.326235,-1.68879 0.544312,-1.68879 0.632101,0 1.008565,0.363573 1.008565,0.974029 0,0.242962 -0.06434,0.377249 -0.287867,0.60077 -0.241417,0.241418 -0.348866,0.287867 -0.665915,0.287867 -0.253139,0 -0.451084,-0.05745 -0.599095,-0.173876 z M 51.377779,37.162691 c -0.222211,-0.222211 -0.287867,-0.358343 -0.287867,-0.596871 0,-0.431023 0.194245,-0.760946 0.546399,-0.928053 0.834204,-0.395856 1.680545,0.481996 1.256819,1.303613 -0.180874,0.350722 -0.45688,0.506227 -0.901518,0.50793 -0.258736,9.9e-4 -0.385339,-0.05812 -0.613833,-0.286619 z m 29.710777,0.16798 c -0.550302,-0.247578 -0.709748,-1.036151 -0.301813,-1.492672 0.465455,-0.52089 1.338779,-0.392774 1.601025,0.234869 0.343611,0.822378 -0.484671,1.62426 -1.299212,1.257803 z m 29.463924,-0.04523 c -0.34288,-0.209066 -0.44991,-0.412171 -0.44991,-0.853781 0,-0.28822 0.0526,-0.405325 0.28787,-0.640566 0.38131,-0.381308 0.85317,-0.402311 1.2364,-0.05503 0.504,0.456737 0.46902,1.154426 -0.0763,1.521068 -0.35169,0.236467 -0.64313,0.244734 -0.99807,0.02831 z M 86.534979,34.399309 c -0.533615,-0.15801 -0.820312,-0.699488 -0.647539,-1.222993 0.244456,-0.74071 1.33123,-0.875744 1.722143,-0.21398 0.451651,0.764584 -0.236721,1.685081 -1.074604,1.436973 z m -10.891735,-0.1045 c -0.116417,-0.05789 -0.284508,-0.254167 -0.373536,-0.436172 -0.146892,-0.3003 -0.15081,-0.3622 -0.04233,-0.668996 0.146868,-0.415377 0.491052,-0.683616 0.877167,-0.683616 0.591411,0 0.978035,0.399968 0.978035,1.011795 0,0.446447 -0.447825,0.885227 -0.9017,0.88349 -0.179282,-6.77e-4 -0.421217,-0.04861 -0.537633,-0.106501 z M 60.445578,33.818851 c -0.248447,-0.108044 -0.460058,-0.371523 -0.549856,-0.684627 -0.163343,-0.569546 0.331213,-1.186999 0.950741,-1.186999 0.268905,0 0.393003,0.05729 0.623582,0.287866 0.243651,0.243652 0.287866,0.347483 0.287866,0.675998 0,0.520708 -0.317136,0.893438 -0.804333,0.945329 -0.186267,0.01984 -0.414867,0.0029 -0.508,-0.03757 z m 41.301562,-0.08465 c -0.341,-0.213946 -0.4499,-0.418136 -0.4499,-0.843581 0,-0.844477 1.0233,-1.251669 1.6274,-0.647575 0.56026,0.56026 0.21343,1.523388 -0.58366,1.620801 -0.23015,0.02813 -0.40225,-0.0094 -0.59384,-0.129645 z M 68.482164,32.554546 c -0.517696,-0.325533 -0.585954,-1.012087 -0.146252,-1.471037 0.640106,-0.668127 1.73224,-0.120858 1.607956,0.805747 -0.09125,0.680321 -0.872391,1.035854 -1.461704,0.66529 z m 24.976665,-0.005 c -0.519171,-0.31659 -0.588618,-1.044135 -0.140366,-1.470495 0.653024,-0.621127 1.627576,-0.185198 1.628463,0.728432 2.54e-4,0.258052 -0.05966,0.385943 -0.28755,0.613833 -0.339557,0.339556 -0.777321,0.386314 -1.200547,0.12823 z M 42.650803,32.077681 c -0.71312,-0.310192 -0.777501,-1.352765 -0.105011,-1.700523 0.420212,-0.217301 0.819843,-0.159814 1.144254,0.164596 0.239697,0.239697 0.287867,0.349885 0.287867,0.658494 0,0.444594 -0.176245,0.723125 -0.558679,0.882916 -0.344607,0.143986 -0.426144,0.143404 -0.768431,-0.0055 z m 76.951207,-0.01395 c -0.33501,-0.170067 -0.52477,-0.504593 -0.52477,-0.925106 0,-0.460406 0.4465,-0.884737 0.93096,-0.884737 0.90521,0 1.33498,1.021288 0.68987,1.639348 -0.30422,0.29146 -0.72794,0.357373 -1.09606,0.170499 z M 81.104243,29.242518 c -0.280062,-0.114628 -0.477418,-0.395444 -0.524475,-0.746276 -0.124074,-0.925041 0.96807,-1.471335 1.604273,-0.802463 0.285247,0.299895 0.35817,0.613103 0.231857,0.995836 -0.166107,0.503309 -0.790135,0.766357 -1.311655,0.552903 z M 52.84781,26.226689 c -0.621259,-0.337091 -0.647292,-1.278201 -0.04551,-1.645108 0.340099,-0.207358 0.680873,-0.215928 1.003679,-0.02524 0.247543,0.146227 0.501265,0.565949 0.501265,0.82922 0,0.263272 -0.253722,0.682994 -0.501265,0.829221 -0.297497,0.175736 -0.648206,0.180095 -0.95817,0.01191 z m 56.21867,0 c -0.44432,-0.241083 -0.60649,-0.831885 -0.35947,-1.309568 0.33818,-0.653972 1.35228,-0.653972 1.69047,0 0.45163,0.873354 -0.46778,1.77795 -1.331,1.309568 z M 73.221777,25.478692 c -0.227889,-0.22789 -0.2878,-0.355781 -0.28755,-0.613833 7.62e-4,-0.763367 0.675106,-1.225727 1.324913,-0.908391 0.973152,0.475241 0.661086,1.808721 -0.423529,1.809774 -0.258053,2.54e-4 -0.385944,-0.05966 -0.613834,-0.28755 z m 15.239999,0 c -0.24531,-0.245311 -0.287866,-0.346405 -0.287866,-0.683846 0,-0.323163 0.04471,-0.440693 0.243151,-0.639131 0.43496,-0.43496 0.941404,-0.43496 1.376364,0 0.198438,0.198438 0.243151,0.315968 0.243151,0.639131 0,0.337441 -0.04256,0.438535 -0.287866,0.683846 -0.235992,0.235991 -0.351948,0.287866 -0.643467,0.287866 -0.291519,0 -0.407475,-0.05187 -0.643467,-0.287866 z M 63.515809,24.025356 c -0.621259,-0.337091 -0.647292,-1.278201 -0.04551,-1.645108 0.519462,-0.316716 1.166967,-0.137353 1.384614,0.383548 0.153303,0.366908 0.151239,0.499035 -0.01321,0.845591 -0.226569,0.477459 -0.85133,0.673464 -1.325894,0.415969 z m 35.02302,-0.0271 c -0.504779,-0.307813 -0.597384,-1.09505 -0.178132,-1.514303 0.268576,-0.268575 0.790681,-0.336623 1.151436,-0.15007 0.264109,0.136576 0.515107,0.553681 0.515107,0.855995 0,0.2867 -0.274628,0.70451 -0.548502,0.834473 -0.369138,0.175167 -0.621347,0.168165 -0.939909,-0.02609 z M 80.841777,18.874692 c -0.89843,-0.89843 0.414061,-2.20942 1.340912,-1.339378 0.644948,0.605416 0.188829,1.626039 -0.727079,1.626928 -0.258052,2.54e-4 -0.385944,-0.05966 -0.613833,-0.28755 z m -10.2362,-4.275174 c -0.419806,-0.182565 -0.66627,-0.692937 -0.545626,-1.129874 0.128675,-0.466025 0.44248,-0.699418 0.940392,-0.699418 0.371289,0 0.453894,0.03406 0.670513,0.276502 0.524617,0.587149 0.201397,1.50955 -0.557279,1.590358 -0.186266,0.01984 -0.414866,0.0029 -0.508,-0.03757 z m 20.98786,-0.0029 c -0.571001,-0.244546 -0.72662,-1.065449 -0.293806,-1.549851 0.218582,-0.244637 0.297445,-0.276504 0.684278,-0.276504 0.386834,0 0.465697,0.03187 0.684279,0.276502 0.524617,0.587149 0.201397,1.50955 -0.557279,1.590358 -0.186266,0.01984 -0.419129,0.0016 -0.517472,-0.04051 z M 104.37343,14.15273 c -0.39462,-0.105035 -0.70552,-0.515654 -0.70552,-0.931799 0,-0.274502 0.0559,-0.396526 0.28787,-0.628504 0.24531,-0.24531 0.3464,-0.287866 0.68384,-0.287866 0.32316,0 0.4407,0.04471 0.63913,0.243151 0.41258,0.412575 0.43466,0.892988 0.0607,1.320656 -0.23401,0.267637 -0.61146,0.378741 -0.96604,0.284362 z M 57.693652,13.934392 c -0.461793,-0.418481 -0.477817,-1.05114 -0.03711,-1.465165 0.173075,-0.162594 0.311185,-0.207001 0.6438,-0.207001 0.371289,0 0.453894,0.03406 0.670513,0.276502 0.196823,0.220284 0.247055,0.355418 0.247055,0.664634 0,0.328514 -0.04422,0.432346 -0.287867,0.675997 -0.381308,0.381308 -0.853173,0.402311 -1.236393,0.05503 z M 81.259409,6.7423912 c -0.25399,-0.049517 -0.60293,-0.3906926 -0.669059,-0.6541719 -0.270837,-1.0790969 1.159307,-1.7277816 1.745968,-0.7919372 0.206648,0.3296471 0.178983,0.8306697 -0.06073,1.0998673 -0.150871,0.1694265 -0.632713,0.4168343 -0.766456,0.3935468 -0.03642,-0.00634 -0.148795,-0.027629 -0.249721,-0.047305 z"
         id="path304" /></g></g></svg>
