<?xml version="1.0" encoding="utf-8"?>
<!-- Generator: Adobe Illustrator 27.5.0, SVG Export Plug-In . SVG Version: 6.00 Build 0)  -->
<svg version="1.1" id="Vrstva_1" xmlns="http://www.w3.org/2000/svg" xmlns:xlink="http://www.w3.org/1999/xlink" x="0px" y="0px"
	 viewBox="0 0 681.6 300.6" style="enable-background:new 0 0 681.6 300.6;" xml:space="preserve">
<style type="text/css">
	.st0{fill:#FFFFFF;}
	.st1{fill:#F8263E;}
	.st2{fill:#030452;}
</style>
<g>
	<path class="st0" d="M253.8,172.4c-0.6-3.1-2.6-5.8-5.4-7.3l-8.8-4.5v0l-77.1,0v-38.5l-10.6-4.4c-2.7-1.4-5.9-1.5-8.6-0.2
		L41.7,166.7c-3.4,1.5-5.7,4.7-6,8.3c-0.4,3.7,1.3,7.2,4.4,9.3l100.9,67.1c20.4,14.5,31.5,14.5,45.9,0l64.5-70.4
		C253.4,178.7,254.4,175.5,253.8,172.4"/>
	<g>
		<path class="st0" d="M216.7,76.5L205,60.7l-3.6,3.8v12h-9.2V38.3h9.2v16.2l14.8-16.2h10.6l-15.1,16.4l16.1,21.9H216.7z"/>
		<path class="st0" d="M250.3,58.1c-1.4-0.8-2.7-1.1-4.6-1.1c-3.6,0-6.1,2.1-6.1,6.7v12.8h-8.7v-27h8.7v4.9c1-3,3.8-5.6,7.5-5.6
			c1.6,0,3,0.5,3.8,1.1L250.3,58.1z"/>
		<path class="st0" d="M278.3,69.2c0,1.4,0.6,2,1.7,2c0.8,0,1.5-0.1,2.2-0.5v4.7c-1.3,1-3,1.8-5.7,1.8c-3.2,0-5.6-1.7-6.4-4.7
			c-1.5,3.1-4.9,4.7-9.1,4.7c-5.4,0-8.8-2.7-8.8-7.3c0-5.2,3.9-7.4,9.8-8.5l7.5-1.3v-0.5c0-2.5-1.3-4.1-3.9-4.1
			c-2.6,0-3.8,1.6-4.3,3.8l-8.1-0.6c0.9-5.8,5.2-9.8,12.9-9.8c7,0,12.1,3.2,12.1,10.5V69.2z M269.6,64.6l-4.4,0.9
			c-2.7,0.5-4.4,1.2-4.4,3.3c0,1.6,1.2,2.5,3.1,2.5c3.2,0,5.8-2.4,5.8-6.3V64.6z M263.1,46.7l3.3-8.4h8.9l-5.9,8.4H263.1z"/>
		<path class="st0" d="M295.7,38.3v38.3H287V38.3H295.7z"/>
		<path class="st0" d="M315.2,77.2c-8.6,0-14.5-5.8-14.5-14.2c0-8.3,5.9-14.2,14.5-14.2c8.6,0,14.6,5.9,14.6,14.2
			C329.7,71.4,323.8,77.2,315.2,77.2z M315.2,70.6c3.8,0,5.7-3.1,5.7-7.6s-1.9-7.6-5.7-7.6c-3.9,0-5.6,3.1-5.6,7.6
			S311.3,70.6,315.2,70.6z"/>
		<path class="st0" d="M341.4,76.5l-10.3-27h9.2l6.4,17.6h0.2l6.4-17.6h8.6l-10.3,27H341.4z"/>
		<path class="st0" d="M391.8,67.7c-1.4,6.1-6.2,9.6-13.2,9.6c-8.6,0-14.6-5.2-14.6-13.8c0-8.5,6.2-14.6,14.5-14.6
			c8.9,0,13.6,6.1,13.6,13.5V65h-19.4c0.2,3.6,2.9,5.6,6.3,5.6c3,0,4.9-1.2,5.9-3.6L391.8,67.7z M383.5,60.3
			c-0.2-2.7-1.9-5.1-5.2-5.1c-3.5,0-5.2,2.2-5.6,5.1H383.5z M375.2,46.7l3.3-8.4h8.9l-5.9,8.4H375.2z"/>
		<path class="st0" d="M406.5,76.5h-8.7V38.3h8.7v15.5c1.5-3,4.7-4.9,8.8-4.9c7.3,0,9.7,5,9.7,10.8v16.9h-8.7V61.8
			c0-3.9-1.3-6-4.5-6c-3.5,0-5.3,2.8-5.3,7V76.5z"/>
		<path class="st0" d="M451.7,58.1c-1.4-0.8-2.7-1.1-4.6-1.1c-3.6,0-6.1,2.1-6.1,6.7v12.8h-8.7v-27h8.7v4.9c1-3,3.8-5.6,7.5-5.6
			c1.6,0,3,0.5,3.8,1.1L451.7,58.1z"/>
		<path class="st0" d="M479.6,69.2c0,1.4,0.6,2,1.7,2c0.8,0,1.5-0.1,2.2-0.5v4.7c-1.3,1-3,1.8-5.7,1.8c-3.2,0-5.6-1.7-6.4-4.7
			c-1.5,3.1-4.9,4.7-9.1,4.7c-5.4,0-8.8-2.7-8.8-7.3c0-5.2,3.9-7.4,9.8-8.5l7.5-1.3v-0.5c0-2.5-1.3-4.1-3.9-4.1
			c-2.6,0-3.8,1.6-4.3,3.8l-8.1-0.6c0.9-5.8,5.2-9.8,12.9-9.8c7,0,12.1,3.2,12.1,10.5V69.2z M470.9,64.6l-4.4,0.9
			c-2.7,0.5-4.4,1.2-4.4,3.3c0,1.6,1.2,2.5,3.1,2.5c3.2,0,5.8-2.4,5.8-6.3V64.6z"/>
		<path class="st0" d="M506.9,71.7c-1.3,3.2-4.4,5.5-9.1,5.5c-8,0-12-6.3-12-14.2c0-7.9,4.1-14.2,12-14.2c4.6,0,7.8,2.4,9.1,5.6
			V38.3h8.8v38.3h-8.8V71.7z M506.9,62.7c0-4.3-2.5-7-6.1-7c-4.2,0-6.1,3-6.1,7.3c0,4.4,1.9,7.4,6.1,7.4c3.6,0,6.1-2.7,6.1-7.1V62.7
			z"/>
		<path class="st0" d="M548.4,67.7c-1.4,6.1-6.2,9.6-13.2,9.6c-8.6,0-14.6-5.2-14.6-13.8c0-8.5,6.2-14.6,14.5-14.6
			c8.9,0,13.6,6.1,13.6,13.5V65h-19.4c0.2,3.6,2.9,5.6,6.3,5.6c3,0,4.9-1.2,5.9-3.6L548.4,67.7z M540.2,60.3
			c-0.2-2.7-1.9-5.1-5.2-5.1c-3.5,0-5.2,2.2-5.6,5.1H540.2z"/>
		<path class="st0" d="M566.7,48.8c8,0,12.5,5.3,13.2,11.7l-7.3,0.5c-0.6-3.6-2.5-5.6-5.8-5.6c-3.4,0-5.8,2.4-5.8,7.5
			s2.4,7.5,5.8,7.5c3.3,0,5.2-2,5.8-5.6l7.3,0.6c-0.7,6.5-5.2,11.7-13.2,11.7c-8.4,0-14.6-5.6-14.6-14.2
			C552.1,54.5,558.2,48.8,566.7,48.8z"/>
		<path class="st0" d="M593.4,76.5h-8.7V38.3h8.7v21.3l10.2-10H614l-11.4,10.7l11.8,16.3h-9.9l-8.4-11.4l-2.7,2.6V76.5z"/>
		<path class="st0" d="M621.9,86.4l3.9-9.6l-11.1-27.2h9.2l6.5,16.8h0.2l6.6-16.8h8.6l-15.5,36.8H621.9z M627.2,46.7l3.3-8.4h8.9
			l-5.9,8.4H627.2z"/>
		<path class="st0" d="M200.6,131.1h-8.7V92.8h8.7v21.3l10.2-10h10.4l-11.4,10.7l11.8,16.3h-9.9l-8.4-11.4l-2.7,2.6V131.1z"/>
		<path class="st0" d="M244.4,112.7c-1.4-0.8-2.7-1.1-4.6-1.1c-3.6,0-6.1,2.1-6.1,6.7v12.8h-8.7v-27h8.7v4.9c1-3,3.8-5.6,7.5-5.6
			c1.6,0,3,0.5,3.8,1.1L244.4,112.7z"/>
		<path class="st0" d="M271.8,123.7c0,1.4,0.6,2,1.7,2c0.8,0,1.5-0.1,2.2-0.5v4.7c-1.3,1-3,1.8-5.7,1.8c-3.2,0-5.6-1.7-6.4-4.7
			c-1.5,3.1-4.9,4.7-9.1,4.7c-5.4,0-8.8-2.7-8.8-7.3c0-5.2,3.9-7.4,9.8-8.5l7.5-1.3V114c0-2.5-1.3-4.1-3.9-4.1
			c-2.6,0-3.8,1.6-4.3,3.8l-8.1-0.6c0.9-5.8,5.2-9.8,12.9-9.8c7,0,12.1,3.2,12.1,10.5V123.7z M263.2,119.1l-4.4,0.9
			c-2.7,0.5-4.4,1.2-4.4,3.3c0,1.6,1.2,2.5,3.1,2.5c3.2,0,5.8-2.4,5.8-6.3V119.1z"/>
		<path class="st0" d="M290.6,132.6c0,6.3-3.5,9-9.4,9c-2.9,0-5.7-0.7-7.4-1.9l1.5-5.3c1.4,0.9,2.7,1.2,4,1.2c1.7,0,2.6-1,2.6-3.2
			v-28.2h8.7V132.6z M281.8,92.8h8.9v8h-8.9V92.8z"/>
	</g>
</g>
</svg>
